<svg style="width: 100%; height: 100%; transform: translate3d(0px, 0px, 0px);" preserveAspectRatio="xMidYMid meet" height="135" width="135" viewBox="0 0 135 135" xmlns="http://www.w3.org/2000/svg"><defs><clipPath id="__lottie_element_9597"><rect y="0" x="0" height="135" width="135"></rect></clipPath><clipPath id="__lottie_element_9599"><path d="M0,0 L540,0 L540,540 L0,540z"></path></clipPath><clipPath id="__lottie_element_9642"><path d="M0,0 L54,0 L54,54 L0,54z"></path></clipPath><clipPath id="__lottie_element_9652"><path d="M0,0 L54,0 L54,54 L0,54z"></path></clipPath><clipPath id="__lottie_element_9662"><path d="M0,0 L54,0 L54,54 L0,54z"></path></clipPath><clipPath id="__lottie_element_9672"><path d="M0,0 L54,0 L54,54 L0,54z"></path></clipPath></defs><g clip-path="url(#__lottie_element_9597)"><g style="display: block;" opacity="1" transform="matrix(0.25,0,0,0.25,0,0)" clip-path="url(#__lottie_element_9599)"><g style="display: block;" opacity="1" transform="matrix(1,0,0,1,305,335)" clip-path="url(#__lottie_element_9672)"><g style="display: block;" opacity="1" transform="matrix(1,0,0,1,13,27)"><g transform="matrix(4,0,0,4,0,0)" opacity="1"><path d="M0,-6.5 C1.659999966621399,-6.5 3,-5.159999847412109 3,-3.5 C3,-3.5 3,3.5 3,3.5 C3,5.159999847412109 1.659999966621399,6.5 0,6.5 C-1.659999966621399,6.5 -3,5.159999847412109 -3,3.5 C-3,3.5 -3,-3.5 -3,-3.5 C-3,-5.159999847412109 -1.659999966621399,-6.5 0,-6.5z" fill-opacity="1" fill="rgb(24,107,186)"></path></g></g><g style="display: block;" opacity="1" transform="matrix(1,0,0,1,41,27)"><g transform="matrix(4,0,0,4,0,0)" opacity="1"><path d="M0,-6.5 C1.659999966621399,-6.5 3,-5.159999847412109 3,-3.5 C3,-3.5 3,3.5 3,3.5 C3,5.159999847412109 1.659999966621399,6.5 0,6.5 C-1.659999966621399,6.5 -3,5.159999847412109 -3,3.5 C-3,3.5 -3,-3.5 -3,-3.5 C-3,-5.159999847412109 -1.659999966621399,-6.5 0,-6.5z" fill-opacity="1" fill="rgb(24,107,186)"></path></g></g></g><g style="display: block;" opacity="1" transform="matrix(1,0,0,1,181,335)" clip-path="url(#__lottie_element_9662)"><g style="display: block;" opacity="1" transform="matrix(1,0,0,1,13,27)"><g transform="matrix(4,0,0,4,0,0)" opacity="1"><path d="M0,-6.5 C1.659999966621399,-6.5 3,-5.159999847412109 3,-3.5 C3,-3.5 3,3.5 3,3.5 C3,5.159999847412109 1.659999966621399,6.5 0,6.5 C-1.659999966621399,6.5 -3,5.159999847412109 -3,3.5 C-3,3.5 -3,-3.5 -3,-3.5 C-3,-5.159999847412109 -1.659999966621399,-6.5 0,-6.5z" fill-opacity="1" fill="rgb(24,107,186)"></path></g></g><g style="display: block;" opacity="1" transform="matrix(1,0,0,1,41,27)"><g transform="matrix(4,0,0,4,0,0)" opacity="1"><path d="M0,-6.5 C1.659999966621399,-6.5 3,-5.159999847412109 3,-3.5 C3,-3.5 3,3.5 3,3.5 C3,5.159999847412109 1.659999966621399,6.5 0,6.5 C-1.659999966621399,6.5 -3,5.159999847412109 -3,3.5 C-3,3.5 -3,-3.5 -3,-3.5 C-3,-5.159999847412109 -1.659999966621399,-6.5 0,-6.5z" fill-opacity="1" fill="rgb(24,107,186)"></path></g></g></g><g style="display: block;" opacity="0" transform="matrix(1,0,0,1,305,335)" clip-path="url(#__lottie_element_9652)"><g style="display: block;" opacity="1" transform="matrix(1,0,0,1,13,27)"><g transform="matrix(4,0,0,4,0,0)" opacity="1"><path d="M0,-6.5 C1.659999966621399,-6.5 3,-5.159999847412109 3,-3.5 C3,-3.5 3,3.5 3,3.5 C3,5.159999847412109 1.659999966621399,6.5 0,6.5 C-1.659999966621399,6.5 -3,5.159999847412109 -3,3.5 C-3,3.5 -3,-3.5 -3,-3.5 C-3,-5.159999847412109 -1.659999966621399,-6.5 0,-6.5z" fill-opacity="1" fill="rgb(24,107,186)"></path></g></g><g style="display: block;" opacity="1" transform="matrix(1,0,0,1,41,27)"><g transform="matrix(4,0,0,4,0,0)" opacity="1"><path d="M0,-6.5 C1.659999966621399,-6.5 3,-5.159999847412109 3,-3.5 C3,-3.5 3,3.5 3,3.5 C3,5.159999847412109 1.659999966621399,6.5 0,6.5 C-1.659999966621399,6.5 -3,5.159999847412109 -3,3.5 C-3,3.5 -3,-3.5 -3,-3.5 C-3,-5.159999847412109 -1.659999966621399,-6.5 0,-6.5z" fill-opacity="1" fill="rgb(24,107,186)"></path></g></g></g><g style="display: block;" opacity="0" transform="matrix(1,0,0,1,181.00001525878906,335)" clip-path="url(#__lottie_element_9642)"><g style="display: block;" opacity="1" transform="matrix(1,0,0,1,13,27)"><g transform="matrix(4,0,0,4,0,0)" opacity="1"><path d="M0,-6.5 C1.659999966621399,-6.5 3,-5.159999847412109 3,-3.5 C3,-3.5 3,3.5 3,3.5 C3,5.159999847412109 1.659999966621399,6.5 0,6.5 C-1.659999966621399,6.5 -3,5.159999847412109 -3,3.5 C-3,3.5 -3,-3.5 -3,-3.5 C-3,-5.159999847412109 -1.659999966621399,-6.5 0,-6.5z" fill-opacity="1" fill="rgb(24,107,186)"></path></g></g><g style="display: block;" opacity="1" transform="matrix(1,0,0,1,41,27)"><g transform="matrix(4,0,0,4,0,0)" opacity="1"><path d="M0,-6.5 C1.659999966621399,-6.5 3,-5.159999847412109 3,-3.5 C3,-3.5 3,3.5 3,3.5 C3,5.159999847412109 1.659999966621399,6.5 0,6.5 C-1.659999966621399,6.5 -3,5.159999847412109 -3,3.5 C-3,3.5 -3,-3.5 -3,-3.5 C-3,-5.159999847412109 -1.659999966621399,-6.5 0,-6.5z" fill-opacity="1" fill="rgb(24,107,186)"></path></g></g></g><g style="display: block;" opacity="1" transform="matrix(1,0,0,1,420,314)"><g transform="matrix(4,0,0,4,0,0)" opacity="1"><path d="M-0.003000000026077032,12.626999855041504 C-6.9730000495910645,12.626999855041504 -12.623000144958496,6.9670000076293945 -12.623000144958496,-0.003000000026077032 C-12.623000144958496,-6.9730000495910645 -6.9730000495910645,-12.623000144958496 -0.003000000026077032,-12.623000144958496 C6.9670000076293945,-12.623000144958496 12.626999855041504,-6.9730000495910645 12.626999855041504,-0.003000000026077032 C12.626999855041504,6.9670000076293945 6.9670000076293945,12.626999855041504 -0.003000000026077032,12.626999855041504z" fill-opacity="1" fill="rgb(255,255,255)"></path></g></g><g style="display: block;" opacity="1" transform="matrix(1,0,0,1,385.093994140625,271.92401123046875)"><g transform="matrix(4,0,0,4,0,0)" opacity="1"><path d="M21.35700035095215,-9.579000473022461 C22.98699951171875,-9.798999786376953 24.496999740600586,-8.678999900817871 24.756999969482422,-7.059000015258789 C25.027000427246094,-5.36899995803833 24.03700065612793,-3.739000082015991 22.41699981689453,-3.1989998817443848 C22.41699981689453,-3.1989998817443848 -15.36299991607666,9.25100040435791 -15.36299991607666,9.25100040435791 C-18.952999114990234,10.440999984741211 -22.822999954223633,8.560999870300293 -24.12299919128418,5.011000156402588 C-24.12299919128418,5.011000156402588 -24.42300033569336,4.201000213623047 -24.42300033569336,4.201000213623047 C-24.58300018310547,3.7809998989105225 -24.683000564575195,3.3510000705718994 -24.743000030517578,2.9110000133514404 C-25.202999114990234,-0.4490000009536743 -22.843000411987305,-3.559000015258789 -19.482999801635742,-4.008999824523926 C-19.482999801635742,-4.008999824523926 21.35700035095215,-9.579000473022461 21.35700035095215,-9.579000473022461z" fill-opacity="1" fill="rgb(255,255,255)"></path></g></g><g style="display: block;" opacity="1" transform="matrix(1,0,0,1,154.90501403808594,271.92401123046875)"><g transform="matrix(4,0,0,4,0,0)" opacity="1"><path d="M-21.35300064086914,-9.579000473022461 C-21.35300064086914,-9.579000473022461 19.476999282836914,-4.008999824523926 19.476999282836914,-4.008999824523926 C22.847000122070312,-3.559000015258789 25.207000732421875,-0.4490000009536743 24.746999740600586,2.9110000133514404 C24.687000274658203,3.3510000705718994 24.57699966430664,3.7809998989105225 24.427000045776367,4.201000213623047 C24.427000045776367,4.201000213623047 24.12700080871582,5.011000156402588 24.12700080871582,5.011000156402588 C22.82699966430664,8.560999870300293 18.94700050354004,10.440999984741211 15.357000350952148,9.25100040435791 C15.357000350952148,9.25100040435791 -22.413000106811523,-3.1989998817443848 -22.413000106811523,-3.1989998817443848 C-24.033000946044922,-3.739000082015991 -25.033000946044922,-5.36899995803833 -24.76300048828125,-7.059000015258789 C-24.503000259399414,-8.678999900817871 -22.982999801635742,-9.798999786376953 -21.35300064086914,-9.579000473022461z" fill-opacity="1" fill="rgb(255,255,255)"></path></g></g><g style="display: block;" opacity="1" transform="matrix(1,0,0,1,420,314.0762023925781)"><g transform="matrix(4,0,0,4,0,0)" opacity="1"><path d="M0.003000000026077032,8.373000144958496 C-4.626999855041504,8.373000144958496 -8.376999855041504,4.623000144958496 -8.376999855041504,0.003000000026077032 C-8.376999855041504,-4.626999855041504 -4.626999855041504,-8.376999855041504 0.003000000026077032,-8.376999855041504 C4.623000144958496,-8.376999855041504 8.373000144958496,-4.626999855041504 8.373000144958496,0.003000000026077032 C8.373000144958496,4.623000144958496 4.623000144958496,8.373000144958496 0.003000000026077032,8.373000144958496z" fill-opacity="1" fill="rgb(24,107,186)"></path></g></g><g style="display: block;" opacity="1" transform="matrix(-1,0,0,1,420,314.0762023925781)"><g transform="matrix(4,0,0,4,0,0)" opacity="1"><path d="M0,3.5 C1.9299999475479126,3.5 3.5,1.9299999475479126 3.5,0 C3.5,-1.9299999475479126 1.9299999475479126,-3.5 0,-3.5 C-1.9299999475479126,-3.5 -3.5,-1.9299999475479126 -3.5,0 C-3.5,1.9299999475479126 -1.9299999475479126,3.5 0,3.5z" fill-opacity="1" fill="rgb(47,144,233)"></path></g></g><g style="display: block;" opacity="1" transform="matrix(1,0,0,1,270,276)"><g transform="matrix(4,0,0,4,0,0)" opacity="1"><path d="M0,21 C11.600000381469727,21 21,11.600000381469727 21,0 C21,-11.600000381469727 11.600000381469727,-21 0,-21 C-11.600000381469727,-21 -21,-11.600000381469727 -21,0 C-21,11.600000381469727 -11.600000381469727,21 0,21z" fill-opacity="1" fill="rgb(255,255,255)"></path></g></g><g style="display: block;" opacity="1" transform="matrix(1,0,0,1,119.9990234375,314)"><g transform="matrix(4,0,0,4,0,0)" opacity="1"><path d="M-0.003000000026077032,12.626999855041504 C-6.9730000495910645,12.626999855041504 -12.623000144958496,6.9670000076293945 -12.623000144958496,-0.003000000026077032 C-12.623000144958496,-6.9730000495910645 -6.9730000495910645,-12.623000144958496 -0.003000000026077032,-12.623000144958496 C6.9670000076293945,-12.623000144958496 12.626999855041504,-6.9730000495910645 12.626999855041504,-0.003000000026077032 C12.626999855041504,6.9670000076293945 6.9670000076293945,12.626999855041504 -0.003000000026077032,12.626999855041504z" fill-opacity="1" fill="rgb(255,255,255)"></path></g></g><g style="display: block;" opacity="1" transform="matrix(1,0,0,1,119.9990234375,314.0762023925781)"><g transform="matrix(4,0,0,4,0,0)" opacity="1"><path d="M0.003000000026077032,8.373000144958496 C4.623000144958496,8.373000144958496 8.373000144958496,4.623000144958496 8.373000144958496,0.003000000026077032 C8.373000144958496,-4.626999855041504 4.623000144958496,-8.376999855041504 0.003000000026077032,-8.376999855041504 C-4.626999855041504,-8.376999855041504 -8.376999855041504,-4.626999855041504 -8.376999855041504,0.003000000026077032 C-8.376999855041504,4.623000144958496 -4.626999855041504,8.373000144958496 0.003000000026077032,8.373000144958496z" fill-opacity="1" fill="rgb(24,107,186)"></path></g></g><g style="display: block;" opacity="1" transform="matrix(1,0,0,1,119.9990234375,314.0762023925781)"><g transform="matrix(4,0,0,4,0,0)" opacity="1"><path d="M0,3.5 C1.9299999475479126,3.5 3.5,1.9299999475479126 3.5,0 C3.5,-1.9299999475479126 1.9299999475479126,-3.5 0,-3.5 C-1.9299999475479126,-3.5 -3.5,-1.9299999475479126 -3.5,0 C-3.5,1.9299999475479126 -1.9299999475479126,3.5 0,3.5z" fill-opacity="1" fill="rgb(47,144,233)"></path></g></g><g style="display: block;" opacity="1" transform="matrix(1,0,0,1,270,170.28399658203125)"><g transform="matrix(4,0,0,4,0,0)" opacity="1"><path d="M1.9800000190734863,-9.708999633789062 C1.9800000190734863,-9.708999633789062 5,11.430999755859375 5,11.430999755859375 C5,11.430999755859375 -5,11.430999755859375 -5,11.430999755859375 C-5,11.430999755859375 -1.9800000190734863,-9.708999633789062 -1.9800000190734863,-9.708999633789062 C-1.8200000524520874,-10.809000015258789 -0.8100000023841858,-11.569000244140625 0.2800000011920929,-11.409000396728516 C1.159999966621399,-11.279000282287598 1.850000023841858,-10.58899974822998 1.9800000190734863,-9.708999633789062 C1.9800000190734863,-9.708999633789062 1.9800000190734863,-9.708999633789062 1.9800000190734863,-9.708999633789062z" fill-opacity="1" fill="rgb(255,255,255)"></path></g></g><g style="display: block;" opacity="1" transform="matrix(1,0,0,1,270,299.5979919433594)"><g transform="matrix(4,0,0,4,0,0)" opacity="1"><path d="M0,6 C3.309999942779541,6 6,3.309999942779541 6,0 C6,-3.309999942779541 3.309999942779541,-6 0,-6 C-3.309999942779541,-6 -6,-3.309999942779541 -6,0 C-6,3.309999942779541 -3.309999942779541,6 0,6z" fill-opacity="1" fill="rgb(216,216,216)"></path></g></g><g style="display: block;" opacity="1" transform="matrix(1,0,0,1,270,245.59799194335938)"><g transform="matrix(4,0,0,4,0,0)" opacity="1"><path d="M-4.730000019073486,-2.5 C-4.730000019073486,-2.5 4.730000019073486,-2.5 4.730000019073486,-2.5 C5.650000095367432,-2.5 6.5,-2.0199999809265137 6.980000019073486,-1.2400000095367432 C6.980000019073486,-1.2400000095367432 7.75,0 7.75,0 C8.229999542236328,0.7699999809265137 7.989999771118164,1.7799999713897705 7.21999979019165,2.25 C6.96999979019165,2.4200000762939453 6.670000076293945,2.5 6.360000133514404,2.5 C6.360000133514404,2.5 -6.360000133514404,2.5 -6.360000133514404,2.5 C-7.269999980926514,2.5 -8,1.7699999809265137 -8,0.8600000143051147 C-8,0.5600000023841858 -7.920000076293945,0.25999999046325684 -7.75,0 C-7.75,0 -6.980000019073486,-1.2400000095367432 -6.980000019073486,-1.2400000095367432 C-6.5,-2.0199999809265137 -5.650000095367432,-2.5 -4.730000019073486,-2.5z" fill-opacity="1" fill="rgb(28,175,246)"></path></g></g></g></g></svg>