<svg style="width: 100%; height: 100%; transform: translate3d(0px, 0px, 0px);" preserveAspectRatio="xMidYMid meet" height="135" width="135" viewBox="0 0 135 135" xmlns="http://www.w3.org/2000/svg"><defs><clipPath id="__lottie_element_6988"><rect y="0" x="0" height="135" width="135"></rect></clipPath><clipPath id="__lottie_element_6990"><path d="M0,0 L540,0 L540,540 L0,540z"></path></clipPath><clipPath id="__lottie_element_7008"><path d="M0,0 L540,0 L540,540 L0,540z"></path></clipPath><clipPath id="__lottie_element_7021"><path d="M0,0 L540,0 L540,540 L0,540z"></path></clipPath><clipPath id="__lottie_element_7037"><path d="M0,0 L540,0 L540,540 L0,540z"></path></clipPath><clipPath id="__lottie_element_7053"><path d="M0,0 L540,0 L540,540 L0,540z"></path></clipPath></defs><g clip-path="url(#__lottie_element_6988)"><g style="display: block;" opacity="1" transform="matrix(0.25,0,0,0.25,0,0)" clip-path="url(#__lottie_element_6990)"><g style="display: block;" opacity="1" transform="matrix(1,0,0,1,0,0.003814697265625)" clip-path="url(#__lottie_element_7053)"><g style="display: block;" opacity="1" transform="matrix(0.8628734946250916,0.56639564037323,-0.5855849981307983,0.8277318477630615,167.31161499023438,209.025634765625)"><g transform="matrix(3.3921923637390137,2.1196770668029785,-2.1196770668029785,3.3921923637390137,0,0)" opacity="1"><path d="M-0.004000000189989805,7.493000030517578 C4.116000175476074,7.493000030517578 7.455999851226807,4.14300012588501 7.455999851226807,0.003000000026077032 C7.455999851226807,-4.13700008392334 4.116000175476074,-7.497000217437744 -0.004000000189989805,-7.497000217437744 C-4.113999843597412,-7.497000217437744 -7.453999996185303,-4.13700008392334 -7.453999996185303,0.003000000026077032 C-7.453999996185303,4.14300012588501 -4.113999843597412,7.493000030517578 -0.004000000189989805,7.493000030517578z" fill-opacity="1" fill="rgb(112,68,28)"></path></g></g><g style="display: block;" opacity="1" transform="matrix(1.04206120967865,0,0,1.0037590265274048,268.900390625,269.3257751464844)"><g transform="matrix(1,0,0,1,0,0)" opacity="1"><path d="M26,-30 C8.723999977111816,-46.05099868774414 -9.213000297546387,-57.178001403808594 -28.781999588012695,-62.380001068115234 C-49.14099884033203,-67.79199981689453 -71.26499938964844,-66.79100036621094 -96.25,-58.25" stroke-width="47" stroke-opacity="1" stroke="rgb(113,69,28)" stroke-miterlimit="4" fill-opacity="0" stroke-linejoin="miter" stroke-linecap="round"></path></g></g></g><g style="display: block;" opacity="1" transform="matrix(1,0,0,1,0,0)" clip-path="url(#__lottie_element_7037)"><g style="display: block;" opacity="1" transform="matrix(-0.07308153808116913,0.9973259568214417,-0.9973259568214417,-0.07308153808116913,286.0668640136719,326.81329345703125)"><g transform="matrix(1,0,0,1,0,0)" opacity="1"><path d="M-4,42.9379997253418 C-4,42.9379997253418 41.185001373291016,106.49299621582031 41.185001373291016,106.49299621582031" stroke-width="43" stroke-opacity="1" stroke="rgb(113,69,28)" stroke-miterlimit="4" fill-opacity="0" stroke-linejoin="miter" stroke-linecap="round"></path></g></g><g style="display: block;" opacity="1" transform="matrix(-0.994218647480011,-0.10737469047307968,0.10737469047307968,-0.994218647480011,207.04965209960938,469.6298828125)"><g transform="matrix(1,0,0,1,0,0)" opacity="1"><path d="M41.185001373291016,106.49299621582031 C41.185001373291016,106.49299621582031 85.625,169 85.625,169" stroke-width="43" stroke-opacity="1" stroke="rgb(113,69,28)" stroke-miterlimit="4" fill-opacity="0" stroke-linejoin="miter" stroke-linecap="round"></path></g></g><g style="display: block;" opacity="1" transform="matrix(-0.07308153808116913,0.9973259568214417,-0.9973259568214417,-0.07308153808116913,222.44200134277344,332.29998779296875)"><g transform="matrix(4,0,0,4,0,0)" opacity="1"><path d="M-12.314000129699707,-6.459000110626221 C-12.583999633789062,-6.828999996185303 -12.503999710083008,-7.359000205993652 -12.133999824523926,-7.629000186920166 C-12.133999824523926,-7.629000186920166 -3.444000005722046,-13.98900032043457 -3.444000005722046,-13.98900032043457 C-3.0739998817443848,-14.258999824523926 -2.553999900817871,-14.178999900817871 -2.2839999198913574,-13.809000015258789 C-2.2839999198913574,-13.809000015258789 12.315999984741211,6.460999965667725 12.315999984741211,6.460999965667725 C12.586000442504883,6.830999851226807 12.505999565124512,7.35099983215332 12.13599967956543,7.63100004196167 C12.13599967956543,7.63100004196167 3.446000099182129,13.991000175476074 3.446000099182129,13.991000175476074 C3.0759999752044678,14.26099967956543 2.555999994277954,14.180999755859375 2.2860000133514404,13.800999641418457 C2.2860000133514404,13.800999641418457 -12.314000129699707,-6.459000110626221 -12.314000129699707,-6.459000110626221z" fill-opacity="1" fill="rgb(255,255,255)"></path></g></g><g style="display: block;" opacity="1" transform="matrix(-0.9820937514305115,0.18839271366596222,-0.18839271366596222,-0.9820937514305115,72.712890625,477.41448974609375)"><g transform="matrix(1,0,0,1,0,0)" opacity="1"><path d="M-101,169 C-101,169 -75.25274658203125,168.76675415039062 -75.25274658203125,168.76675415039062 C-75.25274658203125,168.76675415039062 -62,169 -62,169" stroke-width="42" stroke-opacity="1" stroke="rgb(113,69,28)" fill-opacity="0" stroke-linejoin="round" stroke-linecap="round"></path></g></g></g><g style="display: block;" opacity="1" transform="matrix(1,0,0,1,0,0)" clip-path="url(#__lottie_element_7021)"><g style="display: block;" opacity="1" transform="matrix(1,0,0,1,270,270)"><g transform="matrix(1,0,0,1,0,0)" opacity="1"><path d="M-4,42.9379997253418 C-4,42.9379997253418 41.185001373291016,106.49299621582031 41.185001373291016,106.49299621582031" stroke-width="43" stroke-opacity="1" stroke="rgb(113,69,28)" stroke-miterlimit="4" fill-opacity="0" stroke-linejoin="miter" stroke-linecap="round"></path></g></g><g style="display: block;" opacity="1" transform="matrix(1,0,0,1,270,270)"><g transform="matrix(1,0,0,1,0,0)" opacity="1"><path d="M41.185001373291016,106.49299621582031 C41.185001373291016,106.49299621582031 85.625,169 85.625,169" stroke-width="43" stroke-opacity="1" stroke="rgb(113,69,28)" stroke-miterlimit="4" fill-opacity="0" stroke-linejoin="miter" stroke-linecap="round"></path></g></g><g style="display: block;" opacity="1" transform="matrix(1,0,0,1,280.12200927734375,333.0530090332031)"><g transform="matrix(4,0,0,4,0,0)" opacity="1"><path d="M-12.314000129699707,-6.459000110626221 C-12.583999633789062,-6.828999996185303 -12.503999710083008,-7.359000205993652 -12.133999824523926,-7.629000186920166 C-12.133999824523926,-7.629000186920166 -3.444000005722046,-13.98900032043457 -3.444000005722046,-13.98900032043457 C-3.0739998817443848,-14.258999824523926 -2.553999900817871,-14.178999900817871 -2.2839999198913574,-13.809000015258789 C-2.2839999198913574,-13.809000015258789 12.315999984741211,6.460999965667725 12.315999984741211,6.460999965667725 C12.586000442504883,6.830999851226807 12.505999565124512,7.35099983215332 12.13599967956543,7.63100004196167 C12.13599967956543,7.63100004196167 3.446000099182129,13.991000175476074 3.446000099182129,13.991000175476074 C3.0759999752044678,14.26099967956543 2.555999994277954,14.180999755859375 2.2860000133514404,13.800999641418457 C2.2860000133514404,13.800999641418457 -12.314000129699707,-6.459000110626221 -12.314000129699707,-6.459000110626221z" fill-opacity="1" fill="rgb(255,255,255)"></path></g></g><g style="display: block;" opacity="1" transform="matrix(0.7071067690849304,-0.7071067690849304,0.7071067690849304,0.7071067690849304,307.541748046875,248.08116149902344)"><g transform="matrix(1,0,0,1,0,0)" opacity="1"><path d="M-101,169 C-101,169 -73.75,169 -73.75,169 C-73.75,169 -62,169 -62,169" stroke-width="42" stroke-opacity="1" stroke="rgb(113,69,28)" fill-opacity="0" stroke-linejoin="round" stroke-linecap="round"></path></g></g></g><g style="display: none;"><path></path></g><g style="display: block;" opacity="1" transform="matrix(0.9984914064407349,-0.05490783229470253,0.05490783229470253,0.9984914064407349,310.95123291015625,204.15362548828125)"><g transform="matrix(4,0,0,4,0,0)" opacity="1"><path d="M6.429999828338623,-0.4650000035762787 C6.429999828338623,-0.4650000035762787 0.4300000071525574,6.485000133514404 0.4300000071525574,6.485000133514404 C-1.2100000381469727,8.385000228881836 -4.079999923706055,8.595000267028809 -5.980000019073486,6.934999942779541 C-7.869999885559082,5.275000095367432 -8.069999694824219,2.375 -6.429999828338623,0.4650000035762787 C-6.429999828338623,0.4650000035762787 -0.4300000071525574,-6.474999904632568 -0.4300000071525574,-6.474999904632568 C1.2100000381469727,-8.385000228881836 4.079999923706055,-8.595000267028809 5.980000019073486,-6.934999942779541 C7.869999885559082,-5.275000095367432 8.069999694824219,-2.375 6.429999828338623,-0.4650000035762787z" fill-opacity="1" fill="rgb(112,68,28)"></path></g></g><g style="display: block;" opacity="1" transform="matrix(1,0,0,1,275.5299987792969,274.46282958984375)"><g transform="matrix(4,0,0,4,0,0)" opacity="1"><path d="M6.919000148773193,-14.98900032043457 C13.229000091552734,-12.288999557495117 16.179000854492188,-4.948999881744385 13.529000282287598,1.4210000038146973 C13.529000282287598,1.4210000038146973 8.73900032043457,12.91100025177002 8.73900032043457,12.91100025177002 C7.669000148773193,15.461000442504883 4.758999824523926,16.660999298095703 2.2290000915527344,15.581000328063965 C2.2190001010894775,15.581000328063965 2.2190001010894775,15.581000328063965 2.2090001106262207,15.581000328063965 C2.2090001106262207,15.581000328063965 -11.470999717712402,9.720999717712402 -11.470999717712402,9.720999717712402 C-13.991000175476074,8.640999794006348 -15.170999526977539,5.710999965667725 -14.111000061035156,3.1710000038146973 C-14.111000061035156,3.1710000038146973 -9.310999870300293,-8.348999977111816 -9.310999870300293,-8.348999977111816 C-6.660999774932861,-14.689000129699707 0.5789999961853027,-17.66900062561035 6.879000186920166,-14.99899959564209 C6.888999938964844,-14.99899959564209 6.89900016784668,-14.98900032043457 6.919000148773193,-14.98900032043457 C6.919000148773193,-14.98900032043457 6.919000148773193,-14.98900032043457 6.919000148773193,-14.98900032043457z" fill-opacity="1" fill="rgb(255,255,255)"></path></g></g><g style="display: block;" opacity="1" transform="matrix(1,0,0,1,0,0.003814697265625)" clip-path="url(#__lottie_element_7008)"><g style="display: block;" opacity="1" transform="matrix(-0.9249697923660278,-0.4292425513267517,0.43277621269226074,-0.911312997341156,411.9552307128906,292.63140869140625)"><g transform="matrix(3.3921923637390137,2.1196770668029785,-2.1196770668029785,3.3921923637390137,0,0)" opacity="1"><path d="M-0.004000000189989805,7.493000030517578 C4.116000175476074,7.493000030517578 7.455999851226807,4.14300012588501 7.455999851226807,0.003000000026077032 C7.455999851226807,-4.13700008392334 4.116000175476074,-7.497000217437744 -0.004000000189989805,-7.497000217437744 C-4.113999843597412,-7.497000217437744 -7.453999996185303,-4.13700008392334 -7.453999996185303,0.003000000026077032 C-7.453999996185303,4.14300012588501 -4.113999843597412,7.493000030517578 -0.004000000189989805,7.493000030517578z" fill-opacity="1" fill="rgb(112,68,28)"></path></g></g><g style="display: block;" opacity="1" transform="matrix(-1.0056818723678589,-0.24164719879627228,0.23627902567386627,-0.9833407998085022,329.2301025390625,215.99560546875)"><g transform="matrix(1,0,0,1,0,0)" opacity="1"><path d="M26,-30 C8.723999977111816,-46.05099868774414 -9.213000297546387,-57.178001403808594 -28.781999588012695,-62.380001068115234 C-49.14099884033203,-67.79199981689453 -71.26499938964844,-66.79100036621094 -96.25,-58.25" stroke-width="47" stroke-opacity="1" stroke="rgb(113,69,28)" stroke-miterlimit="4" fill-opacity="0" stroke-linejoin="miter" stroke-linecap="round"></path></g></g></g><g style="display: block;" opacity="1" transform="matrix(0.9988448023796082,-0.048052262514829636,0.048052262514829636,0.9988448023796082,351.2638854980469,146.12416076660156)"><g transform="matrix(4,0,0,4,0,0)" opacity="1"><path d="M4.702000141143799,-17.70400047302246 C11.991999626159668,-15.734000205993652 16.32200050354004,-8.173999786376953 14.371999740600586,-0.8240000009536743 C14.371999740600586,-0.8240000009536743 12.031999588012695,7.955999851226807 12.031999588012695,7.955999851226807 C10.081999778747559,15.305999755859375 2.5820000171661377,19.666000366210938 -4.708000183105469,17.695999145507812 C-11.998000144958496,15.736000061035156 -16.31800079345703,8.175999641418457 -14.368000030517578,0.8259999752044678 C-14.368000030517578,0.8259999752044678 -12.038000106811523,-7.964000225067139 -12.038000106811523,-7.964000225067139 C-10.07800006866455,-15.303999900817871 -2.5880000591278076,-19.673999786376953 4.702000141143799,-17.70400047302246z" fill-opacity="1" fill="rgb(112,68,28)"></path></g></g><g style="display: block;" opacity="1" transform="matrix(0.9988448023796082,-0.048052262514829636,0.048052262514829636,0.9988448023796082,403.6172180175781,159.56500244140625)"><g transform="matrix(4,0,0,4,0,0)" opacity="1"><path d="M0.4350000023841858,3.553999900817871 C-1.524999976158142,3.803999900817871 -3.2950000762939453,2.4040000438690186 -3.5350000858306885,0.4339999854564667 C-3.7750000953674316,-1.5260000228881836 -2.384999990463257,-3.315999984741211 -0.4350000023841858,-3.555999994277954 C1.524999976158142,-3.7960000038146973 3.2950000762939453,-2.4059998989105225 3.5350000858306885,-0.4359999895095825 C3.7750000953674316,1.5240000486373901 2.384999990463257,3.313999891281128 0.4350000023841858,3.553999900817871z" fill-opacity="1" fill="rgb(112,68,28)"></path></g></g></g></g></svg>