<svg style="width: 100%; height: 100%; transform: translate3d(0px, 0px, 0px);" preserveAspectRatio="xMidYMid meet" height="135" width="135" viewBox="0 0 135 135" xmlns="http://www.w3.org/2000/svg"><defs><clipPath id="__lottie_element_9770"><rect y="0" x="0" height="135" width="135"></rect></clipPath><clipPath id="__lottie_element_9772"><path d="M0,0 L540,0 L540,540 L0,540z"></path></clipPath><clipPath id="__lottie_element_9780"><path d="M0,0 L600,0 L600,600 L0,600z"></path></clipPath><clipPath id="__lottie_element_9790"><path d="M0,0 L600,0 L600,600 L0,600z"></path></clipPath><clipPath id="__lottie_element_9803"><path d="M0,0 L600,0 L600,600 L0,600z"></path></clipPath><clipPath id="__lottie_element_9821"><path d="M0,0 L540,0 L540,540 L0,540z"></path></clipPath><mask id="__lottie_element_9824"><g style="display: none;"><g><path></path></g></g></mask><mask id="__lottie_element_9833"><g style="display: block;" opacity="1" transform="matrix(1,0,0,1,269.6260070800781,331.87298583984375)"><g transform="matrix(4,0,0,4,0,0)" opacity="1"><path d="M-20.476999282836914,-16.5 C-20.476999282836914,-16.5 20.482999801635742,-16.5 20.482999801635742,-16.5 C22.093000411987305,-16.5 23.402999877929688,-15.1899995803833 23.402999877929688,-13.569999694824219 C23.402999877929688,-13.569999694824219 23.402999877929688,-6.909999847412109 23.402999877929688,-6.909999847412109 C23.402999877929688,6.019999980926514 12.92300033569336,16.5 0.003000000026077032,16.5 C-12.927000045776367,16.5 -23.406999588012695,6.019999980926514 -23.406999588012695,-6.909999847412109 C-23.406999588012695,-6.909999847412109 -23.406999588012695,-13.569999694824219 -23.406999588012695,-13.569999694824219 C-23.406999588012695,-15.1899995803833 -22.097000122070312,-16.5 -20.476999282836914,-16.5z" fill-opacity="1" fill="rgb(172,35,35)"></path></g></g></mask><clipPath id="__lottie_element_9837"><path d="M0,0 L540,0 L540,540 L0,540z"></path></clipPath><clipPath id="__lottie_element_9871"><path d="M0,0 L540,0 L540,540 L0,540z"></path></clipPath></defs><g clip-path="url(#__lottie_element_9770)"><g style="display: block;" opacity="1" transform="matrix(0.25,0,0,0.25,0,0)" clip-path="url(#__lottie_element_9772)"><g style="display: block;" opacity="1" transform="matrix(1,0,0,1,0,0)" clip-path="url(#__lottie_element_9871)"></g><g style="display: block;" opacity="1" transform="matrix(1,0,0,1,430,277.87298583984375)"><g transform="matrix(4,0,0,4,0,0)" opacity="1"><path d="M0,10 C-5.800000190734863,10 -10.5,5.519999980926514 -10.5,0 C-10.5,-5.519999980926514 -5.800000190734863,-10 0,-10 C5.800000190734863,-10 10.5,-5.519999980926514 10.5,0 C10.5,5.519999980926514 5.800000190734863,10 0,10z" fill-opacity="1" fill="rgb(255,182,158)"></path></g></g><g style="display: block;" opacity="1" transform="matrix(1,0,0,1,110,277.87298583984375)"><g transform="matrix(4,0,0,4,0,0)" opacity="1"><path d="M0,10 C-5.800000190734863,10 -10.5,5.519999980926514 -10.5,0 C-10.5,-5.519999980926514 -5.800000190734863,-10 0,-10 C5.800000190734863,-10 10.5,-5.519999980926514 10.5,0 C10.5,5.519999980926514 5.800000190734863,10 0,10z" fill-opacity="1" fill="rgb(255,182,158)"></path></g></g><g style="display: none;"><g><path></path></g></g><g style="display: none;"><g><path></path></g></g><g style="display: block;" opacity="1" transform="matrix(1,0,0,1,270,286)"><g transform="matrix(4,0,0,4,0,0)" opacity="1"><path d="M0,-39.5 C20.709999084472656,-39.5 37.5,-22.709999084472656 37.5,-2 C37.5,-2 37.5,2 37.5,2 C37.5,22.709999084472656 20.709999084472656,39.5 0,39.5 C-20.709999084472656,39.5 -37.5,22.709999084472656 -37.5,2 C-37.5,2 -37.5,-2 -37.5,-2 C-37.5,-22.709999084472656 -20.709999084472656,-39.5 0,-39.5z" fill-opacity="1" fill="rgb(255,182,158)"></path></g></g><g style="display: block;" opacity="1" transform="matrix(1,0,0,1,256.53399658203125,106.80999755859375)"><g transform="matrix(4,0,0,4,0,0)" opacity="1"><path d="M-8.45199966430664,-10.244000434875488 C-6.791999816894531,-12.093999862670898 -3.9519999027252197,-12.244000434875488 -2.1019999980926514,-10.574000358581543 C-0.25200000405311584,-8.913999557495117 -0.10199999809265137,-6.073999881744385 -1.7719999551773071,-4.223999977111816 C-3.4719998836517334,-2.3340001106262207 -3.4019999504089355,0.35600000619888306 -1.8020000457763672,1.7960000038146973 C-0.21199999749660492,3.2360000610351562 2.4779999256134033,3.0160000324249268 4.177999973297119,1.1260000467300415 C5.8379998207092285,-0.7139999866485596 8.687999725341797,-0.8640000224113464 10.538000106811523,0.7960000038146973 C12.378000259399414,2.4560000896453857 12.527999877929688,5.306000232696533 10.868000030517578,7.156000137329102 C5.918000221252441,12.656000137329102 -2.4519999027252197,13.326000213623047 -7.831999778747559,8.486000061035156 C-13.211999893188477,3.6459999084472656 -13.411999702453613,-4.74399995803833 -8.45199966430664,-10.244000434875488z" fill-opacity="1" fill="rgb(255,211,0)"></path></g></g><g style="display: block;" opacity="1" transform="matrix(1,0,0,1,297.6759948730469,215.19100952148438)"><g transform="matrix(4,0,0,4,0,0)" opacity="1"><path d="M0.0010000000474974513,-6.797999858856201 C0.0010000000474974513,-6.797999858856201 0.0010000000474974513,-6.797999858856201 0.0010000000474974513,-6.797999858856201 C1.8910000324249268,-6.797999858856201 3.4210000038146973,-5.26800012588501 3.4210000038146973,-3.378000020980835 C3.4210000038146973,-3.378000020980835 3.4210000038146973,3.381999969482422 3.4210000038146973,3.381999969482422 C3.4210000038146973,5.271999835968018 1.8910000324249268,6.802000045776367 0.0010000000474974513,6.802000045776367 C0.0010000000474974513,6.802000045776367 0.0010000000474974513,6.802000045776367 0.0010000000474974513,6.802000045776367 C-1.8890000581741333,6.802000045776367 -3.4189999103546143,5.271999835968018 -3.4189999103546143,3.381999969482422 C-3.4189999103546143,3.381999969482422 -3.4189999103546143,-3.378000020980835 -3.4189999103546143,-3.378000020980835 C-3.4189999103546143,-5.26800012588501 -1.8890000581741333,-6.797999858856201 0.0010000000474974513,-6.797999858856201z" fill-opacity="1" fill="rgb(181,117,96)"></path></g></g><g style="display: block;" opacity="1" transform="matrix(1,0,0,1,241.67599487304688,215.19100952148438)"><g transform="matrix(4,0,0,4,0,0)" opacity="1"><path d="M0.0010000000474974513,-6.797999858856201 C0.0010000000474974513,-6.797999858856201 0.0010000000474974513,-6.797999858856201 0.0010000000474974513,-6.797999858856201 C1.8910000324249268,-6.797999858856201 3.4210000038146973,-5.26800012588501 3.4210000038146973,-3.378000020980835 C3.4210000038146973,-3.378000020980835 3.4210000038146973,3.381999969482422 3.4210000038146973,3.381999969482422 C3.4210000038146973,5.271999835968018 1.8910000324249268,6.802000045776367 0.0010000000474974513,6.802000045776367 C0.0010000000474974513,6.802000045776367 0.0010000000474974513,6.802000045776367 0.0010000000474974513,6.802000045776367 C-1.8890000581741333,6.802000045776367 -3.4189999103546143,5.271999835968018 -3.4189999103546143,3.381999969482422 C-3.4189999103546143,3.381999969482422 -3.4189999103546143,-3.378000020980835 -3.4189999103546143,-3.378000020980835 C-3.4189999103546143,-5.26800012588501 -1.8890000581741333,-6.797999858856201 0.0010000000474974513,-6.797999858856201z" fill-opacity="1" fill="rgb(181,117,96)"></path></g></g><g style="display: block;" opacity="1" transform="matrix(1,0,0,1,0,0)" clip-path="url(#__lottie_element_9821)"><g style="display: block;" opacity="1" transform="matrix(1,0,0,1,269.6260070800781,331.87298583984375)"><g transform="matrix(4,0,0,4,0,0)" opacity="1"><path d="M-20.476999282836914,-16.5 C-20.476999282836914,-16.5 20.482999801635742,-16.5 20.482999801635742,-16.5 C22.093000411987305,-16.5 23.402999877929688,-15.1899995803833 23.402999877929688,-13.569999694824219 C23.402999877929688,-13.569999694824219 23.402999877929688,-6.909999847412109 23.402999877929688,-6.909999847412109 C23.402999877929688,6.019999980926514 12.92300033569336,16.5 0.003000000026077032,16.5 C-12.927000045776367,16.5 -23.406999588012695,6.019999980926514 -23.406999588012695,-6.909999847412109 C-23.406999588012695,-6.909999847412109 -23.406999588012695,-13.569999694824219 -23.406999588012695,-13.569999694824219 C-23.406999588012695,-15.1899995803833 -22.097000122070312,-16.5 -20.476999282836914,-16.5z" fill-opacity="1" fill="rgb(172,35,35)"></path></g></g><g style="display: block;" mask="url(#__lottie_element_9833)"><g opacity="1" transform="matrix(1,0,0,1,0,0)" clip-path="url(#__lottie_element_9837)"><g style="display: block;" opacity="1" transform="matrix(1,0,0,1,269.9930114746094,283.7049865722656)"><g transform="matrix(4,0,0,4,0,0)" opacity="1"><path d="M-6.758999824523926,-9.708000183105469 C-6.758999824523926,-9.708000183105469 6.761000156402588,-9.708000183105469 6.761000156402588,-9.708000183105469 C6.910999774932861,-9.248000144958496 7.000999927520752,-8.748000144958496 7.000999927520752,-8.23799991607666 C7.000999927520752,-8.23799991607666 7,-0.09799999743700027 7,-0.09799999743700027 C7,2.421999931335449 4.960000038146973,4.461999893188477 2.440000057220459,4.461999893188477 C2.440000057220459,4.461999893188477 -2.440000057220459,4.461999893188477 -2.440000057220459,4.461999893188477 C-4.960000038146973,4.461999893188477 -7,2.421999931335449 -7,-0.09799999743700027 C-7,-0.09799999743700027 -6.999000072479248,-8.23799991607666 -6.999000072479248,-8.23799991607666 C-6.999000072479248,-8.748000144958496 -6.908999919891357,-9.248000144958496 -6.758999824523926,-9.708000183105469 C-6.758999824523926,-9.708000183105469 -6.758999824523926,-9.708000183105469 -6.758999824523926,-9.708000183105469z" fill-opacity="1" fill="rgb(255,255,255)"></path></g></g><g style="display: block;" opacity="1" transform="matrix(1,0,0,1,270,385.5)"><path d="M0,-50 C27.61400032043457,-50 62.75,-27.61400032043457 62.75,0 C62.75,27.61400032043457 27.61400032043457,50 0,50 C-27.61400032043457,50 -63.5,27.61400032043457 -63.5,0 C-63.5,-27.61400032043457 -27.61400032043457,-50 0,-50z" fill-opacity="1" fill="rgb(212,52,52)"></path></g></g></g><g style="display: none;"><g><path></path></g></g><g style="display: none;" mask="url(#__lottie_element_9824)"><g><g><path></path></g></g></g></g><g style="display: block;" opacity="1" transform="matrix(1,0,0,1,272,124)"><g transform="matrix(4,0,0,4,0,0)" opacity="1"><path d="M0,9 C4.96999979019165,9 9,4.96999979019165 9,0 C9,-4.96999979019165 4.96999979019165,-9 0,-9 C-4.96999979019165,-9 -9,-4.96999979019165 -9,0 C-9,4.96999979019165 -4.96999979019165,9 0,9z" fill-opacity="1" fill="rgb(255,211,0)"></path></g></g><g style="display: none;"><g><path stroke-miterlimit="4" fill-opacity="0" stroke-linejoin="miter" stroke-linecap="round"></path></g><g><path stroke-miterlimit="4" fill-opacity="0" stroke-linejoin="miter" stroke-linecap="round"></path></g></g><g style="display: none;" clip-path="url(#__lottie_element_9780)"><g style="display: none;" clip-path="url(#__lottie_element_9803)"><g style="display: none;"><path stroke-miterlimit="4" fill-opacity="0" stroke-linejoin="miter" stroke-linecap="round"></path></g><g style="display: none;"><path stroke-miterlimit="4" fill-opacity="0" stroke-linejoin="miter" stroke-linecap="round"></path></g></g><g style="display: none;"><g><path></path></g></g><g style="display: none;" clip-path="url(#__lottie_element_9790)"><g style="display: none;"><path stroke-miterlimit="4" fill-opacity="0" stroke-linejoin="miter" stroke-linecap="round"></path></g><g style="display: none;"><path stroke-miterlimit="4" fill-opacity="0" stroke-linejoin="miter" stroke-linecap="round"></path></g></g><g style="display: none;"><g><path></path></g></g></g></g></g></svg>