<svg style="width: 100%; height: 100%; transform: translate3d(0px, 0px, 0px);" preserveAspectRatio="xMidYMid meet" height="135" width="135" viewBox="0 0 135 135" xmlns="http://www.w3.org/2000/svg"><defs><clipPath id="__lottie_element_9928"><rect y="0" x="0" height="135" width="135"></rect></clipPath><clipPath id="__lottie_element_9930"><path d="M0,0 L540,0 L540,540 L0,540z"></path></clipPath></defs><g clip-path="url(#__lottie_element_9928)"><g style="display: block;" opacity="1" transform="matrix(0.25,0,0,0.25,0,0)" clip-path="url(#__lottie_element_9930)"><g style="display: block;" opacity="1" transform="matrix(0.7071067690849304,0.7071067690849304,-0.7071067690849304,0.7071067690849304,129.56204223632812,36.32969665527344)"><g transform="matrix(1,0,0,1,0,0)" opacity="1"><path d="M-9,-185 C-9,-185 -9,-140 -9,-140" stroke-width="30" stroke-opacity="1" stroke="rgb(245,168,141)" stroke-miterlimit="4" fill-opacity="0" stroke-linejoin="miter" stroke-linecap="round"></path></g></g><g style="display: block;" opacity="1" transform="matrix(1,0,0,1,268,134)"><g transform="matrix(4,0,0,4,0,0)" opacity="1"><path d="M-9.361000061035156,4.499000072479248 C-9.361000061035156,6.508999824523926 -10.991000175476074,8.138999938964844 -13.00100040435791,8.138999938964844 C-15.01099967956543,8.138999938964844 -16.641000747680664,6.508999824523926 -16.641000747680664,4.499000072479248 C-16.641000747680664,4.499000072479248 -16.641000747680664,0.49900001287460327 -16.641000747680664,0.49900001287460327 C-16.641000747680664,-4.390999794006348 -12.720999717712402,-8.140999794006348 -7.801000118255615,-8.140999794006348 C-7.801000118255615,-8.140999794006348 7.798999786376953,-8.140999794006348 7.798999786376953,-8.140999794006348 C12.718999862670898,-8.140999794006348 16.638999938964844,-4.390999794006348 16.638999938964844,0.49900001287460327 C16.638999938964844,0.49900001287460327 16.638999938964844,4.499000072479248 16.638999938964844,4.499000072479248 C16.638999938964844,6.508999824523926 15.008999824523926,8.138999938964844 12.99899959564209,8.138999938964844 C10.98900032043457,8.138999938964844 9.359000205993652,6.508999824523926 9.359000205993652,4.499000072479248 C9.359000205993652,4.499000072479248 9.359000205993652,0.49900001287460327 9.359000205993652,0.49900001287460327 C9.359000205993652,-0.29100000858306885 8.769000053405762,-0.8610000014305115 7.798999786376953,-0.8610000014305115 C7.798999786376953,-0.8610000014305115 -7.801000118255615,-0.8610000014305115 -7.801000118255615,-0.8610000014305115 C-8.770999908447266,-0.8610000014305115 -9.361000061035156,-0.29100000858306885 -9.361000061035156,0.49900001287460327 C-9.361000061035156,0.49900001287460327 -9.361000061035156,4.499000072479248 -9.361000061035156,4.499000072479248z" fill-opacity="1" fill="rgb(153,86,49)"></path></g></g><g style="display: block;" opacity="1" transform="matrix(1,0,0,1,320,166)"><g transform="matrix(4,0,0,4,0,0)" opacity="1"><path d="M-4.699999809265137,-5.5 C-4.699999809265137,-5.5 4.699999809265137,-5.5 4.699999809265137,-5.5 C6.519999980926514,-5.5 8,-4.019999980926514 8,-2.200000047683716 C8,-2.200000047683716 8,2.200000047683716 8,2.200000047683716 C8,4.019999980926514 6.519999980926514,5.5 4.699999809265137,5.5 C4.699999809265137,5.5 -4.699999809265137,5.5 -4.699999809265137,5.5 C-6.519999980926514,5.5 -8,4.019999980926514 -8,2.200000047683716 C-8,2.200000047683716 -8,-2.200000047683716 -8,-2.200000047683716 C-8,-4.019999980926514 -6.519999980926514,-5.5 -4.699999809265137,-5.5z" fill-opacity="1" fill="rgb(255,202,8)"></path></g></g><g style="display: block;" opacity="1" transform="matrix(1,0,0,1,216,166)"><g transform="matrix(4,0,0,4,0,0)" opacity="1"><path d="M-4.699999809265137,-5.5 C-4.699999809265137,-5.5 4.699999809265137,-5.5 4.699999809265137,-5.5 C6.519999980926514,-5.5 8,-4.019999980926514 8,-2.200000047683716 C8,-2.200000047683716 8,2.200000047683716 8,2.200000047683716 C8,4.019999980926514 6.519999980926514,5.5 4.699999809265137,5.5 C4.699999809265137,5.5 -4.699999809265137,5.5 -4.699999809265137,5.5 C-6.519999980926514,5.5 -8,4.019999980926514 -8,2.200000047683716 C-8,2.200000047683716 -8,-2.200000047683716 -8,-2.200000047683716 C-8,-4.019999980926514 -6.519999980926514,-5.5 -4.699999809265137,-5.5z" fill-opacity="1" fill="rgb(255,202,8)"></path></g></g><g style="display: block;" opacity="1" transform="matrix(1,0,0,1,268,284.82000732421875)"><g transform="matrix(4,0,0,4,0,0)" opacity="1"><path d="M-38.900001525878906,-30.5 C-38.900001525878906,-30.5 38.900001525878906,-30.5 38.900001525878906,-30.5 C43.91999816894531,-30.5 48,-26.420000076293945 48,-21.399999618530273 C48,-21.399999618530273 48,21.399999618530273 48,21.399999618530273 C48,26.420000076293945 43.91999816894531,30.5 38.900001525878906,30.5 C38.900001525878906,30.5 -38.900001525878906,30.5 -38.900001525878906,30.5 C-43.91999816894531,30.5 -48,26.420000076293945 -48,21.399999618530273 C-48,21.399999618530273 -48,-21.399999618530273 -48,-21.399999618530273 C-48,-26.420000076293945 -43.91999816894531,-30.5 -38.900001525878906,-30.5z" fill-opacity="1" fill="rgb(153,86,49)"></path></g></g><g style="display: block;" opacity="1" transform="matrix(1,0,0,1,378,286)"><g transform="matrix(4,0,0,4,0,0)" opacity="1"><path d="M-5.289999961853027,-34.5 C-5.289999961853027,-34.5 5.289999961853027,-34.5 5.289999961853027,-34.5 C5.960000038146973,-34.5 6.5,-33.959999084472656 6.5,-33.290000915527344 C6.5,-33.290000915527344 6.5,33.290000915527344 6.5,33.290000915527344 C6.5,33.959999084472656 5.960000038146973,34.5 5.289999961853027,34.5 C5.289999961853027,34.5 -5.289999961853027,34.5 -5.289999961853027,34.5 C-5.960000038146973,34.5 -6.5,33.959999084472656 -6.5,33.290000915527344 C-6.5,33.290000915527344 -6.5,-33.290000915527344 -6.5,-33.290000915527344 C-6.5,-33.959999084472656 -5.960000038146973,-34.5 -5.289999961853027,-34.5z" fill-opacity="1" fill="rgb(193,119,79)"></path></g></g><g style="display: block;" opacity="1" transform="matrix(1,0,0,1,158,286)"><g transform="matrix(4,0,0,4,0,0)" opacity="1"><path d="M-5.289999961853027,-34.5 C-5.289999961853027,-34.5 5.289999961853027,-34.5 5.289999961853027,-34.5 C5.960000038146973,-34.5 6.5,-33.959999084472656 6.5,-33.290000915527344 C6.5,-33.290000915527344 6.5,33.290000915527344 6.5,33.290000915527344 C6.5,33.959999084472656 5.960000038146973,34.5 5.289999961853027,34.5 C5.289999961853027,34.5 -5.289999961853027,34.5 -5.289999961853027,34.5 C-5.960000038146973,34.5 -6.5,33.959999084472656 -6.5,33.290000915527344 C-6.5,33.290000915527344 -6.5,-33.290000915527344 -6.5,-33.290000915527344 C-6.5,-33.959999084472656 -5.960000038146973,-34.5 -5.289999961853027,-34.5z" fill-opacity="1" fill="rgb(193,119,79)"></path></g></g><g style="display: block;" opacity="1" transform="matrix(0.9396926164627075,-0.3420201539993286,0.3420201539993286,0.9396926164627075,340.718505859375,77.37620544433594)"><g transform="matrix(1,0,0,1,0,0)" opacity="1"><path d="M-9,-185 C-9,-185 -9,-140 -9,-140" stroke-width="70" stroke-opacity="1" stroke="rgb(245,168,141)" stroke-miterlimit="4" fill-opacity="0" stroke-linejoin="miter" stroke-linecap="round"></path></g></g><g style="display: block;" opacity="1" transform="matrix(1,0,0,1,278,91.61997985839844)"><g transform="matrix(1,0,0,1,0,0)" opacity="1"><path d="M-9,-356 C-9,-356 -9,-185 -9,-185" stroke-width="70" stroke-opacity="1" stroke="rgb(245,168,141)" stroke-miterlimit="4" fill-opacity="0" stroke-linejoin="miter" stroke-linecap="round"></path></g></g><g style="display: block;" opacity="1" transform="matrix(1,0,0,1,788,134)"><g transform="matrix(4,0,0,4,0,0)" opacity="1"><path d="M-9.361000061035156,4.499000072479248 C-9.361000061035156,6.508999824523926 -10.991000175476074,8.138999938964844 -13.00100040435791,8.138999938964844 C-15.01099967956543,8.138999938964844 -16.641000747680664,6.508999824523926 -16.641000747680664,4.499000072479248 C-16.641000747680664,4.499000072479248 -16.641000747680664,0.49900001287460327 -16.641000747680664,0.49900001287460327 C-16.641000747680664,-4.390999794006348 -12.720999717712402,-8.140999794006348 -7.801000118255615,-8.140999794006348 C-7.801000118255615,-8.140999794006348 7.798999786376953,-8.140999794006348 7.798999786376953,-8.140999794006348 C12.718999862670898,-8.140999794006348 16.638999938964844,-4.390999794006348 16.638999938964844,0.49900001287460327 C16.638999938964844,0.49900001287460327 16.638999938964844,4.499000072479248 16.638999938964844,4.499000072479248 C16.638999938964844,6.508999824523926 15.008999824523926,8.138999938964844 12.99899959564209,8.138999938964844 C10.98900032043457,8.138999938964844 9.359000205993652,6.508999824523926 9.359000205993652,4.499000072479248 C9.359000205993652,4.499000072479248 9.359000205993652,0.49900001287460327 9.359000205993652,0.49900001287460327 C9.359000205993652,-0.29100000858306885 8.769000053405762,-0.8610000014305115 7.798999786376953,-0.8610000014305115 C7.798999786376953,-0.8610000014305115 -7.801000118255615,-0.8610000014305115 -7.801000118255615,-0.8610000014305115 C-8.770999908447266,-0.8610000014305115 -9.361000061035156,-0.29100000858306885 -9.361000061035156,0.49900001287460327 C-9.361000061035156,0.49900001287460327 -9.361000061035156,4.499000072479248 -9.361000061035156,4.499000072479248z" fill-opacity="1" fill="rgb(153,86,49)"></path></g></g><g style="display: block;" opacity="1" transform="matrix(1,0,0,1,840,166)"><g transform="matrix(4,0,0,4,0,0)" opacity="1"><path d="M-4.699999809265137,-5.5 C-4.699999809265137,-5.5 4.699999809265137,-5.5 4.699999809265137,-5.5 C6.519999980926514,-5.5 8,-4.019999980926514 8,-2.200000047683716 C8,-2.200000047683716 8,2.200000047683716 8,2.200000047683716 C8,4.019999980926514 6.519999980926514,5.5 4.699999809265137,5.5 C4.699999809265137,5.5 -4.699999809265137,5.5 -4.699999809265137,5.5 C-6.519999980926514,5.5 -8,4.019999980926514 -8,2.200000047683716 C-8,2.200000047683716 -8,-2.200000047683716 -8,-2.200000047683716 C-8,-4.019999980926514 -6.519999980926514,-5.5 -4.699999809265137,-5.5z" fill-opacity="1" fill="rgb(255,202,8)"></path></g></g><g style="display: block;" opacity="1" transform="matrix(1,0,0,1,736,166)"><g transform="matrix(4,0,0,4,0,0)" opacity="1"><path d="M-4.699999809265137,-5.5 C-4.699999809265137,-5.5 4.699999809265137,-5.5 4.699999809265137,-5.5 C6.519999980926514,-5.5 8,-4.019999980926514 8,-2.200000047683716 C8,-2.200000047683716 8,2.200000047683716 8,2.200000047683716 C8,4.019999980926514 6.519999980926514,5.5 4.699999809265137,5.5 C4.699999809265137,5.5 -4.699999809265137,5.5 -4.699999809265137,5.5 C-6.519999980926514,5.5 -8,4.019999980926514 -8,2.200000047683716 C-8,2.200000047683716 -8,-2.200000047683716 -8,-2.200000047683716 C-8,-4.019999980926514 -6.519999980926514,-5.5 -4.699999809265137,-5.5z" fill-opacity="1" fill="rgb(255,202,8)"></path></g></g><g style="display: block;" opacity="1" transform="matrix(1,0,0,1,788,284.82000732421875)"><g transform="matrix(4,0,0,4,0,0)" opacity="1"><path d="M-38.900001525878906,-30.5 C-38.900001525878906,-30.5 38.900001525878906,-30.5 38.900001525878906,-30.5 C43.91999816894531,-30.5 48,-26.420000076293945 48,-21.399999618530273 C48,-21.399999618530273 48,21.399999618530273 48,21.399999618530273 C48,26.420000076293945 43.91999816894531,30.5 38.900001525878906,30.5 C38.900001525878906,30.5 -38.900001525878906,30.5 -38.900001525878906,30.5 C-43.91999816894531,30.5 -48,26.420000076293945 -48,21.399999618530273 C-48,21.399999618530273 -48,-21.399999618530273 -48,-21.399999618530273 C-48,-26.420000076293945 -43.91999816894531,-30.5 -38.900001525878906,-30.5z" fill-opacity="1" fill="rgb(153,86,49)"></path></g></g><g style="display: block;" opacity="1" transform="matrix(1,0,0,1,898,286)"><g transform="matrix(4,0,0,4,0,0)" opacity="1"><path d="M-5.289999961853027,-34.5 C-5.289999961853027,-34.5 5.289999961853027,-34.5 5.289999961853027,-34.5 C5.960000038146973,-34.5 6.5,-33.959999084472656 6.5,-33.290000915527344 C6.5,-33.290000915527344 6.5,33.290000915527344 6.5,33.290000915527344 C6.5,33.959999084472656 5.960000038146973,34.5 5.289999961853027,34.5 C5.289999961853027,34.5 -5.289999961853027,34.5 -5.289999961853027,34.5 C-5.960000038146973,34.5 -6.5,33.959999084472656 -6.5,33.290000915527344 C-6.5,33.290000915527344 -6.5,-33.290000915527344 -6.5,-33.290000915527344 C-6.5,-33.959999084472656 -5.960000038146973,-34.5 -5.289999961853027,-34.5z" fill-opacity="1" fill="rgb(193,119,79)"></path></g></g><g style="display: block;" opacity="1" transform="matrix(1,0,0,1,678,286)"><g transform="matrix(4,0,0,4,0,0)" opacity="1"><path d="M-5.289999961853027,-34.5 C-5.289999961853027,-34.5 5.289999961853027,-34.5 5.289999961853027,-34.5 C5.960000038146973,-34.5 6.5,-33.959999084472656 6.5,-33.290000915527344 C6.5,-33.290000915527344 6.5,33.290000915527344 6.5,33.290000915527344 C6.5,33.959999084472656 5.960000038146973,34.5 5.289999961853027,34.5 C5.289999961853027,34.5 -5.289999961853027,34.5 -5.289999961853027,34.5 C-5.960000038146973,34.5 -6.5,33.959999084472656 -6.5,33.290000915527344 C-6.5,33.290000915527344 -6.5,-33.290000915527344 -6.5,-33.290000915527344 C-6.5,-33.959999084472656 -5.960000038146973,-34.5 -5.289999961853027,-34.5z" fill-opacity="1" fill="rgb(193,119,79)"></path></g></g></g></g></svg>