<svg style="width: 100%; height: 100%; transform: translate3d(0px, 0px, 0px);" preserveAspectRatio="xMidYMid meet" height="135" width="135" viewBox="0 0 135 135" xmlns="http://www.w3.org/2000/svg"><defs><clipPath id="__lottie_element_9980"><rect y="0" x="0" height="135" width="135"></rect></clipPath><clipPath id="__lottie_element_9982"><path d="M0,0 L540,0 L540,540 L0,540z"></path></clipPath><clipPath id="__lottie_element_9987"><path d="M0,0 L540,0 L540,540 L0,540z"></path></clipPath></defs><g clip-path="url(#__lottie_element_9980)"><g style="display: block;" opacity="1" transform="matrix(0.25,0,0,0.25,0,0)" clip-path="url(#__lottie_element_9982)"><g style="display: block;" opacity="1" transform="matrix(1.0099999904632568,0,0,0.9900000095367432,-2.70001220703125,4.318756103515625)" clip-path="url(#__lottie_element_9987)"><g style="display: block;" opacity="1" transform="matrix(1,0,0,1,270,270)"><g transform="matrix(4,0,0,4,0,0)" opacity="1"><path d="M0,40.5 C22.3700008392334,40.5 40.5,22.3700008392334 40.5,0 C40.5,-22.3700008392334 22.3700008392334,-40.5 0,-40.5 C-22.3700008392334,-40.5 -40.5,-22.3700008392334 -40.5,0 C-40.5,22.3700008392334 -22.3700008392334,40.5 0,40.5z" fill-opacity="1" fill="rgb(255,255,255)"></path></g></g><g style="display: block;" opacity="1" transform="matrix(1,0,0,1,363.1719970703125,383.3949890136719)"><g transform="matrix(4,0,0,4,0,0)" opacity="1"><path d="M11.996000289916992,-8.461999893188477 C7.035999774932861,0.328000009059906 -1.1139999628067017,7.067999839782715 -10.87399959564209,10.208000183105469 C-12.154000282287598,8.668000221252441 -12.394000053405762,6.427999973297119 -11.303999900817871,4.618000030517578 C-11.303999900817871,4.618000030517578 -6.374000072479248,-3.611999988555908 -6.374000072479248,-3.611999988555908 C-5.464000225067139,-5.122000217437744 -4.064000129699707,-6.26200008392334 -2.3940000534057617,-6.8420000076293945 C-2.3940000534057617,-6.8420000076293945 6.676000118255615,-9.95199966430664 6.676000118255615,-9.95199966430664 C7.026000022888184,-10.062000274658203 7.375999927520752,-10.142000198364258 7.736000061035156,-10.182000160217285 C9.416000366210938,-10.362000465393066 10.986000061035156,-9.661999702453613 11.996000289916992,-8.461999893188477 C11.996000289916992,-8.461999893188477 11.996000289916992,-8.461999893188477 11.996000289916992,-8.461999893188477z" fill-opacity="1" fill="rgb(103,103,103)"></path></g></g><g style="display: block;" opacity="1" transform="matrix(1,0,0,1,178.70599365234375,383.7170104980469)"><g transform="matrix(4,0,0,4,0,0)" opacity="1"><path d="M10.913999557495117,10.288000106811523 C1.1139999628067017,7.2779998779296875 -7.105999946594238,0.6480000019073486 -12.175999641418457,-8.041999816894531 C-11.215999603271484,-9.552000045776367 -9.456000328063965,-10.472000122070312 -7.556000232696533,-10.26200008392334 C-7.196000099182129,-10.222000122070312 -6.835999965667725,-10.142000198364258 -6.495999813079834,-10.031999588012695 C-6.495999813079834,-10.031999588012695 2.5739998817443848,-6.921999931335449 2.5739998817443848,-6.921999931335449 C4.24399995803833,-6.3420000076293945 5.6539998054504395,-5.202000141143799 6.553999900817871,-3.691999912261963 C6.553999900817871,-3.691999912261963 11.484000205993652,4.538000106811523 11.484000205993652,4.538000106811523 C12.61400032043457,6.418000221252441 12.314000129699707,8.748000144958496 10.913999557495117,10.288000106811523z" fill-opacity="1" fill="rgb(103,103,103)"></path></g></g><g style="display: block;" opacity="1" transform="matrix(1,0,0,1,137.88800048828125,225.66099548339844)"><g transform="matrix(4,0,0,4,0,0)" opacity="1"><path d="M-7.392000198364258,13.652999877929688 C-7.441999912261963,12.803000450134277 -7.4720001220703125,11.942999839782715 -7.4720001220703125,11.083000183105469 C-7.4720001220703125,1.7330000400543213 -4.302000045776367,-6.876999855041504 1.0180000066757202,-13.72700023651123 C1.0180000066757202,-13.72700023651123 1.628000020980835,-13.786999702453613 1.628000020980835,-13.786999702453613 C1.9279999732971191,-13.817000389099121 2.23799991607666,-13.817000389099121 2.5480000972747803,-13.786999702453613 C5.498000144958496,-13.54699993133545 7.697999954223633,-10.956999778747559 7.458000183105469,-8.006999969482422 C7.458000183105469,-8.006999969482422 6.697999954223633,1.2330000400543213 6.697999954223633,1.2330000400543213 C6.538000106811523,3.0929999351501465 5.697999954223633,4.833000183105469 4.317999839782715,6.103000164031982 C4.317999839782715,6.103000164031982 -2.492000102996826,12.383000373840332 -2.492000102996826,12.383000373840332 C-2.7219998836517334,12.593000411987305 -2.9619998931884766,12.782999992370605 -3.2219998836517334,12.95300006866455 C-4.51200008392334,13.782999992370605 -6.01200008392334,13.993000030517578 -7.392000198364258,13.652999877929688 C-7.392000198364258,13.652999877929688 -7.392000198364258,13.652999877929688 -7.392000198364258,13.652999877929688z" fill-opacity="1" fill="rgb(103,103,103)"></path></g></g><g style="display: block;" opacity="1" transform="matrix(1,0,0,1,269.86199951171875,129.58900451660156)"><g transform="matrix(4,0,0,4,0,0)" opacity="1"><path d="M-14.4350004196167,-2.736999988555908 C-9.944999694824219,-4.456999778747559 -5.065000057220459,-5.396999835968018 0.03500000014901161,-5.396999835968018 C5.105000019073486,-5.396999835968018 9.954999923706055,-4.4670000076293945 14.4350004196167,-2.7669999599456787 C14.675000190734863,-0.7770000100135803 13.505000114440918,1.1829999685287476 11.53499984741211,1.8630000352859497 C11.53499984741211,1.8630000352859497 2.424999952316284,4.993000030517578 2.424999952316284,4.993000030517578 C0.8550000190734863,5.5329999923706055 -0.8550000190734863,5.5329999923706055 -2.424999952316284,4.993000030517578 C-2.424999952316284,4.993000030517578 -11.53499984741211,1.8630000352859497 -11.53499984741211,1.8630000352859497 C-11.904999732971191,1.7330000400543213 -12.265000343322754,1.562999963760376 -12.585000038146973,1.3329999446868896 C-13.954999923706055,0.3930000066757202 -14.614999771118164,-1.1970000267028809 -14.4350004196167,-2.736999988555908z" fill-opacity="1" fill="rgb(103,103,103)"></path></g></g><g style="display: block;" opacity="1" transform="matrix(1,0,0,1,403.14599609375,225.66099548339844)"><g transform="matrix(4,0,0,4,0,0)" opacity="1"><path d="M-1.3140000104904175,-13.777000427246094 C4.026000022888184,-6.916999816894531 7.216000080108643,1.7130000591278076 7.216000080108643,11.083000183105469 C7.216000080108643,11.982999801635742 7.185999870300293,12.873000144958496 7.125999927520752,13.753000259399414 C5.895999908447266,13.92300033569336 4.605999946594238,13.67300033569336 3.4760000705718994,12.95300006866455 C3.2160000801086426,12.782999992370605 2.9760000705718994,12.593000411987305 2.746000051498413,12.383000373840332 C2.746000051498413,12.383000373840332 -4.064000129699707,6.103000164031982 -4.064000129699707,6.103000164031982 C-5.434000015258789,4.833000183105469 -6.283999919891357,3.0929999351501465 -6.434000015258789,1.2330000400543213 C-6.434000015258789,1.2330000400543213 -7.193999767303467,-8.006999969482422 -7.193999767303467,-8.006999969482422 C-7.434000015258789,-10.956999778747559 -5.24399995803833,-13.54699993133545 -2.2939999103546143,-13.786999702453613 C-1.9839999675750732,-13.817000389099121 -1.6740000247955322,-13.817000389099121 -1.3639999628067017,-13.786999702453613 C-1.3639999628067017,-13.786999702453613 -1.3140000104904175,-13.777000427246094 -1.3140000104904175,-13.777000427246094 C-1.3140000104904175,-13.777000427246094 -1.3140000104904175,-13.777000427246094 -1.3140000104904175,-13.777000427246094z" fill-opacity="1" fill="rgb(103,103,103)"></path></g></g><g style="display: block;" opacity="1" transform="matrix(1,0,0,1,269.468994140625,269.3710021972656)"><g transform="matrix(4,0,0,4,0,0)" opacity="1"><path d="M4.381999969482422,-13.237000465393066 C4.381999969482422,-13.237000465393066 11.95199966430664,-7.7270002365112305 11.95199966430664,-7.7270002365112305 C14.571999549865723,-5.836999893188477 15.661999702453613,-2.4670000076293945 14.661999702453613,0.6029999852180481 C14.661999702453613,0.6029999852180481 11.772000312805176,9.503000259399414 11.772000312805176,9.503000259399414 C10.772000312805176,12.572999954223633 7.9120001792907715,14.652999877929688 4.682000160217285,14.652999877929688 C4.682000160217285,14.652999877929688 -4.677999973297119,14.652999877929688 -4.677999973297119,14.652999877929688 C-7.9079999923706055,14.652999877929688 -10.767999649047852,12.572999954223633 -11.767999649047852,9.503000259399414 C-11.767999649047852,9.503000259399414 -14.657999992370605,0.6029999852180481 -14.657999992370605,0.6029999852180481 C-15.657999992370605,-2.4670000076293945 -14.567999839782715,-5.836999893188477 -11.958000183105469,-7.7270002365112305 C-11.958000183105469,-7.7270002365112305 -4.377999782562256,-13.237000465393066 -4.377999782562256,-13.237000465393066 C-1.7680000066757202,-15.126999855041504 1.7719999551773071,-15.126999855041504 4.381999969482422,-13.237000465393066z" fill-opacity="1" fill="rgb(103,103,103)"></path></g></g></g></g></g></svg>