<svg style="width: 100%; height: 100%; transform: translate3d(0px, 0px, 0px);" preserveAspectRatio="xMidYMid meet" height="135" width="135" viewBox="0 0 135 135" xmlns="http://www.w3.org/2000/svg"><defs><clipPath id="__lottie_element_10012"><rect y="0" x="0" height="135" width="135"></rect></clipPath><clipPath id="__lottie_element_10014"><path d="M0,0 L540,0 L540,540 L0,540z"></path></clipPath><clipPath id="__lottie_element_10018"><path d="M0,0 L540,0 L540,540 L0,540z"></path></clipPath><clipPath id="__lottie_element_10023"><path d="M0,0 L600,0 L600,1400 L0,1400z"></path></clipPath><clipPath id="__lottie_element_10027"><path clip-rule="nonzero" fill="#ffffff"></path></clipPath><clipPath id="__lottie_element_10030"><path d="M0,0 L540,0 L540,1400 L0,1400z"></path></clipPath><clipPath id="__lottie_element_10034"><path d="M0,0 L540,0 L540,1400 L0,1400z"></path></clipPath><clipPath id="__lottie_element_10035"><path clip-rule="nonzero" fill="#ffffff"></path></clipPath><clipPath id="__lottie_element_10059"><path clip-rule="nonzero" fill="#ffffff"></path></clipPath><clipPath id="__lottie_element_10062"><path d="M0,0 L600,0 L600,1400 L0,1400z"></path></clipPath><clipPath id="__lottie_element_10066"><path clip-rule="nonzero" fill="#ffffff"></path></clipPath><clipPath id="__lottie_element_10069"><path d="M0,0 L540,0 L540,1400 L0,1400z"></path></clipPath><clipPath id="__lottie_element_10073"><path d="M0,0 L540,0 L540,1400 L0,1400z"></path></clipPath><clipPath id="__lottie_element_10074"><path clip-rule="nonzero" fill="#ffffff"></path></clipPath><clipPath id="__lottie_element_10098"><path clip-rule="nonzero" fill="#ffffff"></path></clipPath><clipPath id="__lottie_element_10101"><path d="M0,0 L540,0 L540,540 L0,540z"></path></clipPath><clipPath id="__lottie_element_10106"><path d="M0,0 L600,0 L600,1400 L0,1400z"></path></clipPath><clipPath id="__lottie_element_10110"><path fill-opacity="1" d="M270.7349853515625,-335.9490051269531 C270.7349853515625,-335.9490051269531 -259.4649963378906,-243.00100708007812 -259.4649963378906,-243.00100708007812 C-259.4649963378906,-243.00100708007812 -245.64300537109375,-158.38699340820312 -245.64300537109375,-158.38699340820312 C-245.64300537109375,-158.38699340820312 284.7049865722656,-251.2050018310547 284.7049865722656,-251.2050018310547 C284.7049865722656,-251.2050018310547 270.7349853515625,-335.9490051269531 270.7349853515625,-335.9490051269531" clip-rule="nonzero" fill="#ffffff"></path></clipPath><clipPath id="__lottie_element_10113"><path d="M0,0 L540,0 L540,1400 L0,1400z"></path></clipPath><clipPath id="__lottie_element_10117"><path d="M0,0 L540,0 L540,1400 L0,1400z"></path></clipPath><clipPath id="__lottie_element_10118"><path fill-opacity="1" d="M511.8940124511719,461.9679870605469 C511.8940124511719,461.9679870605469 36.31100082397461,461.54998779296875 36.31100082397461,461.54998779296875 C36.31100082397461,461.54998779296875 35.78099822998047,894.02001953125 35.78099822998047,894.02001953125 C35.78099822998047,894.02001953125 512.364013671875,894.43798828125 512.364013671875,894.43798828125 C512.364013671875,894.43798828125 511.8940124511719,461.9679870605469 511.8940124511719,461.9679870605469" clip-rule="nonzero" fill="#ffffff"></path></clipPath><clipPath id="__lottie_element_10142"><path fill-opacity="1" d="M2.687000036239624,-340.239990234375 C2.687000036239624,-340.239990234375 -333.89599609375,-3.6570000648498535 -333.89599609375,-3.6570000648498535 C-333.89599609375,-3.6570000648498535 -28.426000595092773,301.81298828125 -28.426000595092773,301.81298828125 C-28.426000595092773,301.81298828125 308.1570129394531,-34.76900100708008 308.1570129394531,-34.76900100708008 C308.1570129394531,-34.76900100708008 2.687000036239624,-340.239990234375 2.687000036239624,-340.239990234375" clip-rule="nonzero" fill="#ffffff"></path></clipPath><clipPath id="__lottie_element_10145"><path d="M0,0 L600,0 L600,1400 L0,1400z"></path></clipPath><clipPath id="__lottie_element_10149"><path fill-opacity="1" d="M270.7349853515625,-335.9490051269531 C270.7349853515625,-335.9490051269531 -259.4649963378906,-243.00100708007812 -259.4649963378906,-243.00100708007812 C-259.4649963378906,-243.00100708007812 -245.64300537109375,-158.38699340820312 -245.64300537109375,-158.38699340820312 C-245.64300537109375,-158.38699340820312 284.7049865722656,-251.2050018310547 284.7049865722656,-251.2050018310547 C284.7049865722656,-251.2050018310547 270.7349853515625,-335.9490051269531 270.7349853515625,-335.9490051269531" clip-rule="nonzero" fill="#ffffff"></path></clipPath><clipPath id="__lottie_element_10152"><path d="M0,0 L540,0 L540,1400 L0,1400z"></path></clipPath><clipPath id="__lottie_element_10156"><path d="M0,0 L540,0 L540,1400 L0,1400z"></path></clipPath><clipPath id="__lottie_element_10157"><path fill-opacity="1" d="M511.8940124511719,461.9679870605469 C511.8940124511719,461.9679870605469 36.31100082397461,461.54998779296875 36.31100082397461,461.54998779296875 C36.31100082397461,461.54998779296875 35.78099822998047,894.02001953125 35.78099822998047,894.02001953125 C35.78099822998047,894.02001953125 512.364013671875,894.43798828125 512.364013671875,894.43798828125 C512.364013671875,894.43798828125 511.8940124511719,461.9679870605469 511.8940124511719,461.9679870605469" clip-rule="nonzero" fill="#ffffff"></path></clipPath><clipPath id="__lottie_element_10181"><path fill-opacity="1" d="M2.687000036239624,-340.239990234375 C2.687000036239624,-340.239990234375 -333.89599609375,-3.6570000648498535 -333.89599609375,-3.6570000648498535 C-333.89599609375,-3.6570000648498535 -28.426000595092773,301.81298828125 -28.426000595092773,301.81298828125 C-28.426000595092773,301.81298828125 308.1570129394531,-34.76900100708008 308.1570129394531,-34.76900100708008 C308.1570129394531,-34.76900100708008 2.687000036239624,-340.239990234375 2.687000036239624,-340.239990234375" clip-rule="nonzero" fill="#ffffff"></path></clipPath></defs><g clip-path="url(#__lottie_element_10012)"><g style="display: block;" opacity="1" transform="matrix(0.25,0,0,0.25,0,0)" clip-path="url(#__lottie_element_10014)"><g style="display: block;" opacity="1" transform="matrix(1,0,0,1,0,0)" clip-path="url(#__lottie_element_10101)"><g style="display: block;" opacity="1" transform="matrix(0.7071067690849304,-0.7071067690849304,0.7071067690849304,0.7071067690849304,-437.1068115234375,-12.84271240234375)" clip-path="url(#__lottie_element_10145)"><g style="display: block;" opacity="1" transform="matrix(1,0,0,1,30,0)" clip-path="url(#__lottie_element_10152)"><g style="display: block;" opacity="1" transform="matrix(0.7071067690849304,0.7071067690849304,-0.7071067690849304,0.7071067690849304,269.5140075683594,700.6859741210938)" clip-path="url(#__lottie_element_10181)"><g transform="matrix(4,0,0,4,0,0)" opacity="1"><path d="M40.08300018310547,27.093000411987305 C40.08300018310547,27.093000411987305 27.093000411987305,40.08300018310547 27.093000411987305,40.08300018310547 C23.843000411987305,43.33300018310547 18.58300018310547,43.33300018310547 15.333000183105469,40.08300018310547 C15.333000183105469,40.08300018310547 -40.07699966430664,-15.336999893188477 -40.07699966430664,-15.336999893188477 C-43.32699966430664,-18.57699966430664 -43.32699966430664,-23.847000122070312 -40.07699966430664,-27.097000122070312 C-40.07699966430664,-27.097000122070312 -27.097000122070312,-40.07699966430664 -27.097000122070312,-40.07699966430664 C-23.847000122070312,-43.32699966430664 -18.57699966430664,-43.32699966430664 -15.336999893188477,-40.07699966430664 C-15.336999893188477,-40.07699966430664 40.08300018310547,15.333000183105469 40.08300018310547,15.333000183105469 C43.33300018310547,18.58300018310547 43.33300018310547,23.843000411987305 40.08300018310547,27.093000411987305z" fill-opacity="1" fill="rgb(242,184,107)"></path></g></g><g style="display: block;" opacity="1" transform="matrix(1,0,0,1,0,0)" clip-path="url(#__lottie_element_10156)"><g clip-path="url(#__lottie_element_10157)"><g style="display: block;" opacity="1" transform="matrix(0.7071067690849304,-0.7071067690849304,0.7071067690849304,0.7071067690849304,270.90301513671875,701.8350219726562)"><g transform="matrix(4,0,0,4,0,0)" opacity="1"><path d="M5.877999782562256,-16.601999282836914 C5.877999782562256,-16.601999282836914 16.607999801635742,-5.881999969482422 16.607999801635742,-5.881999969482422 C19.857999801635742,-2.631999969482422 19.857999801635742,2.628000020980835 16.607999801635742,5.877999782562256 C16.607999801635742,5.877999782562256 5.877999782562256,16.607999801635742 5.877999782562256,16.607999801635742 C2.628000020980835,19.857999801635742 -2.631999969482422,19.857999801635742 -5.881999969482422,16.607999801635742 C-5.881999969482422,16.607999801635742 -16.601999282836914,5.877999782562256 -16.601999282836914,5.877999782562256 C-19.851999282836914,2.628000020980835 -19.851999282836914,-2.631999969482422 -16.601999282836914,-5.881999969482422 C-16.601999282836914,-5.881999969482422 -5.881999969482422,-16.601999282836914 -5.881999969482422,-16.601999282836914 C-2.631999969482422,-19.851999282836914 2.628000020980835,-19.851999282836914 5.877999782562256,-16.601999282836914z" fill-opacity="1" fill="rgb(255,208,146)"></path></g></g><g style="display: block;" opacity="1" transform="matrix(0.7071067690849304,-0.7071067690849304,0.7071067690849304,0.7071067690849304,236.93499755859375,550.1160278320312)"><g transform="matrix(2.8284270763397217,2.8284270763397217,-2.8284270763397217,2.8284270763397217,0,0)" opacity="1"><path d="M0,4 C2.2100000381469727,4 4,2.2100000381469727 4,0 C4,-2.2100000381469727 2.2100000381469727,-4 0,-4 C-2.2100000381469727,-4 -4,-2.2100000381469727 -4,0 C-4,2.2100000381469727 -2.2100000381469727,4 0,4z" fill-opacity="1" fill="rgb(216,159,83)"></path></g></g><g style="display: block;" opacity="1" transform="matrix(0.7071067690849304,-0.7071067690849304,0.7071067690849304,0.7071067690849304,300.93499755859375,550.1160278320312)"><g transform="matrix(2.8284270763397217,2.8284270763397217,-2.8284270763397217,2.8284270763397217,0,0)" opacity="1"><path d="M0,4 C2.2100000381469727,4 4,2.2100000381469727 4,0 C4,-2.2100000381469727 2.2100000381469727,-4 0,-4 C-2.2100000381469727,-4 -4,-2.2100000381469727 -4,0 C-4,2.2100000381469727 -2.2100000381469727,4 0,4z" fill-opacity="1" fill="rgb(216,159,83)"></path></g></g><g style="display: block;" opacity="1" transform="matrix(0.7071067690849304,-0.7071067690849304,0.7071067690849304,0.7071067690849304,268.93499755859375,594.1160278320312)"><g transform="matrix(2.8284270763397217,2.8284270763397217,-2.8284270763397217,2.8284270763397217,0,0)" opacity="1"><path d="M0,4 C2.2100000381469727,4 4,2.2100000381469727 4,0 C4,-2.2100000381469727 2.2100000381469727,-4 0,-4 C-2.2100000381469727,-4 -4,-2.2100000381469727 -4,0 C-4,2.2100000381469727 -2.2100000381469727,4 0,4z" fill-opacity="1" fill="rgb(216,159,83)"></path></g></g><g style="display: block;" opacity="1" transform="matrix(0.7071067690849304,-0.7071067690849304,-0.7071067690849304,-0.7071067690849304,238.87899780273438,848.2100219726562)"><g transform="matrix(2.8284270763397217,-2.8284270763397217,2.8284270763397217,2.8284270763397217,0,0)" opacity="1"><path d="M0,4 C2.2100000381469727,4 4,2.2100000381469727 4,0 C4,-2.2100000381469727 2.2100000381469727,-4 0,-4 C-2.2100000381469727,-4 -4,-2.2100000381469727 -4,0 C-4,2.2100000381469727 -2.2100000381469727,4 0,4z" fill-opacity="1" fill="rgb(216,159,83)"></path></g></g><g style="display: block;" opacity="1" transform="matrix(0.7071067690849304,-0.7071067690849304,-0.7071067690849304,-0.7071067690849304,302.8789978027344,848.2100219726562)"><g transform="matrix(2.8284270763397217,-2.8284270763397217,2.8284270763397217,2.8284270763397217,0,0)" opacity="1"><path d="M0,4 C2.2100000381469727,4 4,2.2100000381469727 4,0 C4,-2.2100000381469727 2.2100000381469727,-4 0,-4 C-2.2100000381469727,-4 -4,-2.2100000381469727 -4,0 C-4,2.2100000381469727 -2.2100000381469727,4 0,4z" fill-opacity="1" fill="rgb(216,159,83)"></path></g></g><g style="display: block;" opacity="1" transform="matrix(0.7071067690849304,-0.7071067690849304,-0.7071067690849304,-0.7071067690849304,270.8789978027344,804.2100219726562)"><g transform="matrix(2.8284270763397217,-2.8284270763397217,2.8284270763397217,2.8284270763397217,0,0)" opacity="1"><path d="M0,4 C2.2100000381469727,4 4,2.2100000381469727 4,0 C4,-2.2100000381469727 2.2100000381469727,-4 0,-4 C-2.2100000381469727,-4 -4,-2.2100000381469727 -4,0 C-4,2.2100000381469727 -2.2100000381469727,4 0,4z" fill-opacity="1" fill="rgb(216,159,83)"></path></g></g></g></g></g><g style="display: block;" opacity="1" transform="matrix(0.9848077297210693,0.1736481785774231,-0.1736481785774231,0.9848077297210693,375.27899169921875,1063.98095703125)" clip-path="url(#__lottie_element_10149)"><g transform="matrix(4,0,0,4,0,0)" opacity="1"><path d="M40.08300018310547,27.093000411987305 C40.08300018310547,27.093000411987305 27.093000411987305,40.08300018310547 27.093000411987305,40.08300018310547 C23.843000411987305,43.33300018310547 18.58300018310547,43.33300018310547 15.333000183105469,40.08300018310547 C15.333000183105469,40.08300018310547 -40.07699966430664,-15.336999893188477 -40.07699966430664,-15.336999893188477 C-43.32699966430664,-18.57699966430664 -43.32699966430664,-23.847000122070312 -40.07699966430664,-27.097000122070312 C-40.07699966430664,-27.097000122070312 -27.097000122070312,-40.07699966430664 -27.097000122070312,-40.07699966430664 C-23.847000122070312,-43.32699966430664 -18.57699966430664,-43.32699966430664 -15.336999893188477,-40.07699966430664 C-15.336999893188477,-40.07699966430664 40.08300018310547,15.333000183105469 40.08300018310547,15.333000183105469 C43.33300018310547,18.58300018310547 43.33300018310547,23.843000411987305 40.08300018310547,27.093000411987305z" fill-opacity="1" fill="rgb(255,218,169)"></path></g></g></g><g style="display: block;" opacity="1" transform="matrix(0.7071067690849304,0.7071067690849304,-0.7071067690849304,0.7071067690849304,552.8427124023438,-437.1068115234375)" clip-path="url(#__lottie_element_10106)"><g style="display: block;" opacity="1" transform="matrix(1,0,0,1,30,0)" clip-path="url(#__lottie_element_10113)"><g style="display: block;" opacity="1" transform="matrix(0.7071067690849304,0.7071067690849304,-0.7071067690849304,0.7071067690849304,269.5140075683594,700.6859741210938)" clip-path="url(#__lottie_element_10142)"><g transform="matrix(4,0,0,4,0,0)" opacity="1"><path d="M40.08300018310547,27.093000411987305 C40.08300018310547,27.093000411987305 27.093000411987305,40.08300018310547 27.093000411987305,40.08300018310547 C23.843000411987305,43.33300018310547 18.58300018310547,43.33300018310547 15.333000183105469,40.08300018310547 C15.333000183105469,40.08300018310547 -40.07699966430664,-15.336999893188477 -40.07699966430664,-15.336999893188477 C-43.32699966430664,-18.57699966430664 -43.32699966430664,-23.847000122070312 -40.07699966430664,-27.097000122070312 C-40.07699966430664,-27.097000122070312 -27.097000122070312,-40.07699966430664 -27.097000122070312,-40.07699966430664 C-23.847000122070312,-43.32699966430664 -18.57699966430664,-43.32699966430664 -15.336999893188477,-40.07699966430664 C-15.336999893188477,-40.07699966430664 40.08300018310547,15.333000183105469 40.08300018310547,15.333000183105469 C43.33300018310547,18.58300018310547 43.33300018310547,23.843000411987305 40.08300018310547,27.093000411987305z" fill-opacity="1" fill="rgb(242,184,107)"></path></g></g><g style="display: block;" opacity="1" transform="matrix(1,0,0,1,0,0)" clip-path="url(#__lottie_element_10117)"><g clip-path="url(#__lottie_element_10118)"><g style="display: block;" opacity="1" transform="matrix(0.7071067690849304,-0.7071067690849304,0.7071067690849304,0.7071067690849304,270.90301513671875,701.8350219726562)"><g transform="matrix(4,0,0,4,0,0)" opacity="1"><path d="M5.877999782562256,-16.601999282836914 C5.877999782562256,-16.601999282836914 16.607999801635742,-5.881999969482422 16.607999801635742,-5.881999969482422 C19.857999801635742,-2.631999969482422 19.857999801635742,2.628000020980835 16.607999801635742,5.877999782562256 C16.607999801635742,5.877999782562256 5.877999782562256,16.607999801635742 5.877999782562256,16.607999801635742 C2.628000020980835,19.857999801635742 -2.631999969482422,19.857999801635742 -5.881999969482422,16.607999801635742 C-5.881999969482422,16.607999801635742 -16.601999282836914,5.877999782562256 -16.601999282836914,5.877999782562256 C-19.851999282836914,2.628000020980835 -19.851999282836914,-2.631999969482422 -16.601999282836914,-5.881999969482422 C-16.601999282836914,-5.881999969482422 -5.881999969482422,-16.601999282836914 -5.881999969482422,-16.601999282836914 C-2.631999969482422,-19.851999282836914 2.628000020980835,-19.851999282836914 5.877999782562256,-16.601999282836914z" fill-opacity="1" fill="rgb(255,208,146)"></path></g></g><g style="display: block;" opacity="1" transform="matrix(0.7071067690849304,-0.7071067690849304,0.7071067690849304,0.7071067690849304,236.93499755859375,550.1160278320312)"><g transform="matrix(2.8284270763397217,2.8284270763397217,-2.8284270763397217,2.8284270763397217,0,0)" opacity="1"><path d="M0,4 C2.2100000381469727,4 4,2.2100000381469727 4,0 C4,-2.2100000381469727 2.2100000381469727,-4 0,-4 C-2.2100000381469727,-4 -4,-2.2100000381469727 -4,0 C-4,2.2100000381469727 -2.2100000381469727,4 0,4z" fill-opacity="1" fill="rgb(216,159,83)"></path></g></g><g style="display: block;" opacity="1" transform="matrix(0.7071067690849304,-0.7071067690849304,0.7071067690849304,0.7071067690849304,300.93499755859375,550.1160278320312)"><g transform="matrix(2.8284270763397217,2.8284270763397217,-2.8284270763397217,2.8284270763397217,0,0)" opacity="1"><path d="M0,4 C2.2100000381469727,4 4,2.2100000381469727 4,0 C4,-2.2100000381469727 2.2100000381469727,-4 0,-4 C-2.2100000381469727,-4 -4,-2.2100000381469727 -4,0 C-4,2.2100000381469727 -2.2100000381469727,4 0,4z" fill-opacity="1" fill="rgb(216,159,83)"></path></g></g><g style="display: block;" opacity="1" transform="matrix(0.7071067690849304,-0.7071067690849304,0.7071067690849304,0.7071067690849304,268.93499755859375,594.1160278320312)"><g transform="matrix(2.8284270763397217,2.8284270763397217,-2.8284270763397217,2.8284270763397217,0,0)" opacity="1"><path d="M0,4 C2.2100000381469727,4 4,2.2100000381469727 4,0 C4,-2.2100000381469727 2.2100000381469727,-4 0,-4 C-2.2100000381469727,-4 -4,-2.2100000381469727 -4,0 C-4,2.2100000381469727 -2.2100000381469727,4 0,4z" fill-opacity="1" fill="rgb(216,159,83)"></path></g></g><g style="display: block;" opacity="1" transform="matrix(0.7071067690849304,-0.7071067690849304,-0.7071067690849304,-0.7071067690849304,238.87899780273438,848.2100219726562)"><g transform="matrix(2.8284270763397217,-2.8284270763397217,2.8284270763397217,2.8284270763397217,0,0)" opacity="1"><path d="M0,4 C2.2100000381469727,4 4,2.2100000381469727 4,0 C4,-2.2100000381469727 2.2100000381469727,-4 0,-4 C-2.2100000381469727,-4 -4,-2.2100000381469727 -4,0 C-4,2.2100000381469727 -2.2100000381469727,4 0,4z" fill-opacity="1" fill="rgb(216,159,83)"></path></g></g><g style="display: block;" opacity="1" transform="matrix(0.7071067690849304,-0.7071067690849304,-0.7071067690849304,-0.7071067690849304,302.8789978027344,848.2100219726562)"><g transform="matrix(2.8284270763397217,-2.8284270763397217,2.8284270763397217,2.8284270763397217,0,0)" opacity="1"><path d="M0,4 C2.2100000381469727,4 4,2.2100000381469727 4,0 C4,-2.2100000381469727 2.2100000381469727,-4 0,-4 C-2.2100000381469727,-4 -4,-2.2100000381469727 -4,0 C-4,2.2100000381469727 -2.2100000381469727,4 0,4z" fill-opacity="1" fill="rgb(216,159,83)"></path></g></g><g style="display: block;" opacity="1" transform="matrix(0.7071067690849304,-0.7071067690849304,-0.7071067690849304,-0.7071067690849304,270.8789978027344,804.2100219726562)"><g transform="matrix(2.8284270763397217,-2.8284270763397217,2.8284270763397217,2.8284270763397217,0,0)" opacity="1"><path d="M0,4 C2.2100000381469727,4 4,2.2100000381469727 4,0 C4,-2.2100000381469727 2.2100000381469727,-4 0,-4 C-2.2100000381469727,-4 -4,-2.2100000381469727 -4,0 C-4,2.2100000381469727 -2.2100000381469727,4 0,4z" fill-opacity="1" fill="rgb(216,159,83)"></path></g></g></g></g></g><g style="display: block;" opacity="1" transform="matrix(0.9848077297210693,0.1736481785774231,-0.1736481785774231,0.9848077297210693,375.27899169921875,1063.98095703125)" clip-path="url(#__lottie_element_10110)"><g transform="matrix(4,0,0,4,0,0)" opacity="1"><path d="M40.08300018310547,27.093000411987305 C40.08300018310547,27.093000411987305 27.093000411987305,40.08300018310547 27.093000411987305,40.08300018310547 C23.843000411987305,43.33300018310547 18.58300018310547,43.33300018310547 15.333000183105469,40.08300018310547 C15.333000183105469,40.08300018310547 -40.07699966430664,-15.336999893188477 -40.07699966430664,-15.336999893188477 C-43.32699966430664,-18.57699966430664 -43.32699966430664,-23.847000122070312 -40.07699966430664,-27.097000122070312 C-40.07699966430664,-27.097000122070312 -27.097000122070312,-40.07699966430664 -27.097000122070312,-40.07699966430664 C-23.847000122070312,-43.32699966430664 -18.57699966430664,-43.32699966430664 -15.336999893188477,-40.07699966430664 C-15.336999893188477,-40.07699966430664 40.08300018310547,15.333000183105469 40.08300018310547,15.333000183105469 C43.33300018310547,18.58300018310547 43.33300018310547,23.843000411987305 40.08300018310547,27.093000411987305z" fill-opacity="1" fill="rgb(255,218,169)"></path></g></g></g></g><g style="display: none;" clip-path="url(#__lottie_element_10018)"><g style="display: none;" clip-path="url(#__lottie_element_10062)"><g style="display: none;" clip-path="url(#__lottie_element_10069)"><g style="display: none;" clip-path="url(#__lottie_element_10098)"><g><path></path></g></g><g style="display: none;" clip-path="url(#__lottie_element_10073)"><g clip-path="url(#__lottie_element_10074)"><g style="display: none;"><g><path></path></g></g><g style="display: none;"><g><path></path></g></g><g style="display: none;"><g><path></path></g></g><g style="display: none;"><g><path></path></g></g><g style="display: none;"><g><path></path></g></g><g style="display: none;"><g><path></path></g></g><g style="display: none;"><g><path></path></g></g></g></g></g><g style="display: none;" clip-path="url(#__lottie_element_10066)"><g><path></path></g></g></g><g style="display: none;" clip-path="url(#__lottie_element_10023)"><g style="display: none;" clip-path="url(#__lottie_element_10030)"><g style="display: none;" clip-path="url(#__lottie_element_10059)"><g><path></path></g></g><g style="display: none;" clip-path="url(#__lottie_element_10034)"><g clip-path="url(#__lottie_element_10035)"><g style="display: none;"><g><path></path></g></g><g style="display: none;"><g><path></path></g></g><g style="display: none;"><g><path></path></g></g><g style="display: none;"><g><path></path></g></g><g style="display: none;"><g><path></path></g></g><g style="display: none;"><g><path></path></g></g><g style="display: none;"><g><path></path></g></g></g></g></g><g style="display: none;" clip-path="url(#__lottie_element_10027)"><g><path></path></g></g></g></g></g></g></svg>