<svg style="width: 100%; height: 100%; transform: translate3d(0px, 0px, 0px);" preserveAspectRatio="xMidYMid meet" height="135" width="135" viewBox="0 0 135 135" xmlns="http://www.w3.org/2000/svg"><defs><clipPath id="__lottie_element_10264"><rect y="0" x="0" height="135" width="135"></rect></clipPath><clipPath id="__lottie_element_10266"><path d="M0,0 L540,0 L540,540 L0,540z"></path></clipPath></defs><g clip-path="url(#__lottie_element_10264)"><g style="display: block;" opacity="1" transform="matrix(0.25,0,0,0.25,0,0)" clip-path="url(#__lottie_element_10266)"><g style="display: block;" opacity="1" transform="matrix(1,0,0,1,386.11102294921875,324.1669921875)"><g transform="matrix(4,0,0,4,0,0)" opacity="1"><path d="M0,15.77400016784668 C8.430000305175781,15.77400016784668 15.289999961853027,8.734000205993652 15.289999961853027,0.004000000189989805 C15.289999961853027,-8.736000061035156 8.430000305175781,-15.776000022888184 0,-15.776000022888184 C-8.430000305175781,-15.776000022888184 -15.289999961853027,-8.736000061035156 -15.289999961853027,0.004000000189989805 C-15.289999961853027,8.734000205993652 -8.430000305175781,15.77400016784668 0,15.77400016784668z M-0.004999999888241291,22.138999938964844 C-3.0199999809265137,22.138999938964844 -5.888999938964844,21.510000228881836 -8.494999885559082,20.371999740600586 C-16.23699951171875,16.993000030517578 -21.655000686645508,9.133999824523926 -21.655000686645508,-0.0010000000474974513 C-21.655000686645508,-12.211000442504883 -11.975000381469727,-22.141000747680664 -0.004999999888241291,-22.141000747680664 C11.975000381469727,-22.141000747680664 21.655000686645508,-12.211000442504883 21.655000686645508,-0.0010000000474974513 C21.655000686645508,8.531000137329102 16.929000854492188,15.949999809265137 9.994000434875488,19.645000457763672 C7.004000186920166,21.238000869750977 3.6040000915527344,22.138999938964844 -0.004999999888241291,22.138999938964844z" fill-opacity="1" fill="rgb(81,81,81)"></path><g transform="matrix(1,0,0,1,0,0)" opacity="1"></g></g></g><g style="display: block;" opacity="1" transform="matrix(1,0,0,1,153.88900756835938,324.1669921875)"><g transform="matrix(4,0,0,4,0,0)" opacity="1"><path d="M0,15.77400016784668 C8.430000305175781,15.77400016784668 15.289999961853027,8.734000205993652 15.289999961853027,0.004000000189989805 C15.289999961853027,-8.736000061035156 8.430000305175781,-15.776000022888184 0,-15.776000022888184 C-8.430000305175781,-15.776000022888184 -15.289999961853027,-8.736000061035156 -15.289999961853027,0.004000000189989805 C-15.289999961853027,8.734000205993652 -8.430000305175781,15.77400016784668 0,15.77400016784668z M-0.004999999888241291,22.138999938964844 C-11.975000381469727,22.138999938964844 -21.655000686645508,12.208999633789062 -21.655000686645508,-0.0010000000474974513 C-21.655000686645508,-12.211000442504883 -11.975000381469727,-22.141000747680664 -0.004999999888241291,-22.141000747680664 C11.975000381469727,-22.141000747680664 21.655000686645508,-12.211000442504883 21.655000686645508,-0.0010000000474974513 C21.655000686645508,12.208999633789062 11.975000381469727,22.138999938964844 -0.004999999888241291,22.138999938964844z" fill-opacity="1" fill="rgb(81,81,81)"></path><g transform="matrix(1,0,0,1,0,0)" opacity="1"></g></g></g><g style="display: block;" opacity="1" transform="matrix(1,0,0,1,355.51800537109375,183.33399963378906)"><g transform="matrix(4,0,0,4,0,0)" opacity="1"><path d="M-7.659999847412109,3.177999973297119 C-9.420000076293945,3.177999973297119 -10.84000015258789,1.7580000162124634 -10.84000015258789,-0.0020000000949949026 C-10.84000015258789,-1.7619999647140503 -9.420000076293945,-3.181999921798706 -7.659999847412109,-3.181999921798706 C-7.659999847412109,-3.181999921798706 7.659999847412109,-3.181999921798706 7.659999847412109,-3.181999921798706 C9.40999984741211,-3.181999921798706 10.84000015258789,-1.7619999647140503 10.84000015258789,-0.0020000000949949026 C10.84000015258789,1.7580000162124634 9.40999984741211,3.177999973297119 7.659999847412109,3.177999973297119 C7.659999847412109,3.177999973297119 -7.659999847412109,3.177999973297119 -7.659999847412109,3.177999973297119z" fill-opacity="1" fill="rgb(82,82,82)"></path></g></g><g style="display: block;" opacity="1" transform="matrix(1,0,0,1,391.5400085449219,175.5959930419922)"><g transform="matrix(4,0,0,4,0,0)" opacity="1"><path d="M-0.0020000000949949026,5.184999942779541 C2.7880001068115234,5.184999942779541 5.047999858856201,2.865000009536743 5.047999858856201,-0.004999999888241291 C5.047999858856201,-2.865000009536743 2.7880001068115234,-5.184999942779541 -0.0020000000949949026,-5.184999942779541 C-2.7920000553131104,-5.184999942779541 -5.052000045776367,-2.865000009536743 -5.052000045776367,-0.004999999888241291 C-5.052000045776367,2.865000009536743 -2.7920000553131104,5.184999942779541 -0.0020000000949949026,5.184999942779541z" fill-opacity="1" fill="rgb(82,82,82)"></path></g></g><g style="display: block;" opacity="1" transform="matrix(1,0,0,1,197.1800079345703,324.1669921875)"><g transform="matrix(4,0,0,4,0,0)" opacity="1"><path d="M-10.824999809265137,3.177999973297119 C-12.585000038146973,3.177999973297119 -14.005000114440918,1.7580000162124634 -14.005000114440918,-0.0020000000949949026 C-14.005000114440918,-1.7619999647140503 -12.585000038146973,-3.181999921798706 -10.824999809265137,-3.181999921798706 C-10.824999809265137,-3.181999921798706 10.824999809265137,-3.181999921798706 10.824999809265137,-3.181999921798706 C12.585000038146973,-3.181999921798706 14.005000114440918,-1.7619999647140503 14.005000114440918,-0.0020000000949949026 C14.005000114440918,1.7580000162124634 12.585000038146973,3.177999973297119 10.824999809265137,3.177999973297119 C10.824999809265137,3.177999973297119 -10.824999809265137,3.177999973297119 -10.824999809265137,3.177999973297119z" fill-opacity="1" fill="rgb(216,216,216)"></path></g></g><g style="display: block;" opacity="1" transform="matrix(1,0,0,1,181.3330078125,263.5)"><g transform="matrix(4,0,0,4,0,0)" opacity="1"><path d="M-10.265000343322754,14.348999977111816 C-10.265000343322754,14.348999977111816 4.505000114440918,-17.06100082397461 4.505000114440918,-17.06100082397461 C6.315000057220459,-20.900999069213867 12.074999809265137,-18.19099998474121 10.265000343322754,-14.35099983215332 C10.265000343322754,-14.35099983215332 -4.505000114440918,17.05900001525879 -4.505000114440918,17.05900001525879 C-6.315000057220459,20.89900016784668 -12.074999809265137,18.18899917602539 -10.265000343322754,14.348999977111816z" fill-opacity="1" fill="rgb(255,216,128)"></path></g></g><g style="display: block;" opacity="1" transform="matrix(1,0,0,1,356.5560302734375,254.833984375)"><g transform="matrix(4,0,0,4,0,0)" opacity="1"><path d="M10.829999923706055,16.582000732421875 C11.539999961853027,18.191999435424805 10.8100004196167,20.07200050354004 9.210000038146973,20.781999588012695 C7.599999904632568,21.492000579833984 5.71999979019165,20.77199935913086 5.010000228881836,19.16200065612793 C5.010000228881836,19.16200065612793 -10.829999923706055,-16.58799934387207 -10.829999923706055,-16.58799934387207 C-11.539999961853027,-18.197999954223633 -10.8100004196167,-20.06800079345703 -9.210000038146973,-20.788000106811523 C-7.599999904632568,-21.49799919128418 -5.71999979019165,-20.76799964904785 -5.010000228881836,-19.167999267578125 C-5.010000228881836,-19.167999267578125 10.829999923706055,16.582000732421875 10.829999923706055,16.582000732421875z" fill-opacity="1" fill="rgb(255,216,128)"></path></g></g><g style="display: block;" opacity="1" transform="matrix(1,0,0,1,232.58999633789062,239.6669921875)"><g transform="matrix(4,0,0,4,0,0)" opacity="1"><path d="M12.791000366210938,20.34000015258789 C13.520999908447266,21.940000534057617 12.821000099182129,23.829999923706055 11.220999717712402,24.559999465942383 C9.621000289916992,25.290000915527344 7.730999946594238,24.59000015258789 7.000999927520752,22.989999771118164 C7.000999927520752,22.989999771118164 -12.788999557495117,-20.34000015258789 -12.788999557495117,-20.34000015258789 C-13.519000053405762,-21.940000534057617 -12.819000244140625,-23.829999923706055 -11.218999862670898,-24.559999465942383 C-9.619000434875488,-25.290000915527344 -7.729000091552734,-24.59000015258789 -6.999000072479248,-22.989999771118164 C-6.999000072479248,-22.989999771118164 12.791000366210938,20.34000015258789 12.791000366210938,20.34000015258789z" fill-opacity="1" fill="rgb(255,216,128)"></path></g></g><g style="display: block;" opacity="1" transform="matrix(1,0,0,1,291.5770263671875,263.22900390625)"><g transform="matrix(4,0,0,4,0,0)" opacity="1"><path d="M-11.123000144958496,14.151000022888184 C-11.123000144958496,14.151000022888184 5.506999969482422,-17.138999938964844 5.506999969482422,-17.138999938964844 C7.497000217437744,-20.878999710083008 13.116999626159668,-17.89900016784668 11.126999855041504,-14.14900016784668 C11.126999855041504,-14.14900016784668 -5.502999782562256,17.131000518798828 -5.502999782562256,17.131000518798828 C-7.493000030517578,20.881000518798828 -13.11299991607666,17.891000747680664 -11.123000144958496,14.151000022888184z" fill-opacity="1" fill="rgb(255,216,128)"></path></g></g><g style="display: block;" opacity="1" transform="matrix(1,0,0,1,192.3070068359375,146.49998474121094)"><g transform="matrix(4,0,0,4,0,0)" opacity="1"><path d="M-5.385000228881836,3.177999973297119 C-7.144999980926514,3.177999973297119 -8.5649995803833,1.7580000162124634 -8.5649995803833,-0.0020000000949949026 C-8.5649995803833,-1.7619999647140503 -7.144999980926514,-3.181999921798706 -5.385000228881836,-3.181999921798706 C-5.385000228881836,-3.181999921798706 5.385000228881836,-3.181999921798706 5.385000228881836,-3.181999921798706 C7.135000228881836,-3.181999921798706 8.5649995803833,-1.7619999647140503 8.5649995803833,-0.0020000000949949026 C8.5649995803833,1.7580000162124634 7.135000228881836,3.177999973297119 5.385000228881836,3.177999973297119 C5.385000228881836,3.177999973297119 -5.385000228881836,3.177999973297119 -5.385000228881836,3.177999973297119z" fill-opacity="1" fill="rgb(81,81,81)"></path></g></g><g style="display: block;" opacity="1" transform="matrix(1,0,0,1,265.77801513671875,322)"><g transform="matrix(4,0,0,4,0,0)" opacity="1"><path d="M0.004000000189989805,8.097000122070312 C4.354000091552734,8.097000122070312 7.883999824523926,4.4670000076293945 7.883999824523926,-0.003000000026077032 C7.883999824523926,-4.4730000495910645 4.354000091552734,-8.093000411987305 0.004000000189989805,-8.093000411987305 C-4.355999946594238,-8.093000411987305 -7.886000156402588,-4.4730000495910645 -7.886000156402588,-0.003000000026077032 C-7.886000156402588,4.4670000076293945 -4.355999946594238,8.097000122070312 0.004000000189989805,8.097000122070312z" fill-opacity="1" fill="rgb(215,215,215)"></path></g></g><g style="display: block;" opacity="1" transform="matrix(1,0,0,1,265.8900146484375,183.17898559570312)"><g transform="matrix(4,0,0,4,0,0)" opacity="1"><path d="M-14.342000007629395,3.177999973297119 C-16.101999282836914,3.177999973297119 -17.52199935913086,1.7580000162124634 -17.52199935913086,-0.0020000000949949026 C-17.52199935913086,-1.7619999647140503 -16.101999282836914,-3.181999921798706 -14.342000007629395,-3.181999921798706 C-14.342000007629395,-3.181999921798706 14.338000297546387,-3.181999921798706 14.338000297546387,-3.181999921798706 C16.097999572753906,-3.181999921798706 17.51799964904785,-1.7619999647140503 17.51799964904785,-0.0020000000949949026 C17.51799964904785,1.7580000162124634 16.097999572753906,3.177999973297119 14.338000297546387,3.177999973297119 C14.338000297546387,3.177999973297119 -14.342000007629395,3.177999973297119 -14.342000007629395,3.177999973297119z" fill-opacity="1" fill="rgb(255,216,128)"></path></g></g><g style="display: block;" opacity="1" transform="matrix(1,0,0,1,270,270)"><g transform="matrix(1,0,0,1,0,0)" opacity="1"><path d="M-4.218999862670898,52.03099822998047 C-4.218999862670898,52.03099822998047 -52.75,51.8120002746582 -52.75,51.8120002746582" stroke-width="18" stroke-opacity="1" stroke="rgb(216,216,216)" stroke-miterlimit="4" fill-opacity="0" stroke-linejoin="miter" stroke-linecap="round"></path></g></g><g style="display: none;"><g><path stroke-miterlimit="4" fill-opacity="0" stroke-linejoin="miter" stroke-linecap="round"></path></g></g></g></g></svg>