<svg style="width: 100%; height: 100%; transform: translate3d(0px, 0px, 0px);" preserveAspectRatio="xMidYMid meet" height="135" width="135" viewBox="0 0 135 135" xmlns="http://www.w3.org/2000/svg"><defs><clipPath id="__lottie_element_6660"><rect y="0" x="0" height="135" width="135"></rect></clipPath><clipPath id="__lottie_element_6662"><path d="M0,0 L540,0 L540,540 L0,540z"></path></clipPath></defs><g clip-path="url(#__lottie_element_6660)"><g style="display: block;" opacity="1" transform="matrix(0.25,0,0,0.25,0,0)" clip-path="url(#__lottie_element_6662)"><g style="display: block;" opacity="1" transform="matrix(1,0,0,1,272.0329895019531,233.927001953125)"><g transform="matrix(4,0,0,4,0,0)" opacity="1"><path d="M0.003000000026077032,-35.481998443603516 C2.7929999828338623,-35.481998443603516 5.063000202178955,-33.21200180053711 5.063000202178955,-30.41200065612793 C5.063000202178955,-30.41200065612793 5.017000198364258,23.417999267578125 5.017000198364258,23.417999267578125 C5.017000198364258,26.20800018310547 2.746999979019165,28.47800064086914 -0.0430000014603138,28.47800064086914 C-2.8429999351501465,28.47800064086914 -5.11299991607666,26.20800018310547 -5.11299991607666,23.417999267578125 C-5.11299991607666,23.417999267578125 -5.066999912261963,-30.41200065612793 -5.066999912261963,-30.41200065612793 C-5.066999912261963,-33.21200180053711 -2.796999931335449,-35.481998443603516 0.003000000026077032,-35.481998443603516z" fill-opacity="1" fill="rgb(166,93,0)"></path></g></g><g style="display: block;" opacity="1" transform="matrix(1,0,0,1,270.1600036621094,384.08099365234375)"><g transform="matrix(4,0,0,4,0,0)" opacity="1"><path d="M-29.906999588012695,10.746999740600586 C-27.23699951171875,-3.7330000400543213 -14.706999778747559,-14.392999649047852 0.003000000026077032,-14.392999649047852 C14.713000297546387,-14.392999649047852 27.232999801635742,-3.7330000400543213 29.902999877929688,10.746999740600586 C30.253000259399414,12.647000312805176 28.812999725341797,14.397000312805176 26.89299964904785,14.397000312805176 C26.89299964904785,14.397000312805176 -26.886999130249023,14.397000312805176 -26.886999130249023,14.397000312805176 C-28.80699920654297,14.397000312805176 -30.256999969482422,12.647000312805176 -29.906999588012695,10.746999740600586z" fill-opacity="1" fill="rgb(255,202,202)"></path></g></g><g style="display: block;" opacity="1" transform="matrix(1,0,0,1,272.0329895019531,328.54498291015625)"><g transform="matrix(4,0,0,4,0,0)" opacity="1"><path d="M-5.0329999923706055,-5.6570000648498535 C-5.0329999923706055,-5.6570000648498535 5.0370001792907715,-5.6570000648498535 5.0370001792907715,-5.6570000648498535 C6.177000045776367,-5.6570000648498535 7.0970001220703125,-4.736000061035156 7.0970001220703125,-3.5959999561309814 C7.0970001220703125,-3.5959999561309814 7.0970001220703125,3.6040000915527344 7.0970001220703125,3.6040000915527344 C7.0970001220703125,4.734000205993652 6.177000045776367,5.6539998054504395 5.0370001792907715,5.6539998054504395 C5.0370001792907715,5.6539998054504395 -5.0329999923706055,5.6539998054504395 -5.0329999923706055,5.6539998054504395 C-6.172999858856201,5.6539998054504395 -7.0929999351501465,4.734000205993652 -7.0929999351501465,3.6040000915527344 C-7.0929999351501465,3.6040000915527344 -7.0929999351501465,-3.5959999561309814 -7.0929999351501465,-3.5959999561309814 C-7.0929999351501465,-4.736000061035156 -6.172999858856201,-5.6570000648498535 -5.0329999923706055,-5.6570000648498535z" fill-opacity="1" fill="rgb(255,202,202)"></path></g></g></g></g></svg>