<svg style="width: 100%; height: 100%; transform: translate3d(0px, 0px, 0px);" preserveAspectRatio="xMidYMid meet" height="135" width="135" viewBox="0 0 135 135" xmlns="http://www.w3.org/2000/svg"><defs><clipPath id="__lottie_element_7647"><rect y="0" x="0" height="135" width="135"></rect></clipPath><clipPath id="__lottie_element_7649"><path d="M0,0 L540,0 L540,540 L0,540z"></path></clipPath><mask id="__lottie_element_7661"><g style="display: block;" opacity="1" transform="matrix(1,0,0,1,267.5379943847656,304.9230041503906)"><g transform="matrix(4,0,0,4,0,0)" opacity="1"><path d="M-24.84600067138672,-26.768999099731445 C-24.84600067138672,-26.768999099731445 24.8439998626709,-26.768999099731445 24.8439998626709,-26.768999099731445 C27.054000854492188,-26.768999099731445 28.8439998626709,-24.979000091552734 28.8439998626709,-22.768999099731445 C28.8439998626709,-22.768999099731445 28.8439998626709,5.1529998779296875 28.8439998626709,5.1529998779296875 C28.8439998626709,5.1529998779296875 28.8439998626709,22.770999908447266 28.8439998626709,22.770999908447266 C28.8439998626709,24.981000900268555 27.054000854492188,26.770999908447266 24.8439998626709,26.770999908447266 C24.8439998626709,26.770999908447266 -24.84600067138672,26.770999908447266 -24.84600067138672,26.770999908447266 C-27.055999755859375,26.770999908447266 -28.84600067138672,24.981000900268555 -28.84600067138672,22.770999908447266 C-28.84600067138672,22.770999908447266 -28.84600067138672,5.1529998779296875 -28.84600067138672,5.1529998779296875 C-28.84600067138672,5.1529998779296875 -28.84600067138672,-22.768999099731445 -28.84600067138672,-22.768999099731445 C-28.84600067138672,-24.979000091552734 -27.055999755859375,-26.768999099731445 -24.84600067138672,-26.768999099731445z" fill-opacity="1" fill="rgb(255,255,255)"></path></g></g></mask></defs><g clip-path="url(#__lottie_element_7647)"><g style="display: block;" opacity="1" transform="matrix(0.25,0,0,0.25,0,0)" clip-path="url(#__lottie_element_7649)"><g style="display: block;" opacity="1" transform="matrix(1,0,0,1,267.5379943847656,304.9230041503906)"><g transform="matrix(4,0,0,4,0,0)" opacity="1"><path d="M-24.84600067138672,-26.768999099731445 C-24.84600067138672,-26.768999099731445 24.8439998626709,-26.768999099731445 24.8439998626709,-26.768999099731445 C27.054000854492188,-26.768999099731445 28.8439998626709,-24.979000091552734 28.8439998626709,-22.768999099731445 C28.8439998626709,-22.768999099731445 28.8439998626709,5.1529998779296875 28.8439998626709,5.1529998779296875 C28.8439998626709,5.1529998779296875 28.8439998626709,22.770999908447266 28.8439998626709,22.770999908447266 C28.8439998626709,24.981000900268555 27.054000854492188,26.770999908447266 24.8439998626709,26.770999908447266 C24.8439998626709,26.770999908447266 -24.84600067138672,26.770999908447266 -24.84600067138672,26.770999908447266 C-27.055999755859375,26.770999908447266 -28.84600067138672,24.981000900268555 -28.84600067138672,22.770999908447266 C-28.84600067138672,22.770999908447266 -28.84600067138672,5.1529998779296875 -28.84600067138672,5.1529998779296875 C-28.84600067138672,5.1529998779296875 -28.84600067138672,-22.768999099731445 -28.84600067138672,-22.768999099731445 C-28.84600067138672,-24.979000091552734 -27.055999755859375,-26.768999099731445 -24.84600067138672,-26.768999099731445z" fill-opacity="1" fill="rgb(255,255,255)"></path></g></g><g style="display: block;" mask="url(#__lottie_element_7661)"><g opacity="0.1" transform="matrix(0.9659258127212524,-0.258819043636322,0.258819043636322,0.9659258127212524,270,247.1630096435547)"><path d="M250,-75 C250,-75 250,75 250,75 C250,75 -250,75 -250,75 C-250,75 -250,-75 -250,-75 C-250,-75 250,-75 250,-75z" fill-opacity="1" fill="rgb(0,0,0)"></path></g></g><g style="display: block;" opacity="1" transform="matrix(1,0,0,1,263.06500244140625,217.04299926757812)"><g transform="matrix(4,0,0,4,0,0)" opacity="1"><path d="M-32.83700180053711,-7.038000106811523 C-32.83700180053711,-7.038000106811523 24.92300033569336,-22.507999420166016 24.92300033569336,-22.507999420166016 C33.08300018310547,-24.697999954223633 41.4630012512207,-19.857999801635742 43.65299987792969,-11.697999954223633 C45.84299850463867,-3.5380001068115234 40.99300003051758,4.8520002365112305 32.83300018310547,7.041999816894531 C32.83300018310547,7.041999816894531 -24.91699981689453,22.511999130249023 -24.91699981689453,22.511999130249023 C-33.07699966430664,24.70199966430664 -41.46699905395508,19.851999282836914 -43.64699935913086,11.692000389099121 C-45.83700180053711,3.5320000648498535 -40.99700164794922,-4.8480000495910645 -32.83700180053711,-7.038000106811523z" fill-opacity="1" fill="rgb(255,255,255)"></path></g></g><g style="display: block;" opacity="1" transform="matrix(1,0,0,1,247.95799255371094,158.1630096435547)"><g transform="matrix(4,0,0,4,0,0)" opacity="1"><path d="M-20.423999786376953,-5.413000106811523 C-20.423999786376953,-5.413000106811523 14.986000061035156,-14.902999877929688 14.986000061035156,-14.902999877929688 C20.59600067138672,-16.402999877929688 26.356000900268555,-13.072999954223633 27.865999221801758,-7.4629998207092285 C29.365999221801758,-1.8530000448226929 26.035999298095703,3.9070000648498535 20.426000595092773,5.416999816894531 C20.426000595092773,5.416999816894531 -14.984000205993652,14.906999588012695 -14.984000205993652,14.906999588012695 C-20.5939998626709,16.406999588012695 -26.36400032043457,13.07699966430664 -27.86400032043457,7.4670000076293945 C-29.36400032043457,1.8569999933242798 -26.034000396728516,-3.9130001068115234 -20.423999786376953,-5.413000106811523z" fill-opacity="1" fill="rgb(255,255,255)"></path></g></g></g></g></svg>