<svg style="width: 100%; height: 100%; transform: translate3d(0px, 0px, 0px);" preserveAspectRatio="xMidYMid meet" height="135" width="135" viewBox="0 0 135 135" xmlns="http://www.w3.org/2000/svg"><defs><clipPath id="__lottie_element_8159"><rect y="0" x="0" height="135" width="135"></rect></clipPath><clipPath id="__lottie_element_8161"><path d="M0,0 L540,0 L540,540 L0,540z"></path></clipPath><clipPath id="__lottie_element_8171"><path d="M0,0 L540,0 L540,540 L0,540z"></path></clipPath><clipPath id="__lottie_element_8181"><path d="M0,0 L540,0 L540,540 L0,540z"></path></clipPath><clipPath id="__lottie_element_8191"><path d="M0,0 L540,0 L540,540 L0,540z"></path></clipPath><clipPath id="__lottie_element_8201"><path d="M0,0 L540,0 L540,540 L0,540z"></path></clipPath></defs><g clip-path="url(#__lottie_element_8159)"><g style="display: block;" opacity="1" transform="matrix(0.25,0,0,0.25,0,0)" clip-path="url(#__lottie_element_8161)"><g style="display: block;" opacity="1" transform="matrix(1,0,0,1,272,272)"><g transform="matrix(4,0,0,4,0,0)" opacity="1"><path d="M0,35 C-19.329999923706055,35 -35,19.329999923706055 -35,0 C-35,-19.329999923706055 -19.329999923706055,-35 0,-35 C19.329999923706055,-35 35,-19.329999923706055 35,0 C35,19.329999923706055 19.329999923706055,35 0,35z" fill-opacity="1" fill="rgb(255,255,255)"></path></g></g><g style="display: block;" opacity="1" transform="matrix(1,0,0,1,0,0)" clip-path="url(#__lottie_element_8201)"><g style="display: block;" opacity="1" transform="matrix(1,0,0,1,270.97900390625,270.3059997558594)"><g transform="matrix(4,0,0,4,0,0)" opacity="1"><path d="M-8.043999671936035,-10.385000228881836 C-9.154000282287598,-10.015000343322754 -10.02400016784668,-9.145000457763672 -10.383999824523926,-8.045000076293945 C-10.383999824523926,-8.045000076293945 -17.233999252319336,12.545000076293945 -17.233999252319336,12.545000076293945 C-17.493999481201172,13.3149995803833 -17.483999252319336,14.154999732971191 -17.224000930786133,14.925000190734863 C-16.554000854492188,16.854999542236328 -14.444000244140625,17.885000228881836 -12.513999938964844,17.225000381469727 C-12.513999938964844,17.225000381469727 7.906000137329102,10.204999923706055 7.906000137329102,10.204999923706055 C8.986000061035156,9.835000038146973 9.836000442504883,8.984999656677246 10.206000328063965,7.90500020980835 C10.206000328063965,7.90500020980835 17.22599983215332,-12.515000343322754 17.22599983215332,-12.515000343322754 C17.486000061035156,-13.274999618530273 17.496000289916992,-14.114999771118164 17.236000061035156,-14.885000228881836 C16.586000442504883,-16.825000762939453 14.486000061035156,-17.885000228881836 12.545999526977539,-17.235000610351562 C12.545999526977539,-17.235000610351562 -8.043999671936035,-10.385000228881836 -8.043999671936035,-10.385000228881836z" fill-opacity="1" fill="rgb(251,72,72)"></path></g></g><g style="display: block;" opacity="1" transform="matrix(1,0,0,1,254.81900024414062,286.12701416015625)"><g transform="matrix(4,0,0,4,0,0)" opacity="1"><path d="M13.38599967956543,5.340000152587891 C12.986000061035156,5.75 12.496000289916992,6.059999942779541 11.946000099182129,6.25 C11.946000099182129,6.25 -8.473999977111816,13.270000457763672 -8.473999977111816,13.270000457763672 C-10.404000282287598,13.930000305175781 -12.513999938964844,12.899999618530273 -13.184000015258789,10.970000267028809 C-13.444000244140625,10.199999809265137 -13.454000473022461,9.359999656677246 -13.194000244140625,8.59000015258789 C-13.194000244140625,8.59000015258789 -6.343999862670898,-12 -6.343999862670898,-12 C-6.164000034332275,-12.5600004196167 -5.843999862670898,-13.0600004196167 -5.434000015258789,-13.470000267028809 C-5.434000015258789,-13.470000267028809 13.38599967956543,5.340000152587891 13.38599967956543,5.340000152587891z" fill-opacity="1" fill="rgb(200,200,200)"></path></g></g></g><g style="display: block;" opacity="0" transform="matrix(-0.957233726978302,-0.2893158197402954,0.2893158197402954,-0.957233726978302,450.33782958984375,606.568359375)" clip-path="url(#__lottie_element_8191)"><g style="display: block;" opacity="1" transform="matrix(1,0,0,1,270.97900390625,270.3059997558594)"><g transform="matrix(4,0,0,4,0,0)" opacity="1"><path d="M-8.043999671936035,-10.385000228881836 C-9.154000282287598,-10.015000343322754 -10.02400016784668,-9.145000457763672 -10.383999824523926,-8.045000076293945 C-10.383999824523926,-8.045000076293945 -17.233999252319336,12.545000076293945 -17.233999252319336,12.545000076293945 C-17.493999481201172,13.3149995803833 -17.483999252319336,14.154999732971191 -17.224000930786133,14.925000190734863 C-16.554000854492188,16.854999542236328 -14.444000244140625,17.885000228881836 -12.513999938964844,17.225000381469727 C-12.513999938964844,17.225000381469727 7.906000137329102,10.204999923706055 7.906000137329102,10.204999923706055 C8.986000061035156,9.835000038146973 9.836000442504883,8.984999656677246 10.206000328063965,7.90500020980835 C10.206000328063965,7.90500020980835 17.22599983215332,-12.515000343322754 17.22599983215332,-12.515000343322754 C17.486000061035156,-13.274999618530273 17.496000289916992,-14.114999771118164 17.236000061035156,-14.885000228881836 C16.586000442504883,-16.825000762939453 14.486000061035156,-17.885000228881836 12.545999526977539,-17.235000610351562 C12.545999526977539,-17.235000610351562 -8.043999671936035,-10.385000228881836 -8.043999671936035,-10.385000228881836z" fill-opacity="1" fill="rgb(251,72,72)"></path></g></g><g style="display: block;" opacity="1" transform="matrix(1,0,0,1,254.81900024414062,286.12701416015625)"><g transform="matrix(4,0,0,4,0,0)" opacity="1"><path d="M13.38599967956543,5.340000152587891 C12.986000061035156,5.75 12.496000289916992,6.059999942779541 11.946000099182129,6.25 C11.946000099182129,6.25 -8.473999977111816,13.270000457763672 -8.473999977111816,13.270000457763672 C-10.404000282287598,13.930000305175781 -12.513999938964844,12.899999618530273 -13.184000015258789,10.970000267028809 C-13.444000244140625,10.199999809265137 -13.454000473022461,9.359999656677246 -13.194000244140625,8.59000015258789 C-13.194000244140625,8.59000015258789 -6.343999862670898,-12 -6.343999862670898,-12 C-6.164000034332275,-12.5600004196167 -5.843999862670898,-13.0600004196167 -5.434000015258789,-13.470000267028809 C-5.434000015258789,-13.470000267028809 13.38599967956543,5.340000152587891 13.38599967956543,5.340000152587891z" fill-opacity="1" fill="rgb(200,200,200)"></path></g></g></g><g style="display: block;" opacity="0" transform="matrix(0.9030131101608276,-0.4296129643917084,0.4296129643917084,0.9030131101608276,-89.80905151367188,142.18194580078125)" clip-path="url(#__lottie_element_8181)"><g style="display: block;" opacity="1" transform="matrix(1,0,0,1,270.97900390625,270.3059997558594)"><g transform="matrix(4,0,0,4,0,0)" opacity="1"><path d="M-8.043999671936035,-10.385000228881836 C-9.154000282287598,-10.015000343322754 -10.02400016784668,-9.145000457763672 -10.383999824523926,-8.045000076293945 C-10.383999824523926,-8.045000076293945 -17.233999252319336,12.545000076293945 -17.233999252319336,12.545000076293945 C-17.493999481201172,13.3149995803833 -17.483999252319336,14.154999732971191 -17.224000930786133,14.925000190734863 C-16.554000854492188,16.854999542236328 -14.444000244140625,17.885000228881836 -12.513999938964844,17.225000381469727 C-12.513999938964844,17.225000381469727 7.906000137329102,10.204999923706055 7.906000137329102,10.204999923706055 C8.986000061035156,9.835000038146973 9.836000442504883,8.984999656677246 10.206000328063965,7.90500020980835 C10.206000328063965,7.90500020980835 17.22599983215332,-12.515000343322754 17.22599983215332,-12.515000343322754 C17.486000061035156,-13.274999618530273 17.496000289916992,-14.114999771118164 17.236000061035156,-14.885000228881836 C16.586000442504883,-16.825000762939453 14.486000061035156,-17.885000228881836 12.545999526977539,-17.235000610351562 C12.545999526977539,-17.235000610351562 -8.043999671936035,-10.385000228881836 -8.043999671936035,-10.385000228881836z" fill-opacity="1" fill="rgb(251,72,72)"></path></g></g><g style="display: block;" opacity="1" transform="matrix(1,0,0,1,254.81900024414062,286.12701416015625)"><g transform="matrix(4,0,0,4,0,0)" opacity="1"><path d="M13.38599967956543,5.340000152587891 C12.986000061035156,5.75 12.496000289916992,6.059999942779541 11.946000099182129,6.25 C11.946000099182129,6.25 -8.473999977111816,13.270000457763672 -8.473999977111816,13.270000457763672 C-10.404000282287598,13.930000305175781 -12.513999938964844,12.899999618530273 -13.184000015258789,10.970000267028809 C-13.444000244140625,10.199999809265137 -13.454000473022461,9.359999656677246 -13.194000244140625,8.59000015258789 C-13.194000244140625,8.59000015258789 -6.343999862670898,-12 -6.343999862670898,-12 C-6.164000034332275,-12.5600004196167 -5.843999862670898,-13.0600004196167 -5.434000015258789,-13.470000267028809 C-5.434000015258789,-13.470000267028809 13.38599967956543,5.340000152587891 13.38599967956543,5.340000152587891z" fill-opacity="1" fill="rgb(200,200,200)"></path></g></g></g><g style="display: block;" opacity="0" transform="matrix(0.3177514970302582,0.948173999786377,-0.948173999786377,0.3177514970302582,440.2140808105469,-71.79989624023438)" clip-path="url(#__lottie_element_8171)"><g style="display: block;" opacity="1" transform="matrix(1,0,0,1,270.97900390625,270.3059997558594)"><g transform="matrix(4,0,0,4,0,0)" opacity="1"><path d="M-8.043999671936035,-10.385000228881836 C-9.154000282287598,-10.015000343322754 -10.02400016784668,-9.145000457763672 -10.383999824523926,-8.045000076293945 C-10.383999824523926,-8.045000076293945 -17.233999252319336,12.545000076293945 -17.233999252319336,12.545000076293945 C-17.493999481201172,13.3149995803833 -17.483999252319336,14.154999732971191 -17.224000930786133,14.925000190734863 C-16.554000854492188,16.854999542236328 -14.444000244140625,17.885000228881836 -12.513999938964844,17.225000381469727 C-12.513999938964844,17.225000381469727 7.906000137329102,10.204999923706055 7.906000137329102,10.204999923706055 C8.986000061035156,9.835000038146973 9.836000442504883,8.984999656677246 10.206000328063965,7.90500020980835 C10.206000328063965,7.90500020980835 17.22599983215332,-12.515000343322754 17.22599983215332,-12.515000343322754 C17.486000061035156,-13.274999618530273 17.496000289916992,-14.114999771118164 17.236000061035156,-14.885000228881836 C16.586000442504883,-16.825000762939453 14.486000061035156,-17.885000228881836 12.545999526977539,-17.235000610351562 C12.545999526977539,-17.235000610351562 -8.043999671936035,-10.385000228881836 -8.043999671936035,-10.385000228881836z" fill-opacity="1" fill="rgb(251,72,72)"></path></g></g><g style="display: block;" opacity="1" transform="matrix(1,0,0,1,254.81900024414062,286.12701416015625)"><g transform="matrix(4,0,0,4,0,0)" opacity="1"><path d="M13.38599967956543,5.340000152587891 C12.986000061035156,5.75 12.496000289916992,6.059999942779541 11.946000099182129,6.25 C11.946000099182129,6.25 -8.473999977111816,13.270000457763672 -8.473999977111816,13.270000457763672 C-10.404000282287598,13.930000305175781 -12.513999938964844,12.899999618530273 -13.184000015258789,10.970000267028809 C-13.444000244140625,10.199999809265137 -13.454000473022461,9.359999656677246 -13.194000244140625,8.59000015258789 C-13.194000244140625,8.59000015258789 -6.343999862670898,-12 -6.343999862670898,-12 C-6.164000034332275,-12.5600004196167 -5.843999862670898,-13.0600004196167 -5.434000015258789,-13.470000267028809 C-5.434000015258789,-13.470000267028809 13.38599967956543,5.340000152587891 13.38599967956543,5.340000152587891z" fill-opacity="1" fill="rgb(200,200,200)"></path></g></g></g><g style="display: block;" opacity="1" transform="matrix(1,0,0,1,272,272)"><g transform="matrix(4,0,0,4,0,0)" opacity="1"><path d="M0,35 C19.329999923706055,35 35,19.329999923706055 35,0 C35,-19.329999923706055 19.329999923706055,-35 0,-35 C-19.329999923706055,-35 -35,-19.329999923706055 -35,0 C-35,19.329999923706055 -19.329999923706055,35 0,35z" stroke-width="9" stroke-opacity="1" stroke="rgb(0,130,200)" stroke-miterlimit="4" fill-opacity="0" stroke-linejoin="miter" stroke-linecap="butt"></path></g></g></g></g></svg>