<svg style="width: 100%; height: 100%; transform: translate3d(0px, 0px, 0px);" preserveAspectRatio="xMidYMid meet" height="135" width="135" viewBox="0 0 135 135" xmlns="http://www.w3.org/2000/svg"><defs><clipPath id="__lottie_element_7890"><rect y="0" x="0" height="135" width="135"></rect></clipPath><clipPath id="__lottie_element_7892"><path d="M0,0 L540,0 L540,540 L0,540z"></path></clipPath><clipPath id="__lottie_element_7905"><path d="M0,0 L540,0 L540,540 L0,540z"></path></clipPath><clipPath id="__lottie_element_7912"><path d="M0,0 L540,0 L540,540 L0,540z"></path></clipPath><clipPath id="__lottie_element_7919"><path d="M0,0 L540,0 L540,540 L0,540z"></path></clipPath><clipPath id="__lottie_element_7926"><path d="M0,0 L540,0 L540,540 L0,540z"></path></clipPath><clipPath id="__lottie_element_7933"><path d="M0,0 L540,0 L540,540 L0,540z"></path></clipPath></defs><g clip-path="url(#__lottie_element_7890)"><g style="display: block;" opacity="1" transform="matrix(0.25,0,0,0.25,0,0)" clip-path="url(#__lottie_element_7892)"><g style="display: block;" opacity="1" transform="matrix(1,0,0,1,270,286.75)"><g transform="matrix(4,0,0,4,0,0)" opacity="1"><path d="M-40.880001068115234,-34.3120002746582 C-40.880001068115234,-34.3120002746582 40.880001068115234,-34.3120002746582 40.880001068115234,-34.3120002746582 C42.880001068115234,-34.3120002746582 44.5,-32.69300079345703 44.5,-30.69300079345703 C44.5,-30.69300079345703 44.5,30.69700050354004 44.5,30.69700050354004 C44.5,32.696998596191406 42.880001068115234,34.30799865722656 40.880001068115234,34.31800079345703 C40.880001068115234,34.31800079345703 -40.880001068115234,34.31800079345703 -40.880001068115234,34.31800079345703 C-42.880001068115234,34.31800079345703 -44.5,32.696998596191406 -44.5,30.69700050354004 C-44.5,30.69700050354004 -44.5,-30.69300079345703 -44.5,-30.69300079345703 C-44.5,-32.69300079345703 -42.880001068115234,-34.3120002746582 -40.880001068115234,-34.3120002746582z" fill-opacity="1" fill="rgb(42,124,232)"></path></g></g><g style="display: block;" opacity="1" transform="matrix(1,0,0,1,194.88999938964844,179.44200134277344)"><g transform="matrix(4,0,0,4,0,0)" opacity="1"><path d="M-5.6579999923706055,-15.236000061035156 C-5.6579999923706055,-15.236000061035156 5.6519999504089355,-15.236000061035156 5.6519999504089355,-15.236000061035156 C6.2220001220703125,-15.236000061035156 6.691999912261963,-14.776000022888184 6.691999912261963,-14.206000328063965 C6.691999912261963,-14.206000328063965 6.691999912261963,14.829000473022461 6.691999912261963,14.829000473022461 C6.691999912261963,15.39900016784668 6.2220001220703125,15.859000205993652 5.6519999504089355,15.859000205993652 C5.492000102996826,15.859000205993652 5.3420000076293945,15.819000244140625 5.202000141143799,15.74899959564209 C5.202000141143799,15.74899959564209 0.0020000000949949026,13.199000358581543 0.0020000000949949026,13.199000358581543 C0.0020000000949949026,13.199000358581543 -5.197999954223633,15.74899959564209 -5.197999954223633,15.74899959564209 C-5.708000183105469,16.009000778198242 -6.328000068664551,15.798999786376953 -6.578000068664551,15.279000282287598 C-6.6479997634887695,15.138999938964844 -6.688000202178955,14.98900032043457 -6.688000202178955,14.829000473022461 C-6.688000202178955,14.829000473022461 -6.688000202178955,-14.206000328063965 -6.688000202178955,-14.206000328063965 C-6.688000202178955,-14.776000022888184 -6.228000164031982,-15.236000061035156 -5.6579999923706055,-15.236000061035156z" fill-opacity="1" fill="rgb(172,29,29)"></path></g></g><g style="display: block;" opacity="1" transform="matrix(1,0,0,1,192.83200073242188,271.4490051269531)"><g transform="matrix(4,0,0,4,0,0)" opacity="1"><path d="M11.800999641418457,-30.937000274658203 C16.08099937438965,-30.937000274658203 19.551000595092773,-27.466999053955078 19.551000595092773,-23.187000274658203 C19.551000595092773,-23.187000274658203 19.551000595092773,30.933000564575195 19.551000595092773,30.933000564575195 C19.551000595092773,30.933000564575195 -19.548999786376953,30.933000564575195 -19.548999786376953,30.933000564575195 C-19.548999786376953,30.933000564575195 -19.548999786376953,-30.937000274658203 -19.548999786376953,-30.937000274658203 C-19.548999786376953,-30.937000274658203 11.800999641418457,-30.937000274658203 11.800999641418457,-30.937000274658203z" fill-opacity="1" fill="rgb(220,220,220)"></path></g></g><g style="display: block;" opacity="1" transform="matrix(1,0,0,1,191.80299377441406,251.4149932861328)"><g transform="matrix(4,0,0,4,0,0)" opacity="1"><path d="M11.538000106811523,-31.746000289916992 C15.817999839782715,-31.746000289916992 19.288000106811523,-28.275999069213867 19.288000106811523,-23.996000289916992 C19.288000106811523,-23.996000289916992 19.288000106811523,31.743999481201172 19.288000106811523,31.743999481201172 C18.257999420166016,27.163999557495117 15.857999801635742,24.874000549316406 12.088000297546387,24.874000549316406 C8.317999839782715,24.874000549316406 -2.1419999599456787,24.874000549316406 -19.29199981689453,24.874000549316406 C-19.29199981689453,24.874000549316406 -19.29199981689453,-29.676000595092773 -19.29199981689453,-29.676000595092773 C-19.29199981689453,-30.81599998474121 -18.36199951171875,-31.746000289916992 -17.222000122070312,-31.746000289916992 C-17.222000122070312,-31.746000289916992 11.538000106811523,-31.746000289916992 11.538000106811523,-31.746000289916992z" fill-opacity="1" fill="rgb(255,255,255)"></path></g></g><g style="display: block;" opacity="1" transform="matrix(1,0,0,1,347.1679992675781,271.4490051269531)"><g transform="matrix(4,0,0,4,0,0)" opacity="1"><path d="M-11.798999786376953,-30.937000274658203 C-11.798999786376953,-30.937000274658203 19.551000595092773,-30.937000274658203 19.551000595092773,-30.937000274658203 C19.551000595092773,-30.937000274658203 19.551000595092773,30.933000564575195 19.551000595092773,30.933000564575195 C19.551000595092773,30.933000564575195 -19.548999786376953,30.933000564575195 -19.548999786376953,30.933000564575195 C-19.548999786376953,30.933000564575195 -19.548999786376953,-23.187000274658203 -19.548999786376953,-23.187000274658203 C-19.548999786376953,-27.466999053955078 -16.07900047302246,-30.937000274658203 -11.798999786376953,-30.937000274658203z" fill-opacity="1" fill="rgb(220,220,220)"></path></g></g><g style="display: block;" opacity="1" transform="matrix(1,0,0,1,194.88999938964844,179.44200134277344)"><g transform="matrix(4,0,0,4,0,0)" opacity="1"><path d="M-5.6579999923706055,-15.861000061035156 C-5.6579999923706055,-15.861000061035156 5.6519999504089355,-15.861000061035156 5.6519999504089355,-15.861000061035156 C6.2220001220703125,-15.861000061035156 6.691999912261963,-15.401000022888184 6.691999912261963,-14.831000328063965 C6.691999912261963,-14.831000328063965 6.691999912261963,14.829000473022461 6.691999912261963,14.829000473022461 C6.691999912261963,15.39900016784668 6.2220001220703125,15.859000205993652 5.6519999504089355,15.859000205993652 C5.492000102996826,15.859000205993652 5.3420000076293945,15.819000244140625 5.202000141143799,15.74899959564209 C5.202000141143799,15.74899959564209 0.0020000000949949026,13.199000358581543 0.0020000000949949026,13.199000358581543 C0.0020000000949949026,13.199000358581543 -5.197999954223633,15.74899959564209 -5.197999954223633,15.74899959564209 C-5.708000183105469,16.009000778198242 -6.328000068664551,15.798999786376953 -6.578000068664551,15.279000282287598 C-6.6479997634887695,15.138999938964844 -6.688000202178955,14.98900032043457 -6.688000202178955,14.829000473022461 C-6.688000202178955,14.829000473022461 -6.688000202178955,-14.831000328063965 -6.688000202178955,-14.831000328063965 C-6.688000202178955,-15.401000022888184 -6.228000164031982,-15.861000061035156 -5.6579999923706055,-15.861000061035156z" fill-opacity="1" fill="rgb(255,75,75)"></path></g></g><g style="display: block;" opacity="1" transform="matrix(1,0,0,1,347.1679992675781,251.4149932861328)"><g transform="matrix(4,0,0,4,0,0)" opacity="1"><path d="M-11.798999786376953,-31.746000289916992 C-11.798999786376953,-31.746000289916992 17.481000900268555,-31.746000289916992 17.481000900268555,-31.746000289916992 C18.621000289916992,-31.746000289916992 19.551000595092773,-30.81599998474121 19.551000595092773,-29.676000595092773 C19.551000595092773,-29.676000595092773 19.551000595092773,24.874000549316406 19.551000595092773,24.874000549316406 C19.551000595092773,24.874000549316406 -12.348999977111816,24.874000549316406 -12.348999977111816,24.874000549316406 C-16.118999481201172,24.874000549316406 -18.518999099731445,27.163999557495117 -19.548999786376953,31.743999481201172 C-19.548999786376953,31.743999481201172 -19.548999786376953,-23.996000289916992 -19.548999786376953,-23.996000289916992 C-19.548999786376953,-28.275999069213867 -16.07900047302246,-31.746000289916992 -11.798999786376953,-31.746000289916992z" fill-opacity="1" fill="rgb(255,255,255)"></path></g></g><g style="display: block;" opacity="1" transform="matrix(1,0,0,1,347.1679992675781,213.80499267578125)"><g transform="matrix(4,0,0,4,0,0)" opacity="1"><path d="M-12.34000015258789,-11.23799991607666 C-12.34000015258789,-11.23799991607666 -0.25,-11.23799991607666 -0.25,-11.23799991607666 C-0.25,-11.23799991607666 12.34000015258789,-11.23799991607666 12.34000015258789,-11.23799991607666 C13.199999809265137,-11.23799991607666 13.890000343322754,-10.54800033569336 13.890000343322754,-9.687999725341797 C13.890000343322754,-9.687999725341797 13.890000343322754,9.692000389099121 13.890000343322754,9.692000389099121 C13.890000343322754,10.541999816894531 13.199999809265137,11.241999626159668 12.34000015258789,11.241999626159668 C12.34000015258789,11.241999626159668 0.125,11.241999626159668 0.125,11.241999626159668 C0.125,11.241999626159668 -12.34000015258789,11.241999626159668 -12.34000015258789,11.241999626159668 C-13.199999809265137,11.241999626159668 -13.890000343322754,10.541999816894531 -13.890000343322754,9.692000389099121 C-13.890000343322754,9.692000389099121 -13.890000343322754,-9.687999725341797 -13.890000343322754,-9.687999725341797 C-13.890000343322754,-10.54800033569336 -13.199999809265137,-11.23799991607666 -12.34000015258789,-11.23799991607666z" fill-opacity="1" fill="rgb(220,220,220)"></path></g></g><g opacity="1" transform="matrix(1,0,0,1,0,0)" style="display: none;" clip-path="url(#__lottie_element_7933)"><g style="display: block;" opacity="1" transform="matrix(1,0,0,1,270,270)"><g transform="matrix(1,0,0,1,0,0)" opacity="1"><path d="M26.90410614013672,-153.5756072998047 C24.98623275756836,-151.94540405273438 17.082677841186523,-149.9797821044922 8.94916820526123,-140.4779510498047 C0.438405305147171,-130.6062774658203 -1,-119.5 -1,-119.5 C-1,-119.5 -1,107.5 -1,107.5 C-1,107.5 0.6823588609695435,94.19800567626953 9.222129821777344,84.81639862060547 C16.97595977783203,76.18003845214844 24.55509376525879,74.94066619873047 26.90410614013672,73.42440032958984 C30.59064292907715,71.04431915283203 75.90518188476562,72.77500915527344 82.42594909667969,75.17887115478516 C89.30497741699219,77.71468353271484 136.51304626464844,81 136.51304626464844,81 C136.51304626464844,81 136.51304626464844,-146 136.51304626464844,-146 C136.51304626464844,-146 103.20943450927734,-148.27536010742188 98.09024047851562,-150.5399932861328 C90.81919860839844,-153.75665283203125 31.293352127075195,-156.95220947265625 26.90410614013672,-153.5756072998047z" fill-opacity="1" fill="rgb(255,255,255)"></path></g></g></g><g opacity="1" transform="matrix(1,0,0,1,0,0)" style="display: none;" clip-path="url(#__lottie_element_7926)"><g style="display: block;" opacity="1" transform="matrix(1,0,0,1,270,270)"><g transform="matrix(1,0,0,1,0,0)" opacity="1"><path d="M26.993152618408203,-146.54095458984375 C26.856203079223633,-146.42454528808594 17.99949836730957,-146.21917724609375 8.848724365234375,-137.14620971679688 C-0.8972882628440857,-127.48966217041016 -1,-119.5 -1,-119.5 C-1,-119.5 -1,107.5 -1,107.5 C-1,107.5 -0.8798683881759644,97.728515625 8.661138534545898,88.58518981933594 C16.962068557739258,80.61775207519531 26.825416564941406,80.56732177734375 26.993152618408203,80.45905303955078 C27.25639533996582,80.28910064697266 87.76222229003906,80.41268157958984 88.22784423828125,80.58433532714844 C88.71905517578125,80.7654037475586 154.1442108154297,81 154.1442108154297,81 C154.1442108154297,81 154.1442108154297,-146 154.1442108154297,-146 C154.1442108154297,-146 107.49077606201172,-146.1624755859375 107.12522888183594,-146.32418823242188 C106.60603332519531,-146.5538787841797 27.30657386779785,-146.7820587158203 26.993152618408203,-146.54095458984375z" fill-opacity="1" fill="rgb(255,255,255)"></path></g></g></g><g opacity="1" transform="matrix(1,0,0,1,0,0)" style="display: none;" clip-path="url(#__lottie_element_7919)"><g style="display: block;" opacity="1" transform="matrix(1,0,0,1,270,270)"><g transform="matrix(1,0,0,1,0,0)" opacity="1"><path d="M26.833263397216797,-171.0413055419922 C20.418987274169922,-165.09410095214844 13.699750900268555,-156.5143585205078 8.046768188476562,-146.1932830810547 C2.7440097332000732,-137.2176055908203 -1,-119.5 -1,-119.5 C-1,-119.5 -1,107.5 -1,107.5 C-1,107.5 3.6581528186798096,86.81289672851562 9.326423645019531,78.2119369506836 C15.402624130249023,68.20049285888672 20.701475143432617,60.33319854736328 26.833263397216797,55.95869064331055 C36.60519790649414,48.94601821899414 54.559356689453125,51.309146881103516 70.34355163574219,56.86571502685547 C87.95987701416016,62.96675491333008 102.73875427246094,72.5474853515625 102.73875427246094,72.5474853515625 C102.73875427246094,72.5474853515625 102.73875427246094,-154.4525146484375 102.73875427246094,-154.4525146484375 C102.73875427246094,-154.4525146484375 93.04452514648438,-161.92918395996094 80.03297424316406,-167.2427520751953 C61.410430908203125,-174.82566833496094 38.47074508666992,-180.23306274414062 26.833263397216797,-171.0413055419922z" fill-opacity="1" fill="rgb(255,255,255)"></path></g></g></g><g opacity="1" transform="matrix(1,0,0,1,0,0)" style="display: none;" clip-path="url(#__lottie_element_7912)"><g style="display: block;" opacity="1" transform="matrix(1,0,0,1,270,270)"><g transform="matrix(1,0,0,1,0,0)" opacity="1"><path d="M26.96408462524414,-148.83731079101562 C26.245779037475586,-148.22674560546875 17.70021629333496,-147.44677734375 8.881512641906738,-138.2338104248047 C-0.4612712264060974,-128.5070343017578 -1,-119.5 -1,-119.5 C-1,-119.5 -1,107.5 -1,107.5 C-1,107.5 -0.3699028193950653,96.57603454589844 8.844265937805176,87.35491943359375 C16.966602325439453,79.16912841796875 26.084304809570312,78.7305908203125 26.96408462524414,78.1626968383789 C28.344810485839844,77.27127838134766 83.89167022705078,77.91947937011719 86.33390808105469,78.8198013305664 C88.91032409667969,79.76954650878906 148.38877868652344,81 148.38877868652344,81 C148.38877868652344,81 148.38877868652344,-146 148.38877868652344,-146 C148.38877868652344,-146 106.09319305419922,-146.85220336914062 104.17589569091797,-147.70037841796875 C101.4526596069336,-148.9051055908203 28.60799789428711,-150.10195922851562 26.96408462524414,-148.83731079101562z" fill-opacity="1" fill="rgb(255,255,255)"></path></g></g></g><g style="display: none;" clip-path="url(#__lottie_element_7905)"><g style="display: none;"><g><path></path></g></g></g><g style="display: block;" opacity="1" transform="matrix(1,0,0,1,268.5450134277344,393.7950134277344)"><g transform="matrix(4,0,0,4,0,0)" opacity="1"><path d="M-6.419000148773193,0.3149999976158142 C-6.419000148773193,0.3149999976158142 -2.2090001106262207,-2.3550000190734863 -2.2090001106262207,-2.3550000190734863 C-0.859000027179718,-3.2049999237060547 0.8610000014305115,-3.2049999237060547 2.2109999656677246,-2.3550000190734863 C2.2109999656677246,-2.3550000190734863 6.410999774932861,0.3149999976158142 6.410999774932861,0.3149999976158142 C6.9710001945495605,0.6650000214576721 7.310999870300293,1.274999976158142 7.310999870300293,1.934999942779541 C7.310999870300293,2.5250000953674316 6.830999851226807,2.994999885559082 6.250999927520752,2.994999885559082 C6.250999927520752,2.994999885559082 -6.249000072479248,2.994999885559082 -6.249000072479248,2.994999885559082 C-6.839000225067139,2.994999885559082 -7.309000015258789,2.5250000953674316 -7.309000015258789,1.934999942779541 C-7.309000015258789,1.274999976158142 -6.968999862670898,0.6650000214576721 -6.419000148773193,0.3149999976158142z" fill-opacity="1" fill="rgb(42,124,232)"></path></g></g><g style="display: block;" opacity="1" transform="matrix(1,0,0,1,347.1679992675781,213.80499267578125)"><g transform="matrix(4,0,0,4,0,0)" opacity="1"><path d="M-12.34000015258789,-11.23799991607666 C-12.34000015258789,-11.23799991607666 -0.25,-11.23799991607666 -0.25,-11.23799991607666 C-0.25,-11.23799991607666 12.34000015258789,-11.23799991607666 12.34000015258789,-11.23799991607666 C13.199999809265137,-11.23799991607666 13.890000343322754,-10.54800033569336 13.890000343322754,-9.687999725341797 C13.890000343322754,-9.687999725341797 13.890000343322754,9.692000389099121 13.890000343322754,9.692000389099121 C13.890000343322754,10.541999816894531 13.199999809265137,11.241999626159668 12.34000015258789,11.241999626159668 C12.34000015258789,11.241999626159668 0.125,11.241999626159668 0.125,11.241999626159668 C0.125,11.241999626159668 -12.34000015258789,11.241999626159668 -12.34000015258789,11.241999626159668 C-13.199999809265137,11.241999626159668 -13.890000343322754,10.541999816894531 -13.890000343322754,9.692000389099121 C-13.890000343322754,9.692000389099121 -13.890000343322754,-9.687999725341797 -13.890000343322754,-9.687999725341797 C-13.890000343322754,-10.54800033569336 -13.199999809265137,-11.23799991607666 -12.34000015258789,-11.23799991607666z" fill-opacity="1" fill="rgb(220,220,220)"></path></g></g><g style="display: block;" opacity="1" transform="matrix(1,0,0,1,270,260.1499938964844)"><g transform="matrix(4,0,0,4,0,0)" opacity="1"><path d="M-1.2860000133514404,-27.583999633789062 C-1.2860000133514404,-27.583999633789062 1.284000039100647,-27.583999633789062 1.284000039100647,-27.583999633789062 C1.284000039100647,-27.583999633789062 1.284000039100647,24.986000061035156 1.284000039100647,24.986000061035156 C1.284000039100647,24.986000061035156 0.004000000189989805,27.586000442504883 0.004000000189989805,27.586000442504883 C0.004000000189989805,27.586000442504883 -1.2860000133514404,24.986000061035156 -1.2860000133514404,24.986000061035156 C-1.2860000133514404,24.986000061035156 -1.2860000133514404,-27.583999633789062 -1.2860000133514404,-27.583999633789062z" fill-opacity="1" fill="rgb(255,255,255)"></path></g></g></g></g></svg>