<svg style="width: 100%; height: 100%; transform: translate3d(0px, 0px, 0px);" preserveAspectRatio="xMidYMid meet" height="135" width="135" viewBox="0 0 135 135" xmlns="http://www.w3.org/2000/svg"><defs><clipPath id="__lottie_element_10312"><rect y="0" x="0" height="135" width="135"></rect></clipPath><clipPath id="__lottie_element_10314"><path d="M0,0 L540,0 L540,540 L0,540z"></path></clipPath><clipPath id="__lottie_element_10321"><path d="M0,0 L46,0 L46,130 L0,130z"></path></clipPath><clipPath id="__lottie_element_10331"><path d="M0,0 L46,0 L46,130 L0,130z"></path></clipPath><clipPath id="__lottie_element_10341"><path d="M0,0 L70,0 L70,190 L0,190z"></path></clipPath><clipPath id="__lottie_element_10351"><path d="M0,0 L70,0 L70,190 L0,190z"></path></clipPath><clipPath id="__lottie_element_10361"><path d="M0,0 L540,0 L540,540 L0,540z"></path></clipPath><clipPath id="__lottie_element_10368"><path d="M0,0 L46,0 L46,130 L0,130z"></path></clipPath><clipPath id="__lottie_element_10378"><path d="M0,0 L46,0 L46,130 L0,130z"></path></clipPath><clipPath id="__lottie_element_10388"><path d="M0,0 L70,0 L70,190 L0,190z"></path></clipPath><clipPath id="__lottie_element_10398"><path d="M0,0 L70,0 L70,190 L0,190z"></path></clipPath><clipPath id="__lottie_element_10408"><path d="M0,0 L540,0 L540,540 L0,540z"></path></clipPath><clipPath id="__lottie_element_10415"><path d="M0,0 L46,0 L46,130 L0,130z"></path></clipPath><clipPath id="__lottie_element_10425"><path d="M0,0 L46,0 L46,130 L0,130z"></path></clipPath><clipPath id="__lottie_element_10435"><path d="M0,0 L70,0 L70,190 L0,190z"></path></clipPath><clipPath id="__lottie_element_10445"><path d="M0,0 L70,0 L70,190 L0,190z"></path></clipPath><clipPath id="__lottie_element_10455"><path d="M0,0 L540,0 L540,540 L0,540z"></path></clipPath><clipPath id="__lottie_element_10462"><path d="M0,0 L46,0 L46,130 L0,130z"></path></clipPath><clipPath id="__lottie_element_10472"><path d="M0,0 L46,0 L46,130 L0,130z"></path></clipPath><clipPath id="__lottie_element_10482"><path d="M0,0 L70,0 L70,190 L0,190z"></path></clipPath><clipPath id="__lottie_element_10492"><path d="M0,0 L70,0 L70,190 L0,190z"></path></clipPath></defs><g clip-path="url(#__lottie_element_10312)"><g style="display: block;" opacity="1" transform="matrix(0.25,0,0,0.25,0,0)" clip-path="url(#__lottie_element_10455)"><g style="display: block;" opacity="1" transform="matrix(1,0,0,1,268,272)"><g transform="matrix(4,0,0,4,0,0)" opacity="1"><path d="M-50,-4 C-50,-4 50,-4 50,-4 C52.209999084472656,-4 54,-2.2100000381469727 54,0 C54,2.2100000381469727 52.209999084472656,4 50,4 C50,4 -50,4 -50,4 C-52.209999084472656,4 -54,2.2100000381469727 -54,0 C-54,-2.2100000381469727 -52.209999084472656,-4 -50,-4z" fill-opacity="1" fill="rgb(215,215,215)"></path></g></g><g style="display: block;" opacity="1" transform="matrix(1,0,0,1,331,175)" clip-path="url(#__lottie_element_10492)"><g style="display: block;" opacity="1" transform="matrix(1,0,0,1,35,95)"><g transform="matrix(4,0,0,4,0,0)" opacity="1"><path d="M-5.139999866485596,-23.5 C-5.139999866485596,-23.5 5.139999866485596,-23.5 5.139999866485596,-23.5 C7,-23.5 8.5,-22 8.5,-20.139999389648438 C8.5,-20.139999389648438 8.5,20.139999389648438 8.5,20.139999389648438 C8.5,22 7,23.5 5.139999866485596,23.5 C5.139999866485596,23.5 -5.139999866485596,23.5 -5.139999866485596,23.5 C-7,23.5 -8.5,22 -8.5,20.139999389648438 C-8.5,20.139999389648438 -8.5,-20.139999389648438 -8.5,-20.139999389648438 C-8.5,-22 -7,-23.5 -5.139999866485596,-23.5z" fill-opacity="1" fill="rgb(75,75,75)"></path></g></g><g style="display: block;" opacity="1" transform="matrix(1,0,0,1,35,23)"><g transform="matrix(4,0,0,4,0,0)" opacity="1"><path d="M-4.820000171661377,-3.5 C-4.820000171661377,-3.5 4.820000171661377,-3.5 4.820000171661377,-3.5 C5.75,-3.5 6.5,-2.75 6.5,-1.8200000524520874 C6.5,-1.8200000524520874 6.5,1.8200000524520874 6.5,1.8200000524520874 C6.5,2.75 5.75,3.5 4.820000171661377,3.5 C4.820000171661377,3.5 -4.820000171661377,3.5 -4.820000171661377,3.5 C-5.75,3.5 -6.5,2.75 -6.5,1.8200000524520874 C-6.5,1.8200000524520874 -6.5,-1.8200000524520874 -6.5,-1.8200000524520874 C-6.5,-2.75 -5.75,-3.5 -4.820000171661377,-3.5z" fill-opacity="1" fill="rgb(116,116,116)"></path></g></g></g><g style="display: block;" opacity="1" transform="matrix(1,0,0,1,139,175)" clip-path="url(#__lottie_element_10482)"><g style="display: block;" opacity="1" transform="matrix(1,0,0,1,35,95)"><g transform="matrix(4,0,0,4,0,0)" opacity="1"><path d="M-5.139999866485596,-23.5 C-5.139999866485596,-23.5 5.139999866485596,-23.5 5.139999866485596,-23.5 C7,-23.5 8.5,-22 8.5,-20.139999389648438 C8.5,-20.139999389648438 8.5,20.139999389648438 8.5,20.139999389648438 C8.5,22 7,23.5 5.139999866485596,23.5 C5.139999866485596,23.5 -5.139999866485596,23.5 -5.139999866485596,23.5 C-7,23.5 -8.5,22 -8.5,20.139999389648438 C-8.5,20.139999389648438 -8.5,-20.139999389648438 -8.5,-20.139999389648438 C-8.5,-22 -7,-23.5 -5.139999866485596,-23.5z" fill-opacity="1" fill="rgb(75,75,75)"></path></g></g><g style="display: block;" opacity="1" transform="matrix(1,0,0,1,35,23)"><g transform="matrix(4,0,0,4,0,0)" opacity="1"><path d="M-4.820000171661377,-3.5 C-4.820000171661377,-3.5 4.820000171661377,-3.5 4.820000171661377,-3.5 C5.75,-3.5 6.5,-2.75 6.5,-1.8200000524520874 C6.5,-1.8200000524520874 6.5,1.8200000524520874 6.5,1.8200000524520874 C6.5,2.75 5.75,3.5 4.820000171661377,3.5 C4.820000171661377,3.5 -4.820000171661377,3.5 -4.820000171661377,3.5 C-5.75,3.5 -6.5,2.75 -6.5,1.8200000524520874 C-6.5,1.8200000524520874 -6.5,-1.8200000524520874 -6.5,-1.8200000524520874 C-6.5,-2.75 -5.75,-3.5 -4.820000171661377,-3.5z" fill-opacity="1" fill="rgb(116,116,116)"></path></g></g></g><g style="display: block;" opacity="1" transform="matrix(1,0,0,1,399,207)" clip-path="url(#__lottie_element_10472)"><g style="display: block;" opacity="1" transform="matrix(1,0,0,1,23,65)"><g transform="matrix(4,0,0,4,0,0)" opacity="1"><path d="M-2.140000104904175,-16 C-2.140000104904175,-16 2.140000104904175,-16 2.140000104904175,-16 C4,-16 5.5,-14.5 5.5,-12.640000343322754 C5.5,-12.640000343322754 5.5,12.640000343322754 5.5,12.640000343322754 C5.5,14.5 4,16 2.140000104904175,16 C2.140000104904175,16 -2.140000104904175,16 -2.140000104904175,16 C-4,16 -5.5,14.5 -5.5,12.640000343322754 C-5.5,12.640000343322754 -5.5,-12.640000343322754 -5.5,-12.640000343322754 C-5.5,-14.5 -4,-16 -2.140000104904175,-16z" fill-opacity="1" fill="rgb(75,75,75)"></path></g></g><g style="display: block;" opacity="1" transform="matrix(1,0,0,1,23,23)"><g transform="matrix(4,0,0,4,0,0)" opacity="1"><path d="M-1.8200000524520874,-3.5 C-1.8200000524520874,-3.5 1.8200000524520874,-3.5 1.8200000524520874,-3.5 C2.75,-3.5 3.5,-2.75 3.5,-1.8200000524520874 C3.5,-1.8200000524520874 3.5,1.8200000524520874 3.5,1.8200000524520874 C3.5,2.75 2.75,3.5 1.8200000524520874,3.5 C1.8200000524520874,3.5 -1.8200000524520874,3.5 -1.8200000524520874,3.5 C-2.75,3.5 -3.5,2.75 -3.5,1.8200000524520874 C-3.5,1.8200000524520874 -3.5,-1.8200000524520874 -3.5,-1.8200000524520874 C-3.5,-2.75 -2.75,-3.5 -1.8200000524520874,-3.5z" fill-opacity="1" fill="rgb(116,116,116)"></path></g></g></g><g style="display: block;" opacity="1" transform="matrix(1,0,0,1,95,207)" clip-path="url(#__lottie_element_10462)"><g style="display: block;" opacity="1" transform="matrix(1,0,0,1,23,65)"><g transform="matrix(4,0,0,4,0,0)" opacity="1"><path d="M-2.140000104904175,-16 C-2.140000104904175,-16 2.140000104904175,-16 2.140000104904175,-16 C4,-16 5.5,-14.5 5.5,-12.640000343322754 C5.5,-12.640000343322754 5.5,12.640000343322754 5.5,12.640000343322754 C5.5,14.5 4,16 2.140000104904175,16 C2.140000104904175,16 -2.140000104904175,16 -2.140000104904175,16 C-4,16 -5.5,14.5 -5.5,12.640000343322754 C-5.5,12.640000343322754 -5.5,-12.640000343322754 -5.5,-12.640000343322754 C-5.5,-14.5 -4,-16 -2.140000104904175,-16z" fill-opacity="1" fill="rgb(75,75,75)"></path></g></g><g style="display: block;" opacity="1" transform="matrix(1,0,0,1,23,23)"><g transform="matrix(4,0,0,4,0,0)" opacity="1"><path d="M-1.8200000524520874,-3.5 C-1.8200000524520874,-3.5 1.8200000524520874,-3.5 1.8200000524520874,-3.5 C2.75,-3.5 3.5,-2.75 3.5,-1.8200000524520874 C3.5,-1.8200000524520874 3.5,1.8200000524520874 3.5,1.8200000524520874 C3.5,2.75 2.75,3.5 1.8200000524520874,3.5 C1.8200000524520874,3.5 -1.8200000524520874,3.5 -1.8200000524520874,3.5 C-2.75,3.5 -3.5,2.75 -3.5,1.8200000524520874 C-3.5,1.8200000524520874 -3.5,-1.8200000524520874 -3.5,-1.8200000524520874 C-3.5,-2.75 -2.75,-3.5 -1.8200000524520874,-3.5z" fill-opacity="1" fill="rgb(116,116,116)"></path></g></g></g></g><g style="display: none;" clip-path="url(#__lottie_element_10408)"><g style="display: none;"><g><path></path></g></g><g style="display: none;" clip-path="url(#__lottie_element_10445)"><g style="display: none;"><g><path></path></g></g><g style="display: none;"><g><path></path></g></g></g><g style="display: none;" clip-path="url(#__lottie_element_10435)"><g style="display: none;"><g><path></path></g></g><g style="display: none;"><g><path></path></g></g></g><g style="display: none;" clip-path="url(#__lottie_element_10425)"><g style="display: none;"><g><path></path></g></g><g style="display: none;"><g><path></path></g></g></g><g style="display: none;" clip-path="url(#__lottie_element_10415)"><g style="display: none;"><g><path></path></g></g><g style="display: none;"><g><path></path></g></g></g></g><g style="display: none;" clip-path="url(#__lottie_element_10361)"><g style="display: none;"><g><path></path></g></g><g style="display: none;" clip-path="url(#__lottie_element_10398)"><g style="display: none;"><g><path></path></g></g><g style="display: none;"><g><path></path></g></g></g><g style="display: none;" clip-path="url(#__lottie_element_10388)"><g style="display: none;"><g><path></path></g></g><g style="display: none;"><g><path></path></g></g></g><g style="display: none;" clip-path="url(#__lottie_element_10378)"><g style="display: none;"><g><path></path></g></g><g style="display: none;"><g><path></path></g></g></g><g style="display: none;" clip-path="url(#__lottie_element_10368)"><g style="display: none;"><g><path></path></g></g><g style="display: none;"><g><path></path></g></g></g></g><g style="display: block;" opacity="1" transform="matrix(0.25,0,0,0.25,0,0)" clip-path="url(#__lottie_element_10314)"><g style="display: block;" opacity="1" transform="matrix(1,0,0,1,268,272)"><g transform="matrix(4,0,0,4,0,0)" opacity="1"><path d="M-50,-4 C-50,-4 50,-4 50,-4 C52.209999084472656,-4 54,-2.2100000381469727 54,0 C54,2.2100000381469727 52.209999084472656,4 50,4 C50,4 -50,4 -50,4 C-52.209999084472656,4 -54,2.2100000381469727 -54,0 C-54,-2.2100000381469727 -52.209999084472656,-4 -50,-4z" fill-opacity="1" fill="rgb(215,215,215)"></path></g></g><g style="display: block;" opacity="1" transform="matrix(1,0,0,1,331,175)" clip-path="url(#__lottie_element_10351)"><g style="display: block;" opacity="1" transform="matrix(1,0,0,1,35,95)"><g transform="matrix(4,0,0,4,0,0)" opacity="1"><path d="M-5.139999866485596,-23.5 C-5.139999866485596,-23.5 5.139999866485596,-23.5 5.139999866485596,-23.5 C7,-23.5 8.5,-22 8.5,-20.139999389648438 C8.5,-20.139999389648438 8.5,20.139999389648438 8.5,20.139999389648438 C8.5,22 7,23.5 5.139999866485596,23.5 C5.139999866485596,23.5 -5.139999866485596,23.5 -5.139999866485596,23.5 C-7,23.5 -8.5,22 -8.5,20.139999389648438 C-8.5,20.139999389648438 -8.5,-20.139999389648438 -8.5,-20.139999389648438 C-8.5,-22 -7,-23.5 -5.139999866485596,-23.5z" fill-opacity="1" fill="rgb(75,75,75)"></path></g></g><g style="display: block;" opacity="1" transform="matrix(1,0,0,1,35,23)"><g transform="matrix(4,0,0,4,0,0)" opacity="1"><path d="M-4.820000171661377,-3.5 C-4.820000171661377,-3.5 4.820000171661377,-3.5 4.820000171661377,-3.5 C5.75,-3.5 6.5,-2.75 6.5,-1.8200000524520874 C6.5,-1.8200000524520874 6.5,1.8200000524520874 6.5,1.8200000524520874 C6.5,2.75 5.75,3.5 4.820000171661377,3.5 C4.820000171661377,3.5 -4.820000171661377,3.5 -4.820000171661377,3.5 C-5.75,3.5 -6.5,2.75 -6.5,1.8200000524520874 C-6.5,1.8200000524520874 -6.5,-1.8200000524520874 -6.5,-1.8200000524520874 C-6.5,-2.75 -5.75,-3.5 -4.820000171661377,-3.5z" fill-opacity="1" fill="rgb(116,116,116)"></path></g></g></g><g style="display: block;" opacity="1" transform="matrix(1,0,0,1,139,175)" clip-path="url(#__lottie_element_10341)"><g style="display: block;" opacity="1" transform="matrix(1,0,0,1,35,95)"><g transform="matrix(4,0,0,4,0,0)" opacity="1"><path d="M-5.139999866485596,-23.5 C-5.139999866485596,-23.5 5.139999866485596,-23.5 5.139999866485596,-23.5 C7,-23.5 8.5,-22 8.5,-20.139999389648438 C8.5,-20.139999389648438 8.5,20.139999389648438 8.5,20.139999389648438 C8.5,22 7,23.5 5.139999866485596,23.5 C5.139999866485596,23.5 -5.139999866485596,23.5 -5.139999866485596,23.5 C-7,23.5 -8.5,22 -8.5,20.139999389648438 C-8.5,20.139999389648438 -8.5,-20.139999389648438 -8.5,-20.139999389648438 C-8.5,-22 -7,-23.5 -5.139999866485596,-23.5z" fill-opacity="1" fill="rgb(75,75,75)"></path></g></g><g style="display: block;" opacity="1" transform="matrix(1,0,0,1,35,23)"><g transform="matrix(4,0,0,4,0,0)" opacity="1"><path d="M-4.820000171661377,-3.5 C-4.820000171661377,-3.5 4.820000171661377,-3.5 4.820000171661377,-3.5 C5.75,-3.5 6.5,-2.75 6.5,-1.8200000524520874 C6.5,-1.8200000524520874 6.5,1.8200000524520874 6.5,1.8200000524520874 C6.5,2.75 5.75,3.5 4.820000171661377,3.5 C4.820000171661377,3.5 -4.820000171661377,3.5 -4.820000171661377,3.5 C-5.75,3.5 -6.5,2.75 -6.5,1.8200000524520874 C-6.5,1.8200000524520874 -6.5,-1.8200000524520874 -6.5,-1.8200000524520874 C-6.5,-2.75 -5.75,-3.5 -4.820000171661377,-3.5z" fill-opacity="1" fill="rgb(116,116,116)"></path></g></g></g><g style="display: block;" opacity="1" transform="matrix(1,0,0,1,399,207)" clip-path="url(#__lottie_element_10331)"><g style="display: block;" opacity="1" transform="matrix(1,0,0,1,23,65)"><g transform="matrix(4,0,0,4,0,0)" opacity="1"><path d="M-2.140000104904175,-16 C-2.140000104904175,-16 2.140000104904175,-16 2.140000104904175,-16 C4,-16 5.5,-14.5 5.5,-12.640000343322754 C5.5,-12.640000343322754 5.5,12.640000343322754 5.5,12.640000343322754 C5.5,14.5 4,16 2.140000104904175,16 C2.140000104904175,16 -2.140000104904175,16 -2.140000104904175,16 C-4,16 -5.5,14.5 -5.5,12.640000343322754 C-5.5,12.640000343322754 -5.5,-12.640000343322754 -5.5,-12.640000343322754 C-5.5,-14.5 -4,-16 -2.140000104904175,-16z" fill-opacity="1" fill="rgb(75,75,75)"></path></g></g><g style="display: block;" opacity="1" transform="matrix(1,0,0,1,23,23)"><g transform="matrix(4,0,0,4,0,0)" opacity="1"><path d="M-1.8200000524520874,-3.5 C-1.8200000524520874,-3.5 1.8200000524520874,-3.5 1.8200000524520874,-3.5 C2.75,-3.5 3.5,-2.75 3.5,-1.8200000524520874 C3.5,-1.8200000524520874 3.5,1.8200000524520874 3.5,1.8200000524520874 C3.5,2.75 2.75,3.5 1.8200000524520874,3.5 C1.8200000524520874,3.5 -1.8200000524520874,3.5 -1.8200000524520874,3.5 C-2.75,3.5 -3.5,2.75 -3.5,1.8200000524520874 C-3.5,1.8200000524520874 -3.5,-1.8200000524520874 -3.5,-1.8200000524520874 C-3.5,-2.75 -2.75,-3.5 -1.8200000524520874,-3.5z" fill-opacity="1" fill="rgb(116,116,116)"></path></g></g></g><g style="display: block;" opacity="1" transform="matrix(1,0,0,1,95,207)" clip-path="url(#__lottie_element_10321)"><g style="display: block;" opacity="1" transform="matrix(1,0,0,1,23,65)"><g transform="matrix(4,0,0,4,0,0)" opacity="1"><path d="M-2.140000104904175,-16 C-2.140000104904175,-16 2.140000104904175,-16 2.140000104904175,-16 C4,-16 5.5,-14.5 5.5,-12.640000343322754 C5.5,-12.640000343322754 5.5,12.640000343322754 5.5,12.640000343322754 C5.5,14.5 4,16 2.140000104904175,16 C2.140000104904175,16 -2.140000104904175,16 -2.140000104904175,16 C-4,16 -5.5,14.5 -5.5,12.640000343322754 C-5.5,12.640000343322754 -5.5,-12.640000343322754 -5.5,-12.640000343322754 C-5.5,-14.5 -4,-16 -2.140000104904175,-16z" fill-opacity="1" fill="rgb(75,75,75)"></path></g></g><g style="display: block;" opacity="1" transform="matrix(1,0,0,1,23,23)"><g transform="matrix(4,0,0,4,0,0)" opacity="1"><path d="M-1.8200000524520874,-3.5 C-1.8200000524520874,-3.5 1.8200000524520874,-3.5 1.8200000524520874,-3.5 C2.75,-3.5 3.5,-2.75 3.5,-1.8200000524520874 C3.5,-1.8200000524520874 3.5,1.8200000524520874 3.5,1.8200000524520874 C3.5,2.75 2.75,3.5 1.8200000524520874,3.5 C1.8200000524520874,3.5 -1.8200000524520874,3.5 -1.8200000524520874,3.5 C-2.75,3.5 -3.5,2.75 -3.5,1.8200000524520874 C-3.5,1.8200000524520874 -3.5,-1.8200000524520874 -3.5,-1.8200000524520874 C-3.5,-2.75 -2.75,-3.5 -1.8200000524520874,-3.5z" fill-opacity="1" fill="rgb(116,116,116)"></path></g></g></g></g></g></svg>