<svg style="width: 100%; height: 100%; transform: translate3d(0px, 0px, 0px);" preserveAspectRatio="xMidYMid meet" height="135" width="135" viewBox="0 0 135 135" xmlns="http://www.w3.org/2000/svg"><defs><clipPath id="__lottie_element_6462"><rect y="0" x="0" height="135" width="135"></rect></clipPath><clipPath id="__lottie_element_6464"><path d="M0,0 L540,0 L540,540 L0,540z"></path></clipPath><clipPath id="__lottie_element_6468"><path d="M0,0 L540,0 L540,540 L0,540z"></path></clipPath><clipPath id="__lottie_element_6473"><path fill-opacity="1" d="M150.89500427246094,-235 C150.89500427246094,-235 -165.10499572753906,-226 -172.10499572753906,-228 C-179.10499572753906,-230 -184.10499572753906,220 -184.10499572753906,220 C-184.10499572753906,220 178.89500427246094,226 178.89500427246094,224 C178.89500427246094,222 188.39500427246094,97.5 188.39500427246094,97.5 C188.39500427246094,97.5 217.39500427246094,60.5 217.39500427246094,60.5 C217.39500427246094,60.5 253.89500427246094,50.5 253.89500427246094,50.5 C253.89500427246094,50.5 221.89500427246094,9.5 221.89500427246094,9.5 C221.89500427246094,9.5 173.39500427246094,-2 173.39500427246094,-2 C173.39500427246094,-2 150.89500427246094,-235 150.89500427246094,-235" clip-rule="nonzero" fill="#ffffff"></path></clipPath><clipPath id="__lottie_element_6487"><path d="M0,0 L540,0 L540,540 L0,540z"></path></clipPath><clipPath id="__lottie_element_6492"><path fill-opacity="1" d="M150.89500427246094,-235 C150.89500427246094,-235 -165.10499572753906,-226 -172.10499572753906,-228 C-179.10499572753906,-230 -184.10499572753906,220 -184.10499572753906,220 C-184.10499572753906,220 178.89500427246094,226 178.89500427246094,224 C178.89500427246094,222 150.39500427246094,30.5 150.39500427246094,30.5 C150.39500427246094,30.5 94.3949966430664,50 94.3949966430664,50 C94.3949966430664,50 24.895000457763672,20 24.895000457763672,20 C24.895000457763672,20 91.3949966430664,29 91.3949966430664,29 C91.3949966430664,29 150.39500427246094,0 150.39500427246094,0 C150.39500427246094,0 150.89500427246094,-235 150.89500427246094,-235" clip-rule="nonzero" fill="#ffffff"></path></clipPath><clipPath id="__lottie_element_6506"><path d="M0,0 L540,0 L540,540 L0,540z"></path></clipPath><clipPath id="__lottie_element_6525"><path d="M0,0 L540,0 L540,540 L0,540z"></path></clipPath><clipPath id="__lottie_element_6529"><path d="M0,0 L540,0 L540,540 L0,540z"></path></clipPath><clipPath id="__lottie_element_6534"><path clip-rule="nonzero" fill="#ffffff"></path></clipPath><clipPath id="__lottie_element_6548"><path d="M0,0 L540,0 L540,540 L0,540z"></path></clipPath><clipPath id="__lottie_element_6553"><path clip-rule="nonzero" fill="#ffffff"></path></clipPath><clipPath id="__lottie_element_6567"><path d="M0,0 L540,0 L540,540 L0,540z"></path></clipPath></defs><g clip-path="url(#__lottie_element_6462)"><g style="display: none;" clip-path="url(#__lottie_element_6525)"><g style="display: none;" clip-path="url(#__lottie_element_6567)"><g style="display: none;"><g><path></path></g></g><g style="display: none;"><g><path></path></g></g><g style="display: none;"><g><path></path></g></g><g style="display: none;"><g><path></path></g></g><g style="display: none;"><g><path></path></g></g></g><g style="display: none;" clip-path="url(#__lottie_element_6548)"><g style="display: none;" clip-path="url(#__lottie_element_6553)"><g><path></path></g></g><g style="display: none;"><g><path></path></g></g><g style="display: none;"><g><path></path></g></g><g style="display: none;"><g><path></path></g></g><g style="display: none;"><g><path></path></g></g></g><g style="display: none;" clip-path="url(#__lottie_element_6529)"><g style="display: none;" clip-path="url(#__lottie_element_6534)"><g><path></path></g></g><g style="display: none;"><g><path></path></g></g><g style="display: none;"><g><path></path></g></g><g style="display: none;"><g><path></path></g></g><g style="display: none;"><g><path></path></g></g></g></g><g style="display: block;" opacity="1" transform="matrix(0.25,0,0,0.25,0,0)" clip-path="url(#__lottie_element_6464)"><g style="display: block;" opacity="1" transform="matrix(0.9999905824661255,0.004337287973612547,-0.004337287973612547,0.9999905824661255,1.7343941926956177,-1.1668701171875)" clip-path="url(#__lottie_element_6506)"><g style="display: block;" opacity="1" transform="matrix(1,0,0,1,270.33099365234375,270.4219970703125)"><g transform="matrix(4,0,0,4,0,0)" opacity="1"><path d="M-28.437000274658203,4.879000186920166 C-28.437000274658203,4.879000186920166 -13.82699966430664,-1.6009999513626099 -13.82699966430664,-1.6009999513626099 C-13.237000465393066,-1.8609999418258667 -12.557000160217285,-1.840999960899353 -11.996999740600586,-1.531000018119812 C-11.996999740600586,-1.531000018119812 17.35300064086914,14.319000244140625 17.35300064086914,14.319000244140625 C17.902999877929688,14.619000434875488 18.562999725341797,14.659000396728516 19.14299964904785,14.418999671936035 C19.14299964904785,14.418999671936035 32.74300003051758,8.758999824523926 32.74300003051758,8.758999824523926 C32.77299880981445,9.428999900817871 32.792999267578125,10.079000473022461 32.792999267578125,10.718999862670898 C32.792999267578125,29.288999557495117 18.093000411987305,44.3489990234375 -0.03700000047683716,44.3489990234375 C-18.16699981689453,44.3489990234375 -32.867000579833984,29.288999557495117 -32.867000579833984,10.718999862670898 C-32.867000579833984,10.418999671936035 -32.867000579833984,10.119000434875488 -32.856998443603516,9.819000244140625 C-32.856998443603516,9.819000244140625 -32.87699890136719,9.83899974822998 -32.87699890136719,9.83899974822998 C-32.82699966430664,6.879000186920166 -32.766998291015625,4.64900016784668 -32.707000732421875,3.1489999294281006 C-32.66699981689453,2.0190000534057617 -32.59700012207031,0.8190000057220459 -32.50699996948242,-0.45100000500679016 C-32.30699920654297,-18.481000900268555 -22.547000885009766,-41.64099884033203 -6.836999893188477,-44.13100051879883 C11.072999954223633,-46.97100067138672 29.933000564575195,-21.871000289916992 32.84299850463867,-3.5209999084472656 C32.85300064086914,-3.440999984741211 32.862998962402344,-3.3510000705718994 32.87300109863281,-3.2709999084472656 C32.87300109863281,-3.2709999084472656 18.33300018310547,2.0789999961853027 18.33300018310547,2.0789999961853027 C17.613000869750977,2.3389999866485596 16.812999725341797,2.3289999961853027 16.10300064086914,2.0490000247955322 C16.10300064086914,2.0490000247955322 -12.687000274658203,-9.371000289916992 -12.687000274658203,-9.371000289916992 C-13.746999740600586,-9.781000137329102 -14.937000274658203,-9.60099983215332 -15.817000389099121,-8.880999565124512 C-15.817000389099121,-8.880999565124512 -16.927000045776367,-7.980999946594238 -16.927000045776367,-7.980999946594238 C-16.927000045776367,-7.980999946594238 -28.437000274658203,4.879000186920166 -28.437000274658203,4.879000186920166z" fill-opacity="1" fill="rgb(255,255,255)"></path></g></g><g style="display: block;" opacity="1" transform="matrix(1,0,0,1,332.1029968261719,409.8900146484375)"><g transform="matrix(4,0,0,4,0,0)" opacity="1"><path d="M11.395000457763672,-4.817999839782715 C6.34499979019165,2.5320000648498535 -1.4950000047683716,7.711999893188477 -10.555000305175781,9.112000465393066 C-11.095000267028809,7.631999969482422 -11.395000457763672,6.041999816894531 -11.395000457763672,4.372000217437744 C-11.395000457763672,-3.078000068664551 -5.505000114440918,-9.107999801635742 1.7649999856948853,-9.107999801635742 C5.565000057220459,-9.107999801635742 8.994999885559082,-7.458000183105469 11.395000457763672,-4.817999839782715 C11.395000457763672,-4.817999839782715 11.395000457763672,-4.817999839782715 11.395000457763672,-4.817999839782715z" fill-opacity="1" fill="rgb(184,230,117)"></path></g></g><g style="display: block;" opacity="1" transform="matrix(1,0,0,1,221.16400146484375,344.9490051269531)"><g transform="matrix(4,0,0,4,0,0)" opacity="1"><path d="M0.0010000000474974513,11.774999618530273 C6.35099983215332,11.774999618530273 11.50100040435791,6.505000114440918 11.50100040435791,-0.004999999888241291 C11.50100040435791,-6.505000114440918 6.35099983215332,-11.774999618530273 0.0010000000474974513,-11.774999618530273 C-6.348999977111816,-11.774999618530273 -11.49899959564209,-6.505000114440918 -11.49899959564209,-0.004999999888241291 C-11.49899959564209,6.505000114440918 -6.348999977111816,11.774999618530273 0.0010000000474974513,11.774999618530273z" fill-opacity="1" fill="rgb(184,230,117)"></path></g></g><g style="display: block;" opacity="1" transform="matrix(1,0,0,1,172.468994140625,183.61399841308594)"><g transform="matrix(4,0,0,4,0,0)" opacity="1"><path d="M-7.144000053405762,11.83899974822998 C-5.6539998054504395,3.309000015258789 -2.374000072479248,-5.370999813079834 2.375999927520752,-11.890999794006348 C4.745999813079834,-9.871000289916992 6.446000099182129,-6.991000175476074 6.97599983215332,-3.6410000324249268 C8.13599967956543,3.7090001106262207 3.25600004196167,10.58899974822998 -3.9240000247955322,11.729000091552734 C-5.013999938964844,11.89900016784668 -6.093999862670898,11.928999900817871 -7.144000053405762,11.83899974822998 C-7.144000053405762,11.83899974822998 -7.144000053405762,11.83899974822998 -7.144000053405762,11.83899974822998z" fill-opacity="1" fill="rgb(184,230,117)"></path></g></g><g style="display: block;" opacity="1" transform="matrix(1,0,0,1,327.8949890136719,168.66299438476562)"><g transform="matrix(4,0,0,4,0,0)" opacity="1"><path d="M-6.589000225067139,-15.414999961853027 C2.1010000705718994,-10.395000457763672 9.831000328063965,-0.6650000214576721 14.430999755859375,9.274999618530273 C12.01099967956543,12.364999771118164 8.50100040435791,14.5649995803833 4.361000061035156,15.21500015258789 C-4.468999862670898,16.614999771118164 -12.788999557495117,10.414999961853027 -14.218999862670898,1.375 C-15.309000015258789,-5.514999866485596 -12.08899974822998,-12.0649995803833 -6.589000225067139,-15.414999961853027z" fill-opacity="1" fill="rgb(184,230,117)"></path></g></g></g><g style="display: block;" opacity="0" transform="matrix(1.100000023841858,0,0,0.8999999761581421,-27,44.7750244140625)" clip-path="url(#__lottie_element_6487)"><g style="display: block;" opacity="1" transform="matrix(1,0,0,1,271.1050109863281,278)" clip-path="url(#__lottie_element_6492)"><g transform="matrix(4,0,0,4,0,0)" opacity="1"><path d="M0.004000000189989805,42.5 C19.20400047302246,42.5 34.77399826049805,26.489999771118164 34.77399826049805,6.739999771118164 C34.77399826049805,-13 19.20400047302246,-42.5 0.004000000189989805,-42.5 C-19.20599937438965,-42.5 -34.7760009765625,-13 -34.7760009765625,6.739999771118164 C-34.7760009765625,26.489999771118164 -19.20599937438965,42.5 0.004000000189989805,42.5z" fill-opacity="1" fill="rgb(255,255,255)"></path></g></g><g style="display: block;" opacity="1" transform="matrix(1,0,0,1,336.6910095214844,407.6669921875)"><g transform="matrix(4,0,0,4,0,0)" opacity="1"><path d="M12.071000099182129,-5.124000072479248 C6.7210001945495605,2.686000108718872 -1.5889999866485596,8.206000328063965 -11.178999900817871,9.685999870300293 C-11.758999824523926,8.116000175476074 -12.069000244140625,6.415999889373779 -12.069000244140625,4.645999908447266 C-12.069000244140625,-3.2639999389648438 -5.828999996185303,-9.684000015258789 1.871000051498413,-9.684000015258789 C5.901000022888184,-9.684000015258789 9.520999908447266,-7.934000015258789 12.071000099182129,-5.124000072479248 C12.071000099182129,-5.124000072479248 12.071000099182129,-5.124000072479248 12.071000099182129,-5.124000072479248z" fill-opacity="1" fill="rgb(184,230,117)"></path></g></g><g style="display: block;" opacity="1" transform="matrix(1,0,0,1,179.38601684570312,189.63099670410156)"><g transform="matrix(4,0,0,4,0,0)" opacity="1"><path d="M-8.666999816894531,11.451000213623047 C-5.697000026702881,2.750999927520752 -0.8270000219345093,-5.818999767303467 5.2230000495910645,-11.878999710083008 C7.373000144958496,-9.359000205993652 8.663000106811523,-6.059000015258789 8.663000106811523,-2.4489998817443848 C8.663000106811523,5.460999965667725 2.4230000972747803,11.880999565124512 -5.2769999504089355,11.880999565124512 C-6.447000026702881,11.880999565124512 -7.577000141143799,11.730999946594238 -8.666999816894531,11.451000213623047 C-8.666999816894531,11.451000213623047 -8.666999816894531,11.451000213623047 -8.666999816894531,11.451000213623047z" fill-opacity="1" fill="rgb(184,230,117)"></path></g></g><g style="display: block;" opacity="1" transform="matrix(1,0,0,1,344.4530029296875,199.47698974609375)"><g transform="matrix(4,0,0,4,0,0)" opacity="1"><path d="M-3.571000099182129,-16.9950008392334 C4.689000129699707,-10.28499984741211 11.168999671936035,1.225000023841858 14.329000473022461,12.4350004196167 C11.288999557495117,15.265000343322754 7.249000072479248,16.9950008392334 2.819000005722046,16.9950008392334 C-6.651000022888184,16.9950008392334 -14.331000328063965,9.104999542236328 -14.331000328063965,-0.6349999904632568 C-14.331000328063965,-8.045000076293945 -9.880999565124512,-14.395000457763672 -3.571000099182129,-16.9950008392334 C-3.571000099182129,-16.9950008392334 -3.571000099182129,-16.9950008392334 -3.571000099182129,-16.9950008392334z" fill-opacity="1" fill="rgb(184,230,117)"></path></g></g><g style="display: block;" opacity="1" transform="matrix(1,0,0,1,219.18101501464844,338.6199951171875)"><g transform="matrix(4,0,0,4,0,0)" opacity="1"><path d="M0,12.520999908447266 C6.730000019073486,12.520999908447266 12.180000305175781,6.910999774932861 12.180000305175781,0.0010000000474974513 C12.180000305175781,-6.908999919891357 6.730000019073486,-12.519000053405762 0,-12.519000053405762 C-6.730000019073486,-12.519000053405762 -12.180000305175781,-6.908999919891357 -12.180000305175781,0.0010000000474974513 C-12.180000305175781,6.910999774932861 -6.730000019073486,12.520999908447266 0,12.520999908447266z" fill-opacity="1" fill="rgb(184,230,116)"></path></g></g></g><g style="display: block;" opacity="1" transform="matrix(0.9945219159126282,-0.10452846437692642,0.10452846437692642,0.9945219159126282,-535.323486328125,30.675506591796875)" clip-path="url(#__lottie_element_6468)"><g style="display: block;" opacity="1" transform="matrix(1,0,0,1,271.1050109863281,278)" clip-path="url(#__lottie_element_6473)"><g transform="matrix(4,0,0,4,0,0)" opacity="1"><path d="M0.004000000189989805,42.5 C19.20400047302246,42.5 34.77399826049805,26.489999771118164 34.77399826049805,6.739999771118164 C34.77399826049805,-13 19.20400047302246,-42.5 0.004000000189989805,-42.5 C-19.20599937438965,-42.5 -34.7760009765625,-13 -34.7760009765625,6.739999771118164 C-34.7760009765625,26.489999771118164 -19.20599937438965,42.5 0.004000000189989805,42.5z" fill-opacity="1" fill="rgb(255,255,255)"></path></g></g><g style="display: block;" opacity="1" transform="matrix(1,0,0,1,336.6910095214844,407.6669921875)"><g transform="matrix(4,0,0,4,0,0)" opacity="1"><path d="M12.071000099182129,-5.124000072479248 C6.7210001945495605,2.686000108718872 -1.5889999866485596,8.206000328063965 -11.178999900817871,9.685999870300293 C-11.758999824523926,8.116000175476074 -12.069000244140625,6.415999889373779 -12.069000244140625,4.645999908447266 C-12.069000244140625,-3.2639999389648438 -5.828999996185303,-9.684000015258789 1.871000051498413,-9.684000015258789 C5.901000022888184,-9.684000015258789 9.520999908447266,-7.934000015258789 12.071000099182129,-5.124000072479248 C12.071000099182129,-5.124000072479248 12.071000099182129,-5.124000072479248 12.071000099182129,-5.124000072479248z" fill-opacity="1" fill="rgb(184,230,117)"></path></g></g><g style="display: block;" opacity="1" transform="matrix(1,0,0,1,179.38601684570312,189.63099670410156)"><g transform="matrix(4,0,0,4,0,0)" opacity="1"><path d="M-8.666999816894531,11.451000213623047 C-5.697000026702881,2.750999927520752 -0.8270000219345093,-5.818999767303467 5.2230000495910645,-11.878999710083008 C7.373000144958496,-9.359000205993652 8.663000106811523,-6.059000015258789 8.663000106811523,-2.4489998817443848 C8.663000106811523,5.460999965667725 2.4230000972747803,11.880999565124512 -5.2769999504089355,11.880999565124512 C-6.447000026702881,11.880999565124512 -7.577000141143799,11.730999946594238 -8.666999816894531,11.451000213623047 C-8.666999816894531,11.451000213623047 -8.666999816894531,11.451000213623047 -8.666999816894531,11.451000213623047z" fill-opacity="1" fill="rgb(184,230,117)"></path></g></g><g style="display: block;" opacity="1" transform="matrix(1,0,0,1,344.4530029296875,199.47698974609375)"><g transform="matrix(4,0,0,4,0,0)" opacity="1"><path d="M-3.571000099182129,-16.9950008392334 C4.689000129699707,-10.28499984741211 11.168999671936035,1.225000023841858 14.329000473022461,12.4350004196167 C11.288999557495117,15.265000343322754 7.249000072479248,16.9950008392334 2.819000005722046,16.9950008392334 C-6.651000022888184,16.9950008392334 -14.331000328063965,9.104999542236328 -14.331000328063965,-0.6349999904632568 C-14.331000328063965,-8.045000076293945 -9.880999565124512,-14.395000457763672 -3.571000099182129,-16.9950008392334 C-3.571000099182129,-16.9950008392334 -3.571000099182129,-16.9950008392334 -3.571000099182129,-16.9950008392334z" fill-opacity="1" fill="rgb(184,230,117)"></path></g></g><g style="display: block;" opacity="1" transform="matrix(1,0,0,1,219.18101501464844,338.6199951171875)"><g transform="matrix(4,0,0,4,0,0)" opacity="1"><path d="M0,12.520999908447266 C6.730000019073486,12.520999908447266 12.180000305175781,6.910999774932861 12.180000305175781,0.0010000000474974513 C12.180000305175781,-6.908999919891357 6.730000019073486,-12.519000053405762 0,-12.519000053405762 C-6.730000019073486,-12.519000053405762 -12.180000305175781,-6.908999919891357 -12.180000305175781,0.0010000000474974513 C-12.180000305175781,6.910999774932861 -6.730000019073486,12.520999908447266 0,12.520999908447266z" fill-opacity="1" fill="rgb(184,230,116)"></path></g></g></g></g></g></svg>