<svg style="width: 100%; height: 100%; transform: translate3d(0px, 0px, 0px);" preserveAspectRatio="xMidYMid meet" height="135" width="135" viewBox="0 0 135 135" xmlns="http://www.w3.org/2000/svg"><defs><clipPath id="__lottie_element_8081"><rect y="0" x="0" height="135" width="135"></rect></clipPath><clipPath id="__lottie_element_8083"><path d="M0,0 L540,0 L540,540 L0,540z"></path></clipPath></defs><g clip-path="url(#__lottie_element_8081)"><g style="display: block;" opacity="1" transform="matrix(0.25,0,0,0.25,0,0)" clip-path="url(#__lottie_element_8083)"><g style="display: block;" opacity="1" transform="matrix(1,0,0,1,414,233.15464782714844)"><g transform="matrix(4,0,0,4,0,0)" opacity="1"><path d="M0,10 C5.800000190734863,10 10.5,5.519999980926514 10.5,0 C10.5,-5.519999980926514 5.800000190734863,-10 0,-10 C-5.800000190734863,-10 -10.5,-5.519999980926514 -10.5,0 C-10.5,5.519999980926514 -5.800000190734863,10 0,10z" fill-opacity="1" fill="rgb(244,168,140)"></path></g></g><g style="display: block;" opacity="1" transform="matrix(1,0,0,1,130,233.15464782714844)"><g transform="matrix(4,0,0,4,0,0)" opacity="1"><path d="M0,10 C5.800000190734863,10 10.5,5.519999980926514 10.5,0 C10.5,-5.519999980926514 5.800000190734863,-10 0,-10 C-5.800000190734863,-10 -10.5,-5.519999980926514 -10.5,0 C-10.5,5.519999980926514 -5.800000190734863,10 0,10z" fill-opacity="1" fill="rgb(244,168,140)"></path></g></g><g style="display: block;" opacity="1" transform="matrix(1,0,0,1,270,161.15464782714844)"><g transform="matrix(4,0,0,4,0,0)" opacity="1"><path d="M-30.5,-12 C-30.5,-12 30.5,-12 30.5,-12 C37.130001068115234,-12 42.5,-6.630000114440918 42.5,0 C42.5,6.630000114440918 37.130001068115234,12 30.5,12 C30.5,12 -30.5,12 -30.5,12 C-37.130001068115234,12 -42.5,6.630000114440918 -42.5,0 C-42.5,-6.630000114440918 -37.130001068115234,-12 -30.5,-12z" fill-opacity="1" fill="rgb(126,75,45)"></path></g></g><g style="display: block;" opacity="1" transform="matrix(1,0,0,1,272,253.15464782714844)"><g transform="matrix(4,0,0,4,0,0)" opacity="1"><path d="M-15,-35 C-15,-35 15,-35 15,-35 C24.389999389648438,-35 32,-27.389999389648438 32,-18 C32,-18 32,18 32,18 C32,27.389999389648438 24.389999389648438,35 15,35 C15,35 -15,35 -15,35 C-24.389999389648438,35 -32,27.389999389648438 -32,18 C-32,18 -32,-18 -32,-18 C-32,-27.389999389648438 -24.389999389648438,-35 -15,-35z" fill-opacity="1" fill="rgb(244,168,140)"></path></g></g><g style="display: block;" opacity="1" transform="matrix(1,0,0,1,242,205.15464782714844)"><g transform="matrix(4,0,0,4,0,0)" opacity="1"><path d="M0,-7 C2.2100000381469727,-7 4,-5.28000020980835 4,-3.1700000762939453 C4,-3.1700000762939453 4,3.1700000762939453 4,3.1700000762939453 C4,5.28000020980835 2.2100000381469727,7 0,7 C-2.2100000381469727,7 -4,5.28000020980835 -4,3.1700000762939453 C-4,3.1700000762939453 -4,-3.1700000762939453 -4,-3.1700000762939453 C-4,-5.28000020980835 -2.2100000381469727,-7 0,-7z" fill-opacity="1" fill="rgb(186,114,89)"></path></g></g><g style="display: block;" opacity="1" transform="matrix(1,0,0,1,302,205.15464782714844)"><g transform="matrix(4,0,0,4,0,0)" opacity="1"><path d="M0,-7 C2.2100000381469727,-7 4,-5.28000020980835 4,-3.1700000762939453 C4,-3.1700000762939453 4,3.1700000762939453 4,3.1700000762939453 C4,5.28000020980835 2.2100000381469727,7 0,7 C-2.2100000381469727,7 -4,5.28000020980835 -4,3.1700000762939453 C-4,3.1700000762939453 -4,-3.1700000762939453 -4,-3.1700000762939453 C-4,-5.28000020980835 -2.2100000381469727,-7 0,-7z" fill-opacity="1" fill="rgb(186,114,89)"></path></g></g><g style="display: block;" opacity="1" transform="matrix(1,0,0,1,270,353.1546630859375)"><g transform="matrix(4,0,0,4,0,0)" opacity="1"><path d="M-2.5,-24 C-2.5,-24 2.5,-24 2.5,-24 C13.270000457763672,-24 22,-15.270000457763672 22,-4.5 C22,-4.5 22,4.5 22,4.5 C22,15.270000457763672 13.270000457763672,24 2.5,24 C2.5,24 -2.5,24 -2.5,24 C-13.270000457763672,24 -22,15.270000457763672 -22,4.5 C-22,4.5 -22,-4.5 -22,-4.5 C-22,-15.270000457763672 -13.270000457763672,-24 -2.5,-24z" fill-opacity="1" fill="rgb(126,75,45)"></path></g></g><g style="display: block;" opacity="1" transform="matrix(1,0,0,1,270,251.15464782714844)"><g transform="matrix(4,0,0,4,0,0)" opacity="1"><path d="M-3.5,-3.5 C-3.5,-3.5 3.5,-3.5 3.5,-3.5 C5.429999828338623,-3.5 7,-1.9299999475479126 7,0 C7,1.9299999475479126 5.429999828338623,3.5 3.5,3.5 C3.5,3.5 -3.5,3.5 -3.5,3.5 C-5.429999828338623,3.5 -7,1.9299999475479126 -7,0 C-7,-1.9299999475479126 -5.429999828338623,-3.5 -3.5,-3.5z" fill-opacity="1" fill="rgb(244,168,140)"></path></g></g><g style="display: block;" opacity="1" transform="matrix(1,0,0,1,272,249.15464782714844)"><path d="M26.240999221801758,51.875999450683594 C18.57200050354004,57.35100173950195 9.593999862670898,60.5 0,60.5 C-9.593999862670898,60.5 -18.57200050354004,57.35100173950195 -26.240999221801758,51.875999450683594" stroke-width="12" stroke-opacity="1" stroke="rgb(85,49,29)" stroke-miterlimit="4" fill-opacity="0" stroke-linejoin="miter" stroke-linecap="round"></path></g><g style="display: none;"><g><path stroke-miterlimit="4" fill-opacity="0" stroke-linejoin="miter" stroke-linecap="round"></path></g><g><path stroke-miterlimit="4" fill-opacity="0" stroke-linejoin="miter" stroke-linecap="round"></path></g></g></g></g></svg>