<svg style="width: 100%; height: 100%; transform: translate3d(0px, 0px, 0px);" preserveAspectRatio="xMidYMid meet" height="135" width="135" viewBox="0 0 135 135" xmlns="http://www.w3.org/2000/svg"><defs><clipPath id="__lottie_element_8611"><rect y="0" x="0" height="135" width="135"></rect></clipPath><clipPath id="__lottie_element_8613"><path d="M0,0 L540,0 L540,540 L0,540z"></path></clipPath><clipPath id="__lottie_element_8619"><path d="M0,0 L540,0 L540,540 L0,540z"></path></clipPath><clipPath id="__lottie_element_8646"><path d="M0,0 L540,0 L540,540 L0,540z"></path></clipPath></defs><g clip-path="url(#__lottie_element_8611)"><g style="display: block;" opacity="1" transform="matrix(0.25,0,0,0.25,0,0)" clip-path="url(#__lottie_element_8613)"><g style="display: block;" opacity="1" transform="matrix(0.7071067690849304,0.7071067690849304,-0.7071067690849304,0.7071067690849304,134.56204223632812,-51.28927993774414)"><g transform="matrix(1,0,0,1,0,0)" opacity="1"><path d="M-9,-185 C-9,-185 -9,-140 -9,-140" stroke-width="30" stroke-opacity="1" stroke="rgb(127,74,44)" stroke-miterlimit="4" fill-opacity="0" stroke-linejoin="miter" stroke-linecap="round"></path></g></g><g style="display: block;" opacity="1" transform="matrix(1,0,0,1,0,0.008003540337085724)" clip-path="url(#__lottie_element_8619)"><g style="display: block;" opacity="1" transform="matrix(1,0,0,1,270,172.5)"><g transform="matrix(4,0,0,4,0,0)" opacity="1"><path d="M-8.29699993133545,-17.761999130249023 C-8.29699993133545,-17.761999130249023 8.918000221252441,-17.761999130249023 8.918000221252441,-17.761999130249023 C14.907999992370605,-17.761999130249023 19.757999420166016,-12.911999702453613 19.757999420166016,-6.921999931335449 C19.757999420166016,-6.921999931335449 19.757999420166016,6.918000221252441 19.757999420166016,6.918000221252441 C19.757999420166016,12.907999992370605 14.907999992370605,17.757999420166016 8.918000221252441,17.757999420166016 C8.918000221252441,17.757999420166016 -8.29699993133545,17.757999420166016 -8.29699993133545,17.757999420166016 C-14.286999702453613,17.757999420166016 -19.136999130249023,12.907999992370605 -19.136999130249023,6.918000221252441 C-19.136999130249023,6.918000221252441 -19.136999130249023,-6.921999931335449 -19.136999130249023,-6.921999931335449 C-19.136999130249023,-12.911999702453613 -14.286999702453613,-17.761999130249023 -8.29699993133545,-17.761999130249023z M-8.312000274658203,-10.519000053405762 C-9.592000007629395,-10.519000053405762 -10.631999969482422,-9.479000091552734 -10.631999969482422,-8.199000358581543 C-10.631999969482422,-8.199000358581543 -10.61299991607666,6.921999931335449 -10.61299991607666,6.921999931335449 C-10.61299991607666,8.20199966430664 -9.572999954223633,9.241999626159668 -8.293000221252441,9.241999626159668 C-8.293000221252441,9.241999626159668 8.92199993133545,9.241999626159668 8.92199993133545,9.241999626159668 C10.20199966430664,9.241999626159668 11.241999626159668,8.20199966430664 11.241999626159668,6.921999931335449 C11.241999626159668,6.921999931335449 11.222999572753906,-8.199000358581543 11.222999572753906,-8.199000358581543 C11.222999572753906,-9.479000091552734 10.182999610900879,-10.519000053405762 8.902999877929688,-10.519000053405762 C8.902999877929688,-10.519000053405762 -8.312000274658203,-10.519000053405762 -8.312000274658203,-10.519000053405762z" fill-opacity="1" fill="rgb(255,255,255)"></path><g transform="matrix(1,0,0,1,0,0)" opacity="1"></g></g></g><g style="display: block;" opacity="1" transform="matrix(1,0,0,1,272,292)"><g transform="matrix(4,0,0,4,0,0)" opacity="1"><path d="M-39.91999816894531,-32.125 C-39.91999816894531,-32.125 37.41999816894531,-32.125 37.41999816894531,-32.125 C41.060001373291016,-32.125 44,-29.184999465942383 44,-25.545000076293945 C44,-25.545000076293945 44,24.420000076293945 44,24.420000076293945 C44,28.059999465942383 41.060001373291016,31 37.41999816894531,31 C37.41999816894531,31 -39.91999816894531,31 -39.91999816894531,31 C-43.560001373291016,31 -46.5,28.059999465942383 -46.5,24.420000076293945 C-46.5,24.420000076293945 -46.5,-25.545000076293945 -46.5,-25.545000076293945 C-46.5,-29.184999465942383 -43.560001373291016,-32.125 -39.91999816894531,-32.125z" fill-opacity="1" fill="rgb(255,255,255)"></path></g></g><g style="display: block;" opacity="1" transform="matrix(1,0,0,1,151,292)"><g transform="matrix(4,0,0,4,0,0)" opacity="1"><path d="M-7.5,-31.989999771118164 C-7.5,-31.989999771118164 7.5,-31.989999771118164 7.5,-31.989999771118164 C7.5,-31.989999771118164 7.5,31 7.5,31 C7.5,31 -7.5,31 -7.5,31 C-7.5,31 -7.5,-31.989999771118164 -7.5,-31.989999771118164z" fill-opacity="1" fill="rgb(251,216,216)"></path></g></g><g style="display: block;" opacity="1" transform="matrix(1,0,0,1,390,292)"><g transform="matrix(4,0,0,4,0,0)" opacity="1"><path d="M-7.5,-32.03099822998047 C-7.5,-32.03099822998047 7.5,-32.03099822998047 7.5,-32.03099822998047 C7.5,-32.03099822998047 7.5,31 7.5,31 C7.5,31 -7.5,31 -7.5,31 C-7.5,31 -7.5,-32.03099822998047 -7.5,-32.03099822998047z" fill-opacity="1" fill="rgb(251,216,216)"></path></g></g><g style="display: block;" opacity="1" transform="matrix(1,0,0,1,272.2250061035156,294)"><g transform="matrix(4,0,0,4,0,0)" opacity="1"><path d="M13.553999900817871,-3.309999942779541 C13.553999900817871,-3.309999942779541 13.553999900817871,3.309999942779541 13.553999900817871,3.309999942779541 C13.553999900817871,4.519999980926514 12.574000358581543,5.5 11.36400032043457,5.5 C11.36400032043457,5.5 -11.366000175476074,5.5 -11.366000175476074,5.5 C-12.576000213623047,5.5 -13.555999755859375,4.519999980926514 -13.555999755859375,3.309999942779541 C-13.555999755859375,3.309999942779541 -13.555999755859375,-3.309999942779541 -13.555999755859375,-3.309999942779541 C-13.555999755859375,-4.519999980926514 -12.576000213623047,-5.5 -11.366000175476074,-5.5 C-11.366000175476074,-5.5 11.36400032043457,-5.5 11.36400032043457,-5.5 C12.574000358581543,-5.5 13.553999900817871,-4.519999980926514 13.553999900817871,-3.309999942779541 C13.553999900817871,-3.309999942779541 13.553999900817871,-3.309999942779541 13.553999900817871,-3.309999942779541z" fill-opacity="1" fill="rgb(255,75,75)"></path></g></g><g style="display: block;" opacity="1" transform="matrix(1,0,0,1,272,294.2250061035156)"><g transform="matrix(4,0,0,4,0,0)" opacity="1"><path d="M-3.309999942779541,-13.555999755859375 C-3.309999942779541,-13.555999755859375 3.309999942779541,-13.555999755859375 3.309999942779541,-13.555999755859375 C4.519999980926514,-13.555999755859375 5.5,-12.576000213623047 5.5,-11.366000175476074 C5.5,-11.366000175476074 5.5,11.36400032043457 5.5,11.36400032043457 C5.5,12.574000358581543 4.519999980926514,13.553999900817871 3.309999942779541,13.553999900817871 C3.309999942779541,13.553999900817871 -3.309999942779541,13.553999900817871 -3.309999942779541,13.553999900817871 C-4.519999980926514,13.553999900817871 -5.5,12.574000358581543 -5.5,11.36400032043457 C-5.5,11.36400032043457 -5.5,-11.366000175476074 -5.5,-11.366000175476074 C-5.5,-12.576000213623047 -4.519999980926514,-13.555999755859375 -3.309999942779541,-13.555999755859375z" fill-opacity="1" fill="rgb(255,75,75)"></path></g></g></g><g style="display: block;" opacity="1" transform="matrix(1,0,0,1,520,0.006988525390625)" clip-path="url(#__lottie_element_8646)"><g style="display: block;" opacity="1" transform="matrix(1,0,0,1,270,172.5)"><g transform="matrix(4,0,0,4,0,0)" opacity="1"><path d="M-8.29699993133545,-17.761999130249023 C-8.29699993133545,-17.761999130249023 8.918000221252441,-17.761999130249023 8.918000221252441,-17.761999130249023 C14.907999992370605,-17.761999130249023 19.757999420166016,-12.911999702453613 19.757999420166016,-6.921999931335449 C19.757999420166016,-6.921999931335449 19.757999420166016,6.918000221252441 19.757999420166016,6.918000221252441 C19.757999420166016,12.907999992370605 14.907999992370605,17.757999420166016 8.918000221252441,17.757999420166016 C8.918000221252441,17.757999420166016 -8.29699993133545,17.757999420166016 -8.29699993133545,17.757999420166016 C-14.286999702453613,17.757999420166016 -19.136999130249023,12.907999992370605 -19.136999130249023,6.918000221252441 C-19.136999130249023,6.918000221252441 -19.136999130249023,-6.921999931335449 -19.136999130249023,-6.921999931335449 C-19.136999130249023,-12.911999702453613 -14.286999702453613,-17.761999130249023 -8.29699993133545,-17.761999130249023z M-8.312000274658203,-10.519000053405762 C-9.592000007629395,-10.519000053405762 -10.631999969482422,-9.479000091552734 -10.631999969482422,-8.199000358581543 C-10.631999969482422,-8.199000358581543 -10.61299991607666,6.921999931335449 -10.61299991607666,6.921999931335449 C-10.61299991607666,8.20199966430664 -9.572999954223633,9.241999626159668 -8.293000221252441,9.241999626159668 C-8.293000221252441,9.241999626159668 8.92199993133545,9.241999626159668 8.92199993133545,9.241999626159668 C10.20199966430664,9.241999626159668 11.241999626159668,8.20199966430664 11.241999626159668,6.921999931335449 C11.241999626159668,6.921999931335449 11.222999572753906,-8.199000358581543 11.222999572753906,-8.199000358581543 C11.222999572753906,-9.479000091552734 10.182999610900879,-10.519000053405762 8.902999877929688,-10.519000053405762 C8.902999877929688,-10.519000053405762 -8.312000274658203,-10.519000053405762 -8.312000274658203,-10.519000053405762z" fill-opacity="1" fill="rgb(255,255,255)"></path><g transform="matrix(1,0,0,1,0,0)" opacity="1"></g></g></g><g style="display: block;" opacity="1" transform="matrix(1,0,0,1,272,292)"><g transform="matrix(4,0,0,4,0,0)" opacity="1"><path d="M-39.91999816894531,-32.125 C-39.91999816894531,-32.125 37.41999816894531,-32.125 37.41999816894531,-32.125 C41.060001373291016,-32.125 44,-29.184999465942383 44,-25.545000076293945 C44,-25.545000076293945 44,24.420000076293945 44,24.420000076293945 C44,28.059999465942383 41.060001373291016,31 37.41999816894531,31 C37.41999816894531,31 -39.91999816894531,31 -39.91999816894531,31 C-43.560001373291016,31 -46.5,28.059999465942383 -46.5,24.420000076293945 C-46.5,24.420000076293945 -46.5,-25.545000076293945 -46.5,-25.545000076293945 C-46.5,-29.184999465942383 -43.560001373291016,-32.125 -39.91999816894531,-32.125z" fill-opacity="1" fill="rgb(255,255,255)"></path></g></g><g style="display: block;" opacity="1" transform="matrix(1,0,0,1,151,292)"><g transform="matrix(4,0,0,4,0,0)" opacity="1"><path d="M-7.5,-31.989999771118164 C-7.5,-31.989999771118164 7.5,-31.989999771118164 7.5,-31.989999771118164 C7.5,-31.989999771118164 7.5,31 7.5,31 C7.5,31 -7.5,31 -7.5,31 C-7.5,31 -7.5,-31.989999771118164 -7.5,-31.989999771118164z" fill-opacity="1" fill="rgb(251,216,216)"></path></g></g><g style="display: block;" opacity="1" transform="matrix(1,0,0,1,390,292)"><g transform="matrix(4,0,0,4,0,0)" opacity="1"><path d="M-7.5,-32.03099822998047 C-7.5,-32.03099822998047 7.5,-32.03099822998047 7.5,-32.03099822998047 C7.5,-32.03099822998047 7.5,31 7.5,31 C7.5,31 -7.5,31 -7.5,31 C-7.5,31 -7.5,-32.03099822998047 -7.5,-32.03099822998047z" fill-opacity="1" fill="rgb(251,216,216)"></path></g></g><g style="display: block;" opacity="1" transform="matrix(1,0,0,1,272.2250061035156,294)"><g transform="matrix(4,0,0,4,0,0)" opacity="1"><path d="M13.553999900817871,-3.309999942779541 C13.553999900817871,-3.309999942779541 13.553999900817871,3.309999942779541 13.553999900817871,3.309999942779541 C13.553999900817871,4.519999980926514 12.574000358581543,5.5 11.36400032043457,5.5 C11.36400032043457,5.5 -11.366000175476074,5.5 -11.366000175476074,5.5 C-12.576000213623047,5.5 -13.555999755859375,4.519999980926514 -13.555999755859375,3.309999942779541 C-13.555999755859375,3.309999942779541 -13.555999755859375,-3.309999942779541 -13.555999755859375,-3.309999942779541 C-13.555999755859375,-4.519999980926514 -12.576000213623047,-5.5 -11.366000175476074,-5.5 C-11.366000175476074,-5.5 11.36400032043457,-5.5 11.36400032043457,-5.5 C12.574000358581543,-5.5 13.553999900817871,-4.519999980926514 13.553999900817871,-3.309999942779541 C13.553999900817871,-3.309999942779541 13.553999900817871,-3.309999942779541 13.553999900817871,-3.309999942779541z" fill-opacity="1" fill="rgb(255,75,75)"></path></g></g><g style="display: block;" opacity="1" transform="matrix(1,0,0,1,272,294.2250061035156)"><g transform="matrix(4,0,0,4,0,0)" opacity="1"><path d="M-3.309999942779541,-13.555999755859375 C-3.309999942779541,-13.555999755859375 3.309999942779541,-13.555999755859375 3.309999942779541,-13.555999755859375 C4.519999980926514,-13.555999755859375 5.5,-12.576000213623047 5.5,-11.366000175476074 C5.5,-11.366000175476074 5.5,11.36400032043457 5.5,11.36400032043457 C5.5,12.574000358581543 4.519999980926514,13.553999900817871 3.309999942779541,13.553999900817871 C3.309999942779541,13.553999900817871 -3.309999942779541,13.553999900817871 -3.309999942779541,13.553999900817871 C-4.519999980926514,13.553999900817871 -5.5,12.574000358581543 -5.5,11.36400032043457 C-5.5,11.36400032043457 -5.5,-11.366000175476074 -5.5,-11.366000175476074 C-5.5,-12.576000213623047 -4.519999980926514,-13.555999755859375 -3.309999942779541,-13.555999755859375z" fill-opacity="1" fill="rgb(255,75,75)"></path></g></g></g><g style="display: block;" opacity="1" transform="matrix(0.9396926164627075,-0.3420201539993286,0.3420201539993286,0.9396926164627075,345.718505859375,-10.24277114868164)"><g transform="matrix(1,0,0,1,0,0)" opacity="1"><path d="M-9,-185 C-9,-185 -9,-140 -9,-140" stroke-width="70" stroke-opacity="1" stroke="rgb(151,88,53)" stroke-miterlimit="4" fill-opacity="0" stroke-linejoin="miter" stroke-linecap="round"></path></g></g><g style="display: block;" opacity="1" transform="matrix(1,0,0,1,283,4.001003742218018)"><g transform="matrix(1,0,0,1,0,0)" opacity="1"><path d="M-9,-356 C-9,-356 -9,-185 -9,-185" stroke-width="70" stroke-opacity="1" stroke="rgb(151,88,53)" stroke-miterlimit="4" fill-opacity="0" stroke-linejoin="miter" stroke-linecap="round"></path></g></g></g></g></svg>