<svg style="width: 100%; height: 100%; transform: translate3d(0px, 0px, 0px);" preserveAspectRatio="xMidYMid meet" height="135" width="135" viewBox="0 0 135 135" xmlns="http://www.w3.org/2000/svg"><defs><clipPath id="__lottie_element_7290"><rect y="0" x="0" height="135" width="135"></rect></clipPath><clipPath id="__lottie_element_7292"><path d="M0,0 L308,0 L308,308 L0,308z"></path></clipPath></defs><g clip-path="url(#__lottie_element_7290)"><g style="display: block;" opacity="1" transform="matrix(0.4399999976158142,0,0,0.4399999976158142,-0.26000213623046875,-0.26000213623046875)" clip-path="url(#__lottie_element_7292)"><g style="display: block;" opacity="1" transform="matrix(1,0,0,1,145.24600219726562,108.56900024414062)"><g transform="matrix(4,0,0,4,0,0)" opacity="1"><path d="M-6.258999824523926,-1.7519999742507935 C-6.258999824523926,-5.131999969482422 -3.4590001106262207,-7.872000217437744 0.0010000000474974513,-7.872000217437744 C0.0010000000474974513,-7.872000217437744 6.261000156402588,-7.872000217437744 6.261000156402588,-7.872000217437744 C6.261000156402588,-7.872000217437744 6.261000156402588,7.868000030517578 6.261000156402588,7.868000030517578 C6.261000156402588,7.868000030517578 -6.258999824523926,7.868000030517578 -6.258999824523926,7.868000030517578 C-6.258999824523926,7.868000030517578 -6.258999824523926,-1.7519999742507935 -6.258999824523926,-1.7519999742507935z" fill-opacity="1" fill="rgb(59,226,226)"></path></g></g><g style="display: block;" opacity="1" transform="matrix(1,0,0,1,238.76199340820312,162.36099243164062)"><g transform="matrix(4,0,0,4,0,0)" opacity="1"><path d="M2.0309998989105225,0.004000000189989805 C4.491000175476074,-0.8259999752044678 6.261000156402588,-3.1059999465942383 6.261000156402588,-5.796000003814697 C6.261000156402588,-5.796000003814697 6.261000156402588,-15.416000366210938 6.261000156402588,-15.416000366210938 C6.261000156402588,-15.416000366210938 0.0010000000474974513,-15.416000366210938 0.0010000000474974513,-15.416000366210938 C-3.4590001106262207,-15.416000366210938 -6.258999824523926,-12.675999641418457 -6.258999824523926,-9.295999526977539 C-6.258999824523926,-9.295999526977539 -6.258999824523926,9.293999671936035 -6.258999824523926,9.293999671936035 C-6.258999824523926,12.673999786376953 -3.4590001106262207,15.413999557495117 0.0010000000474974513,15.413999557495117 C0.0010000000474974513,15.413999557495117 6.261000156402588,15.413999557495117 6.261000156402588,15.413999557495117 C6.261000156402588,15.413999557495117 6.261000156402588,5.794000148773193 6.261000156402588,5.794000148773193 C6.261000156402588,3.1040000915527344 4.491000175476074,0.8240000009536743 2.0309998989105225,0.004000000189989805 C2.0309998989105225,0.004000000189989805 2.0309998989105225,0.004000000189989805 2.0309998989105225,0.004000000189989805z" fill-opacity="1" fill="rgb(59,226,226)"></path></g></g><g style="display: block;" opacity="1" transform="matrix(1,0,0,1,146,156.13299560546875)"><g transform="matrix(4,0,0,4,0,0)" opacity="1"><path d="M-2,-15 C-2,-15 2,-15 2,-15 C10.279999732971191,-15 17,-8.279999732971191 17,0 C17,8.279999732971191 10.279999732971191,15 2,15 C2,15 -2,15 -2,15 C-3.881999969482422,15 -5.684000015258789,14.652999877929688 -7.343999862670898,14.019000053405762 C-10.25,10.625 -15.187000274658203,4.375 -16.892000198364258,1.8070000410079956 C-16.96299934387207,1.215000033378601 -17,0.6119999885559082 -17,0 C-17,-8.279999732971191 -10.279999732971191,-15 -2,-15z" fill-opacity="1" fill="rgb(41,255,255)"></path></g></g><g style="display: block;" opacity="1" transform="matrix(0.7273210287094116,0.18304131925106049,-0.2440551072359085,0.9697613716125488,162.5659942626953,221.5912322998047)"><g transform="matrix(4,0,0,4,0,0)" opacity="1"><path d="M3.6549999713897705,3.5739998817443848 C5.454999923706055,1.8140000104904175 5.40500020980835,-1.0959999561309814 3.5450000762939453,-2.9159998893737793 C1.6749999523162842,-4.745999813079834 -4.585000038146973,-5.065999984741211 -4.875,-4.776000022888184 C-5.175000190734863,-4.47599983215332 -4.84499979019165,1.6339999437332153 -2.984999895095825,3.4639999866485596 C-1.1150000095367432,5.283999919891357 1.8550000190734863,5.343999862670898 3.6549999713897705,3.5739998817443848z" fill-opacity="1" fill="rgb(59,226,226)"></path></g></g><g style="display: block;" opacity="1" transform="matrix(1,0,0,1,164,158.13299560546875)"><g transform="matrix(1,0,0,1,0,0)" opacity="1"><path d="M-87.75,16.25 C-87.75,16.25 -53.75,47.75 -53.75,47.75" stroke-width="25" stroke-opacity="1" stroke="rgb(59,226,226)" stroke-miterlimit="4" fill-opacity="0" stroke-linejoin="miter" stroke-linecap="round"></path></g></g><g style="display: block;" opacity="1" transform="matrix(1,0,0,1,164,158.13299560546875)"><g transform="matrix(1,0,0,1,0,0)" opacity="1"><path d="M-86.25,10.625 C-86.25,10.625 -49.875,44.125 -49.875,44.125" stroke-width="15" stroke-opacity="1" stroke="rgb(59,226,226)" stroke-miterlimit="4" fill-opacity="0" stroke-linejoin="miter" stroke-linecap="round"></path></g></g><g style="display: block;" opacity="1" transform="matrix(1,0,0,1,128,164.18299865722656)"><g transform="matrix(4,0,0,4,0,0)" opacity="1"><path d="M0,-4 C1.3799999952316284,-4 2.5,-2.880000114440918 2.5,-1.5 C2.5,-1.5 2.5,1.5 2.5,1.5 C2.5,2.880000114440918 1.3799999952316284,4 0,4 C-1.3799999952316284,4 -2.5,2.880000114440918 -2.5,1.5 C-2.5,1.5 -2.5,-1.5 -2.5,-1.5 C-2.5,-2.880000114440918 -1.3799999952316284,-4 0,-4z" fill-opacity="1" fill="rgb(59,158,185)"></path></g></g><g style="display: none;"><path stroke-miterlimit="4" fill-opacity="0" stroke-linejoin="miter" stroke-linecap="round"></path></g><g style="display: none;"><path></path></g><g style="display: none;"><path></path></g></g></g></svg>