<svg style="width: 100%; height: 100%; transform: translate3d(0px, 0px, 0px);" preserveAspectRatio="xMidYMid meet" height="135" width="135" viewBox="0 0 135 135" xmlns="http://www.w3.org/2000/svg"><defs><clipPath id="__lottie_element_9021"><rect y="0" x="0" height="135" width="135"></rect></clipPath><clipPath id="__lottie_element_9023"><path d="M0,0 L540,0 L540,540 L0,540z"></path></clipPath><clipPath id="__lottie_element_9028"><path d="M0,0 L540,0 L540,540 L0,540z"></path></clipPath><clipPath id="__lottie_element_9032"><path d="M0,0 L1000,0 L1000,1000 L0,1000z"></path></clipPath><mask id="__lottie_element_9036"><path clip-rule="nonzero" fill="#ffffff"></path></mask><clipPath id="__lottie_element_9039"><path d="M0,0 L1000,0 L1000,1000 L0,1000z"></path></clipPath><mask id="__lottie_element_9043"><path fill-opacity="1" d="M491,330 C490.6709899902344,330.03399658203125 490.33599853515625,330.0260009765625 490.0010070800781,330.01300048828125 C489.6659851074219,330 489.33099365234375,329.9830017089844 489,330 C484.6969909667969,330.2139892578125 480.68499755859375,330.9079895019531 477.0060119628906,331.82598876953125 C473.32598876953125,332.7439880371094 469.9779968261719,333.8869934082031 467,335 C466.0010070800781,335.37298583984375 464.9960021972656,335.8999938964844 463.9930114746094,336.44500732421875 C462.989990234375,336.989990234375 461.989990234375,337.5530090332031 461,338 C457.8580017089844,339.4169921875 454.1000061035156,340.9679870605469 450.6310119628906,342.6390075683594 C447.1619873046875,344.30999755859375 443.98199462890625,346.10101318359375 442,348 C441.60101318359375,348.3819885253906 441.36199951171875,348.4590148925781 441.0920104980469,348.5260009765625 C440.8219909667969,348.5929870605469 440.5220031738281,348.6520080566406 440,349 C438.72601318359375,349.8500061035156 437.7200012207031,350.9360046386719 436.7860107421875,352.0169982910156 C435.85198974609375,353.0979919433594 434.9880065917969,354.1730041503906 434,355 C433.6260070800781,355.31298828125 433.0530090332031,355.4280090332031 432.4849853515625,355.5320129394531 C431.9169921875,355.635986328125 431.3529968261719,355.7300109863281 431,356 C430.7239990234375,356.2120056152344 430.36700439453125,356.5790100097656 430.0069885253906,356.9599914550781 C429.6470031738281,357.34100341796875 429.2860107421875,357.7349853515625 429,358 C425.0580139160156,361.6730041503906 421.33099365234375,365.5690002441406 417.8290100097656,369.5989990234375 C414.3269958496094,373.6289978027344 411.0480041503906,377.7929992675781 408,382 C404.6199951171875,386.6659851074219 401.5,391.9620056152344 398.6610107421875,397.3190002441406 C395.8219909667969,402.6759948730469 393.2619934082031,408.0920104980469 391,413 C389.8420104980469,415.5119934082031 388.9750061035156,417.6960144042969 388.20599365234375,419.9100036621094 C387.43701171875,422.1239929199219 386.7659912109375,424.3689880371094 386,427 C385.7070007324219,428.0050048828125 385.3320007324219,428.9880065917969 384.9670104980469,429.9779968261719 C384.60198974609375,430.9679870605469 384.24798583984375,431.9649963378906 384,433 C382.3970031738281,439.6969909667969 381.510986328125,446.1470031738281 380.8429870605469,452.697998046875 C380.1759948730469,459.2489929199219 379.72698974609375,465.9010009765625 379,473 C374.5870056152344,516.0850219726562 370.2380065917969,559.8350219726562 365.9169921875,603.56298828125 C361.59600830078125,647.291015625 357.3030090332031,690.9979858398438 353,734 C352.42498779296875,739.75 351.5119934082031,747.2340087890625 352,749 C352.7359924316406,751.6669921875 359.322998046875,756.9199829101562 361,758 C380.4200134277344,770.5079956054688 411.093994140625,756.114013671875 435,761 C442.656005859375,762.5650024414062 451.6510009765625,768.8109741210938 456,772 C459.2130126953125,774.3560180664062 460.77398681640625,775.197021484375 463,777 C464.43798828125,778.1649780273438 465.6520080566406,779.0070190429688 467,780 C475.4100036621094,786.1939697265625 486.6189880371094,796 500,796 C507.81201171875,796 514.4520263671875,792.458984375 519,790 C524.2230224609375,787.176025390625 529.64501953125,783.2119750976562 534,780 C542.822021484375,773.4940185546875 550.8179931640625,764.166015625 565,761 C587.4819946289062,755.9810180664062 610.3070068359375,767.0399780273438 631,761 C633.1119995117188,760.3829956054688 637.4619750976562,759.708984375 640,758 C650.0419921875,751.2410278320312 645.322021484375,738.3920288085938 644,719 C638.5809936523438,639.5330200195312 632.9130249023438,564.9340209960938 624,494 C621.239013671875,472.0249938964844 619.9509887695312,451.71099853515625 615,433 C610.8460083007812,417.3009948730469 603.822021484375,401.6940002441406 597,390 C595.8829956054688,388.08599853515625 595.0570068359375,385.6340026855469 594,384 C592.9559936523438,382.385986328125 591.0770263671875,381.5989990234375 590,380 C588.708984375,378.0830078125 588.3829956054688,375.8179931640625 587,374 C584.5999755859375,370.84698486328125 580.9119873046875,368.0799865722656 578,365 C576.666015625,363.5889892578125 576.2219848632812,361.23699951171875 575,360 C574.4550170898438,359.4490051269531 572.5809936523438,359.4530029296875 572,359 C571.1589965820312,358.3450012207031 570.8060302734375,356.73199462890625 570,356 C555.156005859375,342.5190124511719 533.0579833984375,330.8529968261719 509,329 C502.2799987792969,328.48199462890625 492.77899169921875,329.8160095214844 491,330" clip-rule="nonzero" fill="#ffffff"></path></mask><clipPath id="__lottie_element_9046"><path d="M0,0 L1000,0 L1000,1000 L0,1000z"></path></clipPath><mask id="__lottie_element_9050"><path clip-rule="nonzero" fill="#ffffff"></path></mask><clipPath id="__lottie_element_9053"><path d="M0,0 L1000,0 L1000,1000 L0,1000z"></path></clipPath><mask id="__lottie_element_9057"><path clip-rule="nonzero" fill="#ffffff"></path></mask><clipPath id="__lottie_element_9060"><path d="M0,0 L1000,0 L1000,1000 L0,1000z"></path></clipPath><mask id="__lottie_element_9064"><path clip-rule="nonzero" fill="#ffffff"></path></mask><clipPath id="__lottie_element_9067"><path d="M0,0 L1000,0 L1000,1000 L0,1000z"></path></clipPath><mask id="__lottie_element_9071"><path clip-rule="nonzero" fill="#ffffff"></path></mask><clipPath id="__lottie_element_9074"><path d="M0,0 L1000,0 L1000,1000 L0,1000z"></path></clipPath><mask id="__lottie_element_9078"><path clip-rule="nonzero" fill="#ffffff"></path></mask><clipPath id="__lottie_element_9081"><path d="M0,0 L1000,0 L1000,1000 L0,1000z"></path></clipPath><mask id="__lottie_element_9085"><path clip-rule="nonzero" fill="#ffffff"></path></mask><clipPath id="__lottie_element_9088"><path d="M0,0 L1000,0 L1000,1000 L0,1000z"></path></clipPath><mask id="__lottie_element_9092"><path clip-rule="nonzero" fill="#ffffff"></path></mask><clipPath id="__lottie_element_9095"><path d="M0,0 L1000,0 L1000,1000 L0,1000z"></path></clipPath><mask id="__lottie_element_9099"><path clip-rule="nonzero" fill="#ffffff"></path></mask><clipPath id="__lottie_element_9102"><path d="M0,0 L1000,0 L1000,1000 L0,1000z"></path></clipPath><mask id="__lottie_element_9106"><path clip-rule="nonzero" fill="#ffffff"></path></mask><clipPath id="__lottie_element_9109"><path d="M0,0 L1000,0 L1000,1000 L0,1000z"></path></clipPath><mask id="__lottie_element_9113"><path clip-rule="nonzero" fill="#ffffff"></path></mask><clipPath id="__lottie_element_9116"><path d="M0,0 L1000,0 L1000,1000 L0,1000z"></path></clipPath><mask id="__lottie_element_9120"><path clip-rule="nonzero" fill="#ffffff"></path></mask><clipPath id="__lottie_element_9123"><path d="M0,0 L1000,0 L1000,1000 L0,1000z"></path></clipPath><mask id="__lottie_element_9127"><path clip-rule="nonzero" fill="#ffffff"></path></mask><clipPath id="__lottie_element_9130"><path d="M0,0 L1000,0 L1000,1000 L0,1000z"></path></clipPath><mask id="__lottie_element_9134"><path clip-rule="nonzero" fill="#ffffff"></path></mask><clipPath id="__lottie_element_9137"><path d="M0,0 L1000,0 L1000,1000 L0,1000z"></path></clipPath><mask id="__lottie_element_9141"><path clip-rule="nonzero" fill="#ffffff"></path></mask><clipPath id="__lottie_element_9144"><path d="M0,0 L1000,0 L1000,1000 L0,1000z"></path></clipPath><mask id="__lottie_element_9148"><path clip-rule="nonzero" fill="#ffffff"></path></mask><clipPath id="__lottie_element_9151"><path d="M0,0 L1000,0 L1000,1000 L0,1000z"></path></clipPath><mask id="__lottie_element_9155"><path clip-rule="nonzero" fill="#ffffff"></path></mask><clipPath id="__lottie_element_9158"><path d="M0,0 L1000,0 L1000,1000 L0,1000z"></path></clipPath><mask id="__lottie_element_9162"><path clip-rule="nonzero" fill="#ffffff"></path></mask><clipPath id="__lottie_element_9165"><path d="M0,0 L1000,0 L1000,1000 L0,1000z"></path></clipPath><mask id="__lottie_element_9169"><path clip-rule="nonzero" fill="#ffffff"></path></mask><clipPath id="__lottie_element_9172"><path d="M0,0 L1000,0 L1000,1000 L0,1000z"></path></clipPath><mask id="__lottie_element_9176"><path clip-rule="nonzero" fill="#ffffff"></path></mask><clipPath id="__lottie_element_9179"><path d="M0,0 L1000,0 L1000,1000 L0,1000z"></path></clipPath><mask id="__lottie_element_9183"><path clip-rule="nonzero" fill="#ffffff"></path></mask><clipPath id="__lottie_element_9186"><path d="M0,0 L1000,0 L1000,1000 L0,1000z"></path></clipPath><mask id="__lottie_element_9190"><path clip-rule="nonzero" fill="#ffffff"></path></mask><clipPath id="__lottie_element_9193"><path d="M0,0 L1000,0 L1000,1000 L0,1000z"></path></clipPath><mask id="__lottie_element_9197"><path clip-rule="nonzero" fill="#ffffff"></path></mask></defs><g clip-path="url(#__lottie_element_9021)"><g style="display: block;" opacity="1" transform="matrix(0.25,0,0,0.25,0,0)" clip-path="url(#__lottie_element_9023)"><g style="display: block;" opacity="1" transform="matrix(1,0,0,1,152.89599609375,285.5559997558594)"><g transform="matrix(4,0,0,4,0,0)" opacity="1"><path d="M12.039999961853027,-15.97599983215332 C16.010000228881836,-12.986000061035156 16.799999237060547,-7.335999965667725 13.8100004196167,-3.365999937057495 C13.8100004196167,-3.365999937057495 0.5699999928474426,14.204000473022461 0.5699999928474426,14.204000473022461 C-2.4200000762939453,18.173999786376953 -8.069999694824219,18.96500015258789 -12.039999961853027,15.975000381469727 C-16.010000228881836,12.984999656677246 -16.799999237060547,7.335000038146973 -13.8100004196167,3.365000009536743 C-13.8100004196167,3.365000009536743 -0.5699999928474426,-14.206000328063965 -0.5699999928474426,-14.206000328063965 C2.4200000762939453,-18.176000595092773 8.069999694824219,-18.965999603271484 12.039999961853027,-15.97599983215332z" fill-opacity="1" fill="rgb(255,255,255)"></path></g></g><g style="display: block;" opacity="1" transform="matrix(1,0,0,1,382.1000061035156,287.15301513671875)"><g transform="matrix(4,0,0,4,0,0)" opacity="1"><path d="M-12.340999603271484,-16.375 C-8.371000289916992,-19.364999771118164 -2.7209999561309814,-18.575000762939453 0.26899999380111694,-14.604999542236328 C0.26899999380111694,-14.604999542236328 14.109000205993652,3.765000104904175 14.109000205993652,3.765000104904175 C17.099000930786133,7.735000133514404 16.30900001525879,13.385000228881836 12.33899974822998,16.375 C8.369000434875488,19.364999771118164 2.7290000915527344,18.575000762939453 -0.2709999978542328,14.604999542236328 C-0.2709999978542328,14.604999542236328 -14.111000061035156,-3.765000104904175 -14.111000061035156,-3.765000104904175 C-17.10099983215332,-7.735000133514404 -16.31100082397461,-13.385000228881836 -12.340999603271484,-16.375z" fill-opacity="1" fill="rgb(255,255,255)"></path></g></g><g style="display: block;" opacity="1" transform="matrix(1,0,0,1,0,0)" clip-path="url(#__lottie_element_9028)"><g style="display: none;" clip-path="url(#__lottie_element_9193)"><g style="display: none;" mask="url(#__lottie_element_9197)"><rect fill="#ffffff" height="1000" width="1000"></rect></g></g><g style="display: none;" clip-path="url(#__lottie_element_9186)"><g style="display: none;" mask="url(#__lottie_element_9190)"><rect fill="#ffffff" height="1000" width="1000"></rect></g></g><g style="display: none;" clip-path="url(#__lottie_element_9179)"><g style="display: none;" mask="url(#__lottie_element_9183)"><rect fill="#ffffff" height="1000" width="1000"></rect></g></g><g style="display: none;" clip-path="url(#__lottie_element_9172)"><g style="display: none;" mask="url(#__lottie_element_9176)"><rect fill="#ffffff" height="1000" width="1000"></rect></g></g><g style="display: none;" clip-path="url(#__lottie_element_9165)"><g style="display: none;" mask="url(#__lottie_element_9169)"><rect fill="#ffffff" height="1000" width="1000"></rect></g></g><g style="display: none;" clip-path="url(#__lottie_element_9158)"><g style="display: none;" mask="url(#__lottie_element_9162)"><rect fill="#ffffff" height="1000" width="1000"></rect></g></g><g style="display: none;" clip-path="url(#__lottie_element_9151)"><g style="display: none;" mask="url(#__lottie_element_9155)"><rect fill="#ffffff" height="1000" width="1000"></rect></g></g><g style="display: none;" clip-path="url(#__lottie_element_9144)"><g style="display: none;" mask="url(#__lottie_element_9148)"><rect fill="#ffffff" height="1000" width="1000"></rect></g></g><g style="display: none;" clip-path="url(#__lottie_element_9137)"><g style="display: none;" mask="url(#__lottie_element_9141)"><rect fill="#ffffff" height="1000" width="1000"></rect></g></g><g style="display: none;" clip-path="url(#__lottie_element_9130)"><g style="display: none;" mask="url(#__lottie_element_9134)"><rect fill="#ffffff" height="1000" width="1000"></rect></g></g><g style="display: none;" clip-path="url(#__lottie_element_9123)"><g style="display: none;" mask="url(#__lottie_element_9127)"><rect fill="#ffffff" height="1000" width="1000"></rect></g></g><g style="display: none;" clip-path="url(#__lottie_element_9116)"><g style="display: none;" mask="url(#__lottie_element_9120)"><rect fill="#ffffff" height="1000" width="1000"></rect></g></g><g style="display: none;" clip-path="url(#__lottie_element_9109)"><g style="display: none;" mask="url(#__lottie_element_9113)"><rect fill="#ffffff" height="1000" width="1000"></rect></g></g><g style="display: none;" clip-path="url(#__lottie_element_9102)"><g style="display: none;" mask="url(#__lottie_element_9106)"><rect fill="#ffffff" height="1000" width="1000"></rect></g></g><g style="display: none;" clip-path="url(#__lottie_element_9095)"><g style="display: none;" mask="url(#__lottie_element_9099)"><rect fill="#ffffff" height="1000" width="1000"></rect></g></g><g style="display: none;" clip-path="url(#__lottie_element_9088)"><g style="display: none;" mask="url(#__lottie_element_9092)"><rect fill="#ffffff" height="1000" width="1000"></rect></g></g><g style="display: none;" clip-path="url(#__lottie_element_9081)"><g style="display: none;" mask="url(#__lottie_element_9085)"><rect fill="#ffffff" height="1000" width="1000"></rect></g></g><g style="display: none;" clip-path="url(#__lottie_element_9074)"><g style="display: none;" mask="url(#__lottie_element_9078)"><rect fill="#ffffff" height="1000" width="1000"></rect></g></g><g style="display: none;" clip-path="url(#__lottie_element_9067)"><g style="display: none;" mask="url(#__lottie_element_9071)"><rect fill="#ffffff" height="1000" width="1000"></rect></g></g><g style="display: none;" clip-path="url(#__lottie_element_9060)"><g style="display: none;" mask="url(#__lottie_element_9064)"><rect fill="#ffffff" height="1000" width="1000"></rect></g></g><g style="display: none;" clip-path="url(#__lottie_element_9053)"><g style="display: none;" mask="url(#__lottie_element_9057)"><rect fill="#ffffff" height="1000" width="1000"></rect></g></g><g style="display: none;" clip-path="url(#__lottie_element_9046)"><g style="display: none;" mask="url(#__lottie_element_9050)"><rect fill="#ffffff" height="1000" width="1000"></rect></g></g><g style="display: block;" opacity="1" transform="matrix(1,0,0,0.8100000023841858,-230,-175)" clip-path="url(#__lottie_element_9039)"><g style="display: block;" opacity="1" transform="matrix(1,0,0,1,0,0)" mask="url(#__lottie_element_9043)"><rect fill="#ffffff" height="1000" width="1000"></rect></g></g><g style="display: none;" clip-path="url(#__lottie_element_9032)"><g style="display: none;" mask="url(#__lottie_element_9036)"><rect fill="#ffffff" height="1000" width="1000"></rect></g></g></g><g style="display: block;" opacity="1" transform="matrix(1,0,0,1,270,212)"><path d="M0,-120.5 C66.50395202636719,-120.5 120.5,-66.50395202636719 120.5,0 C120.5,66.50395202636719 66.50395202636719,120.5 0,120.5 C-66.50395202636719,120.5 -120.5,66.50395202636719 -120.5,0 C-120.5,-66.50395202636719 -66.50395202636719,-120.5 0,-120.5z" fill-opacity="1" fill="rgb(255,255,255)"></path></g><g style="display: block;" opacity="1" transform="matrix(1,0,0,1,300.3940124511719,199.21900939941406)"><g transform="matrix(4,0,0,4,0,0)" opacity="1"><path d="M-0.003000000026077032,-9.100000381469727 C2.3570001125335693,-9.100000381469727 4.2769999504089355,-7.190000057220459 4.2769999504089355,-4.829999923706055 C4.2769999504089355,-4.829999923706055 4.2769999504089355,4.829999923706055 4.2769999504089355,4.829999923706055 C4.2769999504089355,7.190000057220459 2.3570001125335693,9.100000381469727 -0.003000000026077032,9.100000381469727 C-2.36299991607666,9.100000381469727 -4.2729997634887695,7.190000057220459 -4.2729997634887695,4.829999923706055 C-4.2729997634887695,4.829999923706055 -4.2729997634887695,-4.829999923706055 -4.2729997634887695,-4.829999923706055 C-4.2729997634887695,-7.190000057220459 -2.36299991607666,-9.100000381469727 -0.003000000026077032,-9.100000381469727z" fill-opacity="1" fill="rgb(168,168,168)"></path></g></g><g style="display: block;" opacity="1" transform="matrix(1,0,0,1,241.78900146484375,199.21900939941406)"><g transform="matrix(4,0,0,4,0,0)" opacity="1"><path d="M-0.003000000026077032,-9.100000381469727 C2.3570001125335693,-9.100000381469727 4.2769999504089355,-7.190000057220459 4.2769999504089355,-4.829999923706055 C4.2769999504089355,-4.829999923706055 4.2769999504089355,4.829999923706055 4.2769999504089355,4.829999923706055 C4.2769999504089355,7.190000057220459 2.3570001125335693,9.100000381469727 -0.003000000026077032,9.100000381469727 C-2.36299991607666,9.100000381469727 -4.2729997634887695,7.190000057220459 -4.2729997634887695,4.829999923706055 C-4.2729997634887695,4.829999923706055 -4.2729997634887695,-4.829999923706055 -4.2729997634887695,-4.829999923706055 C-4.2729997634887695,-7.190000057220459 -2.36299991607666,-9.100000381469727 -0.003000000026077032,-9.100000381469727 C-0.003000000026077032,-9.100000381469727 -0.003000000026077032,-9.100000381469727 -0.003000000026077032,-9.100000381469727z" fill-opacity="1" fill="rgb(168,168,168)"></path></g></g><g style="display: none;"><g><path stroke-miterlimit="4" fill-opacity="0" stroke-linejoin="miter" stroke-linecap="round"></path></g><g><path stroke-miterlimit="4" fill-opacity="0" stroke-linejoin="miter" stroke-linecap="round"></path></g></g></g></g></svg>