<svg style="width: 100%; height: 100%; transform: translate3d(0px, 0px, 0px);" preserveAspectRatio="xMidYMid meet" height="135" width="135" viewBox="0 0 135 135" xmlns="http://www.w3.org/2000/svg"><defs><clipPath id="__lottie_element_10715"><rect y="0" x="0" height="135" width="135"></rect></clipPath><clipPath id="__lottie_element_10717"><path d="M0,0 L540,0 L540,540 L0,540z"></path></clipPath><clipPath id="__lottie_element_10724"><path d="M0,0 L540,0 L540,540 L0,540z"></path></clipPath><clipPath id="__lottie_element_10727"><path d="M0,0 L200,0 L200,200 L0,200z"></path></clipPath><mask id="__lottie_element_10740"><g style="display: block;" opacity="1" transform="matrix(1,0,0,1,0,8.09600830078125)" clip-path="url(#__lottie_element_10741)"><g style="display: block;" opacity="1" transform="matrix(1,0,0,1,159.8000030517578,277.5899963378906)"><g transform="matrix(4,0,0,4,0,0)" opacity="1"><path d="M-10.1899995803833,-19.295000076293945 C-13.979999542236328,-19.295000076293945 -17.049999237060547,-16.225000381469727 -17.049999237060547,-12.4350004196167 C-17.049999237060547,-12.4350004196167 -17.049999237060547,12.4350004196167 -17.049999237060547,12.4350004196167 C-17.049999237060547,16.225000381469727 -13.979999542236328,19.295000076293945 -10.1899995803833,19.295000076293945 C-10.1899995803833,19.295000076293945 10.1899995803833,19.295000076293945 10.1899995803833,19.295000076293945 C13.979999542236328,19.295000076293945 17.049999237060547,16.225000381469727 17.049999237060547,12.4350004196167 C17.049999237060547,12.4350004196167 17.049999237060547,-12.4350004196167 17.049999237060547,-12.4350004196167 C17.049999237060547,-16.225000381469727 13.979999542236328,-19.295000076293945 10.1899995803833,-19.295000076293945 C10.1899995803833,-19.295000076293945 -10.1899995803833,-19.295000076293945 -10.1899995803833,-19.295000076293945z" fill-opacity="1" fill="rgb(96,96,96)"></path></g></g><g style="display: block;" opacity="1" transform="matrix(1,0,0,1,375.3999938964844,277.5)"><g transform="matrix(4,0,0,4,0,0)" opacity="1"><path d="M-10.1899995803833,-19.295000076293945 C-13.979999542236328,-19.295000076293945 -17.049999237060547,-16.225000381469727 -17.049999237060547,-12.4350004196167 C-17.049999237060547,-12.4350004196167 -17.049999237060547,12.4350004196167 -17.049999237060547,12.4350004196167 C-17.049999237060547,16.225000381469727 -13.979999542236328,19.295000076293945 -10.1899995803833,19.295000076293945 C-10.1899995803833,19.295000076293945 10.1899995803833,19.295000076293945 10.1899995803833,19.295000076293945 C13.979999542236328,19.295000076293945 17.049999237060547,16.225000381469727 17.049999237060547,12.4350004196167 C17.049999237060547,12.4350004196167 17.049999237060547,-12.4350004196167 17.049999237060547,-12.4350004196167 C17.049999237060547,-16.225000381469727 13.979999542236328,-19.295000076293945 10.1899995803833,-19.295000076293945 C10.1899995803833,-19.295000076293945 -10.1899995803833,-19.295000076293945 -10.1899995803833,-19.295000076293945z" fill-opacity="1" fill="rgb(96,96,96)"></path></g></g></g></mask><clipPath id="__lottie_element_10741"><path d="M0,0 L540,0 L540,540 L0,540z"></path></clipPath><clipPath id="__lottie_element_10754"><path d="M0,0 L540,0 L540,540 L0,540z"></path></clipPath><clipPath id="__lottie_element_10764"><path d="M0,0 L540,0 L540,540 L0,540z"></path></clipPath></defs><g clip-path="url(#__lottie_element_10715)"><g style="display: block;" opacity="1" transform="matrix(0.25,0,0,0.25,0,0)" clip-path="url(#__lottie_element_10717)"><g style="display: block;" opacity="1" transform="matrix(1,0,0,1,0,0)" clip-path="url(#__lottie_element_10724)"></g><g style="display: block;" opacity="1" transform="matrix(1,0,0,1,0,8.09600830078125)" clip-path="url(#__lottie_element_10764)"><g style="display: block;" opacity="1" transform="matrix(1,0,0,1,72.5999984741211,220.25599670410156)"><g transform="matrix(4,0,0,4,0,0)" opacity="1"><path d="M-4.860000133514404,-6.064000129699707 C-4.860000133514404,-6.064000129699707 4.860000133514404,-6.064000129699707 4.860000133514404,-6.064000129699707 C6.130000114440918,-6.064000129699707 7.150000095367432,-5.044000148773193 7.150000095367432,-3.7739999294281006 C7.150000095367432,-3.7739999294281006 7.150000095367432,3.7760000228881836 7.150000095367432,3.7760000228881836 C7.150000095367432,5.035999774932861 6.130000114440918,6.065999984741211 4.860000133514404,6.065999984741211 C4.860000133514404,6.065999984741211 -4.860000133514404,6.065999984741211 -4.860000133514404,6.065999984741211 C-6.130000114440918,6.065999984741211 -7.150000095367432,5.035999774932861 -7.150000095367432,3.7760000228881836 C-7.150000095367432,3.7760000228881836 -7.150000095367432,-3.7739999294281006 -7.150000095367432,-3.7739999294281006 C-7.150000095367432,-5.044000148773193 -6.130000114440918,-6.064000129699707 -4.860000133514404,-6.064000129699707z" fill-opacity="1" fill="rgb(66,66,66)"></path></g></g><g style="display: block;" opacity="1" transform="matrix(1,0,0,1,463.3999938964844,220.25599670410156)"><g transform="matrix(4,0,0,4,0,0)" opacity="1"><path d="M-4.860000133514404,-6.064000129699707 C-4.860000133514404,-6.064000129699707 4.860000133514404,-6.064000129699707 4.860000133514404,-6.064000129699707 C6.130000114440918,-6.064000129699707 7.150000095367432,-5.044000148773193 7.150000095367432,-3.7739999294281006 C7.150000095367432,-3.7739999294281006 7.150000095367432,3.7760000228881836 7.150000095367432,3.7760000228881836 C7.150000095367432,5.035999774932861 6.130000114440918,6.065999984741211 4.860000133514404,6.065999984741211 C4.860000133514404,6.065999984741211 -4.860000133514404,6.065999984741211 -4.860000133514404,6.065999984741211 C-6.130000114440918,6.065999984741211 -7.150000095367432,5.035999774932861 -7.150000095367432,3.7760000228881836 C-7.150000095367432,3.7760000228881836 -7.150000095367432,-3.7739999294281006 -7.150000095367432,-3.7739999294281006 C-7.150000095367432,-5.044000148773193 -6.130000114440918,-6.064000129699707 -4.860000133514404,-6.064000129699707z" fill-opacity="1" fill="rgb(66,66,66)"></path></g></g><g style="display: block;" opacity="1" transform="matrix(1,0,0,1,159.8000030517578,277.5899963378906)"><g transform="matrix(4,0,0,4,0,0)" opacity="1"><path d="M-10.187000274658203,-25.011999130249023 C-10.187000274658203,-25.011999130249023 10.192999839782715,-25.011999130249023 10.192999839782715,-25.011999130249023 C17.132999420166016,-25.011999130249023 22.76300048828125,-19.381999969482422 22.76300048828125,-12.432000160217285 C22.76300048828125,-12.432000160217285 22.76300048828125,12.437999725341797 22.76300048828125,12.437999725341797 C22.76300048828125,19.378000259399414 17.132999420166016,25.007999420166016 10.192999839782715,25.007999420166016 C10.192999839782715,25.007999420166016 -10.187000274658203,25.007999420166016 -10.187000274658203,25.007999420166016 C-17.136999130249023,25.007999420166016 -22.767000198364258,19.378000259399414 -22.767000198364258,12.437999725341797 C-22.767000198364258,12.437999725341797 -22.767000198364258,-12.432000160217285 -22.767000198364258,-12.432000160217285 C-22.767000198364258,-19.381999969482422 -17.136999130249023,-25.011999130249023 -10.187000274658203,-25.011999130249023z" fill-opacity="1" fill="rgb(66,66,66)"></path></g></g><g style="display: block;" opacity="1" transform="matrix(1,0,0,1,375.3999938964844,277.5)"><g transform="matrix(4,0,0,4,0,0)" opacity="1"><path d="M-10.187000274658203,-25.011999130249023 C-10.187000274658203,-25.011999130249023 10.192999839782715,-25.011999130249023 10.192999839782715,-25.011999130249023 C17.132999420166016,-25.011999130249023 22.76300048828125,-19.381999969482422 22.76300048828125,-12.432000160217285 C22.76300048828125,-12.432000160217285 22.76300048828125,12.437999725341797 22.76300048828125,12.437999725341797 C22.76300048828125,19.378000259399414 17.132999420166016,25.007999420166016 10.192999839782715,25.007999420166016 C10.192999839782715,25.007999420166016 -10.187000274658203,25.007999420166016 -10.187000274658203,25.007999420166016 C-17.136999130249023,25.007999420166016 -22.767000198364258,19.378000259399414 -22.767000198364258,12.437999725341797 C-22.767000198364258,12.437999725341797 -22.767000198364258,-12.432000160217285 -22.767000198364258,-12.432000160217285 C-22.767000198364258,-19.381999969482422 -17.136999130249023,-25.011999130249023 -10.187000274658203,-25.011999130249023z" fill-opacity="1" fill="rgb(66,66,66)"></path></g></g><g style="display: block;" opacity="1" transform="matrix(1,0,0,1,267.6000061035156,233.48699951171875)"><g transform="matrix(4,0,0,4,0,0)" opacity="1"><path d="M-7.699999809265137,-6.064000129699707 C-7.699999809265137,-6.064000129699707 7.699999809265137,-6.064000129699707 7.699999809265137,-6.064000129699707 C7.699999809265137,-6.064000129699707 7.699999809265137,6.065999984741211 7.699999809265137,6.065999984741211 C7.699999809265137,6.065999984741211 -7.699999809265137,6.065999984741211 -7.699999809265137,6.065999984741211 C-7.699999809265137,6.065999984741211 -7.699999809265137,-6.064000129699707 -7.699999809265137,-6.064000129699707z" fill-opacity="1" fill="rgb(66,66,66)"></path></g></g></g><g style="display: block;" opacity="1" transform="matrix(1,0,0,1,0,8.09600830078125)" clip-path="url(#__lottie_element_10754)"><g style="display: block;" opacity="1" transform="matrix(1,0,0,1,159.8000030517578,277.5899963378906)"><g transform="matrix(4,0,0,4,0,0)" opacity="1"><path d="M-10.1899995803833,-19.295000076293945 C-13.979999542236328,-19.295000076293945 -17.049999237060547,-16.225000381469727 -17.049999237060547,-12.4350004196167 C-17.049999237060547,-12.4350004196167 -17.049999237060547,12.4350004196167 -17.049999237060547,12.4350004196167 C-17.049999237060547,16.225000381469727 -13.979999542236328,19.295000076293945 -10.1899995803833,19.295000076293945 C-10.1899995803833,19.295000076293945 10.1899995803833,19.295000076293945 10.1899995803833,19.295000076293945 C13.979999542236328,19.295000076293945 17.049999237060547,16.225000381469727 17.049999237060547,12.4350004196167 C17.049999237060547,12.4350004196167 17.049999237060547,-12.4350004196167 17.049999237060547,-12.4350004196167 C17.049999237060547,-16.225000381469727 13.979999542236328,-19.295000076293945 10.1899995803833,-19.295000076293945 C10.1899995803833,-19.295000076293945 -10.1899995803833,-19.295000076293945 -10.1899995803833,-19.295000076293945z" fill-opacity="1" fill="rgb(96,96,96)"></path></g></g><g style="display: block;" opacity="1" transform="matrix(1,0,0,1,375.3999938964844,277.5)"><g transform="matrix(4,0,0,4,0,0)" opacity="1"><path d="M-10.1899995803833,-19.295000076293945 C-13.979999542236328,-19.295000076293945 -17.049999237060547,-16.225000381469727 -17.049999237060547,-12.4350004196167 C-17.049999237060547,-12.4350004196167 -17.049999237060547,12.4350004196167 -17.049999237060547,12.4350004196167 C-17.049999237060547,16.225000381469727 -13.979999542236328,19.295000076293945 -10.1899995803833,19.295000076293945 C-10.1899995803833,19.295000076293945 10.1899995803833,19.295000076293945 10.1899995803833,19.295000076293945 C13.979999542236328,19.295000076293945 17.049999237060547,16.225000381469727 17.049999237060547,12.4350004196167 C17.049999237060547,12.4350004196167 17.049999237060547,-12.4350004196167 17.049999237060547,-12.4350004196167 C17.049999237060547,-16.225000381469727 13.979999542236328,-19.295000076293945 10.1899995803833,-19.295000076293945 C10.1899995803833,-19.295000076293945 -10.1899995803833,-19.295000076293945 -10.1899995803833,-19.295000076293945z" fill-opacity="1" fill="rgb(96,96,96)"></path></g></g></g><g style="display: block;" mask="url(#__lottie_element_10740)"><g opacity="1" transform="matrix(0.7071067690849304,0.7071067690849304,-0.7071067690849304,0.7071067690849304,104,270)"><path d="M75,-196.5 C75,-196.5 75,196.5 75,196.5 C75,196.5 -75,196.5 -75,196.5 C-75,196.5 -75,-196.5 -75,-196.5 C-75,-196.5 75,-196.5 75,-196.5z M278.25,-411.7 C278.25,-411.7 278.25,88.3 278.25,88.3 C278.25,88.3 215.25,88.3 215.25,88.3 C215.25,88.3 215.25,-411.7 215.25,-411.7 C215.25,-411.7 278.25,-411.7 278.25,-411.7z" fill-opacity="1" fill="rgb(125,125,125)"></path><g transform="matrix(1,0,0,1,0,0)" opacity="1"></g><g transform="matrix(1,0,0,1,246.7530059814453,-161.69500732421875)" opacity="1"></g></g></g><g style="display: none;" clip-path="url(#__lottie_element_10727)"><g style="display: none;"><g><path></path></g></g><g style="display: none;"><g><path></path><path stroke-miterlimit="4" fill-opacity="0" stroke-linejoin="miter" stroke-linecap="round"></path></g></g><g style="display: none;"><g><path></path><path stroke-miterlimit="4" fill-opacity="0" stroke-linejoin="miter" stroke-linecap="round"></path></g></g></g></g></g></svg>