<svg style="width: 100%; height: 100%; transform: translate3d(0px, 0px, 0px);" preserveAspectRatio="xMidYMid meet" height="135" width="135" viewBox="0 0 135 135" xmlns="http://www.w3.org/2000/svg"><defs><clipPath id="__lottie_element_7327"><rect y="0" x="0" height="135" width="135"></rect></clipPath><clipPath id="__lottie_element_7329"><path d="M0,0 L540,0 L540,540 L0,540z"></path></clipPath><clipPath id="__lottie_element_7348"><path d="M0,0 L540,0 L540,540 L0,540z"></path></clipPath><mask id="__lottie_element_7354"><g style="display: block;" opacity="1" transform="matrix(1,0,0,1,0,0)" clip-path="url(#__lottie_element_7355)"><g style="display: block;" opacity="1" transform="matrix(1,0,0,1,310.00201416015625,270.17401123046875)"><g transform="matrix(4,0,0,4,0,0)" opacity="1"><path d="M20.385000228881836,-0.003000000026077032 C20.385000228881836,-0.003000000026077032 34.994998931884766,-0.003000000026077032 34.994998931884766,-0.003000000026077032 C36.494998931884766,-0.003000000026077032 37.845001220703125,0.9369999766349792 38.35499954223633,2.3570001125335693 C38.35499954223633,2.3570001125335693 44.744998931884766,19.886999130249023 44.744998931884766,19.886999130249023 C45.42499923706055,21.746999740600586 44.46500015258789,23.797000885009766 42.60499954223633,24.476999282836914 C42.21500015258789,24.617000579833984 41.80500030517578,24.69700050354004 41.3849983215332,24.69700050354004 C41.3849983215332,24.69700050354004 2.615000009536743,24.69700050354004 2.615000009536743,24.69700050354004 C1.5850000381469727,24.69700050354004 0.6549999713897705,24.256999969482422 -0.004999999888241291,23.55699920654297 C-0.375,23.957000732421875 -0.8450000286102295,24.277000427246094 -1.3949999809265137,24.476999282836914 C-1.784999966621399,24.617000579833984 -2.194999933242798,24.69700050354004 -2.615000009536743,24.69700050354004 C-2.615000009536743,24.69700050354004 -41.3849983215332,24.69700050354004 -41.3849983215332,24.69700050354004 C-43.3650016784668,24.69700050354004 -44.96500015258789,23.086999893188477 -44.96500015258789,21.10700035095215 C-44.96500015258789,20.69700050354004 -44.89500045776367,20.277000427246094 -44.744998931884766,19.886999130249023 C-44.744998931884766,19.886999130249023 -38.35499954223633,2.3570001125335693 -38.35499954223633,2.3570001125335693 C-37.845001220703125,0.9369999766349792 -36.494998931884766,-0.003000000026077032 -34.994998931884766,-0.003000000026077032 C-34.994998931884766,-0.003000000026077032 -18.385000228881836,-0.003000000026077032 -18.385000228881836,-0.003000000026077032 C-20.364999771118164,-0.003000000026077032 -21.96500015258789,-1.6030000448226929 -21.96500015258789,-3.5829999446868896 C-21.96500015258789,-4.002999782562256 -21.895000457763672,-4.413000106811523 -21.7450008392334,-4.813000202178955 C-21.7450008392334,-4.813000202178955 -15.354999542236328,-22.343000411987305 -15.354999542236328,-22.343000411987305 C-14.845000267028809,-23.753000259399414 -13.494999885559082,-24.69300079345703 -11.994999885559082,-24.69300079345703 C-11.994999885559082,-24.69300079345703 13.994999885559082,-24.69300079345703 13.994999885559082,-24.69300079345703 C15.494999885559082,-24.69300079345703 16.844999313354492,-23.753000259399414 17.354999542236328,-22.343000411987305 C17.354999542236328,-22.343000411987305 23.7450008392334,-4.813000202178955 23.7450008392334,-4.813000202178955 C24.424999237060547,-2.953000068664551 23.46500015258789,-0.8930000066757202 21.604999542236328,-0.21299999952316284 C21.21500015258789,-0.0729999989271164 20.80500030517578,-0.003000000026077032 20.385000228881836,-0.003000000026077032 C20.385000228881836,-0.003000000026077032 20.385000228881836,-0.003000000026077032 20.385000228881836,-0.003000000026077032z" fill-opacity="1" fill="rgb(255,210,0)"></path></g></g><g style="display: block;" opacity="1" transform="matrix(1,0,0,1,247.5919952392578,270.17401123046875)"><g transform="matrix(4,0,0,4,0,0)" opacity="1"><path d="M7.8979997634887695,-0.003000000026077032 C7.8979997634887695,-0.003000000026077032 6.5980000495910645,-0.003000000026077032 6.5980000495910645,-0.003000000026077032 C6.98799991607666,-0.003000000026077032 7.377999782562256,0.06700000166893005 7.73799991607666,0.18700000643730164 C7.73799991607666,0.18700000643730164 -13.571999549865723,24.69700050354004 -13.571999549865723,24.69700050354004 C-13.571999549865723,24.69700050354004 -25.781999588012695,24.69700050354004 -25.781999588012695,24.69700050354004 C-27.761999130249023,24.69700050354004 -29.36199951171875,23.086999893188477 -29.36199951171875,21.10700035095215 C-29.36199951171875,20.69700050354004 -29.29199981689453,20.277000427246094 -29.142000198364258,19.886999130249023 C-29.142000198364258,19.886999130249023 -22.75200080871582,2.3570001125335693 -22.75200080871582,2.3570001125335693 C-22.242000579833984,0.9369999766349792 -20.892000198364258,-0.003000000026077032 -19.392000198364258,-0.003000000026077032 C-19.392000198364258,-0.003000000026077032 -2.7820000648498535,-0.003000000026077032 -2.7820000648498535,-0.003000000026077032 C-4.76200008392334,-0.003000000026077032 -6.361999988555908,-1.6030000448226929 -6.361999988555908,-3.5829999446868896 C-6.361999988555908,-4.002999782562256 -6.291999816894531,-4.413000106811523 -6.142000198364258,-4.813000202178955 C-6.142000198364258,-4.813000202178955 0.24799999594688416,-22.343000411987305 0.24799999594688416,-22.343000411987305 C0.7580000162124634,-23.753000259399414 2.1080000400543213,-24.69300079345703 3.6080000400543213,-24.69300079345703 C3.6080000400543213,-24.69300079345703 29.357999801635742,-24.69300079345703 29.357999801635742,-24.69300079345703 C29.357999801635742,-24.69300079345703 7.8979997634887695,-0.003000000026077032 7.8979997634887695,-0.003000000026077032z" fill-opacity="1" fill="rgb(255,221,0)"></path></g></g></g></mask><clipPath id="__lottie_element_7355"><path d="M0,0 L540,0 L540,540 L0,540z"></path></clipPath><clipPath id="__lottie_element_7368"><path d="M0,0 L540,0 L540,540 L0,540z"></path></clipPath><clipPath id="__lottie_element_7378"><path d="M0,0 L540,0 L540,540 L0,540z"></path></clipPath><mask id="__lottie_element_7381"><g opacity="1" transform="matrix(1,0,0,1,0,0)" clip-path="url(#__lottie_element_7382)"><g style="display: block;" clip-path="url(#__lottie_element_7383)"><g style="display: block;" opacity="1" transform="matrix(1,0,0,1,239.70899963378906,220.78900146484375)"><g transform="matrix(4,0,0,4,0,0)" opacity="1"><path d="M-13.166000366210938,-12.345999717712402 C-13.166000366210938,-12.345999717712402 13.163999557495117,-12.345999717712402 13.163999557495117,-12.345999717712402 C14.684000015258789,-12.345999717712402 16.034000396728516,-11.38599967956543 16.54400062561035,-9.946000099182129 C16.54400062561035,-9.946000099182129 22.694000244140625,7.584000110626221 22.694000244140625,7.584000110626221 C23.3439998626709,9.444000244140625 22.36400032043457,11.494000434875488 20.493999481201172,12.144000053405762 C20.11400032043457,12.27400016784668 19.714000701904297,12.343999862670898 19.31399917602539,12.343999862670898 C19.31399917602539,12.343999862670898 -19.31599998474121,12.343999862670898 -19.31599998474121,12.343999862670898 C-21.29599952697754,12.343999862670898 -22.895999908447266,10.744000434875488 -22.895999908447266,8.763999938964844 C-22.895999908447266,8.36400032043457 -22.826000213623047,7.964000225067139 -22.695999145507812,7.584000110626221 C-22.695999145507812,7.584000110626221 -16.54599952697754,-9.946000099182129 -16.54599952697754,-9.946000099182129 C-16.035999298095703,-11.38599967956543 -14.685999870300293,-12.345999717712402 -13.166000366210938,-12.345999717712402z" fill-opacity="1" fill="rgb(255,188,0)"></path></g></g><g style="display: block;" opacity="1" transform="matrix(1,0,0,1,149.46499633789062,319.5589904785156)"><g transform="matrix(4,0,0,4,0,0)" opacity="1"><path d="M-13.166000366210938,-12.345999717712402 C-13.166000366210938,-12.345999717712402 13.163999557495117,-12.345999717712402 13.163999557495117,-12.345999717712402 C14.684000015258789,-12.345999717712402 16.034000396728516,-11.38599967956543 16.54400062561035,-9.946000099182129 C16.54400062561035,-9.946000099182129 22.694000244140625,7.584000110626221 22.694000244140625,7.584000110626221 C23.3439998626709,9.444000244140625 22.36400032043457,11.494000434875488 20.493999481201172,12.144000053405762 C20.11400032043457,12.27400016784668 19.714000701904297,12.343999862670898 19.31399917602539,12.343999862670898 C19.31399917602539,12.343999862670898 -19.31599998474121,12.343999862670898 -19.31599998474121,12.343999862670898 C-21.29599952697754,12.343999862670898 -22.895999908447266,10.744000434875488 -22.895999908447266,8.763999938964844 C-22.895999908447266,8.36400032043457 -22.826000213623047,7.964000225067139 -22.695999145507812,7.584000110626221 C-22.695999145507812,7.584000110626221 -16.54599952697754,-9.946000099182129 -16.54599952697754,-9.946000099182129 C-16.035999298095703,-11.38599967956543 -14.685999870300293,-12.345999717712402 -13.166000366210938,-12.345999717712402z" fill-opacity="1" fill="rgb(255,188,0)"></path></g></g><g style="display: block;" opacity="1" transform="matrix(1,0,0,1,326.3429870605469,319.5589904785156)"><g transform="matrix(4,0,0,4,0,0)" opacity="1"><path d="M-40.66600036621094,-12.369999885559082 C-40.66600036621094,-12.369999885559082 13.163999557495117,-12.345999717712402 13.163999557495117,-12.345999717712402 C14.684000015258789,-12.345999717712402 16.034000396728516,-11.38599967956543 16.54400062561035,-9.946000099182129 C16.54400062561035,-9.946000099182129 22.694000244140625,7.584000110626221 22.694000244140625,7.584000110626221 C23.3439998626709,9.444000244140625 22.36400032043457,11.494000434875488 20.493999481201172,12.144000053405762 C20.11400032043457,12.27400016784668 19.714000701904297,12.343999862670898 19.31399917602539,12.343999862670898 C19.31399917602539,12.343999862670898 -46.816001892089844,12.319999694824219 -46.816001892089844,12.319999694824219 C-48.79600143432617,12.319999694824219 -50.395999908447266,10.720000267028809 -50.395999908447266,8.739999771118164 C-50.395999908447266,8.34000015258789 -50.32600021362305,7.939000129699707 -50.19599914550781,7.559000015258789 C-50.19599914550781,7.559000015258789 -44.04600143432617,-9.970999717712402 -44.04600143432617,-9.970999717712402 C-43.5359992980957,-11.41100025177002 -42.18600082397461,-12.369999885559082 -40.66600036621094,-12.369999885559082z" fill-opacity="1" fill="rgb(255,188,0)"></path></g></g></g></g></mask><clipPath id="__lottie_element_7382"><path d="M0,0 L540,0 L540,540 L0,540z"></path></clipPath><clipPath id="__lottie_element_7383"><path fill-opacity="1" d="M548,120 C548,120 1,120 2,123 C3,126 3,409 3,409 C3,409 287.25,368.875 296.25,368.875 C306.5,368.875 310.25,364.875 310.25,364.875 C310.25,364.875 312.125,369.125 329.875,369.125 C349.375,369.125 523,378 523,378 C523,378 548,120 548,120" clip-rule="nonzero" fill="#ffffff"></path></clipPath><clipPath id="__lottie_element_7398"><path d="M0,0 L540,0 L540,540 L0,540z"></path></clipPath></defs><g clip-path="url(#__lottie_element_7327)"><g style="display: block;" opacity="1" transform="matrix(0.25,0,0,0.25,0,0)" clip-path="url(#__lottie_element_7329)"><g style="display: block;" opacity="1" transform="matrix(1,0,0,1,0,0)" clip-path="url(#__lottie_element_7378)"><g style="display: block;" opacity="1" transform="matrix(1,0,0,1,0,0)" clip-path="url(#__lottie_element_7398)"><g style="display: block;" opacity="1" transform="matrix(1,0,0,1,239.70899963378906,220.78900146484375)"><g transform="matrix(4,0,0,4,0,0)" opacity="1"><path d="M-13.166000366210938,-12.345999717712402 C-13.166000366210938,-12.345999717712402 13.163999557495117,-12.345999717712402 13.163999557495117,-12.345999717712402 C14.684000015258789,-12.345999717712402 16.034000396728516,-11.38599967956543 16.54400062561035,-9.946000099182129 C16.54400062561035,-9.946000099182129 22.694000244140625,7.584000110626221 22.694000244140625,7.584000110626221 C23.3439998626709,9.444000244140625 22.36400032043457,11.494000434875488 20.493999481201172,12.144000053405762 C20.11400032043457,12.27400016784668 19.714000701904297,12.343999862670898 19.31399917602539,12.343999862670898 C19.31399917602539,12.343999862670898 -19.31599998474121,12.343999862670898 -19.31599998474121,12.343999862670898 C-21.29599952697754,12.343999862670898 -22.895999908447266,10.744000434875488 -22.895999908447266,8.763999938964844 C-22.895999908447266,8.36400032043457 -22.826000213623047,7.964000225067139 -22.695999145507812,7.584000110626221 C-22.695999145507812,7.584000110626221 -16.54599952697754,-9.946000099182129 -16.54599952697754,-9.946000099182129 C-16.035999298095703,-11.38599967956543 -14.685999870300293,-12.345999717712402 -13.166000366210938,-12.345999717712402z" fill-opacity="1" fill="rgb(255,188,0)"></path></g></g><g style="display: block;" opacity="1" transform="matrix(1,0,0,1,149.46499633789062,319.5589904785156)"><g transform="matrix(4,0,0,4,0,0)" opacity="1"><path d="M-13.166000366210938,-12.345999717712402 C-13.166000366210938,-12.345999717712402 13.163999557495117,-12.345999717712402 13.163999557495117,-12.345999717712402 C14.684000015258789,-12.345999717712402 16.034000396728516,-11.38599967956543 16.54400062561035,-9.946000099182129 C16.54400062561035,-9.946000099182129 22.694000244140625,7.584000110626221 22.694000244140625,7.584000110626221 C23.3439998626709,9.444000244140625 22.36400032043457,11.494000434875488 20.493999481201172,12.144000053405762 C20.11400032043457,12.27400016784668 19.714000701904297,12.343999862670898 19.31399917602539,12.343999862670898 C19.31399917602539,12.343999862670898 -19.31599998474121,12.343999862670898 -19.31599998474121,12.343999862670898 C-21.29599952697754,12.343999862670898 -22.895999908447266,10.744000434875488 -22.895999908447266,8.763999938964844 C-22.895999908447266,8.36400032043457 -22.826000213623047,7.964000225067139 -22.695999145507812,7.584000110626221 C-22.695999145507812,7.584000110626221 -16.54599952697754,-9.946000099182129 -16.54599952697754,-9.946000099182129 C-16.035999298095703,-11.38599967956543 -14.685999870300293,-12.345999717712402 -13.166000366210938,-12.345999717712402z" fill-opacity="1" fill="rgb(255,188,0)"></path></g></g><g style="display: block;" opacity="1" transform="matrix(1,0,0,1,326.3429870605469,319.5589904785156)"><g transform="matrix(4,0,0,4,0,0)" opacity="1"><path d="M-40.66600036621094,-12.369999885559082 C-40.66600036621094,-12.369999885559082 13.163999557495117,-12.345999717712402 13.163999557495117,-12.345999717712402 C14.684000015258789,-12.345999717712402 16.034000396728516,-11.38599967956543 16.54400062561035,-9.946000099182129 C16.54400062561035,-9.946000099182129 22.694000244140625,7.584000110626221 22.694000244140625,7.584000110626221 C23.3439998626709,9.444000244140625 22.36400032043457,11.494000434875488 20.493999481201172,12.144000053405762 C20.11400032043457,12.27400016784668 19.714000701904297,12.343999862670898 19.31399917602539,12.343999862670898 C19.31399917602539,12.343999862670898 -46.816001892089844,12.319999694824219 -46.816001892089844,12.319999694824219 C-48.79600143432617,12.319999694824219 -50.395999908447266,10.720000267028809 -50.395999908447266,8.739999771118164 C-50.395999908447266,8.34000015258789 -50.32600021362305,7.939000129699707 -50.19599914550781,7.559000015258789 C-50.19599914550781,7.559000015258789 -44.04600143432617,-9.970999717712402 -44.04600143432617,-9.970999717712402 C-43.5359992980957,-11.41100025177002 -42.18600082397461,-12.369999885559082 -40.66600036621094,-12.369999885559082z" fill-opacity="1" fill="rgb(255,188,0)"></path></g></g></g><g style="display: block;" mask="url(#__lottie_element_7381)"><g opacity="0.6" transform="matrix(0.7660444378852844,0.6427876353263855,-0.6427876353263855,0.7660444378852844,-41,270)"><path d="M28,-250 C28,-250 28,250 28,250 C28,250 -28,250 -28,250 C-28,250 -28,-250 -28,-250 C-28,-250 28,-250 28,-250z" fill-opacity="1" fill="rgb(255,255,255)"></path></g></g></g><g style="display: block;" opacity="1" transform="matrix(1,0,0,1,0,0)" clip-path="url(#__lottie_element_7348)"><g style="display: block;" opacity="1" transform="matrix(1,0,0,1,0,0)" clip-path="url(#__lottie_element_7368)"><g style="display: block;" opacity="1" transform="matrix(1,0,0,1,310.00201416015625,270.17401123046875)"><g transform="matrix(4,0,0,4,0,0)" opacity="1"><path d="M20.385000228881836,-0.003000000026077032 C20.385000228881836,-0.003000000026077032 34.994998931884766,-0.003000000026077032 34.994998931884766,-0.003000000026077032 C36.494998931884766,-0.003000000026077032 37.845001220703125,0.9369999766349792 38.35499954223633,2.3570001125335693 C38.35499954223633,2.3570001125335693 44.744998931884766,19.886999130249023 44.744998931884766,19.886999130249023 C45.42499923706055,21.746999740600586 44.46500015258789,23.797000885009766 42.60499954223633,24.476999282836914 C42.21500015258789,24.617000579833984 41.80500030517578,24.69700050354004 41.3849983215332,24.69700050354004 C41.3849983215332,24.69700050354004 2.615000009536743,24.69700050354004 2.615000009536743,24.69700050354004 C1.5850000381469727,24.69700050354004 0.6549999713897705,24.256999969482422 -0.004999999888241291,23.55699920654297 C-0.375,23.957000732421875 -0.8450000286102295,24.277000427246094 -1.3949999809265137,24.476999282836914 C-1.784999966621399,24.617000579833984 -2.194999933242798,24.69700050354004 -2.615000009536743,24.69700050354004 C-2.615000009536743,24.69700050354004 -41.3849983215332,24.69700050354004 -41.3849983215332,24.69700050354004 C-43.3650016784668,24.69700050354004 -44.96500015258789,23.086999893188477 -44.96500015258789,21.10700035095215 C-44.96500015258789,20.69700050354004 -44.89500045776367,20.277000427246094 -44.744998931884766,19.886999130249023 C-44.744998931884766,19.886999130249023 -38.35499954223633,2.3570001125335693 -38.35499954223633,2.3570001125335693 C-37.845001220703125,0.9369999766349792 -36.494998931884766,-0.003000000026077032 -34.994998931884766,-0.003000000026077032 C-34.994998931884766,-0.003000000026077032 -18.385000228881836,-0.003000000026077032 -18.385000228881836,-0.003000000026077032 C-20.364999771118164,-0.003000000026077032 -21.96500015258789,-1.6030000448226929 -21.96500015258789,-3.5829999446868896 C-21.96500015258789,-4.002999782562256 -21.895000457763672,-4.413000106811523 -21.7450008392334,-4.813000202178955 C-21.7450008392334,-4.813000202178955 -15.354999542236328,-22.343000411987305 -15.354999542236328,-22.343000411987305 C-14.845000267028809,-23.753000259399414 -13.494999885559082,-24.69300079345703 -11.994999885559082,-24.69300079345703 C-11.994999885559082,-24.69300079345703 13.994999885559082,-24.69300079345703 13.994999885559082,-24.69300079345703 C15.494999885559082,-24.69300079345703 16.844999313354492,-23.753000259399414 17.354999542236328,-22.343000411987305 C17.354999542236328,-22.343000411987305 23.7450008392334,-4.813000202178955 23.7450008392334,-4.813000202178955 C24.424999237060547,-2.953000068664551 23.46500015258789,-0.8930000066757202 21.604999542236328,-0.21299999952316284 C21.21500015258789,-0.0729999989271164 20.80500030517578,-0.003000000026077032 20.385000228881836,-0.003000000026077032 C20.385000228881836,-0.003000000026077032 20.385000228881836,-0.003000000026077032 20.385000228881836,-0.003000000026077032z" fill-opacity="1" fill="rgb(255,210,0)"></path></g></g><g style="display: block;" opacity="1" transform="matrix(1,0,0,1,247.5919952392578,270.17401123046875)"><g transform="matrix(4,0,0,4,0,0)" opacity="1"><path d="M7.8979997634887695,-0.003000000026077032 C7.8979997634887695,-0.003000000026077032 6.5980000495910645,-0.003000000026077032 6.5980000495910645,-0.003000000026077032 C6.98799991607666,-0.003000000026077032 7.377999782562256,0.06700000166893005 7.73799991607666,0.18700000643730164 C7.73799991607666,0.18700000643730164 -13.571999549865723,24.69700050354004 -13.571999549865723,24.69700050354004 C-13.571999549865723,24.69700050354004 -25.781999588012695,24.69700050354004 -25.781999588012695,24.69700050354004 C-27.761999130249023,24.69700050354004 -29.36199951171875,23.086999893188477 -29.36199951171875,21.10700035095215 C-29.36199951171875,20.69700050354004 -29.29199981689453,20.277000427246094 -29.142000198364258,19.886999130249023 C-29.142000198364258,19.886999130249023 -22.75200080871582,2.3570001125335693 -22.75200080871582,2.3570001125335693 C-22.242000579833984,0.9369999766349792 -20.892000198364258,-0.003000000026077032 -19.392000198364258,-0.003000000026077032 C-19.392000198364258,-0.003000000026077032 -2.7820000648498535,-0.003000000026077032 -2.7820000648498535,-0.003000000026077032 C-4.76200008392334,-0.003000000026077032 -6.361999988555908,-1.6030000448226929 -6.361999988555908,-3.5829999446868896 C-6.361999988555908,-4.002999782562256 -6.291999816894531,-4.413000106811523 -6.142000198364258,-4.813000202178955 C-6.142000198364258,-4.813000202178955 0.24799999594688416,-22.343000411987305 0.24799999594688416,-22.343000411987305 C0.7580000162124634,-23.753000259399414 2.1080000400543213,-24.69300079345703 3.6080000400543213,-24.69300079345703 C3.6080000400543213,-24.69300079345703 29.357999801635742,-24.69300079345703 29.357999801635742,-24.69300079345703 C29.357999801635742,-24.69300079345703 7.8979997634887695,-0.003000000026077032 7.8979997634887695,-0.003000000026077032z" fill-opacity="1" fill="rgb(255,221,0)"></path></g></g></g><g style="display: block;" mask="url(#__lottie_element_7354)"><g opacity="0.9" transform="matrix(0.7660444378852844,0.6427876353263855,-0.6427876353263855,0.7660444378852844,-41,270)"><path d="M28,-250 C28,-250 28,250 28,250 C28,250 -28,250 -28,250 C-28,250 -28,-250 -28,-250 C-28,-250 28,-250 28,-250z" fill-opacity="1" fill="rgb(255,255,255)"></path></g></g><g style="display: block;" opacity="1" transform="matrix(1,0,0,1,310,305.84100341796875)"><g transform="matrix(4,0,0,4,0,0)" opacity="1"><path d="M9.003000259399414,-8.916999816894531 C9.003000259399414,-8.916999816894531 -9.006999969482422,-8.916999816894531 -9.006999969482422,-8.916999816894531 C-7.497000217437744,-8.916999816894531 -6.1570000648498535,-7.9770002365112305 -5.646999835968018,-6.566999912261963 C-5.646999835968018,-6.566999912261963 0.003000000026077032,8.913000106811523 0.003000000026077032,8.913000106811523 C0.003000000026077032,8.913000106811523 5.64300012588501,-6.566999912261963 5.64300012588501,-6.566999912261963 C6.1529998779296875,-7.9770002365112305 7.502999782562256,-8.916999816894531 9.003000259399414,-8.916999816894531 C9.003000259399414,-8.916999816894531 9.003000259399414,-8.916999816894531 9.003000259399414,-8.916999816894531z" fill-opacity="1" fill="rgb(255,188,0)"></path></g></g></g><g style="display: block;" opacity="1" transform="matrix(-1,0,0,-1,144.77000427246094,318.343994140625)"><g transform="matrix(4,0,0,4,0,0)" opacity="1"><path d="M-5.6479997634887695,-1.3580000400543213 C-5.6479997634887695,-1.3580000400543213 -1.3580000400543213,-5.6479997634887695 -1.3580000400543213,-5.6479997634887695 C-0.5879999995231628,-6.418000221252441 0.671999990940094,-6.418000221252441 1.4520000219345093,-5.6479997634887695 C1.4520000219345093,-5.6479997634887695 5.642000198364258,-1.4479999542236328 5.642000198364258,-1.4479999542236328 C6.421999931335449,-0.6779999732971191 6.421999931335449,0.5820000171661377 5.642000198364258,1.3619999885559082 C5.642000198364258,1.3619999885559082 1.3619999885559082,5.642000198364258 1.3619999885559082,5.642000198364258 C0.5820000171661377,6.421999931335449 -0.6779999732971191,6.421999931335449 -1.4479999542236328,5.642000198364258 C-1.4479999542236328,5.642000198364258 -5.6479997634887695,1.4520000219345093 -5.6479997634887695,1.4520000219345093 C-6.418000221252441,0.671999990940094 -6.418000221252441,-0.5879999995231628 -5.6479997634887695,-1.3580000400543213z" fill-opacity="1" fill="rgb(255,255,255)"></path></g></g><g style="display: block;" opacity="1" transform="matrix(0,0,0,0,334.7699890136719,273.343994140625)"><g transform="matrix(4,0,0,4,0,0)" opacity="1"><path d="M-5.6479997634887695,-1.3580000400543213 C-5.6479997634887695,-1.3580000400543213 -1.3580000400543213,-5.6479997634887695 -1.3580000400543213,-5.6479997634887695 C-0.5879999995231628,-6.418000221252441 0.671999990940094,-6.418000221252441 1.4520000219345093,-5.6479997634887695 C1.4520000219345093,-5.6479997634887695 5.642000198364258,-1.4479999542236328 5.642000198364258,-1.4479999542236328 C6.421999931335449,-0.6779999732971191 6.421999931335449,0.5820000171661377 5.642000198364258,1.3619999885559082 C5.642000198364258,1.3619999885559082 1.3619999885559082,5.642000198364258 1.3619999885559082,5.642000198364258 C0.5820000171661377,6.421999931335449 -0.6779999732971191,6.421999931335449 -1.4479999542236328,5.642000198364258 C-1.4479999542236328,5.642000198364258 -5.6479997634887695,1.4520000219345093 -5.6479997634887695,1.4520000219345093 C-6.418000221252441,0.671999990940094 -6.418000221252441,-0.5879999995231628 -5.6479997634887695,-1.3580000400543213z" fill-opacity="1" fill="rgb(255,255,255)"></path></g></g><g style="display: block;" opacity="1" transform="matrix(0,0,0,0,236.77000427246094,216.343994140625)"><g transform="matrix(4,0,0,4,0,0)" opacity="1"><path d="M-5.6479997634887695,-1.3580000400543213 C-5.6479997634887695,-1.3580000400543213 -1.3580000400543213,-5.6479997634887695 -1.3580000400543213,-5.6479997634887695 C-0.5879999995231628,-6.418000221252441 0.671999990940094,-6.418000221252441 1.4520000219345093,-5.6479997634887695 C1.4520000219345093,-5.6479997634887695 5.642000198364258,-1.4479999542236328 5.642000198364258,-1.4479999542236328 C6.421999931335449,-0.6779999732971191 6.421999931335449,0.5820000171661377 5.642000198364258,1.3619999885559082 C5.642000198364258,1.3619999885559082 1.3619999885559082,5.642000198364258 1.3619999885559082,5.642000198364258 C0.5820000171661377,6.421999931335449 -0.6779999732971191,6.421999931335449 -1.4479999542236328,5.642000198364258 C-1.4479999542236328,5.642000198364258 -5.6479997634887695,1.4520000219345093 -5.6479997634887695,1.4520000219345093 C-6.418000221252441,0.671999990940094 -6.418000221252441,-0.5879999995231628 -5.6479997634887695,-1.3580000400543213z" fill-opacity="1" fill="rgb(255,255,255)"></path></g></g><g style="display: block;" opacity="1" transform="matrix(-1,0,0,-1,400.7699890136719,148.45899963378906)"><g transform="matrix(4,0,0,4,0,0)" opacity="1"><path d="M-7.03000020980835,-2.049999952316284 C-7.03000020980835,-2.049999952316284 -2.049999952316284,-7.03000020980835 -2.049999952316284,-7.03000020980835 C-0.8899999856948853,-8.1899995803833 1,-8.1899995803833 2.1700000762939453,-7.03000020980835 C2.1700000762939453,-7.03000020980835 7.03000020980835,-2.1700000762939453 7.03000020980835,-2.1700000762939453 C8.1899995803833,-1 8.1899995803833,0.8899999856948853 7.03000020980835,2.049999952316284 C7.03000020980835,2.049999952316284 2.049999952316284,7.03000020980835 2.049999952316284,7.03000020980835 C0.8899999856948853,8.1899995803833 -1,8.1899995803833 -2.1700000762939453,7.03000020980835 C-2.1700000762939453,7.03000020980835 -7.03000020980835,2.1700000762939453 -7.03000020980835,2.1700000762939453 C-8.1899995803833,1 -8.1899995803833,-0.8899999856948853 -7.03000020980835,-2.049999952316284z" fill-opacity="1" fill="rgb(255,255,255)"></path></g></g><g style="display: block;" opacity="1" transform="matrix(0,0,0,0,129.77000427246094,118.45899963378906)"><g transform="matrix(4,0,0,4,0,0)" opacity="1"><path d="M-7.03000020980835,-2.049999952316284 C-7.03000020980835,-2.049999952316284 -2.049999952316284,-7.03000020980835 -2.049999952316284,-7.03000020980835 C-0.8899999856948853,-8.1899995803833 1,-8.1899995803833 2.1700000762939453,-7.03000020980835 C2.1700000762939453,-7.03000020980835 7.03000020980835,-2.1700000762939453 7.03000020980835,-2.1700000762939453 C8.1899995803833,-1 8.1899995803833,0.8899999856948853 7.03000020980835,2.049999952316284 C7.03000020980835,2.049999952316284 2.049999952316284,7.03000020980835 2.049999952316284,7.03000020980835 C0.8899999856948853,8.1899995803833 -1,8.1899995803833 -2.1700000762939453,7.03000020980835 C-2.1700000762939453,7.03000020980835 -7.03000020980835,2.1700000762939453 -7.03000020980835,2.1700000762939453 C-8.1899995803833,1 -8.1899995803833,-0.8899999856948853 -7.03000020980835,-2.049999952316284z" fill-opacity="1" fill="rgb(255,255,255)"></path></g></g></g></g></svg>