<svg style="width: 100%; height: 100%; transform: translate3d(0px, 0px, 0px);" preserveAspectRatio="xMidYMid meet" height="135" width="135" viewBox="0 0 135 135" xmlns="http://www.w3.org/2000/svg"><defs><clipPath id="__lottie_element_10898"><rect y="0" x="0" height="135" width="135"></rect></clipPath><clipPath id="__lottie_element_10900"><path d="M0,0 L540,0 L540,540 L0,540z"></path></clipPath><clipPath id="__lottie_element_10905"><path d="M0,0 L540,0 L540,540 L0,540z"></path></clipPath><mask id="__lottie_element_10911"><g style="display: none;"><path></path></g></mask><clipPath id="__lottie_element_10924"><path d="M0,0 L540,0 L540,540 L0,540z"></path></clipPath><mask id="__lottie_element_10930"><g style="display: none;"><path></path></g></mask><clipPath id="__lottie_element_10943"><path d="M0,0 L540,0 L540,540 L0,540z"></path></clipPath><mask id="__lottie_element_10949"><g style="display: none;"><path></path></g></mask><clipPath id="__lottie_element_10962"><path d="M0,0 L540,0 L540,540 L0,540z"></path></clipPath><clipPath id="__lottie_element_10984"><path d="M0,0 L540,0 L540,540 L0,540z"></path></clipPath><clipPath id="__lottie_element_10989"><path d="M0,0 L540,0 L540,540 L0,540z"></path></clipPath><mask id="__lottie_element_10995"><g style="display: block;" opacity="1" transform="matrix(1,0,0,1,485,283.5)"><path d="M89,-50 C89,-50 89,-24.812000274658203 89,-24.812000274658203 C89,-24.812000274658203 -50,-24.812000274658203 -50,-24.812000274658203 C-50,-24.812000274658203 -50,-50 -50,-50 C-50,-50 89,-50 89,-50z" fill-opacity="1" fill="rgb(125,125,125)"></path></g></mask><clipPath id="__lottie_element_11008"><path d="M0,0 L540,0 L540,540 L0,540z"></path></clipPath><mask id="__lottie_element_11014"><g style="display: block;" opacity="1" transform="matrix(1,0,0,1,485,283.5)"><path d="M89,-50 C89,-50 89,-24.812000274658203 89,-24.812000274658203 C89,-24.812000274658203 -50,-24.812000274658203 -50,-24.812000274658203 C-50,-24.812000274658203 -50,-50 -50,-50 C-50,-50 89,-50 89,-50z" fill-opacity="1" fill="rgb(125,125,125)"></path></g></mask><clipPath id="__lottie_element_11027"><path d="M0,0 L540,0 L540,540 L0,540z"></path></clipPath><mask id="__lottie_element_11033"><g style="display: block;" opacity="1" transform="matrix(1,0,0,1,485,283.5)"><path d="M89,-50 C89,-50 89,-24.812000274658203 89,-24.812000274658203 C89,-24.812000274658203 -50,-24.812000274658203 -50,-24.812000274658203 C-50,-24.812000274658203 -50,-50 -50,-50 C-50,-50 89,-50 89,-50z" fill-opacity="1" fill="rgb(125,125,125)"></path></g></mask><clipPath id="__lottie_element_11046"><path d="M0,0 L540,0 L540,540 L0,540z"></path></clipPath></defs><g clip-path="url(#__lottie_element_10898)"><g style="display: block;" opacity="1" transform="matrix(0.25,0,0,0.25,0,0)" clip-path="url(#__lottie_element_10984)"><g style="display: block;" opacity="1" transform="matrix(1,0,0,1,0,0)" clip-path="url(#__lottie_element_11046)"><g style="display: block;" opacity="1" transform="matrix(1,0,0,1,272.28399658203125,305.3160095214844)"><g transform="matrix(4,0,0,4,0,0)" opacity="1"><path d="M-4.632999897003174,-38.67100143432617 C-4.632999897003174,-38.67100143432617 4.63700008392334,-38.67100143432617 4.63700008392334,-38.67100143432617 C6.586999893188477,-38.67100143432617 8.177000045776367,-37.090999603271484 8.177000045776367,-35.13100051879883 C8.177000045776367,-35.13100051879883 8.177000045776367,35.12900161743164 8.177000045776367,35.12900161743164 C8.177000045776367,37.0890007019043 6.586999893188477,38.66899871826172 4.63700008392334,38.66899871826172 C4.63700008392334,38.66899871826172 -4.632999897003174,38.66899871826172 -4.632999897003174,38.66899871826172 C-6.5929999351501465,38.66899871826172 -8.17300033569336,37.0890007019043 -8.17300033569336,35.12900161743164 C-8.17300033569336,35.12900161743164 -8.17300033569336,-35.13100051879883 -8.17300033569336,-35.13100051879883 C-8.17300033569336,-37.090999603271484 -6.5929999351501465,-38.67100143432617 -4.632999897003174,-38.67100143432617z" fill-opacity="1" fill="rgb(161,101,23)"></path></g></g><g style="display: block;" opacity="1" transform="matrix(1,0,0,1,272.3389892578125,179.1890106201172)"><g transform="matrix(4,0,0,4,0,0)" opacity="1"><path d="M-5.815999984741211,-9.519000053405762 C-5.815999984741211,-9.519000053405762 5.814000129699707,-9.519000053405762 5.814000129699707,-9.519000053405762 C7.77400016784668,-9.519000053405762 9.354000091552734,-7.939000129699707 9.354000091552734,-5.979000091552734 C9.354000091552734,-5.979000091552734 9.354000091552734,7.160999774932861 9.354000091552734,7.160999774932861 C9.354000091552734,8.461000442504883 8.303999900817871,9.520999908447266 6.99399995803833,9.520999908447266 C6.99399995803833,9.520999908447266 -6.995999813079834,9.520999908447266 -6.995999813079834,9.520999908447266 C-8.295999526977539,9.520999908447266 -9.355999946594238,8.461000442504883 -9.355999946594238,7.160999774932861 C-9.355999946594238,7.160999774932861 -9.355999946594238,-5.979000091552734 -9.355999946594238,-5.979000091552734 C-9.355999946594238,-7.939000129699707 -7.776000022888184,-9.519000053405762 -5.815999984741211,-9.519000053405762z" fill-opacity="1" fill="rgb(234,230,230)"></path></g></g><g style="display: block;" opacity="1" transform="matrix(1,0,0,1,272.3389892578125,155.3920135498047)"><g transform="matrix(4,0,0,4,0,0)" opacity="1"><path d="M-9.355999946594238,-9.519000053405762 C-9.355999946594238,-9.519000053405762 9.354000091552734,-9.519000053405762 9.354000091552734,-9.519000053405762 C9.354000091552734,-9.519000053405762 9.354000091552734,9.520999908447266 9.354000091552734,9.520999908447266 C9.354000091552734,9.520999908447266 -9.355999946594238,9.520999908447266 -9.355999946594238,9.520999908447266 C-9.355999946594238,9.520999908447266 -9.355999946594238,-9.519000053405762 -9.355999946594238,-9.519000053405762z" fill-opacity="1" fill="rgb(211,205,205)"></path></g></g><g style="display: block;" opacity="1" transform="matrix(1,0,0,1,272.3389892578125,136.35400390625)"><g transform="matrix(4,0,0,4,0,0)" opacity="1"><path d="M-11.550999641418457,-8.329000473022461 C-11.550999641418457,-8.329000473022461 15.168999671936035,-8.329000473022461 15.168999671936035,-8.329000473022461 C17.768999099731445,-8.329000473022461 19.878999710083008,-6.218999862670898 19.878999710083008,-3.6089999675750732 C19.878999710083008,-3.6089999675750732 19.878999710083008,3.6110000610351562 19.878999710083008,3.6110000610351562 C19.878999710083008,6.2210001945495605 17.768999099731445,8.331000328063965 15.168999671936035,8.331000328063965 C15.168999671936035,8.331000328063965 -15.16100025177002,8.331000328063965 -15.16100025177002,8.331000328063965 C-17.770999908447266,8.331000328063965 -19.881000518798828,6.2210001945495605 -19.881000518798828,3.6110000610351562 C-19.881000518798828,3.6110000610351562 -19.881000518798828,0.0010000000474974513 -19.881000518798828,0.0010000000474974513 C-19.881000518798828,-4.598999977111816 -16.150999069213867,-8.329000473022461 -11.550999641418457,-8.329000473022461z" fill-opacity="1" fill="rgb(233,230,230)"></path></g></g><g style="display: block;" opacity="1" transform="matrix(1,0,0,1,227.23500061035156,154.2580108642578)"><g transform="matrix(4,0,0,4,0,0)" opacity="1"><path d="M-3.509000062942505,-12.805000305175781 C-3.509000062942505,-12.805000305175781 19.090999603271484,-12.805000305175781 19.090999603271484,-12.805000305175781 C21.701000213623047,-12.805000305175781 23.81100082397461,-10.694999694824219 23.81100082397461,-8.085000038146973 C23.81100082397461,-6.195000171661377 22.67099952697754,-4.485000133514404 20.930999755859375,-3.744999885559082 C8.961000442504883,1.3250000476837158 0.5709999799728394,3.8550000190734863 -4.238999843597412,3.8550000190734863 C-8.109000205993652,3.8550000190734863 -11.798999786376953,6.204999923706055 -15.309000015258789,10.914999961853027 C-16.868999481201172,12.994999885559082 -19.82900047302246,13.425000190734863 -21.91900062561035,11.864999771118164 C-23.108999252319336,10.975000381469727 -23.80900001525879,9.574999809265137 -23.80900001525879,8.085000038146973 C-23.80900001525879,8.085000038146973 -23.80900001525879,7.494999885559082 -23.80900001525879,7.494999885559082 C-23.80900001525879,-3.7149999141693115 -14.718999862670898,-12.805000305175781 -3.509000062942505,-12.805000305175781 C-3.509000062942505,-12.805000305175781 -3.509000062942505,-12.805000305175781 -3.509000062942505,-12.805000305175781z" fill-opacity="1" fill="rgb(234,230,230)"></path></g></g><g style="display: block;" opacity="1" transform="matrix(1,0,0,1,370.57598876953125,136.35400390625)"><g transform="matrix(4,0,0,4,0,0)" opacity="1"><path d="M-4.636000156402588,-13.08899974822998 C-4.636000156402588,-13.08899974822998 4.633999824523926,-13.08899974822998 4.633999824523926,-13.08899974822998 C7.24399995803833,-13.08899974822998 9.354000091552734,-10.979000091552734 9.354000091552734,-8.369000434875488 C9.354000091552734,-8.369000434875488 9.354000091552734,8.371000289916992 9.354000091552734,8.371000289916992 C9.354000091552734,10.980999946594238 7.24399995803833,13.090999603271484 4.633999824523926,13.090999603271484 C4.633999824523926,13.090999603271484 -4.636000156402588,13.090999603271484 -4.636000156402588,13.090999603271484 C-7.245999813079834,13.090999603271484 -9.355999946594238,10.980999946594238 -9.355999946594238,8.371000289916992 C-9.355999946594238,8.371000289916992 -9.355999946594238,-8.369000434875488 -9.355999946594238,-8.369000434875488 C-9.355999946594238,-10.979000091552734 -7.245999813079834,-13.08899974822998 -4.636000156402588,-13.08899974822998z" fill-opacity="1" fill="rgb(234,230,230)"></path></g></g></g><g style="display: block;" opacity="1" transform="matrix(1,0,0,1,0,307.4991760253906)" clip-path="url(#__lottie_element_11027)"><g style="display: block;" opacity="1" transform="matrix(1,0,0,1,270,270)"><g transform="matrix(1,0,0,1,0,0)" opacity="1"><path d="M160,-24 C160,-24 338,-24 338,-24" stroke-width="25" stroke-opacity="1" stroke="rgb(125,125,125)" stroke-miterlimit="4" fill-opacity="0" stroke-linejoin="miter" stroke-linecap="butt"></path></g></g><g style="display: block;" opacity="1" transform="matrix(1,0,0,1,485,283.5)"><path d="M89,-50 C89,-50 89,-24.812000274658203 89,-24.812000274658203 C89,-24.812000274658203 -50,-24.812000274658203 -50,-24.812000274658203 C-50,-24.812000274658203 -50,-50 -50,-50 C-50,-50 89,-50 89,-50z" fill-opacity="1" fill="rgb(125,125,125)"></path></g><g style="display: block;" mask="url(#__lottie_element_11033)"><g opacity="1" transform="matrix(1,0,0,1,280,270)"><g transform="matrix(1,0,0,1,0,0)" opacity="1"><path d="M154,-48.25 C154,-48.25 154,138.25 154,138.25" stroke-width="25" stroke-opacity="1" stroke="rgb(98,98,98)" stroke-miterlimit="4" fill-opacity="0" stroke-linejoin="miter" stroke-linecap="round"></path></g></g></g><g style="display: block;" opacity="1" transform="matrix(1,0,0,1,270,270)"><g transform="matrix(1,0,0,1,0,0)" opacity="1"><path d="M154,-48.25 C154,-48.25 154,1.25 154,1.25" stroke-width="25" stroke-opacity="1" stroke="rgb(125,125,125)" stroke-miterlimit="4" fill-opacity="0" stroke-linejoin="miter" stroke-linecap="round"></path></g></g></g><g style="display: block;" opacity="1" transform="matrix(1,0,0,1,120,-175.50082397460938)" clip-path="url(#__lottie_element_11008)"><g style="display: block;" opacity="1" transform="matrix(1,0,0,1,270,270)"><g transform="matrix(1,0,0,1,0,0)" opacity="1"><path d="M160,-24 C160,-24 338,-24 338,-24" stroke-width="25" stroke-opacity="1" stroke="rgb(125,125,125)" stroke-miterlimit="4" fill-opacity="0" stroke-linejoin="miter" stroke-linecap="butt"></path></g></g><g style="display: block;" opacity="1" transform="matrix(1,0,0,1,485,283.5)"><path d="M89,-50 C89,-50 89,-24.812000274658203 89,-24.812000274658203 C89,-24.812000274658203 -50,-24.812000274658203 -50,-24.812000274658203 C-50,-24.812000274658203 -50,-50 -50,-50 C-50,-50 89,-50 89,-50z" fill-opacity="1" fill="rgb(125,125,125)"></path></g><g style="display: block;" mask="url(#__lottie_element_11014)"><g opacity="1" transform="matrix(1,0,0,1,280,270)"><g transform="matrix(1,0,0,1,0,0)" opacity="1"><path d="M154,-48.25 C154,-48.25 154,138.25 154,138.25" stroke-width="25" stroke-opacity="1" stroke="rgb(98,98,98)" stroke-miterlimit="4" fill-opacity="0" stroke-linejoin="miter" stroke-linecap="round"></path></g></g></g><g style="display: block;" opacity="1" transform="matrix(1,0,0,1,270,270)"><g transform="matrix(1,0,0,1,0,0)" opacity="1"><path d="M154,-48.25 C154,-48.25 154,1.25 154,1.25" stroke-width="25" stroke-opacity="1" stroke="rgb(125,125,125)" stroke-miterlimit="4" fill-opacity="0" stroke-linejoin="miter" stroke-linecap="round"></path></g></g></g><g style="display: block;" opacity="1" transform="matrix(1,0,0,1,0,-415.5008239746094)" clip-path="url(#__lottie_element_10989)"><g style="display: block;" opacity="1" transform="matrix(1,0,0,1,270,270)"><g transform="matrix(1,0,0,1,0,0)" opacity="1"><path d="M160,-24 C160,-24 338,-24 338,-24" stroke-width="25" stroke-opacity="1" stroke="rgb(125,125,125)" stroke-miterlimit="4" fill-opacity="0" stroke-linejoin="miter" stroke-linecap="butt"></path></g></g><g style="display: block;" opacity="1" transform="matrix(1,0,0,1,485,283.5)"><path d="M89,-50 C89,-50 89,-24.812000274658203 89,-24.812000274658203 C89,-24.812000274658203 -50,-24.812000274658203 -50,-24.812000274658203 C-50,-24.812000274658203 -50,-50 -50,-50 C-50,-50 89,-50 89,-50z" fill-opacity="1" fill="rgb(125,125,125)"></path></g><g style="display: block;" mask="url(#__lottie_element_10995)"><g opacity="1" transform="matrix(1,0,0,1,280,270)"><g transform="matrix(1,0,0,1,0,0)" opacity="1"><path d="M154,-48.25 C154,-48.25 154,138.25 154,138.25" stroke-width="25" stroke-opacity="1" stroke="rgb(98,98,98)" stroke-miterlimit="4" fill-opacity="0" stroke-linejoin="miter" stroke-linecap="round"></path></g></g></g><g style="display: block;" opacity="1" transform="matrix(1,0,0,1,270,270)"><g transform="matrix(1,0,0,1,0,0)" opacity="1"><path d="M154,-48.25 C154,-48.25 154,1.25 154,1.25" stroke-width="25" stroke-opacity="1" stroke="rgb(125,125,125)" stroke-miterlimit="4" fill-opacity="0" stroke-linejoin="miter" stroke-linecap="round"></path></g></g></g></g><g style="display: none;" clip-path="url(#__lottie_element_10900)"><g style="display: none;" clip-path="url(#__lottie_element_10962)"><g style="display: none;"><g><path></path></g></g><g style="display: none;"><g><path></path></g></g><g style="display: none;"><g><path></path></g></g><g style="display: none;"><g><path></path></g></g><g style="display: none;"><g><path></path></g></g><g style="display: none;"><g><path></path></g></g></g><g style="display: none;" clip-path="url(#__lottie_element_10943)"><g style="display: none;"><g><path stroke-miterlimit="4" fill-opacity="0" stroke-linejoin="miter" stroke-linecap="butt"></path></g></g><g style="display: none;"><path></path></g><g style="display: none;" mask="url(#__lottie_element_10949)"><g><g><path stroke-miterlimit="4" fill-opacity="0" stroke-linejoin="miter" stroke-linecap="round"></path></g></g></g><g style="display: none;"><g><path stroke-miterlimit="4" fill-opacity="0" stroke-linejoin="miter" stroke-linecap="round"></path></g></g></g><g style="display: none;" clip-path="url(#__lottie_element_10924)"><g style="display: none;"><g><path stroke-miterlimit="4" fill-opacity="0" stroke-linejoin="miter" stroke-linecap="butt"></path></g></g><g style="display: none;"><path></path></g><g style="display: none;" mask="url(#__lottie_element_10930)"><g><g><path stroke-miterlimit="4" fill-opacity="0" stroke-linejoin="miter" stroke-linecap="round"></path></g></g></g><g style="display: none;"><g><path stroke-miterlimit="4" fill-opacity="0" stroke-linejoin="miter" stroke-linecap="round"></path></g></g></g><g style="display: none;" clip-path="url(#__lottie_element_10905)"><g style="display: none;"><g><path stroke-miterlimit="4" fill-opacity="0" stroke-linejoin="miter" stroke-linecap="butt"></path></g></g><g style="display: none;"><path></path></g><g style="display: none;" mask="url(#__lottie_element_10911)"><g><g><path stroke-miterlimit="4" fill-opacity="0" stroke-linejoin="miter" stroke-linecap="round"></path></g></g></g><g style="display: none;"><g><path stroke-miterlimit="4" fill-opacity="0" stroke-linejoin="miter" stroke-linecap="round"></path></g></g></g></g></g></svg>