<svg style="width: 100%; height: 100%; transform: translate3d(0px, 0px, 0px);" preserveAspectRatio="xMidYMid meet" height="135" width="135" viewBox="0 0 135 135" xmlns="http://www.w3.org/2000/svg"><defs><clipPath id="__lottie_element_9874"><rect y="0" x="0" height="135" width="135"></rect></clipPath><clipPath id="__lottie_element_9876"><path d="M0,0 L540,0 L540,540 L0,540z"></path></clipPath><clipPath id="__lottie_element_9902"><path d="M0,0 L540,0 L540,540 L0,540z"></path></clipPath></defs><g clip-path="url(#__lottie_element_9874)"><g opacity="1" transform="matrix(0.25,0,0,0.25,0,0)" style="display: none;" clip-path="url(#__lottie_element_9902)"><g style="display: block;" opacity="1" transform="matrix(0.9816967248916626,0.1904509961605072,-0.1904509961605072,0.9816967248916626,239.24757385253906,196.91070556640625)"><g transform="matrix(2,0,0,2,0,0)" opacity="1"><path d="M3.9639999866485596,-45.32699966430664 C12.494000434875488,-44.57699966430664 18.804000854492188,-37.06700134277344 18.054000854492188,-28.53700065612793 C18.054000854492188,-28.53700065612793 12.824000358581543,31.232999801635742 12.824000358581543,31.232999801635742 C12.083999633789062,39.76300048828125 4.564000129699707,46.073001861572266 -3.9660000801086426,45.323001861572266 C-12.496000289916992,44.58300018310547 -18.805999755859375,37.0629997253418 -18.055999755859375,28.533000946044922 C-18.055999755859375,28.533000946044922 -12.826000213623047,-31.23699951171875 -12.826000213623047,-31.23699951171875 C-12.076000213623047,-39.766998291015625 -4.565999984741211,-46.07699966430664 3.9639999866485596,-45.32699966430664 C3.9639999866485596,-45.32699966430664 3.9639999866485596,-45.32699966430664 3.9639999866485596,-45.32699966430664z" fill-opacity="1" fill="rgb(175,98,59)"></path></g></g><g style="display: block;" opacity="1" transform="matrix(0.9958567023277283,0.09093642234802246,-0.09093642234802246,0.9958567023277283,319.9576721191406,183.91342163085938)"><g transform="matrix(2,0,0,2,0,0)" opacity="1"><path d="M16.240999221801758,-44.63399887084961 C24.291000366210938,-41.70399856567383 28.44099998474121,-32.81399917602539 25.51099967956543,-24.763999938964844 C25.51099967956543,-24.763999938964844 3.621000051498413,35.375999450683594 3.621000051498413,35.375999450683594 C0.6909999847412109,43.41600036621094 -8.199000358581543,47.566001892089844 -16.249000549316406,44.63600158691406 C-24.288999557495117,41.70600128173828 -28.43899917602539,32.816001892089844 -25.509000778198242,24.766000747680664 C-25.509000778198242,24.766000747680664 -3.61899995803833,-35.374000549316406 -3.61899995803833,-35.374000549316406 C-0.6890000104904175,-43.41400146484375 8.201000213623047,-47.56399917602539 16.240999221801758,-44.63399887084961z" fill-opacity="1" fill="rgb(175,98,59)"></path></g></g><g style="display: block;" opacity="1" transform="matrix(0.9945180416107178,0.10456500202417374,-0.10456500202417374,0.9945180416107178,375.9736633300781,252.15684509277344)"><g transform="matrix(2,0,0,2,0,0)" opacity="1"><path d="M23.746999740600586,-41.1349983215332 C31.16699981689453,-36.85499954223633 33.707000732421875,-27.375 29.427000045776367,-19.96500015258789 C29.427000045776367,-19.96500015258789 -2.572999954223633,35.46500015258789 -2.572999954223633,35.46500015258789 C-6.853000164031982,42.875 -16.33300018310547,45.415000915527344 -23.753000259399414,41.1349983215332 C-31.163000106811523,36.85499954223633 -33.702999114990234,27.375 -29.42300033569336,19.96500015258789 C-29.42300033569336,19.96500015258789 2.5769999027252197,-35.46500015258789 2.5769999027252197,-35.46500015258789 C6.85699987411499,-42.875 16.336999893188477,-45.415000915527344 23.746999740600586,-41.1349983215332z" fill-opacity="1" fill="rgb(175,98,59)"></path></g></g><g style="display: block;" opacity="1" transform="matrix(0.9953373074531555,0.09645560383796692,-0.09645560383796692,0.9953373074531555,182.0399932861328,307.6553955078125)"><g transform="matrix(2,0,0,2,0,0)" opacity="1"><path d="M-32.999000549316406,-34.16899871826172 C-26.839000701904297,-40.11899948120117 -17.02899932861328,-39.94900131225586 -11.079000473022461,-33.78900146484375 C-11.079000473022461,-33.78900146484375 21.256000518798828,-0.7490000128746033 21.256000518798828,-0.7490000128746033 C27.195999145507812,5.410999774932861 27.025999069213867,15.220999717712402 20.875999450683594,21.17099952697754 C14.715999603271484,27.111000061035156 4.895999908447266,26.94099998474121 -1.0440000295639038,20.7810001373291 C-1.0440000295639038,20.7810001373291 -33.37900161743164,-12.24899959564209 -33.37900161743164,-12.24899959564209 C-39.32899856567383,-18.409000396728516 -39.159000396728516,-28.2189998626709 -32.999000549316406,-34.16899871826172z" fill-opacity="1" fill="rgb(175,98,59)"></path></g></g><g style="display: block;" opacity="1" transform="matrix(0.9990297555923462,0.044039689004421234,-0.044039689004421234,0.9990297555923462,274.4380187988281,299.9490966796875)"><g transform="matrix(2,0,0,2,0,0)" opacity="1"><path d="M-9.277999877929688,-48.32699966430664 C-9.277999877929688,-48.32699966430664 34.71200180053711,-34.87699890136719 34.71200180053711,-34.87699890136719 C48.44200134277344,-30.677000045776367 56.172000885009766,-16.136999130249023 51.97200012207031,-2.4070000648498535 C51.97200012207031,-2.4070000648498535 41.742000579833984,31.062999725341797 41.742000579833984,31.062999725341797 C37.54199981689453,44.792999267578125 23.011999130249023,52.52299880981445 9.281999588012695,48.323001861572266 C9.281999588012695,48.323001861572266 -34.70800018310547,34.87300109863281 -34.70800018310547,34.87300109863281 C-48.448001861572266,30.67300033569336 -56.178001403808594,16.14299964904785 -51.97800064086914,2.4130001068115234 C-51.97800064086914,2.4130001068115234 -41.737998962402344,-31.05699920654297 -41.737998962402344,-31.05699920654297 C-37.54800033569336,-44.797000885009766 -23.007999420166016,-52.527000427246094 -9.277999877929688,-48.32699966430664z" fill-opacity="1" fill="rgb(175,98,59)"></path></g></g><g style="display: block;" opacity="1" transform="matrix(0.9997074604034424,-0.024186082184314728,0.024186082184314728,0.9997074604034424,268.8841552734375,389.89666748046875)"><g transform="matrix(2,0,0,2,0,0)" opacity="1"><path d="M-24.5,-28 C-24.5,-28 24.5,-28 24.5,-28 C30.579999923706055,-28 35.5,-23.079999923706055 35.5,-17 C35.5,-17 35.5,17 35.5,17 C35.5,23.079999923706055 30.579999923706055,28 24.5,28 C24.5,28 -24.5,28 -24.5,28 C-30.579999923706055,28 -35.5,23.079999923706055 -35.5,17 C-35.5,17 -35.5,-17 -35.5,-17 C-35.5,-23.079999923706055 -30.579999923706055,-28 -24.5,-28z" fill-opacity="1" fill="rgb(175,98,59)"></path></g></g><g style="display: block;" opacity="1" transform="matrix(0.9990297555923462,0.044039689004421234,-0.044039689004421234,0.9990297555923462,250.89324951171875,309.9158935546875)"><g transform="matrix(2,0,0,2,0,0)" opacity="1"><path d="M-13.6899995803833,-15.571000099182129 C-15.890000343322754,-16.731000900268555 -16.729999542236328,-19.451000213623047 -15.569999694824219,-21.650999069213867 C-14.40999984741211,-23.85099983215332 -11.6899995803833,-24.69099998474121 -9.489999771118164,-23.5310001373291 C7.449999809265137,-14.581000328063965 16.09000015258789,-0.010999999940395355 16.09000015258789,19.548999786376953 C16.09000015258789,22.038999557495117 14.069999694824219,24.048999786376953 11.59000015258789,24.048999786376953 C9.100000381469727,24.048999786376953 7.090000152587891,22.038999557495117 7.090000152587891,19.548999786376953 C7.090000152587891,3.2990000247955322 0.2800000011920929,-8.190999984741211 -13.6899995803833,-15.571000099182129z" fill-opacity="1" fill="rgb(156,89,56)"></path></g></g></g><g style="display: block;" opacity="1" transform="matrix(0.25,0,0,0.25,0,0)" clip-path="url(#__lottie_element_9876)"><g style="display: block;" opacity="1" transform="matrix(1,0,0,1,231.85000610351562,197.35601806640625)"><g transform="matrix(2,0,0,2,0,0)" opacity="1"><path d="M3.9639999866485596,-45.32699966430664 C12.494000434875488,-44.57699966430664 18.804000854492188,-37.06700134277344 18.054000854492188,-28.53700065612793 C18.054000854492188,-28.53700065612793 12.824000358581543,31.232999801635742 12.824000358581543,31.232999801635742 C12.083999633789062,39.76300048828125 4.564000129699707,46.073001861572266 -3.9660000801086426,45.323001861572266 C-12.496000289916992,44.58300018310547 -18.805999755859375,37.0629997253418 -18.055999755859375,28.533000946044922 C-18.055999755859375,28.533000946044922 -12.826000213623047,-31.23699951171875 -12.826000213623047,-31.23699951171875 C-12.076000213623047,-39.766998291015625 -4.565999984741211,-46.07699966430664 3.9639999866485596,-45.32699966430664 C3.9639999866485596,-45.32699966430664 3.9639999866485596,-45.32699966430664 3.9639999866485596,-45.32699966430664z" fill-opacity="1" fill="rgb(175,98,59)"></path></g></g><g style="display: block;" opacity="1" transform="matrix(1,0,0,1,317.8349914550781,181.08599853515625)"><g transform="matrix(2,0,0,2,0,0)" opacity="1"><path d="M16.240999221801758,-44.63399887084961 C24.291000366210938,-41.70399856567383 28.44099998474121,-32.81399917602539 25.51099967956543,-24.763999938964844 C25.51099967956543,-24.763999938964844 3.621000051498413,35.375999450683594 3.621000051498413,35.375999450683594 C0.6909999847412109,43.41600036621094 -8.199000358581543,47.566001892089844 -16.249000549316406,44.63600158691406 C-24.288999557495117,41.70600128173828 -28.43899917602539,32.816001892089844 -25.509000778198242,24.766000747680664 C-25.509000778198242,24.766000747680664 -3.61899995803833,-35.374000549316406 -3.61899995803833,-35.374000549316406 C-0.6890000104904175,-43.41400146484375 8.201000213623047,-47.56399917602539 16.240999221801758,-44.63399887084961z" fill-opacity="1" fill="rgb(175,98,59)"></path></g></g><g style="display: block;" opacity="1" transform="matrix(1,0,0,1,376.2919921875,245.87298583984375)"><g transform="matrix(2,0,0,2,0,0)" opacity="1"><path d="M23.746999740600586,-41.1349983215332 C31.16699981689453,-36.85499954223633 33.707000732421875,-27.375 29.427000045776367,-19.96500015258789 C29.427000045776367,-19.96500015258789 -2.572999954223633,35.46500015258789 -2.572999954223633,35.46500015258789 C-6.853000164031982,42.875 -16.33300018310547,45.415000915527344 -23.753000259399414,41.1349983215332 C-31.163000106811523,36.85499954223633 -33.702999114990234,27.375 -29.42300033569336,19.96500015258789 C-29.42300033569336,19.96500015258789 2.5769999027252197,-35.46500015258789 2.5769999027252197,-35.46500015258789 C6.85699987411499,-42.875 16.336999893188477,-45.415000915527344 23.746999740600586,-41.1349983215332z" fill-opacity="1" fill="rgb(175,98,59)"></path></g></g><g style="display: block;" opacity="1" transform="matrix(1,0,0,1,188.2919921875,311.8739929199219)"><g transform="matrix(2,0,0,2,0,0)" opacity="1"><path d="M-32.999000549316406,-34.16899871826172 C-26.839000701904297,-40.11899948120117 -17.02899932861328,-39.94900131225586 -11.079000473022461,-33.78900146484375 C-11.079000473022461,-33.78900146484375 21.256000518798828,-0.7490000128746033 21.256000518798828,-0.7490000128746033 C27.195999145507812,5.410999774932861 27.025999069213867,15.220999717712402 20.875999450683594,21.17099952697754 C14.715999603271484,27.111000061035156 4.895999908447266,26.94099998474121 -1.0440000295639038,20.7810001373291 C-1.0440000295639038,20.7810001373291 -33.37900161743164,-12.24899959564209 -33.37900161743164,-12.24899959564209 C-39.32899856567383,-18.409000396728516 -39.159000396728516,-28.2189998626709 -32.999000549316406,-34.16899871826172z" fill-opacity="1" fill="rgb(175,98,59)"></path></g></g><g style="display: block;" opacity="1" transform="matrix(1,0,0,1,280.260986328125,300.10601806640625)"><g transform="matrix(2,0,0,2,0,0)" opacity="1"><path d="M-9.277999877929688,-48.32699966430664 C-9.277999877929688,-48.32699966430664 34.71200180053711,-34.87699890136719 34.71200180053711,-34.87699890136719 C48.44200134277344,-30.677000045776367 56.172000885009766,-16.136999130249023 51.97200012207031,-2.4070000648498535 C51.97200012207031,-2.4070000648498535 41.742000579833984,31.062999725341797 41.742000579833984,31.062999725341797 C37.54199981689453,44.792999267578125 23.011999130249023,52.52299880981445 9.281999588012695,48.323001861572266 C9.281999588012695,48.323001861572266 -34.70800018310547,34.87300109863281 -34.70800018310547,34.87300109863281 C-48.448001861572266,30.67300033569336 -56.178001403808594,16.14299964904785 -51.97800064086914,2.4130001068115234 C-51.97800064086914,2.4130001068115234 -41.737998962402344,-31.05699920654297 -41.737998962402344,-31.05699920654297 C-37.54800033569336,-44.797000885009766 -23.007999420166016,-52.527000427246094 -9.277999877929688,-48.32699966430664z" fill-opacity="1" fill="rgb(175,98,59)"></path></g></g><g style="display: block;" opacity="1" transform="matrix(1,0,0,1,275.6700134277344,390)"><g transform="matrix(2,0,0,2,0,0)" opacity="1"><path d="M-24.5,-28 C-24.5,-28 24.5,-28 24.5,-28 C30.579999923706055,-28 35.5,-23.079999923706055 35.5,-17 C35.5,-17 35.5,17 35.5,17 C35.5,23.079999923706055 30.579999923706055,28 24.5,28 C24.5,28 -24.5,28 -24.5,28 C-30.579999923706055,28 -35.5,23.079999923706055 -35.5,17 C-35.5,17 -35.5,-17 -35.5,-17 C-35.5,-23.079999923706055 -30.579999923706055,-28 -24.5,-28z" fill-opacity="1" fill="rgb(175,98,59)"></path></g></g><g style="display: block;" opacity="1" transform="matrix(1,0,0,1,257.1780090332031,311.1000061035156)"><g transform="matrix(2,0,0,2,0,0)" opacity="1"><path d="M-13.6899995803833,-15.571000099182129 C-15.890000343322754,-16.731000900268555 -16.729999542236328,-19.451000213623047 -15.569999694824219,-21.650999069213867 C-14.40999984741211,-23.85099983215332 -11.6899995803833,-24.69099998474121 -9.489999771118164,-23.5310001373291 C7.449999809265137,-14.581000328063965 16.09000015258789,-0.010999999940395355 16.09000015258789,19.548999786376953 C16.09000015258789,22.038999557495117 14.069999694824219,24.048999786376953 11.59000015258789,24.048999786376953 C9.100000381469727,24.048999786376953 7.090000152587891,22.038999557495117 7.090000152587891,19.548999786376953 C7.090000152587891,3.2990000247955322 0.2800000011920929,-8.190999984741211 -13.6899995803833,-15.571000099182129z" fill-opacity="1" fill="rgb(156,89,56)"></path></g></g></g></g></svg>