<svg style="width: 100%; height: 100%; transform: translate3d(0px, 0px, 0px);" preserveAspectRatio="xMidYMid meet" height="135" width="135" viewBox="0 0 135 135" xmlns="http://www.w3.org/2000/svg"><defs><clipPath id="__lottie_element_7253"><rect y="0" x="0" height="135" width="135"></rect></clipPath><clipPath id="__lottie_element_7255"><path d="M0,0 L540,0 L540,540 L0,540z"></path></clipPath><clipPath id="__lottie_element_7263"><path d="M0,0 L540,0 L540,540 L0,540z"></path></clipPath></defs><g clip-path="url(#__lottie_element_7253)"><g style="display: block;" opacity="1" transform="matrix(0.25,0,0,0.25,0,0)" clip-path="url(#__lottie_element_7255)"><g style="display: block;" opacity="1" transform="matrix(1,0,0,1,270,272)"><g transform="matrix(4,0,0,4,0,0)" opacity="1"><path d="M-36.529998779296875,8.479999542236328 C-43.16999816894531,3.8399999141693115 -47.5,-3.7799999713897705 -47.5,-12.399999618530273 C-47.5,-26.540000915527344 -35.84000015258789,-38 -21.450000762939453,-38 C-12.550000190734863,-38 -4.699999809265137,-33.619998931884766 0,-26.93000030517578 C4.699999809265137,-33.619998931884766 12.550000190734863,-38 21.450000762939453,-38 C35.84000015258789,-38 47.5,-26.540000915527344 47.5,-12.399999618530273 C47.5,-4.369999885559082 43.7400016784668,2.7899999618530273 37.869998931884766,7.480000019073486 C37.869998931884766,7.480000019073486 7.28000020980835,35.400001525878906 7.28000020980835,35.400001525878906 C3.5199999809265137,38.83000183105469 -2.240000009536743,38.869998931884766 -6.050000190734863,35.4900016784668 C-6.050000190734863,35.4900016784668 -36.529998779296875,8.479999542236328 -36.529998779296875,8.479999542236328 C-36.529998779296875,8.479999542236328 -36.529998779296875,8.479999542236328 -36.529998779296875,8.479999542236328z" fill-opacity="1" fill="rgb(255,196,209)"></path></g></g><g style="display: block;" opacity="1" transform="matrix(1,0,0,1,233.125,237.25)"><g transform="matrix(4,0,0,4,0,0)" opacity="1"><path d="M-0.006000000052154064,-9.5 C-0.006000000052154064,-9.5 0.004000000189989805,-9.5 0.004000000189989805,-9.5 C2.2939999103546143,-9.5 4.1539998054504395,-7.639999866485596 4.1539998054504395,-5.349999904632568 C4.1539998054504395,-5.349999904632568 4.1539998054504395,5.349999904632568 4.1539998054504395,5.349999904632568 C4.1539998054504395,7.639999866485596 2.2939999103546143,9.5 0.004000000189989805,9.5 C0.004000000189989805,9.5 -0.006000000052154064,9.5 -0.006000000052154064,9.5 C-2.2960000038146973,9.5 -4.156000137329102,7.639999866485596 -4.156000137329102,5.349999904632568 C-4.156000137329102,5.349999904632568 -4.156000137329102,-5.349999904632568 -4.156000137329102,-5.349999904632568 C-4.156000137329102,-7.639999866485596 -2.2960000038146973,-9.5 -0.006000000052154064,-9.5z" fill-opacity="1" fill="rgb(198,98,119)"></path></g></g><g style="display: block;" opacity="1" transform="matrix(1,0,0,1,304.375,237.25)"><g transform="matrix(4,0,0,4,0,0)" opacity="1"><path d="M-0.006000000052154064,-9.5 C-0.006000000052154064,-9.5 0.004000000189989805,-9.5 0.004000000189989805,-9.5 C2.2939999103546143,-9.5 4.1539998054504395,-7.639999866485596 4.1539998054504395,-5.349999904632568 C4.1539998054504395,-5.349999904632568 4.1539998054504395,5.349999904632568 4.1539998054504395,5.349999904632568 C4.1539998054504395,7.639999866485596 2.2939999103546143,9.5 0.004000000189989805,9.5 C0.004000000189989805,9.5 -0.006000000052154064,9.5 -0.006000000052154064,9.5 C-2.2960000038146973,9.5 -4.156000137329102,7.639999866485596 -4.156000137329102,5.349999904632568 C-4.156000137329102,5.349999904632568 -4.156000137329102,-5.349999904632568 -4.156000137329102,-5.349999904632568 C-4.156000137329102,-7.639999866485596 -2.2960000038146973,-9.5 -0.006000000052154064,-9.5z" fill-opacity="1" fill="rgb(198,98,119)"></path></g></g><g style="display: block;" opacity="1" transform="matrix(1,0,0,1,-6.027008056640625,3.2080078125)" clip-path="url(#__lottie_element_7263)"><g style="display: none;" opacity="1" transform="matrix(1.3188899755477905,0.024080518633127213,-0.024080518633127213,1.3188899755477905,259.94024658203125,273.239013671875)"><g transform="matrix(1,0,0,1,0,0)" opacity="1"><path d="M81.5,-11.5 C75.75,-7.75 71.75,0.75 71.75,0.75 C71.75,0.75 87.5,52.5 87.5,52.5 C87.5,52.5 100.75,64.75 111.25,57.25 C121.75,49.75 127.25,37.5 120.5,30 C113.75,22.5 104.75,20 104.75,20 C104.75,20 117,3.75 109.75,-4.5 C102.5,-12.75 87.25,-15.25 81.5,-11.5z" fill-opacity="1" fill="rgb(255,197,210)"></path></g></g><g style="display: none;" opacity="1" transform="matrix(1.3076163530349731,-0.17375324666500092,0.17375324666500092,1.3076163530349731,381.3403625488281,280.9698181152344)"><g transform="matrix(4,0,0,4,0,0)" opacity="1"><path d="M-3.513000011444092,-0.8889999985694885 C-3.8329999446868896,-0.1289999932050705 -4.703000068664551,0.2409999966621399 -5.4730000495910645,-0.07900000363588333 C-6.243000030517578,-0.3889999985694885 -6.603000164031982,-1.2690000534057617 -6.293000221252441,-2.0290000438690186 C-5.982999801635742,-2.7790000438690186 -5.5229997634887695,-3.4690001010894775 -4.933000087738037,-4.059000015258789 C-2.4630000591278076,-6.508999824523926 1.6369999647140503,-6.64900016784668 4.2769999504089355,-4.359000205993652 C6.9770002365112305,-2.0190000534057617 7.126999855041504,1.9709999561309814 4.5970001220703125,4.491000175476074 C4.017000198364258,5.080999851226807 3.3269999027252197,5.540999889373779 2.566999912261963,5.870999813079834 C1.8070000410079956,6.190999984741211 0.9169999957084656,5.841000080108643 0.597000002861023,5.080999851226807 C0.2669999897480011,4.321000099182129 0.6169999837875366,3.440999984741211 1.3769999742507935,3.1110000610351562 C1.7970000505447388,2.930999994277954 2.1670000553131104,2.680999994277954 2.486999988555908,2.371000051498413 C3.7769999504089355,1.0809999704360962 3.697000026702881,-0.8889999985694885 2.306999921798706,-2.0889999866485596 C0.8569999933242798,-3.3489999771118164 -1.4630000591278076,-3.2790000438690186 -2.812999963760376,-1.9290000200271606 C-3.122999906539917,-1.61899995803833 -3.36299991607666,-1.2690000534057617 -3.513000011444092,-0.8889999985694885z" fill-opacity="1" fill="rgb(226,135,154)"></path></g></g><g style="display: none;" opacity="1" transform="matrix(1.3076163530349731,-0.17375324666500092,0.17375324666500092,1.3076163530349731,398.9129638671875,327.7125244140625)"><g transform="matrix(4,0,0,4,0,0)" opacity="1"><path d="M-0.20999999344348907,-3.2060000896453857 C-1.0399999618530273,-3.2860000133514404 -1.6399999856948853,-4.015999794006348 -1.559999942779541,-4.835999965667725 C-1.4800000190734863,-5.665999889373779 -0.75,-6.265999794006348 0.07999999821186066,-6.185999870300293 C0.8999999761581421,-6.105999946594238 1.7000000476837158,-5.886000156402588 2.450000047683716,-5.515999794006348 C5.690000057220459,-3.9159998893737793 6.940000057220459,-0.11599999666213989 5.190000057220459,2.944000005722046 C3.4700000286102295,5.934000015258789 -0.46000000834465027,7.053999900817871 -3.640000104904175,5.49399995803833 C-4.389999866485596,5.113999843597412 -5.050000190734863,4.613999843597412 -5.590000152587891,4.013999938964844 C-6.150000095367432,3.3940000534057617 -6.099999904632568,2.4539999961853027 -5.480000019073486,1.8940000534057617 C-4.869999885559082,1.343999981880188 -3.9200000762939453,1.3940000534057617 -3.369999885559082,2.003999948501587 C-3.0799999237060547,2.3239998817443848 -2.7200000286102295,2.5940001010894775 -2.309999942779541,2.803999900817871 C-0.5299999713897705,3.6740000247955322 1.6699999570846558,3.0439999103546143 2.5799999237060547,1.4539999961853027 C3.4600000381469727,-0.07599999755620956 2.8399999141693115,-1.9759999513626099 1.1299999952316284,-2.8259999752044678 C0.7099999785423279,-3.0360000133514404 0.25,-3.1559998989105225 -0.20999999344348907,-3.2060000896453857z" fill-opacity="1" fill="rgb(226,135,154)"></path></g></g><g style="display: block;" opacity="1" transform="matrix(1,0,0,1,274,267.5)"><path d="M34.220001220703125,36.441001892089844 C25.273000717163086,44.847999572753906 13.232999801635742,50 0,50 C-13.232999801635742,50 -25.273000717163086,44.847999572753906 -34.220001220703125,36.441001892089844" stroke-width="16" stroke-opacity="1" stroke="rgb(227,135,154)" stroke-miterlimit="4" fill-opacity="0" stroke-linejoin="miter" stroke-linecap="round"></path></g></g><g style="display: none;" opacity="1" transform="matrix(1,0,0,1,233.5,226.67098999023438)"><g transform="matrix(1,0,0,1,0,0)" opacity="1"><path d="M24.760000228881836,3.4760000705718994 C23.06599998474121,15.630999565124512 12.618000030517578,25 0,25 C-9.555999755859375,25 -17.867000579833984,19.62700080871582 -22.073999404907227,11.739999771118164" stroke-width="15" stroke-opacity="1" stroke="rgb(227,135,154)" stroke-miterlimit="4" fill-opacity="0" stroke-linejoin="miter" stroke-linecap="round"></path></g><g transform="matrix(1,0,0,1,70.84200286865234,0)" opacity="1"><path d="M24.760000228881836,3.4760000705718994 C23.06599998474121,15.630999565124512 12.618000030517578,25 0,25 C-9.555999755859375,25 -17.867000579833984,19.62700080871582 -22.073999404907227,11.739999771118164" stroke-width="15" stroke-opacity="1" stroke="rgb(227,135,154)" stroke-miterlimit="4" fill-opacity="0" stroke-linejoin="miter" stroke-linecap="round"></path></g></g></g></g></svg>