<svg style="width: 100%; height: 100%; transform: translate3d(0px, 0px, 0px);" preserveAspectRatio="xMidYMid meet" height="135" width="135" viewBox="0 0 135 135" xmlns="http://www.w3.org/2000/svg"><defs><clipPath id="__lottie_element_8020"><rect y="0" x="0" height="135" width="135"></rect></clipPath><clipPath id="__lottie_element_8022"><path d="M0,0 L540,0 L540,540 L0,540z"></path></clipPath><clipPath id="__lottie_element_8026"><path d="M0,0 L540,0 L540,540 L0,540z"></path></clipPath><clipPath id="__lottie_element_8053"><path d="M0,0 L540,0 L540,540 L0,540z"></path></clipPath></defs><g clip-path="url(#__lottie_element_8020)"><g style="display: block;" opacity="1" transform="matrix(0.25,0,0,0.25,0,0)" clip-path="url(#__lottie_element_8022)"><g style="display: block;" opacity="1" transform="matrix(1,0,0,1,0,0)" clip-path="url(#__lottie_element_8053)"><g style="display: block;" opacity="1" transform="matrix(0.9335803985595703,-0.3583679497241974,0.3583679497241974,0.9335803985595703,695.5131225585938,216.80996704101562)"><g transform="matrix(4,0,0,4,0,0)" opacity="1"><path d="M1.878999948501587,31.908000946044922 C0.16899999976158142,33.62799835205078 -1.9509999752044678,34.86800003051758 -4.270999908447266,35.49800109863281 C-5.498000144958496,36.01599884033203 -6.791999816894531,36.34700012207031 -8.12600040435791,36.48500061035156 C-8.595999717712402,36.534000396728516 -17.680999755859375,14.708000183105469 -17.680999755859375,14.708000183105469 C-15.170999526977539,14.708000183105469 -12.770999908447266,13.618000030517578 -11.130999565124512,11.708000183105469 C-11.130999565124512,11.708000183105469 29.759000778198242,-35.801998138427734 29.759000778198242,-35.801998138427734 C30.57900047302246,-36.75199890136719 32.02899932861328,-36.821998596191406 32.93899917602539,-35.95199966430664 C32.999000549316406,-35.891998291015625 33.069000244140625,-35.821998596191406 33.12900161743164,-35.762001037597656 C33.12900161743164,-35.762001037597656 41.388999938964844,-27.48200035095215 41.388999938964844,-27.48200035095215 C46.749000549316406,-22.11199951171875 46.76900100708008,-13.402000427246094 41.42900085449219,-8.01200008392334 C41.42900085449219,-8.01200008392334 1.878999948501587,31.908000946044922 1.878999948501587,31.908000946044922z" fill-opacity="1" fill="rgb(93,93,93)"></path></g></g><g style="display: block;" opacity="1" transform="matrix(0.9335803985595703,-0.3583679497241974,0.3583679497241974,0.9335803985595703,695.5131225585938,216.80996704101562)"><g transform="matrix(4,0,0,4,0,0)" opacity="1"><path d="M36.979000091552734,-3.5220000743865967 C36.979000091552734,-3.5220000743865967 33.638999938964844,32.12799835205078 33.638999938964844,32.12799835205078 C33.39899826049805,34.63800048828125 31.288999557495117,36.55799865722656 28.768999099731445,36.55799865722656 C26.249000549316406,36.55799865722656 24.138999938964844,34.63800048828125 23.909000396728516,32.12799835205078 C23.909000396728516,32.12799835205078 21.979000091552734,11.607999801635742 21.979000091552734,11.607999801635742 C21.979000091552734,11.607999801635742 21.21299934387207,4.449999809265137 28.85300064086914,-1.8639999628067017 C32.808998107910156,-5.133999824523926 36.979000091552734,-3.5220000743865967 36.979000091552734,-3.5220000743865967z" fill-opacity="1" fill="rgb(93,93,93)"></path></g></g><g style="display: block;" opacity="1" transform="matrix(0.9335803985595703,-0.3583679497241974,0.3583679497241974,0.9335803985595703,695.5131225585938,216.80996704101562)"><g transform="matrix(4,0,0,4,0,0)" opacity="1"><path d="M-4.270999908447266,35.49800109863281 C-5.931000232696533,36.198001861572266 -7.710999965667725,36.55799865722656 -9.550999641418457,36.55799865722656 C-9.550999641418457,36.55799865722656 -31.7810001373291,36.55799865722656 -31.7810001373291,36.55799865722656 C-39.31100082397461,36.55799865722656 -45.42100143432617,30.437999725341797 -45.42100143432617,22.898000717163086 C-45.42100143432617,15.347999572753906 -39.31100082397461,9.227999687194824 -31.7810001373291,9.227999687194824 C-30.47100067138672,9.227999687194824 -29.490999221801758,10.208000183105469 -29.490999221801758,11.428000450134277 C-29.490999221801758,11.428000450134277 -29.490999221801758,12.517999649047852 -29.490999221801758,12.517999649047852 C-29.490999221801758,13.727999687194824 -28.51099967956543,14.708000183105469 -27.301000595092773,14.708000183105469 C-27.301000595092773,14.708000183105469 -17.680999755859375,14.708000183105469 -17.680999755859375,14.708000183105469 C-16.31800079345703,14.708000183105469 -14.987000465393066,14.38700008392334 -13.793000221252441,13.786999702453613 C-12.788999557495117,13.281999588012695 -1.9509999752044678,34.86800003051758 -4.270999908447266,35.49800109863281z" fill-opacity="1" fill="rgb(93,93,93)"></path></g></g><g style="display: block;" opacity="1" transform="matrix(0.9335803985595703,-0.3583679497241974,0.3583679497241974,0.9335803985595703,768.19677734375,106.45149993896484)"><g transform="matrix(4,0,0,4,0,0)" opacity="1"><path d="M6.36899995803833,-7.598999977111816 C6.36899995803833,-7.598999977111816 6.379000186920166,-7.598999977111816 6.379000186920166,-7.598999977111816 C7.769000053405762,-6.428999900817871 7.948999881744385,-4.36899995803833 6.789000034332275,-2.9790000915527344 C6.789000034332275,-2.9790000915527344 -1.7610000371932983,7.201000213623047 -1.7610000371932983,7.201000213623047 C-2.9210000038146973,8.581000328063965 -4.991000175476074,8.770999908447266 -6.370999813079834,7.60099983215332 C-6.370999813079834,7.60099983215332 -6.38100004196167,7.60099983215332 -6.38100004196167,7.60099983215332 C-7.770999908447266,6.431000232696533 -7.951000213623047,4.370999813079834 -6.781000137329102,2.9809999465942383 C-6.781000137329102,2.9809999465942383 1.7589999437332153,-7.198999881744385 1.7589999437332153,-7.198999881744385 C2.9189999103546143,-8.58899974822998 4.988999843597412,-8.769000053405762 6.36899995803833,-7.598999977111816z" fill-opacity="1" fill="rgb(107,107,107)"></path></g></g><g style="display: block;" opacity="1" transform="matrix(0.9335803985595703,-0.3583679497241974,0.3583679497241974,0.9335803985595703,594.560791015625,339.2451477050781)"><g transform="matrix(4,0,0,4,0,0)" opacity="1"><path d="M4.360000133514404,-0.0010000000474974513 C4.360000133514404,-0.0010000000474974513 4.360000133514404,0.008999999612569809 4.360000133514404,0.008999999612569809 C4.360000133514404,1.809000015258789 2.890000104904175,3.2790000438690186 1.0800000429153442,3.2790000438690186 C1.0800000429153442,3.2790000438690186 -1.0800000429153442,3.2790000438690186 -1.0800000429153442,3.2790000438690186 C-2.890000104904175,3.2790000438690186 -4.360000133514404,1.809000015258789 -4.360000133514404,0.008999999612569809 C-4.360000133514404,0.008999999612569809 -4.360000133514404,-0.0010000000474974513 -4.360000133514404,-0.0010000000474974513 C-4.360000133514404,-1.8109999895095825 -2.890000104904175,-3.2809998989105225 -1.0800000429153442,-3.2809998989105225 C-1.0800000429153442,-3.2809998989105225 1.0800000429153442,-3.2809998989105225 1.0800000429153442,-3.2809998989105225 C2.890000104904175,-3.2809998989105225 4.360000133514404,-1.8109999895095825 4.360000133514404,-0.0010000000474974513z" fill-opacity="1" fill="rgb(107,107,107)"></path></g></g><g style="display: block;" opacity="1" transform="matrix(0.9335803985595703,-0.3583679497241974,0.3583679497241974,0.9335803985595703,699.7279052734375,318.5179138183594)"><path d="M46.1510009765625,-19.27199935913086 C48.63100051879883,-13.340999603271484 50,-6.829999923706055 50,0 C50,27.61400032043457 27.61400032043457,50 0,50 C-17.402999877929688,50 -32.729000091552734,41.10900115966797 -41.683998107910156,27.621999740600586 C-46.93899917602539,19.70800018310547 38.60599899291992,-37.319000244140625 46.1510009765625,-19.27199935913086z" fill-opacity="1" fill="rgb(94,94,94)"></path></g></g><g style="display: block;" opacity="1" transform="matrix(1,0,0,1,0,0)" clip-path="url(#__lottie_element_8026)"><g style="display: block;" opacity="1" transform="matrix(1,0,0,1,270.0140075683594,267.0369873046875)"><g transform="matrix(4,0,0,4,0,0)" opacity="1"><path d="M1.878999948501587,31.908000946044922 C0.16899999976158142,33.62799835205078 -1.9509999752044678,34.86800003051758 -4.270999908447266,35.49800109863281 C-5.498000144958496,36.01599884033203 -7.7028422355651855,36.440948486328125 -8.989420890808105,36.099369049072266 C-11.36521053314209,35.38247299194336 -17.680999755859375,14.708000183105469 -17.680999755859375,14.708000183105469 C-15.170999526977539,14.708000183105469 -12.770999908447266,13.618000030517578 -11.130999565124512,11.708000183105469 C-11.130999565124512,11.708000183105469 29.759000778198242,-35.801998138427734 29.759000778198242,-35.801998138427734 C30.57900047302246,-36.75199890136719 32.02899932861328,-36.821998596191406 32.93899917602539,-35.95199966430664 C32.999000549316406,-35.891998291015625 33.069000244140625,-35.821998596191406 33.12900161743164,-35.762001037597656 C33.12900161743164,-35.762001037597656 41.388999938964844,-27.48200035095215 41.388999938964844,-27.48200035095215 C46.749000549316406,-22.11199951171875 46.76900100708008,-13.402000427246094 41.42900085449219,-8.01200008392334 C41.42900085449219,-8.01200008392334 1.878999948501587,31.908000946044922 1.878999948501587,31.908000946044922z" fill-opacity="1" fill="rgb(93,93,93)"></path></g></g><g style="display: block;" opacity="1" transform="matrix(1,0,0,1,270.0140075683594,267.0369873046875)"><g transform="matrix(4,0,0,4,0,0)" opacity="1"><path d="M36.979000091552734,-3.5220000743865967 C36.979000091552734,-3.5220000743865967 33.638999938964844,32.12799835205078 33.638999938964844,32.12799835205078 C33.39899826049805,34.63800048828125 31.288999557495117,36.55799865722656 28.768999099731445,36.55799865722656 C26.249000549316406,36.55799865722656 24.138999938964844,34.63800048828125 23.909000396728516,32.12799835205078 C23.909000396728516,32.12799835205078 21.979000091552734,11.607999801635742 21.979000091552734,11.607999801635742 C21.979000091552734,11.607999801635742 21.21299934387207,4.449999809265137 28.85300064086914,-1.8639999628067017 C32.808998107910156,-5.133999824523926 36.979000091552734,-3.5220000743865967 36.979000091552734,-3.5220000743865967z" fill-opacity="1" fill="rgb(93,93,93)"></path></g></g><g style="display: block;" opacity="1" transform="matrix(1,0,0,1,270.0140075683594,267.0369873046875)"><g transform="matrix(4,0,0,4,0,0)" opacity="1"><path d="M-4.270999908447266,35.49800109863281 C-5.931000232696533,36.198001861572266 -7.710999965667725,36.55799865722656 -9.550999641418457,36.55799865722656 C-9.550999641418457,36.55799865722656 -31.7810001373291,36.55799865722656 -31.7810001373291,36.55799865722656 C-39.31100082397461,36.55799865722656 -45.42100143432617,30.437999725341797 -45.42100143432617,22.898000717163086 C-45.42100143432617,15.347999572753906 -39.31100082397461,9.227999687194824 -31.7810001373291,9.227999687194824 C-30.47100067138672,9.227999687194824 -29.490999221801758,10.208000183105469 -29.490999221801758,11.428000450134277 C-29.490999221801758,11.428000450134277 -29.490999221801758,12.517999649047852 -29.490999221801758,12.517999649047852 C-29.490999221801758,13.727999687194824 -28.51099967956543,14.708000183105469 -27.301000595092773,14.708000183105469 C-27.301000595092773,14.708000183105469 -17.680999755859375,14.708000183105469 -17.680999755859375,14.708000183105469 C-16.31800079345703,14.708000183105469 -14.987000465393066,14.38700008392334 -13.793000221252441,13.786999702453613 C-12.788999557495117,13.281999588012695 -1.9509999752044678,34.86800003051758 -4.270999908447266,35.49800109863281z" fill-opacity="1" fill="rgb(93,93,93)"></path></g></g><g style="display: block;" opacity="1" transform="matrix(1,0,0,1,377.41900634765625,190.05599975585938)"><g transform="matrix(4,0,0,4,0,0)" opacity="1"><path d="M6.36899995803833,-7.598999977111816 C6.36899995803833,-7.598999977111816 6.379000186920166,-7.598999977111816 6.379000186920166,-7.598999977111816 C7.769000053405762,-6.428999900817871 7.948999881744385,-4.36899995803833 6.789000034332275,-2.9790000915527344 C6.789000034332275,-2.9790000915527344 -1.7610000371932983,7.201000213623047 -1.7610000371932983,7.201000213623047 C-2.9210000038146973,8.581000328063965 -4.991000175476074,8.770999908447266 -6.370999813079834,7.60099983215332 C-6.370999813079834,7.60099983215332 -6.38100004196167,7.60099983215332 -6.38100004196167,7.60099983215332 C-7.770999908447266,6.431000232696533 -7.951000213623047,4.370999813079834 -6.781000137329102,2.9809999465942383 C-6.781000137329102,2.9809999465942383 1.7589999437332153,-7.198999881744385 1.7589999437332153,-7.198999881744385 C2.9189999103546143,-8.58899974822998 4.988999843597412,-8.769000053405762 6.36899995803833,-7.598999977111816z" fill-opacity="1" fill="rgb(107,107,107)"></path></g></g><g style="display: block;" opacity="1" transform="matrix(1,0,0,1,131.8900146484375,345.1619873046875)"><g transform="matrix(4,0,0,4,0,0)" opacity="1"><path d="M4.360000133514404,-0.0010000000474974513 C4.360000133514404,-0.0010000000474974513 4.360000133514404,0.008999999612569809 4.360000133514404,0.008999999612569809 C4.360000133514404,1.809000015258789 2.890000104904175,3.2790000438690186 1.0800000429153442,3.2790000438690186 C1.0800000429153442,3.2790000438690186 -1.0800000429153442,3.2790000438690186 -1.0800000429153442,3.2790000438690186 C-2.890000104904175,3.2790000438690186 -4.360000133514404,1.809000015258789 -4.360000133514404,0.008999999612569809 C-4.360000133514404,0.008999999612569809 -4.360000133514404,-0.0010000000474974513 -4.360000133514404,-0.0010000000474974513 C-4.360000133514404,-1.8109999895095825 -2.890000104904175,-3.2809998989105225 -1.0800000429153442,-3.2809998989105225 C-1.0800000429153442,-3.2809998989105225 1.0800000429153442,-3.2809998989105225 1.0800000429153442,-3.2809998989105225 C2.890000104904175,-3.2809998989105225 4.360000133514404,-1.8109999895095825 4.360000133514404,-0.0010000000474974513z" fill-opacity="1" fill="rgb(107,107,107)"></path></g></g><g style="display: block;" opacity="1" transform="matrix(1,0,0,1,237.5,363.5)"><path d="M46.1510009765625,-19.27199935913086 C48.63100051879883,-13.340999603271484 50,-6.829999923706055 50,0 C50,27.61400032043457 27.61400032043457,50 0,50 C-17.402999877929688,50 -32.729000091552734,41.10900115966797 -41.683998107910156,27.621999740600586 C-46.93899917602539,19.70800018310547 38.60599899291992,-37.319000244140625 46.1510009765625,-19.27199935913086z" fill-opacity="1" fill="rgb(94,94,94)"></path></g></g></g></g></svg>