<svg style="width: 100%; height: 100%; transform: translate3d(0px, 0px, 0px);" preserveAspectRatio="xMidYMid meet" height="135" width="135" viewBox="0 0 135 135" xmlns="http://www.w3.org/2000/svg"><defs><clipPath id="__lottie_element_10639"><rect y="0" x="0" height="135" width="135"></rect></clipPath><clipPath id="__lottie_element_10641"><path d="M0,0 L540,0 L540,540 L0,540z"></path></clipPath><clipPath id="__lottie_element_10646"><path fill-opacity="1" d="M-126.5,-0.03099999949336052 C-126.5,-0.03099999949336052 -126.5,106.46900177001953 -126.5,106.46900177001953 C-126.5,106.46900177001953 -81.93800354003906,108.96900177001953 0.125,91.96900177001953 C68.40799713134766,77.8239974975586 125.5,106.46900177001953 125.5,106.46900177001953 C125.5,106.46900177001953 125.5,-0.06199999898672104 125.5,-0.06199999898672104 C125.5,-0.06199999898672104 1.75,-0.04699999839067459 1.75,-0.04699999839067459 C1.75,-0.04699999839067459 -126.5,-0.03099999949336052 -126.5,-0.03099999949336052" clip-rule="nonzero" fill="#ffffff"></path></clipPath><clipPath id="__lottie_element_10654"><path fill-opacity="1" d="M-126.1240005493164,133.96600341796875 C-126.1240005493164,133.96600341796875 -126,194.72900390625 -126,194.72900390625 C-126,194.72900390625 -76.25,199.5 1,169.5540008544922 C65.78399658203125,144.4409942626953 125.5,178.72900390625 125.5,178.72900390625 C125.5,178.72900390625 126,131.93800354003906 126,131.93800354003906 C126,131.93800354003906 67.9000015258789,101.677001953125 -0.3109999895095825,85.9520034790039 C-52.154998779296875,74 -126.1240005493164,133.96600341796875 -126.1240005493164,133.96600341796875" clip-rule="nonzero" fill="#ffffff"></path></clipPath></defs><g clip-path="url(#__lottie_element_10639)"><g style="display: block;" opacity="1" transform="matrix(0.25,0,0,0.25,0,0)" clip-path="url(#__lottie_element_10641)"><g style="display: block;" opacity="1" transform="matrix(0.9995282292366028,0.03071296401321888,0.03071296401321888,-0.9995282292366028,270,268)"><g transform="matrix(4,0,0,4,0,0)" opacity="1"><path d="M-8.479999542236328,2.559999942779541 C-6,0.8500000238418579 -5.929999828338623,-0.7799999713897705 -8.510000228881836,-2.5199999809265137 C-8.649999618530273,-2.609999895095825 -8.75,-2.700000047683716 -8.829999923706055,-2.7799999713897705 C-17.770000457763672,-8.369999885559082 -23.5,-18.270000457763672 -23.5,-29.25 C-23.5,-29.25 -23.5,-34 -23.5,-34 C-23.5,-34 23.5,-34 23.5,-34 C23.5,-34 23.5,-29.25 23.5,-29.25 C23.5,-18.260000228881836 17.760000228881836,-8.350000381469727 8.8100004196167,-2.759999990463257 C8.729999542236328,-2.690000057220459 8.630000114440918,-2.609999895095825 8.5,-2.5199999809265137 C5.940000057220459,-0.7900000214576721 5.989999771118164,0.8299999833106995 8.40999984741211,2.509999990463257 C17.59000015258789,8.0600004196167 23.5,18.100000381469727 23.5,29.25 C23.5,29.25 23.5,34 23.5,34 C23.5,34 -23.5,34 -23.5,34 C-23.5,34 -23.5,29.25 -23.5,29.25 C-23.5,18.1299991607666 -17.6200008392334,8.109999656677246 -8.479999542236328,2.559999942779541 C-8.479999542236328,2.559999942779541 -8.479999542236328,2.559999942779541 -8.479999542236328,2.559999942779541z" fill-opacity="0.62" fill="rgb(255,255,255)"></path></g></g><g style="display: block;" opacity="1" transform="matrix(1,0,0,1,270,270)"><g transform="matrix(1,0,0,1,0,0)" opacity="1"><path d="M0.03099999949336052,96.5 C0.03099999949336052,96.5 0.03099999949336052,4.821000099182129 0.03099999949336052,4.821000099182129 C0.03099999949336052,4.821000099182129 0.03099999949336052,-49 0.03099999949336052,-49" stroke-width="18" stroke-opacity="1" stroke="rgb(255,255,255)" stroke-miterlimit="4" fill-opacity="0" stroke-linejoin="miter" stroke-linecap="round"></path></g></g><g style="display: block;" opacity="1" transform="matrix(1,0,0,-1,270,268)" clip-path="url(#__lottie_element_10646)"><g transform="matrix(4,0,0,4,0,0)" opacity="1"><path d="M7.559999942779541,-7.389999866485596 C0.3400000035762787,-2.0299999713897705 0.30000001192092896,2.049999952316284 7.449999809265137,7.320000171661377 C14.210000038146973,11.800000190734863 18.5,19.459999084472656 18.5,27.90999984741211 C18.5,27.90999984741211 18.5,34 18.5,34 C18.5,34 -18.5,34 -18.5,34 C-18.5,34 -18.5,27.90999984741211 -18.5,27.90999984741211 C-18.5,19.5 -14.25,11.880000114440918 -7.550000190734863,7.389999866485596 C-0.2800000011920929,2.059999942779541 -0.3100000023841858,-2.0399999618530273 -7.659999847412109,-7.46999979019165 C-14.300000190734863,-11.970000267028809 -18.5,-19.549999237060547 -18.5,-27.90999984741211 C-18.5,-27.90999984741211 -18.5,-34 -18.5,-34 C-18.5,-34 18.5,-34 18.5,-34 C18.5,-34 18.5,-27.90999984741211 18.5,-27.90999984741211 C18.5,-19.5 14.25,-11.880000114440918 7.559999942779541,-7.389999866485596 C7.559999942779541,-7.389999866485596 7.559999942779541,-7.389999866485596 7.559999942779541,-7.389999866485596z" fill-opacity="1" fill="rgb(255,255,255)"></path></g></g><g style="display: block;" opacity="1" transform="matrix(1,0,0,1,270,268)" clip-path="url(#__lottie_element_10654)"><g transform="matrix(4,0,0,4,0,0)" opacity="1"><path d="M7.559999942779541,-7.389999866485596 C0.3400000035762787,-2.0299999713897705 0.30000001192092896,2.049999952316284 7.449999809265137,7.320000171661377 C14.210000038146973,11.800000190734863 18.5,19.459999084472656 18.5,27.90999984741211 C18.5,27.90999984741211 18.5,34 18.5,34 C18.5,34 -18.5,34 -18.5,34 C-18.5,34 -18.5,27.90999984741211 -18.5,27.90999984741211 C-18.5,19.5 -14.25,11.880000114440918 -7.550000190734863,7.389999866485596 C-0.2800000011920929,2.059999942779541 -0.3100000023841858,-2.0399999618530273 -7.659999847412109,-7.46999979019165 C-14.300000190734863,-11.970000267028809 -18.5,-19.549999237060547 -18.5,-27.90999984741211 C-18.5,-27.90999984741211 -18.5,-34 -18.5,-34 C-18.5,-34 18.5,-34 18.5,-34 C18.5,-34 18.5,-27.90999984741211 18.5,-27.90999984741211 C18.5,-19.5 14.25,-11.880000114440918 7.559999942779541,-7.389999866485596 C7.559999942779541,-7.389999866485596 7.559999942779541,-7.389999866485596 7.559999942779541,-7.389999866485596z" fill-opacity="1" fill="rgb(255,255,255)"></path></g></g><g style="display: block;" opacity="1" transform="matrix(1,0,0,-1,270,415)"><g transform="matrix(4,0,0,4,0,0)" opacity="1"><path d="M-29.5,-4.5 C-29.5,-4.5 29.5,-4.5 29.5,-4.5 C30.600000381469727,-4.5 31.5,-3.5999999046325684 31.5,-2.5 C31.5,-2.5 31.5,2.5 31.5,2.5 C31.5,3.5999999046325684 30.600000381469727,4.5 29.5,4.5 C29.5,4.5 -29.5,4.5 -29.5,4.5 C-30.600000381469727,4.5 -31.5,3.5999999046325684 -31.5,2.5 C-31.5,2.5 -31.5,-2.5 -31.5,-2.5 C-31.5,-3.5999999046325684 -30.600000381469727,-4.5 -29.5,-4.5z" fill-opacity="1" fill="rgb(154,77,35)"></path></g></g><g style="display: block;" opacity="1" transform="matrix(1,0,0,-1,270,121)"><g transform="matrix(4,0,0,4,0,0)" opacity="1"><path d="M-29.5,-4.5 C-29.5,-4.5 29.5,-4.5 29.5,-4.5 C30.600000381469727,-4.5 31.5,-3.5999999046325684 31.5,-2.5 C31.5,-2.5 31.5,2.5 31.5,2.5 C31.5,3.5999999046325684 30.600000381469727,4.5 29.5,4.5 C29.5,4.5 -29.5,4.5 -29.5,4.5 C-30.600000381469727,4.5 -31.5,3.5999999046325684 -31.5,2.5 C-31.5,2.5 -31.5,-2.5 -31.5,-2.5 C-31.5,-3.5999999046325684 -30.600000381469727,-4.5 -29.5,-4.5z" fill-opacity="1" fill="rgb(154,77,35)"></path></g></g></g></g></svg>