<svg style="width: 100%; height: 100%; transform: translate3d(0px, 0px, 0px);" preserveAspectRatio="xMidYMid meet" height="135" width="135" viewBox="0 0 135 135" xmlns="http://www.w3.org/2000/svg"><defs><clipPath id="__lottie_element_11082"><rect y="0" x="0" height="135" width="135"></rect></clipPath><clipPath id="__lottie_element_11084"><path d="M0,0 L540,0 L540,540 L0,540z"></path></clipPath><clipPath id="__lottie_element_11089"><path d="M0,0 L540,0 L540,540 L0,540z"></path></clipPath><clipPath id="__lottie_element_11101"><path d="M0,0 L540,0 L540,540 L0,540z"></path></clipPath><clipPath id="__lottie_element_11115"><path d="M0,0 L540,0 L540,540 L0,540z"></path></clipPath><clipPath id="__lottie_element_11127"><path d="M0,0 L540,0 L540,540 L0,540z"></path></clipPath></defs><g clip-path="url(#__lottie_element_11082)"><g style="display: block;" opacity="1" transform="matrix(0.25,0,0,0.25,0,0)" clip-path="url(#__lottie_element_11084)"><g style="display: block;" opacity="1" transform="matrix(0.9999999403953552,0.0003316125657875091,-0.0003316125657875091,0.9999999403953552,0.08953857421875,-0.089508056640625)" clip-path="url(#__lottie_element_11115)"><g style="display: block;" opacity="1" transform="matrix(1,0,0,1,270,264)"><g transform="matrix(4,0,0,4,0,0)" opacity="1"><path d="M16.5,37 C16.5,37 16.5,1.5 16.5,1.5 C16.5,-7.610000133514404 9.109999656677246,-15 0,-15 C-9.109999656677246,-15 -16.5,-7.610000133514404 -16.5,1.5 C-16.5,1.5 -16.5,37 -16.5,37 C-16.5,38.099998474121094 -17.399999618530273,39 -18.5,39 C-18.5,39 -37.5,39 -37.5,39 C-38.599998474121094,39 -39.5,38.099998474121094 -39.5,37 C-39.5,37 -39.5,0.5 -39.5,0.5 C-39.5,-21.31999969482422 -21.81999969482422,-39 0,-39 C21.81999969482422,-39 39.5,-21.31999969482422 39.5,0.5 C39.5,0.5 39.5,37 39.5,37 C39.5,38.099998474121094 38.599998474121094,39 37.5,39 C37.5,39 18.5,39 18.5,39 C17.399999618530273,39 16.5,38.099998474121094 16.5,37z" fill-opacity="1" fill="rgb(205,31,31)"></path></g></g><g style="display: block;" opacity="1" transform="matrix(1,0,0,1,158,381)"><g transform="matrix(4,0,0,4,0,0)" opacity="1"><path d="M-11.5,-10 C-11.5,-10 11.5,-10 11.5,-10 C11.5,-10 11.5,8 11.5,8 C11.5,9.100000381469727 10.600000381469727,10 9.5,10 C9.5,10 -9.5,10 -9.5,10 C-10.600000381469727,10 -11.5,9.100000381469727 -11.5,8 C-11.5,8 -11.5,-10 -11.5,-10z" fill-opacity="1" fill="rgb(215,215,215)"></path></g></g><g style="display: block;" opacity="1" transform="matrix(1,0,0,1,382,381)"><g transform="matrix(4,0,0,4,0,0)" opacity="1"><path d="M-11.5,-10 C-11.5,-10 11.5,-10 11.5,-10 C11.5,-10 11.5,8 11.5,8 C11.5,9.100000381469727 10.600000381469727,10 9.5,10 C9.5,10 -9.5,10 -9.5,10 C-10.600000381469727,10 -11.5,9.100000381469727 -11.5,8 C-11.5,8 -11.5,-10 -11.5,-10z" fill-opacity="1" fill="rgb(215,215,215)"></path></g></g></g><g style="display: block;" opacity="1" transform="matrix(-0.9999999403953552,-0.0003316125657875091,0.0003316125657875091,-0.9999999403953552,539.7645263671875,980.0894775390625)" clip-path="url(#__lottie_element_11127)"><g style="display: block;" opacity="1" transform="matrix(1,0,0,1,270,264)"><g transform="matrix(4,0,0,4,0,0)" opacity="1"><path d="M16.5,37 C16.5,37 16.5,1.5 16.5,1.5 C16.5,-7.610000133514404 9.109999656677246,-15 0,-15 C-9.109999656677246,-15 -16.5,-7.610000133514404 -16.5,1.5 C-16.5,1.5 -16.5,37 -16.5,37 C-16.5,38.099998474121094 -17.399999618530273,39 -18.5,39 C-18.5,39 -37.5,39 -37.5,39 C-38.599998474121094,39 -39.5,38.099998474121094 -39.5,37 C-39.5,37 -39.5,0.5 -39.5,0.5 C-39.5,-21.31999969482422 -21.81999969482422,-39 0,-39 C21.81999969482422,-39 39.5,-21.31999969482422 39.5,0.5 C39.5,0.5 39.5,37 39.5,37 C39.5,38.099998474121094 38.599998474121094,39 37.5,39 C37.5,39 18.5,39 18.5,39 C17.399999618530273,39 16.5,38.099998474121094 16.5,37z" fill-opacity="1" fill="rgb(205,31,31)"></path></g></g><g style="display: block;" opacity="1" transform="matrix(1,0,0,1,158,381)"><g transform="matrix(4,0,0,4,0,0)" opacity="1"><path d="M-11.5,-10 C-11.5,-10 11.5,-10 11.5,-10 C11.5,-10 11.5,8 11.5,8 C11.5,9.100000381469727 10.600000381469727,10 9.5,10 C9.5,10 -9.5,10 -9.5,10 C-10.600000381469727,10 -11.5,9.100000381469727 -11.5,8 C-11.5,8 -11.5,-10 -11.5,-10z" fill-opacity="1" fill="rgb(215,215,215)"></path></g></g><g style="display: block;" opacity="1" transform="matrix(1,0,0,1,382,381)"><g transform="matrix(4,0,0,4,0,0)" opacity="1"><path d="M-11.5,-10 C-11.5,-10 11.5,-10 11.5,-10 C11.5,-10 11.5,8 11.5,8 C11.5,9.100000381469727 10.600000381469727,10 9.5,10 C9.5,10 -9.5,10 -9.5,10 C-10.600000381469727,10 -11.5,9.100000381469727 -11.5,8 C-11.5,8 -11.5,-10 -11.5,-10z" fill-opacity="1" fill="rgb(215,215,215)"></path></g></g></g><g style="display: none;" clip-path="url(#__lottie_element_11089)"><g style="display: none;"><g><path></path></g></g><g style="display: none;"><g><path></path></g></g><g style="display: none;"><g><path></path></g></g></g><g style="display: none;" clip-path="url(#__lottie_element_11101)"><g style="display: none;"><g><path></path></g></g><g style="display: none;"><g><path></path></g></g><g style="display: none;"><g><path></path></g></g></g></g></g></svg>