<svg style="width: 100%; height: 100%; transform: translate3d(0px, 0px, 0px);" preserveAspectRatio="xMidYMid meet" height="135" width="135" viewBox="0 0 135 135" xmlns="http://www.w3.org/2000/svg"><defs><clipPath id="__lottie_element_10184"><rect y="0" x="0" height="135" width="135"></rect></clipPath><clipPath id="__lottie_element_10186"><path d="M0,0 L540,0 L540,540 L0,540z"></path></clipPath><clipPath id="__lottie_element_10193"><path d="M0,0 L750,0 L750,1334 L0,1334z"></path></clipPath><clipPath id="__lottie_element_10201"><path d="M0,0 L750,0 L750,1334 L0,1334z"></path></clipPath><clipPath id="__lottie_element_10209"><path d="M0,0 L750,0 L750,1334 L0,1334z"></path></clipPath><clipPath id="__lottie_element_10217"><path d="M0,0 L750,0 L750,1334 L0,1334z"></path></clipPath><clipPath id="__lottie_element_10225"><path d="M0,0 L540,0 L540,540 L0,540z"></path></clipPath><clipPath id="__lottie_element_10232"><path d="M0,0 L750,0 L750,1334 L0,1334z"></path></clipPath><clipPath id="__lottie_element_10240"><path d="M0,0 L750,0 L750,1334 L0,1334z"></path></clipPath><clipPath id="__lottie_element_10248"><path d="M0,0 L750,0 L750,1334 L0,1334z"></path></clipPath><clipPath id="__lottie_element_10256"><path d="M0,0 L750,0 L750,1334 L0,1334z"></path></clipPath></defs><g clip-path="url(#__lottie_element_10184)"><g style="display: none;" clip-path="url(#__lottie_element_10225)"><g style="display: none;" clip-path="url(#__lottie_element_10256)"><g style="display: none;"><g><path></path></g></g></g><g style="display: none;" clip-path="url(#__lottie_element_10248)"><g style="display: none;"><g><path></path></g></g></g><g style="display: none;" clip-path="url(#__lottie_element_10240)"><g style="display: none;"><g><path></path></g></g></g><g style="display: none;" clip-path="url(#__lottie_element_10232)"><g style="display: none;"><g><path></path></g></g></g></g><g style="display: block;" opacity="1" transform="matrix(0.25,0,0,0.25,0,0)" clip-path="url(#__lottie_element_10186)"><g style="display: block;" opacity="1" transform="matrix(0.7200000286102295,0,0,0.7200000286102295,-0.000010728836059570312,-0.000010728836059570312)" clip-path="url(#__lottie_element_10217)"><g style="display: block;" opacity="1" transform="matrix(1,0,0,1,439.1440124511719,428.2720031738281)"><g transform="matrix(9.868419647216797,0,0,9.868419647216797,0,0)" opacity="1"><path d="M0.9599999785423279,8.482000350952148 C0.9599999785423279,8.482000350952148 -9.100000381469727,8.482000350952148 -9.100000381469727,8.482000350952148 C-12.630000114440918,8.482000350952148 -15.5,5.611999988555908 -15.5,2.0820000171661377 C-15.5,2.0820000171661377 -15.5,-7.998000144958496 -15.5,-7.998000144958496 C-15.5,-11.527999877929688 -12.630000114440918,-14.39799976348877 -9.100000381469727,-14.39799976348877 C-9.100000381469727,-14.39799976348877 9.100000381469727,-14.39799976348877 9.100000381469727,-14.39799976348877 C12.630000114440918,-14.39799976348877 15.5,-11.527999877929688 15.5,-7.998000144958496 C15.5,-7.998000144958496 15.5,2.0820000171661377 15.5,2.0820000171661377 C15.5,5.291999816894531 13.140000343322754,7.941999912261963 10.0600004196167,8.411999702453613 C10.0600004196167,8.411999702453613 10.0600004196167,12.402000427246094 10.0600004196167,12.402000427246094 C10.0600004196167,13.501999855041504 9.15999984741211,14.402000427246094 8.0600004196167,14.402000427246094 C7.550000190734863,14.402000427246094 7.059999942779541,14.20199966430664 6.690000057220459,13.862000465393066 C6.690000057220459,13.862000465393066 0.9599999785423279,8.482000350952148 0.9599999785423279,8.482000350952148z" fill-opacity="1" fill="rgb(255,255,255)"></path></g></g></g><g style="display: block;" opacity="1" transform="matrix(-0.7200000286102295,0,0,0.7200000286102295,483.1199951171875,-0.000010728836059570312)" clip-path="url(#__lottie_element_10209)"><g style="display: block;" opacity="0.6" transform="matrix(0.8999999761581421,0,0,0.8999999761581421,382.0860290527344,325.9510192871094)"><g transform="matrix(9.868419647216797,0,0,9.868419647216797,0,0)" opacity="1"><path d="M0.9599999785423279,8.482000350952148 C0.9599999785423279,8.482000350952148 -9.100000381469727,8.482000350952148 -9.100000381469727,8.482000350952148 C-12.630000114440918,8.482000350952148 -15.5,5.611999988555908 -15.5,2.0820000171661377 C-15.5,2.0820000171661377 -15.5,-7.998000144958496 -15.5,-7.998000144958496 C-15.5,-11.527999877929688 -12.630000114440918,-14.39799976348877 -9.100000381469727,-14.39799976348877 C-9.100000381469727,-14.39799976348877 9.100000381469727,-14.39799976348877 9.100000381469727,-14.39799976348877 C12.630000114440918,-14.39799976348877 15.5,-11.527999877929688 15.5,-7.998000144958496 C15.5,-7.998000144958496 15.5,2.0820000171661377 15.5,2.0820000171661377 C15.5,5.291999816894531 13.140000343322754,7.941999912261963 10.0600004196167,8.411999702453613 C10.0600004196167,8.411999702453613 10.0600004196167,12.402000427246094 10.0600004196167,12.402000427246094 C10.0600004196167,13.501999855041504 9.15999984741211,14.402000427246094 8.0600004196167,14.402000427246094 C7.550000190734863,14.402000427246094 7.059999942779541,14.20199966430664 6.690000057220459,13.862000465393066 C6.690000057220459,13.862000465393066 0.9599999785423279,8.482000350952148 0.9599999785423279,8.482000350952148z" fill-opacity="1" fill="rgb(255,255,255)"></path></g></g></g><g style="display: block;" opacity="1" transform="matrix(-0.7200000286102295,0,0,0.7200000286102295,483.1199951171875,-0.000010728836059570312)" clip-path="url(#__lottie_element_10201)"><g style="display: none;" opacity="0.9824671086101454" transform="matrix(0.6850112080574036,0,0,0.6850112080574036,464.1597900390625,461.7211608886719)"><g transform="matrix(9.868419647216797,0,0,9.868419647216797,0,0)" opacity="1"><path d="M0.9599999785423279,8.482000350952148 C0.9599999785423279,8.482000350952148 -9.100000381469727,8.482000350952148 -9.100000381469727,8.482000350952148 C-12.630000114440918,8.482000350952148 -15.5,5.611999988555908 -15.5,2.0820000171661377 C-15.5,2.0820000171661377 -15.5,-7.998000144958496 -15.5,-7.998000144958496 C-15.5,-11.527999877929688 -12.630000114440918,-14.39799976348877 -9.100000381469727,-14.39799976348877 C-9.100000381469727,-14.39799976348877 9.100000381469727,-14.39799976348877 9.100000381469727,-14.39799976348877 C12.630000114440918,-14.39799976348877 15.5,-11.527999877929688 15.5,-7.998000144958496 C15.5,-7.998000144958496 15.5,2.0820000171661377 15.5,2.0820000171661377 C15.5,5.291999816894531 13.140000343322754,7.941999912261963 10.0600004196167,8.411999702453613 C10.0600004196167,8.411999702453613 10.0600004196167,12.402000427246094 10.0600004196167,12.402000427246094 C10.0600004196167,13.501999855041504 9.15999984741211,14.402000427246094 8.0600004196167,14.402000427246094 C7.550000190734863,14.402000427246094 7.059999942779541,14.20199966430664 6.690000057220459,13.862000465393066 C6.690000057220459,13.862000465393066 0.9599999785423279,8.482000350952148 0.9599999785423279,8.482000350952148z" fill-opacity="1" fill="rgb(255,255,255)"></path></g></g></g><g style="display: none;" clip-path="url(#__lottie_element_10193)"><g style="display: none;"><g><path></path></g></g></g></g></g></svg>