<svg style="width: 100%; height: 100%; transform: translate3d(0px, 0px, 0px);" preserveAspectRatio="xMidYMid meet" height="135" width="135" viewBox="0 0 135 135" xmlns="http://www.w3.org/2000/svg"><defs><clipPath id="__lottie_element_8212"><rect y="0" x="0" height="135" width="135"></rect></clipPath><clipPath id="__lottie_element_8214"><path d="M0,0 L540,0 L540,540 L0,540z"></path></clipPath></defs><g clip-path="url(#__lottie_element_8212)"><g style="display: block;" opacity="1" transform="matrix(0.25,0,0,0.25,0,0)" clip-path="url(#__lottie_element_8214)"><g style="display: block;" opacity="1" transform="matrix(1,0,0,1,270,250)"><g transform="matrix(4,0,0,4,0,0)" opacity="1"><path d="M-1,-33.5 C-1,-33.5 1,-33.5 1,-33.5 C18.399999618530273,-33.5 32.5,-19.399999618530273 32.5,-2 C32.5,-2 32.5,33.5 32.5,33.5 C32.5,33.5 -32.5,33.5 -32.5,33.5 C-32.5,33.5 -32.5,-2 -32.5,-2 C-32.5,-19.399999618530273 -18.399999618530273,-33.5 -1,-33.5z" fill-opacity="1" fill="rgb(54,54,54)"></path></g></g><g style="display: block;" opacity="1" transform="matrix(1,0,0,1,270,358)"><g transform="matrix(4,0,0,4,0,0)" opacity="1"><path d="M-23.90999984741211,-17.5 C-23.90999984741211,-17.5 23.90999984741211,-17.5 23.90999984741211,-17.5 C34.18000030517578,-17.5 42.5,-9.6899995803833 42.5,-0.05000000074505806 C42.5,-0.05000000074505806 42.5,0.05000000074505806 42.5,0.05000000074505806 C42.5,9.6899995803833 34.18000030517578,17.5 23.90999984741211,17.5 C23.90999984741211,17.5 -23.90999984741211,17.5 -23.90999984741211,17.5 C-34.18000030517578,17.5 -42.5,9.6899995803833 -42.5,0.05000000074505806 C-42.5,0.05000000074505806 -42.5,-0.05000000074505806 -42.5,-0.05000000074505806 C-42.5,-9.6899995803833 -34.18000030517578,-17.5 -23.90999984741211,-17.5z" fill-opacity="1" fill="rgb(54,54,54)"></path></g></g><g style="display: block;" opacity="1" transform="matrix(1,0,0,1,164,268)"><g transform="matrix(4,0,0,4,0,0)" opacity="1"><path d="M0,10 C5.519999980926514,10 10,5.519999980926514 10,0 C10,-5.519999980926514 5.519999980926514,-10 0,-10 C-5.519999980926514,-10 -10,-5.519999980926514 -10,0 C-10,5.519999980926514 -5.519999980926514,10 0,10z" fill-opacity="1" fill="rgb(165,102,68)"></path></g></g><g style="display: block;" opacity="1" transform="matrix(1,0,0,1,376,268)"><g transform="matrix(4,0,0,4,0,0)" opacity="1"><path d="M0,10 C5.519999980926514,10 10,5.519999980926514 10,0 C10,-5.519999980926514 5.519999980926514,-10 0,-10 C-5.519999980926514,-10 -10,-5.519999980926514 -10,0 C-10,5.519999980926514 -5.519999980926514,10 0,10z" fill-opacity="1" fill="rgb(165,102,68)"></path></g></g><g style="display: block;" opacity="1" transform="matrix(1,0,0,1,268,276)"><g transform="matrix(4,0,0,4,0,0)" opacity="1"><path d="M0,-34 C15.460000038146973,-34 28,-21.639999389648438 28,-6.400000095367432 C28,-5.53000020980835 27.959999084472656,-4.650000095367432 27.8700008392334,-3.7799999713897705 C27.8700008392334,-3.7799999713897705 26.520000457763672,10.239999771118164 26.520000457763672,10.239999771118164 C25.219999313354492,23.709999084472656 13.729999542236328,34 0,34 C-13.729999542236328,34 -25.209999084472656,23.709999084472656 -26.520000457763672,10.239999771118164 C-26.520000457763672,10.239999771118164 -27.8700008392334,-3.7799999713897705 -27.8700008392334,-3.7799999713897705 C-29.34000015258789,-18.959999084472656 -18.049999237060547,-32.43000030517578 -2.6600000858306885,-33.880001068115234 C-1.7699999809265137,-33.959999084472656 -0.8899999856948853,-34 0,-34z" fill-opacity="1" fill="rgb(165,102,68)"></path></g></g><g style="display: block;" opacity="1" transform="matrix(1,0,0,1,238,244)"><g transform="matrix(4,0,0,4,0,0)" opacity="1"><path d="M-0.009999999776482582,-6 C-0.009999999776482582,-6 0.009999999776482582,-6 0.009999999776482582,-6 C1.940000057220459,-6 3.5,-4.480000019073486 3.5,-2.5899999141693115 C3.5,-2.5899999141693115 3.5,2.5899999141693115 3.5,2.5899999141693115 C3.5,4.480000019073486 1.940000057220459,6 0.009999999776482582,6 C0.009999999776482582,6 -0.009999999776482582,6 -0.009999999776482582,6 C-1.940000057220459,6 -3.5,4.480000019073486 -3.5,2.5899999141693115 C-3.5,2.5899999141693115 -3.5,-2.5899999141693115 -3.5,-2.5899999141693115 C-3.5,-4.480000019073486 -1.940000057220459,-6 -0.009999999776482582,-6z" fill-opacity="1" fill="rgb(123,72,45)"></path></g></g><g style="display: block;" opacity="1" transform="matrix(1,0,0,1,298,244)"><g transform="matrix(4,0,0,4,0,0)" opacity="1"><path d="M-0.009999999776482582,-6 C-0.009999999776482582,-6 0.009999999776482582,-6 0.009999999776482582,-6 C1.940000057220459,-6 3.5,-4.480000019073486 3.5,-2.5899999141693115 C3.5,-2.5899999141693115 3.5,2.5899999141693115 3.5,2.5899999141693115 C3.5,4.480000019073486 1.940000057220459,6 0.009999999776482582,6 C0.009999999776482582,6 -0.009999999776482582,6 -0.009999999776482582,6 C-1.940000057220459,6 -3.5,4.480000019073486 -3.5,2.5899999141693115 C-3.5,2.5899999141693115 -3.5,-2.5899999141693115 -3.5,-2.5899999141693115 C-3.5,-4.480000019073486 -1.940000057220459,-6 -0.009999999776482582,-6 C-0.009999999776482582,-6 -0.009999999776482582,-6 -0.009999999776482582,-6z" fill-opacity="1" fill="rgb(123,72,45)"></path></g></g><g style="display: none;" opacity="1" transform="matrix(1.0150270462036133,0,0,0.9849730134010315,257.3421936035156,243.56961059570312)"><g transform="matrix(1,0,0,1,0,0)" opacity="1"><path d="M16.64699935913086,5.4079999923706055 C14.366000175476074,12.42300033569336 7.770999908447266,17.5 0,17.5 C-7.770999908447266,17.5 -14.366000175476074,12.42300033569336 -16.64699935913086,5.4079999923706055" stroke-width="10" stroke-opacity="1" stroke="rgb(138,82,53)" stroke-miterlimit="4" fill-opacity="0" stroke-linejoin="miter" stroke-linecap="round"></path></g><g transform="matrix(1,0,0,1,60.78099822998047,0)" opacity="1"><path d="M16.64699935913086,5.4079999923706055 C14.366000175476074,12.42300033569336 7.770999908447266,17.5 0,17.5 C-7.770999908447266,17.5 -14.366000175476074,12.42300033569336 -16.64699935913086,5.4079999923706055" stroke-width="10" stroke-opacity="1" stroke="rgb(138,82,53)" stroke-miterlimit="4" fill-opacity="0" stroke-linejoin="miter" stroke-linecap="round"></path></g></g><g style="display: block;" opacity="1" transform="matrix(1,0,0,1,267.7040100097656,258.75)"><path d="M26.099000930786133,39.16400146484375 C18.93000030517578,45.94599914550781 9.859000205993652,50 0,50 C-9.859000205993652,50 -18.93000030517578,45.94599914550781 -26.099000930786133,39.16400146484375" stroke-width="12" stroke-opacity="1" stroke="rgb(138,82,53)" stroke-miterlimit="4" fill-opacity="0" stroke-linejoin="miter" stroke-linecap="round"></path></g><g style="display: block;" opacity="1" transform="matrix(1,0,0,1,194,166)"><g transform="matrix(4,0,0,4,0,0)" opacity="1"><path d="M0,22.5 C12.430000305175781,22.5 22.5,12.430000305175781 22.5,0 C22.5,-12.430000305175781 12.430000305175781,-22.5 0,-22.5 C-12.430000305175781,-22.5 -22.5,-12.430000305175781 -22.5,0 C-22.5,12.430000305175781 -12.430000305175781,22.5 0,22.5z" fill-opacity="1" fill="rgb(54,54,54)"></path></g></g><g style="display: none;" opacity="1" transform="matrix(1.0399999618530273,0,0,0.9599999785423279,256.9742736816406,306.3999938964844)"><path d="M0,-12 C6.622799873352051,-12 12,-6.622799873352051 12,0 C12,6.622799873352051 6.622799873352051,12 0,12 C-6.622799873352051,12 -12,6.622799873352051 -12,0 C-12,-6.622799873352051 -6.622799873352051,-12 0,-12z" fill-opacity="1" fill="rgb(123,72,45)"></path></g></g></g></svg>