<svg style="width: 100%; height: 100%; transform: translate3d(0px, 0px, 0px);" preserveAspectRatio="xMidYMid meet" height="135" width="135" viewBox="0 0 135 135" xmlns="http://www.w3.org/2000/svg"><defs><clipPath id="__lottie_element_11362"><rect y="0" x="0" height="135" width="135"></rect></clipPath><clipPath id="__lottie_element_11364"><path d="M0,0 L540,0 L540,540 L0,540z"></path></clipPath><clipPath id="__lottie_element_11371"><path d="M0,0 L540,0 L540,540 L0,540z"></path></clipPath></defs><g clip-path="url(#__lottie_element_11362)"><g style="display: block;" opacity="1" transform="matrix(0.25,0,0,0.25,0,0)" clip-path="url(#__lottie_element_11364)"><g style="display: block;" opacity="1" transform="matrix(1,0,0,1,-1.3732527494430542,-0.7980255484580994)" clip-path="url(#__lottie_element_11371)"><g style="display: block;" opacity="1" transform="matrix(1,0,0,1,228.86199951171875,348.1340026855469)"><g transform="matrix(4,0,0,4,0,0)" opacity="1"><path d="M-7.610000133514404,-6.35099983215332 C-7.610000133514404,-6.35099983215332 7.610000133514404,2.0889999866485596 7.610000133514404,2.0889999866485596 C7.610000133514404,2.0889999866485596 -4.119999885559082,6.348999977111816 -4.119999885559082,6.348999977111816 C-4.119999885559082,6.348999977111816 -7.610000133514404,-6.35099983215332 -7.610000133514404,-6.35099983215332z" fill-opacity="1" fill="rgb(150,99,51)"></path></g></g><g style="display: block;" opacity="1" transform="matrix(1,0,0,1,210.48699951171875,385.010986328125)"><g transform="matrix(4,0,0,4,0,0)" opacity="1"><path d="M8.472999572753906,-18.777000427246094 C8.472999572753906,-18.777000427246094 11.902999877929688,-16.867000579833984 11.902999877929688,-16.867000579833984 C13.682999610900879,-15.88700008392334 14.36299991607666,-13.656999588012695 13.42300033569336,-11.847000122070312 C13.42300033569336,-11.847000122070312 -1.5169999599456787,17.202999114990234 -1.5169999599456787,17.202999114990234 C-2.4670000076293945,19.05299949645996 -4.736999988555908,19.783000946044922 -6.586999893188477,18.83300018310547 C-6.626999855041504,18.812999725341797 -6.6570000648498535,18.792999267578125 -6.697000026702881,18.773000717163086 C-6.697000026702881,18.773000717163086 -11.906999588012695,15.883000373840332 -11.906999588012695,15.883000373840332 C-13.72700023651123,14.873000144958496 -14.38700008392334,12.583000183105469 -13.376999855041504,10.762999534606934 C-13.357000350952148,10.722999572753906 -13.336999893188477,10.692999839782715 -13.317000389099121,10.663000106811523 C-13.317000389099121,10.663000106811523 3.4030001163482666,-17.406999588012695 3.4030001163482666,-17.406999588012695 C4.442999839782715,-19.156999588012695 6.683000087738037,-19.756999969482422 8.472999572753906,-18.777000427246094z" fill-opacity="1" fill="rgb(202,133,44)"></path></g></g><g style="display: block;" opacity="1" transform="matrix(1,0,0,1,211.56900024414062,339.4010009765625)"><g transform="matrix(4,0,0,4,0,0)" opacity="1"><path d="M-7.610000133514404,-6.35099983215332 C-7.610000133514404,-6.35099983215332 7.610000133514404,2.0889999866485596 7.610000133514404,2.0889999866485596 C7.610000133514404,2.0889999866485596 -4.119999885559082,6.348999977111816 -4.119999885559082,6.348999977111816 C-4.119999885559082,6.348999977111816 -7.610000133514404,-6.35099983215332 -7.610000133514404,-6.35099983215332z" fill-opacity="1" fill="rgb(202,133,44)"></path></g></g><g style="display: block;" opacity="1" transform="matrix(1,0,0,1,250.58299255371094,363.6159973144531)"><g transform="matrix(4,0,0,4,0,0)" opacity="1"><path d="M9.32699966430664,2.388000011444092 C9.32699966430664,2.388000011444092 -3.2929999828338623,6.1579999923706055 -3.2929999828338623,6.1579999923706055 C-3.2929999828338623,6.1579999923706055 -9.322999954223633,-3.5420000553131104 -9.322999954223633,-3.5420000553131104 C-9.322999954223633,-3.5420000553131104 -6.103000164031982,-6.1620001792907715 -6.103000164031982,-6.1620001792907715 C-6.103000164031982,-6.1620001792907715 9.32699966430664,2.388000011444092 9.32699966430664,2.388000011444092z" fill-opacity="1" fill="rgb(202,133,44)"></path></g></g><g style="display: block;" opacity="1" transform="matrix(1,0,0,1,293.8550109863281,236.82899475097656)"><g transform="matrix(4,0,0,4,0,0)" opacity="1"><path d="M16.746000289916992,-30.20599937438965 C32.125999450683594,-21.68600082397461 37.68600082397461,-2.305999994277954 29.1560001373291,13.074000358581543 C29.1560001373291,13.074000358581543 26.535999298095703,17.79400062561035 26.535999298095703,17.79400062561035 C18.016000747680664,33.17399978637695 -1.3639999628067017,38.73400115966797 -16.743999481201172,30.214000701904297 C-32.124000549316406,21.68400001525879 -37.683998107910156,2.303999900817871 -29.15399932861328,-13.076000213623047 C-29.15399932861328,-13.076000213623047 -26.534000396728516,-17.79599952697754 -26.534000396728516,-17.79599952697754 C-18.013999938964844,-33.17599868774414 1.3660000562667847,-38.736000061035156 16.746000289916992,-30.20599937438965z" fill-opacity="1" fill="rgb(137,232,0)"></path></g></g></g><g style="display: block;" opacity="1" transform="matrix(0.989612340927124,0,0,0.9894030094146729,195.4808807373047,190.8356475830078)"><g transform="matrix(3.498478889465332,1.939238429069519,-1.939238429069519,3.498478889465332,0,0)" opacity="1"><path d="M0.0020000000949949026,17.399999618530273 C9.552000045776367,17.399999618530273 17.302000045776367,9.609999656677246 17.302000045776367,0 C17.302000045776367,-9.609999656677246 9.552000045776367,-17.399999618530273 0.0020000000949949026,-17.399999618530273 C-9.557999610900879,-17.399999618530273 -17.29800033569336,-9.609999656677246 -17.29800033569336,0 C-17.29800033569336,9.609999656677246 -9.557999610900879,17.399999618530273 0.0020000000949949026,17.399999618530273z" fill-opacity="1" fill="rgb(255,255,255)"></path></g></g></g></g></svg>