<svg style="width: 100%; height: 100%; transform: translate3d(0px, 0px, 0px);" preserveAspectRatio="xMidYMid meet" height="135" width="135" viewBox="0 0 135 135" xmlns="http://www.w3.org/2000/svg"><defs><clipPath id="__lottie_element_6896"><rect y="0" x="0" height="135" width="135"></rect></clipPath><clipPath id="__lottie_element_6898"><path d="M0,0 L540,0 L540,540 L0,540z"></path></clipPath><clipPath id="__lottie_element_6902"><path d="M0,0 L540,0 L540,540 L0,540z"></path></clipPath><clipPath id="__lottie_element_6945"><path d="M0,0 L540,0 L540,540 L0,540z"></path></clipPath></defs><g clip-path="url(#__lottie_element_6896)"><g style="display: block;" opacity="1" transform="matrix(0.25,0,0,0.25,0,0)" clip-path="url(#__lottie_element_6898)"><g style="display: block;" opacity="1" transform="matrix(1,0,0,1,0,0)" clip-path="url(#__lottie_element_6945)"><g style="display: block;" opacity="1" transform="matrix(1,0,0,1,270,71)"><path d="M45.066001892089844,-497.4960021972656 C45.066001892089844,-463.4960021972656 45.02299880981445,-216.49600219726562 45.02299880981445,-188.49600219726562 C45.02299880981445,-160.49600219726562 37.5,-121.5 -2.9800000190734863,-121.5 C-50,-121.5 -54.98400115966797,-166.5 -54.98400115966797,-188.5 C-54.98400115966797,-210.5 -54.96900177001953,-467 -54.96900177001953,-502.5 C-54.96900177001953,-526 45.066001892089844,-524.4959716796875 45.066001892089844,-497.4960021972656z" fill-opacity="1" fill="rgb(17,127,178)"></path></g><g style="display: block;" opacity="1" transform="matrix(1.2000000476837158,0,0,1,-933.15185546875,270)"><g transform="matrix(1,0,0,1,0,0)" opacity="1"><path d="M535,39 C535,39 535,-56 535,-56" stroke-width="124" stroke-opacity="1" stroke="rgb(18,127,178)" stroke-miterlimit="4" fill-opacity="0" stroke-linejoin="miter" stroke-linecap="round"></path></g></g><g style="display: block;" opacity="1" transform="matrix(1.2000000476837158,0,0,1,-265.9517822265625,-62)"><path d="M0,-30 C16.55699920654297,-30 30,-16.55699920654297 30,0 C30,16.55699920654297 16.55699920654297,30 0,30 C-16.55699920654297,30 -30,16.55699920654297 -30,0 C-30,-16.55699920654297 -16.55699920654297,-30 0,-30z" fill-opacity="1" fill="rgb(18,127,178)"></path></g><g style="display: block;" opacity="1" transform="matrix(1.2000000476837158,0,0,1,-264.1961975097656,192)"><g transform="matrix(4,0,0,4,0,0)" opacity="1"><path d="M-36,2 C-37.099998474121094,2 -38,1.100000023841858 -38,0 C-38,-1.100000023841858 -37.099998474121094,-2 -36,-2 C-36,-2 36,-2 36,-2 C37.099998474121094,-2 38,-1.100000023841858 38,0 C38,1.100000023841858 37.099998474121094,2 36,2 C36,2 -36,2 -36,2z" fill-opacity="1" fill="rgb(237,237,237)"></path></g></g><g style="display: block;" opacity="1" transform="matrix(1.2000000476837158,0,0,1,-264.3869934082031,279.5329895019531)"><g transform="matrix(4,0,0,4,0,0)" opacity="1"><path d="M28.959999084472656,-29.482999801635742 C28.959999084472656,-29.482999801635742 28.760000228881836,29.336999893188477 28.760000228881836,29.336999893188477 C28.760000228881836,31.19700050354004 27.25,32.707000732421875 25.3799991607666,32.71699905395508 C25.3799991607666,32.71699905395508 -25.559999465942383,32.887001037597656 -25.559999465942383,32.887001037597656 C-27.43000030517578,32.887001037597656 -28.950000762939453,31.37700080871582 -28.959999084472656,29.506999969482422 C-28.959999084472656,29.496999740600586 -28.959999084472656,29.48699951171875 -28.959999084472656,29.476999282836914 C-28.959999084472656,29.476999282836914 -28.760000228881836,-29.33300018310547 -28.760000228881836,-29.33300018310547 C-28.760000228881836,-31.19300079345703 -27.25,-32.702999114990234 -25.3799991607666,-32.7130012512207 C-25.3799991607666,-32.7130012512207 25.559999465942383,-32.882999420166016 25.559999465942383,-32.882999420166016 C27.43000030517578,-32.893001556396484 28.950000762939453,-31.37299919128418 28.959999084472656,-29.503000259399414 C28.959999084472656,-29.493000030517578 28.959999084472656,-29.493000030517578 28.959999084472656,-29.482999801635742z" fill-opacity="1" fill="rgb(216,216,216)"></path></g></g><g style="display: block;" opacity="1" transform="matrix(1.2000000476837158,0,0,1,-264.1961975097656,170)"><g transform="matrix(4,0,0,4,0,0)" opacity="1"><path d="M-29,-2.5 C-29,-2.5 29,-2.5 29,-2.5 C29,-2.5 29,2.5 29,2.5 C29,2.5 -29,2.5 -29,2.5 C-29,2.5 -29,-2.5 -29,-2.5z" fill-opacity="1" fill="rgb(201,201,201)"></path></g></g><g style="display: block;" opacity="1" transform="matrix(1.2000000476837158,0,0,1,-266.59619140625,145.99998474121094)"><g transform="matrix(4,0,0,4,0,0)" opacity="1"><path d="M-29,-3.5 C-29,-3.5 29,-3.5 29,-3.5 C30.93000030517578,-3.5 32.5,-1.9299999475479126 32.5,0 C32.5,1.9299999475479126 30.93000030517578,3.5 29,3.5 C29,3.5 -29,3.5 -29,3.5 C-30.93000030517578,3.5 -32.5,1.9299999475479126 -32.5,0 C-32.5,-1.9299999475479126 -30.93000030517578,-3.5 -29,-3.5z" fill-opacity="1" fill="rgb(237,237,237)"></path></g></g><g style="display: block;" opacity="1" transform="matrix(1.2000000476837158,0,0,1,-266.59619140625,398)"><g transform="matrix(4,0,0,4,0,0)" opacity="1"><path d="M-29,-3.5 C-29,-3.5 29,-3.5 29,-3.5 C30.93000030517578,-3.5 32.5,-1.9299999475479126 32.5,0 C32.5,1.9299999475479126 30.93000030517578,3.5 29,3.5 C29,3.5 -29,3.5 -29,3.5 C-30.93000030517578,3.5 -32.5,1.9299999475479126 -32.5,0 C-32.5,-1.9299999475479126 -30.93000030517578,-3.5 -29,-3.5z" fill-opacity="1" fill="rgb(237,237,237)"></path></g></g><g style="display: none;"><g><path></path></g></g><g style="display: none;"><g><path></path></g></g><g style="display: block;" opacity="1" transform="matrix(1.2000000476837158,0,0,1,-264.1961975097656,266)"><g transform="matrix(4,0,0,4,0,0)" opacity="1"><path d="M-38,-18.5 C-38,-19.600000381469727 -37.099998474121094,-20.5 -36,-20.5 C-34.900001525878906,-20.5 -34,-19.600000381469727 -34,-18.5 C-34,0.8399999737739563 -18.770000457763672,16.5 0,16.5 C18.770000457763672,16.5 34,0.8399999737739563 34,-18.5 C34,-19.600000381469727 34.900001525878906,-20.5 36,-20.5 C37.099998474121094,-20.5 38,-19.600000381469727 38,-18.5 C38,3.0299999713897705 21,20.5 0,20.5 C-21,20.5 -38,3.0299999713897705 -38,-18.5z" fill-opacity="1" fill="rgb(237,237,237)"></path></g></g><g style="display: none;"><g><path></path></g></g><g style="display: none;"><g><path></path></g></g></g><g style="display: block;" opacity="1" transform="matrix(1,0,0,1,0,0)" clip-path="url(#__lottie_element_6902)"><g style="display: none;"><path></path></g><g style="display: none;"><g><path stroke-miterlimit="4" fill-opacity="0" stroke-linejoin="miter" stroke-linecap="round"></path></g></g><g style="display: block;" opacity="1" transform="matrix(1,0,0,1,270,218.99998474121094)"><path d="M0,-30 C16.55699920654297,-30 30,-16.55699920654297 30,0 C30,16.55699920654297 16.55699920654297,30 0,30 C-16.55699920654297,30 -30,16.55699920654297 -30,0 C-30,-16.55699920654297 -16.55699920654297,-30 0,-30z" fill-opacity="1" fill="rgb(18,127,178)"></path></g><g style="display: block;" opacity="1" transform="matrix(1,0,0,1,271.4629821777344,192)"><g transform="matrix(4,0,0,4,0,0)" opacity="1"><path d="M-36,2 C-37.099998474121094,2 -38,1.100000023841858 -38,0 C-38,-1.100000023841858 -37.099998474121094,-2 -36,-2 C-36,-2 36,-2 36,-2 C37.099998474121094,-2 38,-1.100000023841858 38,0 C38,1.100000023841858 37.099998474121094,2 36,2 C36,2 -36,2 -36,2z" fill-opacity="1" fill="rgb(237,237,237)"></path></g></g><g style="display: block;" opacity="1" transform="matrix(1,0,0,1,271.3039855957031,279.5329895019531)"><g transform="matrix(4,0,0,4,0,0)" opacity="1"><path d="M28.959999084472656,-29.482999801635742 C28.959999084472656,-29.482999801635742 28.760000228881836,29.336999893188477 28.760000228881836,29.336999893188477 C28.760000228881836,31.19700050354004 27.25,32.707000732421875 25.3799991607666,32.71699905395508 C25.3799991607666,32.71699905395508 -25.559999465942383,32.887001037597656 -25.559999465942383,32.887001037597656 C-27.43000030517578,32.887001037597656 -28.950000762939453,31.37700080871582 -28.959999084472656,29.506999969482422 C-28.959999084472656,29.496999740600586 -28.959999084472656,29.48699951171875 -28.959999084472656,29.476999282836914 C-28.959999084472656,29.476999282836914 -28.760000228881836,-29.33300018310547 -28.760000228881836,-29.33300018310547 C-28.760000228881836,-31.19300079345703 -27.25,-32.702999114990234 -25.3799991607666,-32.7130012512207 C-25.3799991607666,-32.7130012512207 25.559999465942383,-32.882999420166016 25.559999465942383,-32.882999420166016 C27.43000030517578,-32.893001556396484 28.950000762939453,-31.37299919128418 28.959999084472656,-29.503000259399414 C28.959999084472656,-29.493000030517578 28.959999084472656,-29.493000030517578 28.959999084472656,-29.482999801635742z" fill-opacity="1" fill="rgb(216,216,216)"></path></g></g><g style="display: block;" opacity="1" transform="matrix(1,0,0,1,271.4629821777344,170)"><g transform="matrix(4,0,0,4,0,0)" opacity="1"><path d="M-29,-2.5 C-29,-2.5 29,-2.5 29,-2.5 C29,-2.5 29,2.5 29,2.5 C29,2.5 -29,2.5 -29,2.5 C-29,2.5 -29,-2.5 -29,-2.5z" fill-opacity="1" fill="rgb(201,201,201)"></path></g></g><g style="display: block;" opacity="1" transform="matrix(1,0,0,1,269.4629821777344,145.99998474121094)"><g transform="matrix(4,0,0,4,0,0)" opacity="1"><path d="M-29,-3.5 C-29,-3.5 29,-3.5 29,-3.5 C30.93000030517578,-3.5 32.5,-1.9299999475479126 32.5,0 C32.5,1.9299999475479126 30.93000030517578,3.5 29,3.5 C29,3.5 -29,3.5 -29,3.5 C-30.93000030517578,3.5 -32.5,1.9299999475479126 -32.5,0 C-32.5,-1.9299999475479126 -30.93000030517578,-3.5 -29,-3.5z" fill-opacity="1" fill="rgb(237,237,237)"></path></g></g><g style="display: block;" opacity="1" transform="matrix(1,0,0,1,269.4629821777344,398)"><g transform="matrix(4,0,0,4,0,0)" opacity="1"><path d="M-29,-3.5 C-29,-3.5 29,-3.5 29,-3.5 C30.93000030517578,-3.5 32.5,-1.9299999475479126 32.5,0 C32.5,1.9299999475479126 30.93000030517578,3.5 29,3.5 C29,3.5 -29,3.5 -29,3.5 C-30.93000030517578,3.5 -32.5,1.9299999475479126 -32.5,0 C-32.5,-1.9299999475479126 -30.93000030517578,-3.5 -29,-3.5z" fill-opacity="1" fill="rgb(237,237,237)"></path></g></g><g style="display: block;" opacity="1" transform="matrix(1,0,0,1,269.4629821777344,212)"><g transform="matrix(4,0,0,4,0,0)" opacity="1"><path d="M-10.5,-20 C-10.5,-20 10.5,-20 10.5,-20 C10.5,-20 10.5,9.5 10.5,9.5 C10.5,15.300000190734863 5.800000190734863,20 0,20 C-5.800000190734863,20 -10.5,15.300000190734863 -10.5,9.5 C-10.5,9.5 -10.5,-20 -10.5,-20z" fill-opacity="1" fill="rgb(18,127,178)"></path></g></g><g style="display: block;" opacity="1" transform="matrix(1,0,0,1,217.46298217773438,174)"><g transform="matrix(4,0,0,4,0,0)" opacity="1"><path d="M-7.5,-10.5 C-7.5,-10.5 7.5,-10.5 7.5,-10.5 C7.5,-10.5 7.5,3 7.5,3 C7.5,7.139999866485596 4.139999866485596,10.5 0,10.5 C-4.139999866485596,10.5 -7.5,7.139999866485596 -7.5,3 C-7.5,3 -7.5,-10.5 -7.5,-10.5z" fill-opacity="1" fill="rgb(18,127,178)"></path></g></g><g style="display: block;" opacity="1" transform="matrix(1,0,0,1,271.4629821777344,266)"><g transform="matrix(4,0,0,4,0,0)" opacity="1"><path d="M-38,-18.5 C-38,-19.600000381469727 -37.099998474121094,-20.5 -36,-20.5 C-34.900001525878906,-20.5 -34,-19.600000381469727 -34,-18.5 C-34,0.8399999737739563 -18.770000457763672,16.5 0,16.5 C18.770000457763672,16.5 34,0.8399999737739563 34,-18.5 C34,-19.600000381469727 34.900001525878906,-20.5 36,-20.5 C37.099998474121094,-20.5 38,-19.600000381469727 38,-18.5 C38,3.0299999713897705 21,20.5 0,20.5 C-21,20.5 -38,3.0299999713897705 -38,-18.5z" fill-opacity="1" fill="rgb(237,237,237)"></path></g></g><g style="display: block;" opacity="1" transform="matrix(1,0,0,1,249.46298217773438,170)"><g transform="matrix(4,0,0,4,0,0)" opacity="1"><path d="M-15.5,-2.5 C-15.5,-2.5 15.5,-2.5 15.5,-2.5 C15.5,-2.5 15.5,2.5 15.5,2.5 C15.5,2.5 -15.5,2.5 -15.5,2.5 C-15.5,2.5 -15.5,-2.5 -15.5,-2.5z" fill-opacity="1" fill="rgb(15,109,153)"></path></g></g><g style="display: block;" opacity="1" transform="matrix(1,0,0,1,249.46298217773438,145.99998474121094)"><g transform="matrix(4,0,0,4,0,0)" opacity="1"><path d="M-15.5,-3.5 C-15.5,-3.5 15.5,-3.5 15.5,-3.5 C15.5,-3.5 15.5,3.5 15.5,3.5 C15.5,3.5 -15.5,3.5 -15.5,3.5 C-15.5,3.5 -15.5,-3.5 -15.5,-3.5z" fill-opacity="0.11" fill="rgb(255,255,255)"></path></g></g></g></g></g></svg>