<svg style="width: 100%; height: 100%; transform: translate3d(0px, 0px, 0px);" preserveAspectRatio="xMidYMid meet" height="135" width="135" viewBox="0 0 135 135" xmlns="http://www.w3.org/2000/svg"><defs><clipPath id="__lottie_element_8578"><rect y="0" x="0" height="135" width="135"></rect></clipPath><clipPath id="__lottie_element_8580"><path d="M0,0 L540,0 L540,540 L0,540z"></path></clipPath><clipPath id="__lottie_element_8601"><path d="M0,0 L62,0 L62,62 L0,62z"></path></clipPath></defs><g clip-path="url(#__lottie_element_8578)"><g style="display: block;" opacity="1" transform="matrix(0.25,0,0,0.25,0,0)" clip-path="url(#__lottie_element_8580)"><g style="display: block;" opacity="1" transform="matrix(1,0,0,1,284.93499755859375,348.7099914550781)"><g transform="matrix(4,0,0,4,0,0)" opacity="1"><path d="M-7.577000141143799,-31.32900047302246 C-7.577000141143799,-31.32900047302246 0.43299999833106995,-31.32900047302246 0.43299999833106995,-31.32900047302246 C0.43299999833106995,-31.32900047302246 9.123000144958496,-13.168999671936035 10.012999534606934,3.5810000896453857 C10.378999710083008,10.461999893188477 10.444000244140625,16.371999740600586 10.394000053405762,20.947999954223633 C10.321999549865723,27.511999130249023 6.5320000648498535,31.19700050354004 -0.21799999475479126,31.33099937438965 C-6.7170000076293945,31.459999084472656 -10.111000061035156,27.14699935913086 -9.276000022888184,21.091999053955078 C-8.60200023651123,16.20199966430664 -7.9029998779296875,10.093000411987305 -7.577000141143799,3.9809999465942383 C-6.8470001220703125,-9.689000129699707 -7.577000141143799,-31.32900047302246 -7.577000141143799,-31.32900047302246z" fill-opacity="1" fill="rgb(255,185,96)"></path></g></g><g style="display: block;" opacity="0" transform="matrix(0.8500000238418579,0,0,0.8500000238418579,228.14999389648438,211.14999389648438)" clip-path="url(#__lottie_element_8601)"><g style="display: block;" opacity="1" transform="matrix(1,0,0,1,31,31)"><path d="M0,-30 C16.55699920654297,-30 30,-16.55699920654297 30,0 C30,16.55699920654297 16.55699920654297,30 0,30 C-16.55699920654297,30 -30,16.55699920654297 -30,0 C-30,-16.55699920654297 -16.55699920654297,-30 0,-30z" fill-opacity="1" fill="rgb(120,69,21)"></path></g><g style="display: block;" opacity="1" transform="matrix(0.6693426370620728,0.43815574049949646,-0.43815574049949646,0.6693426370620728,15.71765422821045,23.9278507232666)"><path d="M0,-8.5 C3.752920150756836,-8.5 6.800000190734863,-4.691150188446045 6.800000190734863,0 C6.800000190734863,4.691150188446045 3.752920150756836,8.5 0,8.5 C-3.752920150756836,8.5 -6.800000190734863,4.691150188446045 -6.800000190734863,0 C-6.800000190734863,-4.691150188446045 -3.752920150756836,-8.5 0,-8.5z" fill-opacity="1" fill="rgb(84,45,8)"></path></g></g><g style="display: block;" opacity="1" transform="matrix(0.28991377353668213,-0.28991377353668213,0.28991377353668213,0.28991377353668213,318.40155029296875,181.23440551757812)"><g transform="matrix(7.714290142059326,0,0,7.714290142059326,0,0)" opacity="1"><path d="M-32.72600173950195,-10.689000129699707 C-32.72600173950195,-10.689000129699707 32.7239990234375,-10.689000129699707 32.7239990234375,-10.689000129699707 C34.104000091552734,-10.689000129699707 34.95399856567383,-9.168999671936035 34.2140007019043,-8.008999824523926 C26.86400032043457,3.5309998989105225 14.053999900817871,10.690999984741211 0.004000000189989805,10.690999984741211 C-14.045999526977539,10.690999984741211 -26.865999221801758,3.5309998989105225 -34.215999603271484,-8.008999824523926 C-34.95600128173828,-9.168999671936035 -34.10599899291992,-10.689000129699707 -32.72600173950195,-10.689000129699707z" fill-opacity="1" fill="rgb(142,223,0)"></path></g></g><g style="display: block;" opacity="1" transform="matrix(0.39602959156036377,0.10611580312252045,-0.10611580312252045,0.39602959156036377,327.4014892578125,251.2341766357422)"><g transform="matrix(7.714290142059326,0,0,7.714290142059326,0,0)" opacity="1"><path d="M-23.488000869750977,-10.265000343322754 C-23.488000869750977,-10.265000343322754 32.7239990234375,-10.689000129699707 32.7239990234375,-10.689000129699707 C34.104000091552734,-10.689000129699707 34.95399856567383,-9.168999671936035 34.2140007019043,-8.008999824523926 C26.86400032043457,3.5309998989105225 14.053999900817871,10.690999984741211 0.004000000189989805,10.690999984741211 C-14.045999526977539,10.690999984741211 -22.219999313354492,2.924999952316284 -27.070999145507812,-5.4770002365112305 C-27.759000778198242,-6.669000148773193 -24.868000030517578,-10.265000343322754 -23.488000869750977,-10.265000343322754z" fill-opacity="1" fill="rgb(142,223,0)"></path></g></g><g style="display: block;" opacity="1" transform="matrix(0.39602959156036377,0.10611580312252045,-0.10611580312252045,0.39602959156036377,192.9016571044922,215.23411560058594)"><g transform="matrix(7.714290142059326,0,0,7.714290142059326,0,0)" opacity="1"><path d="M-32.72600173950195,-10.689000129699707 C-32.72600173950195,-10.689000129699707 32.7239990234375,-10.689000129699707 32.7239990234375,-10.689000129699707 C34.104000091552734,-10.689000129699707 34.95399856567383,-9.168999671936035 34.2140007019043,-8.008999824523926 C26.86400032043457,3.5309998989105225 14.053999900817871,10.690999984741211 0.004000000189989805,10.690999984741211 C-14.045999526977539,10.690999984741211 -26.865999221801758,3.5309998989105225 -34.215999603271484,-8.008999824523926 C-34.95600128173828,-9.168999671936035 -34.10599899291992,-10.689000129699707 -32.72600173950195,-10.689000129699707z" fill-opacity="1" fill="rgb(142,223,0)"></path></g></g><g style="display: block;" opacity="1" transform="matrix(0.28991377353668213,-0.28991377353668213,0.28991377353668213,0.28991377353668213,220.40142822265625,279.7343444824219)"><g transform="matrix(7.714290142059326,0,0,7.714290142059326,0,0)" opacity="1"><path d="M-32.72600173950195,-10.689000129699707 C-32.72600173950195,-10.689000129699707 25.173999786376953,-9.70199966430664 25.173999786376953,-9.70199966430664 C26.554000854492188,-9.70199966430664 27.40399932861328,-8.182000160217285 26.663999557495117,-7.021999835968018 C19.31399917602539,4.51800012588501 14.053999900817871,10.690999984741211 0.004000000189989805,10.690999984741211 C-14.045999526977539,10.690999984741211 -26.865999221801758,3.5309998989105225 -34.215999603271484,-8.008999824523926 C-34.95600128173828,-9.168999671936035 -34.10599899291992,-10.689000129699707 -32.72600173950195,-10.689000129699707z" fill-opacity="1" fill="rgb(142,223,0)"></path></g></g></g></g></svg>