<svg style="width: 100%; height: 100%; transform: translate3d(0px, 0px, 0px);" preserveAspectRatio="xMidYMid meet" height="540" width="540" viewBox="0 0 540 540" xmlns="http://www.w3.org/2000/svg"><defs><clipPath id="__lottie_element_7668"><rect y="0" x="0" height="540" width="540"></rect></clipPath><clipPath id="__lottie_element_7670"><path d="M0,0 L540,0 L540,540 L0,540z"></path></clipPath><clipPath id="__lottie_element_7674"><path d="M0,0 L540,0 L540,540 L0,540z"></path></clipPath><clipPath id="__lottie_element_7696"><path d="M0,0 L540,0 L540,540 L0,540z"></path></clipPath><clipPath id="__lottie_element_7700"><path d="M0,0 L540,0 L540,540 L0,540z"></path></clipPath></defs><g clip-path="url(#__lottie_element_7668)"><g style="display: none;" clip-path="url(#__lottie_element_7696)"><g style="display: none;" clip-path="url(#__lottie_element_7700)"><g style="display: none;"><g><path></path></g></g><g style="display: none;"><g><path></path></g></g><g style="display: none;"><g><path></path></g></g><g style="display: none;"><g><path></path></g></g><g style="display: none;"><g><path></path></g></g><g style="display: none;"><g><path></path></g></g></g></g><g style="display: block;" opacity="1" transform="matrix(1,0,0,1,0,0)" clip-path="url(#__lottie_element_7670)"><g style="display: block;" opacity="1" transform="matrix(1,0,0,1,0,0)" clip-path="url(#__lottie_element_7674)"><g style="display: block;" opacity="1" transform="matrix(-0.4706594944000244,-0.882314920425415,0.882314920425415,-0.4706594944000244,269.96600341796875,269.8840026855469)"><g transform="matrix(4,0,0,4,0,0)" opacity="1"><path d="M22.058000564575195,-37.50199890136719 C22.058000564575195,-37.50199890136719 37.49800109863281,-22.062000274658203 37.49800109863281,-22.062000274658203 C37.49800109863281,-22.062000274658203 -12.982000350952148,28.42799949645996 -12.982000350952148,28.42799949645996 C-12.982000350952148,28.42799949645996 -34.61199951171875,37.347999572753906 -34.61199951171875,37.347999572753906 C-35.68199920654297,37.78799819946289 -36.902000427246094,37.27799987792969 -37.34199905395508,36.20800018310547 C-37.551998138427734,35.698001861572266 -37.551998138427734,35.11800003051758 -37.34199905395508,34.608001708984375 C-37.34199905395508,34.608001708984375 -28.422000885009766,12.977999687194824 -28.422000885009766,12.977999687194824 C-28.422000885009766,12.977999687194824 22.058000564575195,-37.50199890136719 22.058000564575195,-37.50199890136719z" fill-opacity="1" fill="rgb(255,211,0)"></path></g></g><g style="display: block;" opacity="1" transform="matrix(-0.4706594944000244,-0.882314920425415,0.882314920425415,-0.4706594944000244,405.67974853515625,311.2626953125)"><g transform="matrix(4,0,0,4,0,0)" opacity="1"><path d="M12.404000282287598,3.065000057220459 C12.404000282287598,3.065000057220459 12.11400032043457,3.3550000190734863 12.11400032043457,3.3550000190734863 C12.11400032043457,3.3550000190734863 -9.515999794006348,12.274999618530273 -9.515999794006348,12.274999618530273 C-10.586000442504883,12.71500015258789 -11.805999755859375,12.204999923706055 -12.246000289916992,11.145000457763672 C-12.456000328063965,10.625 -12.456000328063965,10.055000305175781 -12.246000289916992,9.545000076293945 C-12.246000289916992,9.545000076293945 -3.3259999752044678,-12.085000038146973 -3.3259999752044678,-12.085000038146973 C-3.3259999752044678,-12.085000038146973 -2.9760000705718994,-12.4350004196167 -2.9760000705718994,-12.4350004196167 C-2.9760000705718994,-12.4350004196167 9.543999671936035,-9.604999542236328 9.543999671936035,-9.604999542236328 C9.543999671936035,-9.604999542236328 12.404000282287598,3.065000057220459 12.404000282287598,3.065000057220459z" fill-opacity="1" fill="rgb(255,242,179)"></path></g></g><g style="display: block;" opacity="1" transform="matrix(-0.4706594944000244,-0.882314920425415,0.882314920425415,-0.4706594944000244,449.2369384765625,324.4296569824219)"><g transform="matrix(4,0,0,4,0,0)" opacity="1"><path d="M4.374000072479248,1.8029999732971191 C4.374000072479248,1.8029999732971191 -1.4859999418258667,4.2129998207092285 -1.4859999418258667,4.2129998207092285 C-2.555999994277954,4.663000106811523 -3.7760000228881836,4.1529998779296875 -4.216000080108643,3.0829999446868896 C-4.426000118255615,2.572999954223633 -4.426000118255615,1.9930000305175781 -4.216000080108643,1.4830000400543213 C-4.216000080108643,1.4830000400543213 -1.7960000038146973,-4.376999855041504 -1.7960000038146973,-4.376999855041504 C-1.7960000038146973,-4.376999855041504 4.374000072479248,1.8029999732971191 4.374000072479248,1.8029999732971191z" fill-opacity="1" fill="rgb(54,54,54)"></path></g></g><g style="display: block;" opacity="1" transform="matrix(-0.4706594944000244,-0.882314920425415,0.882314920425415,-0.4706594944000244,114.94840240478516,221.7657012939453)"><g transform="matrix(4,0,0,4,0,0)" opacity="1"><path d="M4.373000144958496,-14.006999969482422 C4.373000144958496,-14.006999969482422 14.012999534606934,-4.376999855041504 14.012999534606934,-4.376999855041504 C15.642999649047852,-2.736999988555908 15.642999649047852,-0.08699999749660492 14.012999534606934,1.5429999828338623 C14.012999534606934,1.5429999828338623 1.5429999828338623,14.012999534606934 1.5429999828338623,14.012999534606934 C-0.08699999749660492,15.642999649047852 -2.736999988555908,15.642999649047852 -4.376999855041504,14.012999534606934 C-4.376999855041504,14.012999534606934 -14.006999969482422,4.373000144958496 -14.006999969482422,4.373000144958496 C-15.647000312805176,2.743000030517578 -15.647000312805176,0.09300000220537186 -14.006999969482422,-1.5470000505447388 C-14.006999969482422,-1.5470000505447388 -1.5470000505447388,-14.006999969482422 -1.5470000505447388,-14.006999969482422 C0.09300000220537186,-15.647000312805176 2.743000030517578,-15.647000312805176 4.373000144958496,-14.006999969482422z" fill-opacity="1" fill="rgb(255,175,175)"></path></g></g><g style="display: block;" opacity="1" transform="matrix(-0.4706594944000244,-0.882314920425415,0.882314920425415,-0.4706594944000244,155.19590759277344,235.23609924316406)"><g transform="matrix(4,0,0,4,0,0)" opacity="1"><path d="M-0.6370000243186951,-14.786999702453613 C-0.6370000243186951,-14.786999702453613 14.782999992370605,0.6430000066757202 14.782999992370605,0.6430000066757202 C15.602999687194824,1.4630000591278076 15.602999687194824,2.7829999923706055 14.782999992370605,3.6029999256134033 C14.782999992370605,3.6029999256134033 3.6029999256134033,14.782999992370605 3.6029999256134033,14.782999992370605 C2.7829999923706055,15.602999687194824 1.4630000591278076,15.602999687194824 0.6430000066757202,14.782999992370605 C0.6430000066757202,14.782999992370605 -14.786999702453613,-0.6370000243186951 -14.786999702453613,-0.6370000243186951 C-15.597000122070312,-1.4570000171661377 -15.597000122070312,-2.7869999408721924 -14.786999702453613,-3.5969998836517334 C-14.786999702453613,-3.5969998836517334 -3.5969998836517334,-14.786999702453613 -3.5969998836517334,-14.786999702453613 C-2.7869999408721924,-15.597000122070312 -1.4570000171661377,-15.597000122070312 -0.6370000243186951,-14.786999702453613z" fill-opacity="1" fill="rgb(142,142,142)"></path></g></g><g style="display: block;" opacity="0.36" transform="matrix(-0.4706594944000244,-0.882314920425415,0.882314920425415,-0.4706594944000244,146.0980987548828,263.2816162109375)"><g transform="matrix(4,0,0,4,0,0)" opacity="1"><path d="M4.47599983215332,-7.4039998054504395 C4.47599983215332,-7.4039998054504395 7.395999908447266,-4.473999977111816 7.395999908447266,-4.473999977111816 C8.215999603271484,-3.6640000343322754 8.215999603271484,-2.3340001106262207 7.395999908447266,-1.5140000581741333 C7.395999908447266,-1.5140000581741333 -1.5140000581741333,7.395999908447266 -1.5140000581741333,7.395999908447266 C-2.3340001106262207,8.215999603271484 -3.6640000343322754,8.215999603271484 -4.473999977111816,7.395999908447266 C-4.473999977111816,7.395999908447266 -7.4039998054504395,4.47599983215332 -7.4039998054504395,4.47599983215332 C-8.21399974822998,3.6559998989105225 -8.21399974822998,2.3359999656677246 -7.4039998054504395,1.5160000324249268 C-7.4039998054504395,1.5160000324249268 1.5160000324249268,-7.4039998054504395 1.5160000324249268,-7.4039998054504395 C2.3359999656677246,-8.21399974822998 3.6559998989105225,-8.21399974822998 4.47599983215332,-7.4039998054504395z" fill-opacity="1" fill="rgb(255,255,255)"></path></g></g></g></g></g></svg>