<svg style="width: 100%; height: 100%; transform: translate3d(0px, 0px, 0px);" preserveAspectRatio="xMidYMid meet" height="135" width="135" viewBox="0 0 135 135" xmlns="http://www.w3.org/2000/svg"><defs><clipPath id="__lottie_element_9682"><rect y="0" x="0" height="135" width="135"></rect></clipPath><clipPath id="__lottie_element_9684"><path d="M0,0 L540,0 L540,540 L0,540z"></path></clipPath><clipPath id="__lottie_element_9693"><path d="M0,0 L158,0 L158,120 L0,120z"></path></clipPath></defs><g clip-path="url(#__lottie_element_9682)"><g style="display: block;" opacity="1" transform="matrix(0.25,0,0,0.25,0,0)" clip-path="url(#__lottie_element_9684)"><g style="display: block;" opacity="1" transform="matrix(1,0,0,1,269.6860046386719,274.5090026855469)"><g transform="matrix(4,0,0,4,0,0)" opacity="1"><path d="M-20.00200080871582,-39.62699890136719 C-20.00200080871582,-39.62699890136719 20.007999420166016,-39.62699890136719 20.007999420166016,-39.62699890136719 C31.148000717163086,-39.62699890136719 40.167999267578125,-30.597000122070312 40.167999267578125,-19.457000732421875 C40.167999267578125,-19.457000732421875 40.167999267578125,19.46299934387207 40.167999267578125,19.46299934387207 C40.167999267578125,30.60300064086914 31.148000717163086,39.62300109863281 20.007999420166016,39.62300109863281 C20.007999420166016,39.62300109863281 -20.00200080871582,39.62300109863281 -20.00200080871582,39.62300109863281 C-31.142000198364258,39.62300109863281 -40.172000885009766,30.60300064086914 -40.172000885009766,19.46299934387207 C-40.172000885009766,19.46299934387207 -40.172000885009766,-19.457000732421875 -40.172000885009766,-19.457000732421875 C-40.172000885009766,-30.597000122070312 -31.142000198364258,-39.62699890136719 -20.00200080871582,-39.62699890136719z" fill-opacity="1" fill="rgb(255,202,202)"></path></g></g><g style="display: block;" opacity="1" transform="matrix(1,0,0,1,274,132.01600646972656)"><g transform="matrix(4,0,0,4,0,0)" opacity="1"><path d="M9.625,-6.119999885559082 C10.515000343322754,-1.3700000047683716 8.3149995803833,3.4700000286102295 4.045000076293945,5.920000076293945 C-0.23499999940395355,8.369999885559082 -5.554999828338623,7.840000152587891 -9.244999885559082,4.710000038146973 C-10.114999771118164,3.9700000286102295 -9.984999656677246,2.609999895095825 -8.994999885559082,2.0399999618530273 C-8.994999885559082,2.0399999618530273 7.184999942779541,-7.239999771118164 7.184999942779541,-7.239999771118164 C8.164999961853027,-7.800000190734863 9.425000190734863,-7.230000019073486 9.625,-6.119999885559082z" fill-opacity="1" fill="rgb(255,202,202)"></path></g></g><g style="display: block;" opacity="1" transform="matrix(1,0,0,1,250.8509979248047,122.55599975585938)"><g transform="matrix(4,0,0,4,0,0)" opacity="1"><path d="M7.610000133514404,-7.750999927520752 C9.710000038146973,-3.3910000324249268 8.84000015258789,1.8489999771118164 5.349999904632568,5.318999767303467 C1.8600000143051147,8.788999557495117 -3.4200000762939453,9.638999938964844 -7.800000190734863,7.559000015258789 C-8.829999923706055,7.068999767303467 -9.0600004196167,5.718999862670898 -8.260000228881836,4.919000148773193 C-8.260000228881836,4.919000148773193 4.949999809265137,-8.201000213623047 4.949999809265137,-8.201000213623047 C5.760000228881836,-9.00100040435791 7.119999885559082,-8.770999908447266 7.610000133514404,-7.750999927520752z" fill-opacity="1" fill="rgb(255,202,202)"></path></g></g><g style="display: block;" opacity="1" transform="matrix(1,0,0,1,137.19900512695312,147.6090087890625)"><g transform="matrix(4,0,0,4,0,0)" opacity="1"><path d="M11.675000190734863,7.882999897003174 C11.694999694824219,8.093000411987305 11.704999923706055,8.293000221252441 11.6850004196167,8.503000259399414 C11.53499984741211,10.303000450134277 9.954999923706055,11.633000373840332 8.154999732971191,11.482999801635742 C8.154999732971191,11.482999801635742 -8.694999694824219,10.062999725341797 -8.694999694824219,10.062999725341797 C-9.475000381469727,10.003000259399414 -10.194999694824219,9.663000106811523 -10.744999885559082,9.11299991607666 C-12.015000343322754,7.833000183105469 -12.015000343322754,5.763000011444092 -10.725000381469727,4.493000030517578 C-10.725000381469727,4.493000030517578 4.40500020980835,-10.54699993133545 4.40500020980835,-10.54699993133545 C4.934999942779541,-11.07699966430664 5.635000228881836,-11.397000312805176 6.375,-11.47700023651123 C8.164999961853027,-11.666999816894531 9.774999618530273,-10.357000350952148 9.96500015258789,-8.567000389099121 C9.96500015258789,-8.567000389099121 11.675000190734863,7.882999897003174 11.675000190734863,7.882999897003174z" fill-opacity="1" fill="rgb(251,179,179)"></path></g></g><g style="display: block;" opacity="1" transform="matrix(1,0,0,1,402.67901611328125,147.6090087890625)"><g transform="matrix(4,0,0,4,0,0)" opacity="1"><path d="M-11.675000190734863,7.882999897003174 C-11.675000190734863,7.882999897003174 -9.96500015258789,-8.567000389099121 -9.96500015258789,-8.567000389099121 C-9.774999618530273,-10.357000350952148 -8.164999961853027,-11.666999816894531 -6.375,-11.47700023651123 C-5.635000228881836,-11.397000312805176 -4.934999942779541,-11.07699966430664 -4.40500020980835,-10.54699993133545 C-4.40500020980835,-10.54699993133545 10.725000381469727,4.493000030517578 10.725000381469727,4.493000030517578 C12.015000343322754,5.763000011444092 12.015000343322754,7.833000183105469 10.744999885559082,9.11299991607666 C10.194999694824219,9.663000106811523 9.475000381469727,10.003000259399414 8.694999694824219,10.062999725341797 C8.694999694824219,10.062999725341797 -8.154999732971191,11.482999801635742 -8.154999732971191,11.482999801635742 C-9.954999923706055,11.633000373840332 -11.53499984741211,10.303000450134277 -11.6850004196167,8.503000259399414 C-11.704999923706055,8.293000221252441 -11.694999694824219,8.093000411987305 -11.675000190734863,7.882999897003174 C-11.675000190734863,7.882999897003174 -11.675000190734863,7.882999897003174 -11.675000190734863,7.882999897003174z" fill-opacity="1" fill="rgb(251,179,179)"></path></g></g><g style="display: block;" opacity="1" transform="matrix(1,0,0,1,247.75,176)"><g transform="matrix(4,0,0,4,0,0)" opacity="1"><path d="M0,-7 C1.9299999475479126,-7 3.5,-5.429999828338623 3.5,-3.5 C3.5,-3.5 3.5,3.5 3.5,3.5 C3.5,5.429999828338623 1.9299999475479126,7 0,7 C-1.9299999475479126,7 -3.5,5.429999828338623 -3.5,3.5 C-3.5,3.5 -3.5,-3.5 -3.5,-3.5 C-3.5,-5.429999828338623 -1.9299999475479126,-7 0,-7z" fill-opacity="1" fill="rgb(198,124,124)"></path></g></g><g style="display: block;" opacity="1" transform="matrix(1,0,0,1,291.75,176)"><g transform="matrix(4,0,0,4,0,0)" opacity="1"><path d="M0,-7 C1.9299999475479126,-7 3.5,-5.429999828338623 3.5,-3.5 C3.5,-3.5 3.5,3.5 3.5,3.5 C3.5,5.429999828338623 1.9299999475479126,7 0,7 C-1.9299999475479126,7 -3.5,5.429999828338623 -3.5,3.5 C-3.5,3.5 -3.5,-3.5 -3.5,-3.5 C-3.5,-5.429999828338623 -1.9299999475479126,-7 0,-7z" fill-opacity="1" fill="rgb(198,124,124)"></path></g></g><g style="display: none;"><g><path stroke-miterlimit="4" fill-opacity="0" stroke-linejoin="miter" stroke-linecap="round"></path></g><g><path stroke-miterlimit="4" fill-opacity="0" stroke-linejoin="miter" stroke-linecap="round"></path></g></g><g style="display: block;" opacity="1" transform="matrix(1,0,0,1,191,213.5)" clip-path="url(#__lottie_element_9693)"><g style="display: block;" opacity="1" transform="matrix(1,0,0,1,79.04100036621094,59.9379997253418)"><g transform="matrix(4,0,0,4,0,0)" opacity="1"><path d="M-10.539999961853027,-14.484000205993652 C-10.539999961853027,-14.484000205993652 10.539999961853027,-14.484000205993652 10.539999961853027,-14.484000205993652 C15.359999656677246,-14.484000205993652 19.260000228881836,-10.583999633789062 19.260000228881836,-5.763999938964844 C19.260000228881836,-5.763999938964844 19.260000228881836,5.765999794006348 19.260000228881836,5.765999794006348 C19.260000228881836,10.576000213623047 15.359999656677246,14.486000061035156 10.539999961853027,14.486000061035156 C10.539999961853027,14.486000061035156 -10.539999961853027,14.486000061035156 -10.539999961853027,14.486000061035156 C-15.359999656677246,14.486000061035156 -19.260000228881836,10.576000213623047 -19.260000228881836,5.765999794006348 C-19.260000228881836,5.765999794006348 -19.260000228881836,-5.763999938964844 -19.260000228881836,-5.763999938964844 C-19.260000228881836,-10.583999633789062 -15.359999656677246,-14.484000205993652 -10.539999961853027,-14.484000205993652z" fill-opacity="1" fill="rgb(251,179,179)"></path></g></g><g style="display: block;" opacity="1" transform="matrix(1,0,0,1,56,56)"><g transform="matrix(4,0,0,4,0,0)" opacity="1"><path d="M0,-5.5 C1.9299999475479126,-5.5 3.5,-3.930000066757202 3.5,-2 C3.5,-2 3.5,2 3.5,2 C3.5,3.930000066757202 1.9299999475479126,5.5 0,5.5 C-1.9299999475479126,5.5 -3.5,3.930000066757202 -3.5,2 C-3.5,2 -3.5,-2 -3.5,-2 C-3.5,-3.930000066757202 -1.9299999475479126,-5.5 0,-5.5z" fill-opacity="1" fill="rgb(228,143,143)"></path></g></g><g style="display: block;" opacity="1" transform="matrix(1,0,0,1,99.9469985961914,56)"><g transform="matrix(4,0,0,4,0,0)" opacity="1"><path d="M0,-5.5 C1.9299999475479126,-5.5 3.5,-3.930000066757202 3.5,-2 C3.5,-2 3.5,2 3.5,2 C3.5,3.930000066757202 1.9299999475479126,5.5 0,5.5 C-1.9299999475479126,5.5 -3.5,3.930000066757202 -3.5,2 C-3.5,2 -3.5,-2 -3.5,-2 C-3.5,-3.930000066757202 -1.9299999475479126,-5.5 0,-5.5z" fill-opacity="1" fill="rgb(228,143,143)"></path></g></g></g></g></g></svg>