<svg style="width: 100%; height: 100%; transform: translate3d(0px, 0px, 0px);" preserveAspectRatio="xMidYMid meet" height="135" width="135" viewBox="0 0 135 135" xmlns="http://www.w3.org/2000/svg"><defs><clipPath id="__lottie_element_7964"><rect y="0" x="0" height="135" width="135"></rect></clipPath><clipPath id="__lottie_element_7966"><path d="M0,0 L540,0 L540,540 L0,540z"></path></clipPath><clipPath id="__lottie_element_7971"><path d="M0,0 L540,0 L540,540 L0,540z"></path></clipPath><clipPath id="__lottie_element_7982"><path d="M0,0 L540,0 L540,540 L0,540z"></path></clipPath><clipPath id="__lottie_element_7993"><path d="M0,0 L540,0 L540,540 L0,540z"></path></clipPath><clipPath id="__lottie_element_7998"><path d="M0,0 L540,0 L540,540 L0,540z"></path></clipPath><clipPath id="__lottie_element_8009"><path d="M0,0 L540,0 L540,540 L0,540z"></path></clipPath></defs><g clip-path="url(#__lottie_element_7964)"><g opacity="1" transform="matrix(0.25,0,0,0.25,0,0)" style="display: none;" clip-path="url(#__lottie_element_7993)"><g opacity="1" transform="matrix(1,0,0,1,0,0)" style="display: block;" clip-path="url(#__lottie_element_8009)"><g opacity="1" transform="matrix(1,0,0,1,269.9419860839844,399.3060302734375)" style="display: none;"><g transform="matrix(4,0,0,4,0,0)" opacity="1"><path d="M-9.786999702453613,0.003000000026077032 C-9.786999702453613,-5.367000102996826 -5.367000102996826,-9.786999702453613 0.003000000026077032,-9.786999702453613 C5.373000144958496,-9.786999702453613 9.782999992370605,-5.367000102996826 9.782999992370605,0.003000000026077032 C9.782999992370605,5.373000144958496 5.373000144958496,9.782999992370605 0.003000000026077032,9.782999992370605 C-5.367000102996826,9.782999992370605 -9.786999702453613,5.373000144958496 -9.786999702453613,0.003000000026077032z" fill-opacity="1" fill="rgb(255,255,255)"></path></g></g><g style="display: block;" opacity="1" transform="matrix(1,0,0,1,273.28399658203125,232.5511016845703)"><g transform="matrix(4,0,0,4,0,0)" opacity="1"><path d="M-0.8389999866485596,30.743391036987305 C-5.36899995803833,30.743391036987305 -8.949000358581543,27.574872970581055 -8.949000358581543,22.470590591430664 C-8.949000358581543,18.578733444213867 -7.999000072479248,14.592633247375488 -3.6989998817443848,9.7328519821167 C-3.6989998817443848,9.7328519821167 2.740999937057495,2.363234758377075 2.740999937057495,2.363234758377075 C6.321000099182129,-1.6252976655960083 7.520999908447266,-4.39133882522583 7.520999908447266,-7.3886895179748535 C7.520999908447266,-12.075860977172852 4.421000003814697,-15.314602851867676 -0.35899999737739563,-15.314602851867676 C-4.769000053405762,-15.314602851867676 -7.158999919891357,-13.031426429748535 -8.708999633789062,-9.430556297302246 C-10.378999710083008,-5.829686641693115 -13.24899959564209,-4.149947643280029 -16.349000930786133,-4.149947643280029 C-20.888999938964844,-4.149947643280029 -23.98900032043457,-7.026561260223389 -23.98900032043457,-11.472341537475586 C-23.98900032043457,-12.42790699005127 -23.749000549316406,-13.63486385345459 -23.388999938964844,-14.71108341217041 C-20.64900016784668,-23.351089477539062 -12.168999671936035,-29.718000411987305 0.0010000000474974513,-29.718000411987305 C14.201000213623047,-29.718000411987305 23.990999221801758,-20.35382080078125 23.990999221801758,-7.992208480834961 C23.990999221801758,-1.86677086353302 22.08099937438965,2.838963747024536 17.541000366210938,7.799363136291504 C17.541000366210938,7.799363136291504 10.140999794006348,16.171850204467773 10.140999794006348,16.171850204467773 C8.121000289916992,18.48457145690918 7.401000022888184,20.524662017822266 7.401000022888184,22.470590591430664 C7.401000022888184,27.574872970581055 3.5810000896453857,30.743391036987305 -0.8389999866485596,30.743391036987305z" fill-opacity="1" fill="rgb(255,255,255)"></path></g></g></g><g opacity="1" transform="matrix(1,0,0,1,0,0)" style="display: none;" clip-path="url(#__lottie_element_7998)"><g style="display: block;" opacity="1" transform="matrix(1,0,0,1,269.9419860839844,-21.86053466796875)"><g transform="matrix(4,0,0,4,0,0)" opacity="1"><path d="M-9.786999702453613,0.003000000026077032 C-9.786999702453613,-5.367000102996826 -5.367000102996826,-9.786999702453613 0.003000000026077032,-9.786999702453613 C5.373000144958496,-9.786999702453613 9.782999992370605,-5.367000102996826 9.782999992370605,0.003000000026077032 C9.782999992370605,5.373000144958496 5.373000144958496,9.782999992370605 0.003000000026077032,9.782999992370605 C-5.367000102996826,9.782999992370605 -9.786999702453613,5.373000144958496 -9.786999702453613,0.003000000026077032z" fill-opacity="1" fill="rgb(255,255,255)"></path></g></g><g style="display: block;" opacity="1" transform="matrix(1,0,0,1,273.28399658203125,-198.97552490234375)"><g transform="matrix(4,0,0,4,0,0)" opacity="1"><path d="M-0.8389999866485596,29.722000122070312 C-5.36899995803833,29.722000122070312 -8.949000358581543,26.61199951171875 -8.949000358581543,21.601999282836914 C-8.949000358581543,17.781999588012695 -7.999000072479248,14.20199966430664 -3.6989998817443848,9.432000160217285 C-3.6989998817443848,9.432000160217285 2.740999937057495,2.1519999504089355 2.740999937057495,2.1519999504089355 C6.321000099182129,-1.7879999876022339 7.520999908447266,-4.538000106811523 7.520999908447266,-7.51800012588501 C7.520999908447266,-12.178000450134277 4.421000003814697,-15.39799976348877 -0.35899999737739563,-15.39799976348877 C-4.769000053405762,-15.39799976348877 -7.158999919891357,-13.128000259399414 -8.708999633789062,-9.54800033569336 C-10.378999710083008,-5.9679999351501465 -13.24899959564209,-4.297999858856201 -16.349000930786133,-4.297999858856201 C-20.888999938964844,-4.297999858856201 -23.98900032043457,-7.1579999923706055 -23.98900032043457,-11.57800006866455 C-23.98900032043457,-12.527999877929688 -23.749000549316406,-13.727999687194824 -23.388999938964844,-14.79800033569336 C-20.64900016784668,-23.38800048828125 -12.168999671936035,-29.718000411987305 0.0010000000474974513,-29.718000411987305 C14.201000213623047,-29.718000411987305 23.990999221801758,-20.408000946044922 23.990999221801758,-8.118000030517578 C23.990999221801758,-2.0280001163482666 22.08099937438965,2.621999979019165 17.541000366210938,7.521999835968018 C17.541000366210938,7.521999835968018 10.140999794006348,15.751999855041504 10.140999794006348,15.751999855041504 C8.121000289916992,18.02199935913086 7.401000022888184,19.691999435424805 7.401000022888184,21.601999282836914 C7.401000022888184,26.61199951171875 3.5810000896453857,29.722000122070312 -0.8389999866485596,29.722000122070312z" fill-opacity="1" fill="rgb(255,255,255)"></path></g></g></g></g><g style="display: block;" opacity="1" transform="matrix(0.25,0,0,0.25,0,0)" clip-path="url(#__lottie_element_7966)"><g style="display: block;" opacity="1" transform="matrix(1,0,0,1,0,0)" clip-path="url(#__lottie_element_7982)"><g style="display: block;" opacity="1" transform="matrix(1,0,0,1,269.9419860839844,399.3059997558594)"><g transform="matrix(4,0,0,4,0,0)" opacity="1"><path d="M-9.786999702453613,0.003000000026077032 C-9.786999702453613,-5.367000102996826 -5.367000102996826,-9.786999702453613 0.003000000026077032,-9.786999702453613 C5.373000144958496,-9.786999702453613 9.782999992370605,-5.367000102996826 9.782999992370605,0.003000000026077032 C9.782999992370605,5.373000144958496 5.373000144958496,9.782999992370605 0.003000000026077032,9.782999992370605 C-5.367000102996826,9.782999992370605 -9.786999702453613,5.373000144958496 -9.786999702453613,0.003000000026077032z" fill-opacity="1" fill="rgb(255,255,255)"></path></g></g><g style="display: block;" opacity="1" transform="matrix(1,0,0,1,273.28399658203125,222.19100952148438)"><g transform="matrix(4,0,0,4,0,0)" opacity="1"><path d="M-0.8389999866485596,29.722000122070312 C-5.36899995803833,29.722000122070312 -8.949000358581543,26.61199951171875 -8.949000358581543,21.601999282836914 C-8.949000358581543,17.781999588012695 -7.999000072479248,14.20199966430664 -3.6989998817443848,9.432000160217285 C-3.6989998817443848,9.432000160217285 2.740999937057495,2.1519999504089355 2.740999937057495,2.1519999504089355 C6.321000099182129,-1.7879999876022339 7.520999908447266,-4.538000106811523 7.520999908447266,-7.51800012588501 C7.520999908447266,-12.178000450134277 4.421000003814697,-15.39799976348877 -0.35899999737739563,-15.39799976348877 C-4.769000053405762,-15.39799976348877 -7.158999919891357,-13.128000259399414 -8.708999633789062,-9.54800033569336 C-10.378999710083008,-5.9679999351501465 -13.24899959564209,-4.297999858856201 -16.349000930786133,-4.297999858856201 C-20.888999938964844,-4.297999858856201 -23.98900032043457,-7.1579999923706055 -23.98900032043457,-11.57800006866455 C-23.98900032043457,-12.527999877929688 -23.749000549316406,-13.727999687194824 -23.388999938964844,-14.79800033569336 C-20.64900016784668,-23.38800048828125 -12.168999671936035,-29.718000411987305 0.0010000000474974513,-29.718000411987305 C14.201000213623047,-29.718000411987305 23.990999221801758,-20.408000946044922 23.990999221801758,-8.118000030517578 C23.990999221801758,-2.0280001163482666 22.08099937438965,2.621999979019165 17.541000366210938,7.521999835968018 C17.541000366210938,7.521999835968018 10.140999794006348,15.751999855041504 10.140999794006348,15.751999855041504 C8.121000289916992,18.02199935913086 7.401000022888184,19.691999435424805 7.401000022888184,21.601999282836914 C7.401000022888184,26.61199951171875 3.5810000896453857,29.722000122070312 -0.8389999866485596,29.722000122070312z" fill-opacity="1" fill="rgb(255,255,255)"></path></g></g></g><g style="display: none;" clip-path="url(#__lottie_element_7971)"><g style="display: none;"><g><path></path></g></g><g style="display: none;"><g><path></path></g></g></g></g></g></svg>