<svg style="width: 100%; height: 100%; transform: translate3d(0px, 0px, 0px);" preserveAspectRatio="xMidYMid meet" height="135" width="135" viewBox="0 0 135 135" xmlns="http://www.w3.org/2000/svg"><defs><clipPath id="__lottie_element_6586"><rect y="0" x="0" height="135" width="135"></rect></clipPath><clipPath id="__lottie_element_6588"><path d="M0,0 L540,0 L540,540 L0,540z"></path></clipPath><clipPath id="__lottie_element_6592"><path d="M0,0 L540,0 L540,540 L0,540z"></path></clipPath><clipPath id="__lottie_element_6611"><path d="M0,0 L540,0 L540,540 L0,540z"></path></clipPath></defs><g clip-path="url(#__lottie_element_6586)"><g style="display: block;" opacity="1" transform="matrix(0.25,0,0,0.25,0,0)" clip-path="url(#__lottie_element_6588)"><g style="display: block;" opacity="1" transform="matrix(1,0,0,1,274,408)"><g transform="matrix(4,0,0,4,0,0)" opacity="1"><path d="M-26.829999923706055,-5 C-26.829999923706055,-5 26.829999923706055,-5 26.829999923706055,-5 C29.40999984741211,-5 31.5,-2.9100000858306885 31.5,-0.33000001311302185 C31.5,-0.33000001311302185 31.5,0.33000001311302185 31.5,0.33000001311302185 C31.5,2.9100000858306885 29.40999984741211,5 26.829999923706055,5 C26.829999923706055,5 -26.829999923706055,5 -26.829999923706055,5 C-29.40999984741211,5 -31.5,2.9100000858306885 -31.5,0.33000001311302185 C-31.5,0.33000001311302185 -31.5,-0.33000001311302185 -31.5,-0.33000001311302185 C-31.5,-2.9100000858306885 -29.40999984741211,-5 -26.829999923706055,-5z" fill-opacity="1" fill="rgb(242,184,107)"></path></g></g><g style="display: block;" opacity="1" transform="matrix(1,0,0,1,0,0)" clip-path="url(#__lottie_element_6611)"><g style="display: block;" opacity="1" transform="matrix(1,0,0,1,274,354)"><g transform="matrix(4,0,0,4,0,0)" opacity="1"><path d="M-30.829999923706055,-8.5 C-30.829999923706055,-8.5 30.829999923706055,-8.5 30.829999923706055,-8.5 C33.40999984741211,-8.5 35.5,-6.409999847412109 35.5,-3.8299999237060547 C35.5,-3.8299999237060547 35.5,3.8299999237060547 35.5,3.8299999237060547 C35.5,6.409999847412109 33.40999984741211,8.5 30.829999923706055,8.5 C30.829999923706055,8.5 -30.829999923706055,8.5 -30.829999923706055,8.5 C-33.40999984741211,8.5 -35.5,6.409999847412109 -35.5,3.8299999237060547 C-35.5,3.8299999237060547 -35.5,-3.8299999237060547 -35.5,-3.8299999237060547 C-35.5,-6.409999847412109 -33.40999984741211,-8.5 -30.829999923706055,-8.5z" fill-opacity="1" fill="rgb(130,63,26)"></path></g></g><g style="display: block;" opacity="1" transform="matrix(1,0,0,1,272,341.57598876953125)"><g transform="matrix(4,0,0,4,0,0)" opacity="1"><path d="M4.590000152587891,4.306000232696533 C1.7000000476837158,5.75600004196167 -1.7000000476837158,5.75600004196167 -4.590000152587891,4.306000232696533 C-4.590000152587891,4.306000232696533 -24,-5.394000053405762 -24,-5.394000053405762 C-24,-5.394000053405762 24,-5.394000053405762 24,-5.394000053405762 C24,-5.394000053405762 4.590000152587891,4.306000232696533 4.590000152587891,4.306000232696533z" fill-opacity="1" fill="rgb(255,188,0)"></path></g></g></g><g style="display: block;" opacity="1" transform="matrix(1,0,0,1,276,271.3999938964844)"><g transform="matrix(4,0,0,4,0,0)" opacity="1"><path d="M-31.645000457763672,-1.3079999685287476 C-31.645000457763672,-1.3079999685287476 -27.19499969482422,-0.5680000185966492 -27.19499969482422,-0.5680000185966492 C-24.684999465942383,-0.14800000190734863 -22.135000228881836,-0.9980000257492065 -20.375,-2.8380000591278076 C-15.78499984741211,-7.638000011444092 -8.505000114440918,-8.657999992370605 -2.7750000953674316,-5.308000087738037 C-1.434999942779541,-4.5279998779296875 0.2549999952316284,-4.76800012588501 1.3250000476837158,-5.888000011444092 C5.914999961853027,-10.687999725341797 13.194999694824219,-11.708000183105469 18.924999237060547,-8.357999801635742 C21.125,-7.078000068664551 23.815000534057617,-6.9679999351501465 26.114999771118164,-8.057999610900879 C26.114999771118164,-8.057999610900879 30.184999465942383,-9.998000144958496 30.184999465942383,-9.998000144958496 C32.92499923706055,-11.307999610900879 36.21500015258789,-10.14799976348877 37.51499938964844,-7.4079999923706055 C38.82500076293945,-4.6579999923706055 37.665000915527344,-1.378000020980835 34.92499923706055,-0.06800000369548798 C34.92499923706055,-0.06800000369548798 30.844999313354492,1.871999979019165 30.844999313354492,1.871999979019165 C25.264999389648438,4.5320000648498535 18.725000381469727,4.26200008392334 13.385000228881836,1.1419999599456787 C12.045000076293945,0.3619999885559082 10.345000267028809,0.5920000076293945 9.274999618530273,1.7120000123977661 C4.695000171661377,6.51200008392334 -2.5850000381469727,7.5320000648498535 -8.324999809265137,4.191999912261963 C-9.654999732971191,3.4119999408721924 -11.354999542236328,3.6419999599456787 -12.425000190734863,4.76200008392334 C-16.69499969482422,9.232000350952148 -22.915000915527344,11.302000045776367 -29.014999389648438,10.281999588012695 C-29.014999389648438,10.281999588012695 -33.46500015258789,9.541999816894531 -33.46500015258789,9.541999816894531 C-36.45500183105469,9.041999816894531 -38.474998474121094,6.202000141143799 -37.974998474121094,3.2019999027252197 C-37.474998474121094,0.21199999749660492 -34.64500045776367,-1.8079999685287476 -31.645000457763672,-1.3079999685287476z" fill-opacity="1" fill="rgb(144,255,0)"></path></g></g><g style="display: block;" opacity="1" transform="matrix(0.9902680516242981,-0.13917310535907745,0.13917310535907745,0.9902680516242981,-24.634735107421875,19.902664184570312)" clip-path="url(#__lottie_element_6592)"><g style="display: block;" opacity="1" transform="matrix(0.9902680516242981,0.13917310535907745,-0.13917310535907745,0.9902680516242981,268.7957763671875,187.02066040039062)"><g transform="matrix(4,0,0,4,0,0)" opacity="1"><path d="M-22.19499969482422,-11.732999801635742 C-22.19499969482422,-11.732999801635742 17.084999084472656,-17.253000259399414 17.084999084472656,-17.253000259399414 C24.7549991607666,-18.33300018310547 31.844999313354492,-12.993000030517578 32.92499923706055,-5.313000202178955 C32.92499923706055,-5.313000202178955 34.224998474121094,3.947000026702881 34.224998474121094,3.947000026702881 C34.584999084472656,6.506999969482422 32.80500030517578,8.866999626159668 30.2549991607666,9.217000007629395 C30.2549991607666,9.217000007629395 -27.565000534057617,17.347000122070312 -27.565000534057617,17.347000122070312 C-30.114999771118164,17.707000732421875 -32.474998474121094,15.927000045776367 -32.834999084472656,13.376999855041504 C-32.834999084472656,13.376999855041504 -34.1349983215332,4.10699987411499 -34.1349983215332,4.10699987411499 C-35.21500015258789,-3.562999963760376 -29.875,-10.652999877929688 -22.19499969482422,-11.732999801635742z" fill-opacity="1" fill="rgb(242,184,107)"></path></g></g><g style="display: block;" opacity="1" transform="matrix(0.9902680516242981,0.13917310535907745,-0.13917310535907745,0.9902680516242981,214.78404235839844,154.3426513671875)"><g transform="matrix(4,0,0,4,0,0)" opacity="1"><path d="M-3.4609999656677246,-1.3990000486373901 C-3.4609999656677246,-1.3990000486373901 2.938999891281128,-2.2990000247955322 2.938999891281128,-2.2990000247955322 C3.9690001010894775,-2.4489998817443848 4.908999919891357,-1.7289999723434448 5.048999786376953,-0.7089999914169312 C5.198999881744385,0.3109999895095825 4.488999843597412,1.2610000371932983 3.4590001106262207,1.4010000228881836 C3.4590001106262207,1.4010000228881836 -2.940999984741211,2.3010001182556152 -2.940999984741211,2.3010001182556152 C-3.9609999656677246,2.440999984741211 -4.910999774932861,1.7309999465942383 -5.051000118255615,0.7110000252723694 C-5.201000213623047,-0.3089999854564667 -4.480999946594238,-1.2589999437332153 -3.4609999656677246,-1.3990000486373901z" fill-opacity="1" fill="rgb(255,207,142)"></path></g></g><g style="display: block;" opacity="1" transform="matrix(0.9902680516242981,0.13917310535907745,-0.13917310535907745,0.9902680516242981,318.6882629394531,154.3423309326172)"><g transform="matrix(4,0,0,4,0,0)" opacity="1"><path d="M-3.4609999656677246,-1.3990000486373901 C-3.4609999656677246,-1.3990000486373901 2.938999891281128,-2.2990000247955322 2.938999891281128,-2.2990000247955322 C3.9690001010894775,-2.4489998817443848 4.908999919891357,-1.7289999723434448 5.048999786376953,-0.7089999914169312 C5.198999881744385,0.3109999895095825 4.488999843597412,1.2610000371932983 3.4590001106262207,1.4010000228881836 C3.4590001106262207,1.4010000228881836 -2.940999984741211,2.3010001182556152 -2.940999984741211,2.3010001182556152 C-3.9609999656677246,2.440999984741211 -4.910999774932861,1.7309999465942383 -5.051000118255615,0.7110000252723694 C-5.201000213623047,-0.3089999854564667 -4.480999946594238,-1.2589999437332153 -3.4609999656677246,-1.3990000486373901z" fill-opacity="1" fill="rgb(255,207,142)"></path></g></g><g style="display: block;" opacity="1" transform="matrix(0.9902680516242981,0.13917310535907745,-0.13917310535907745,0.9902680516242981,266.73602294921875,180.50155639648438)"><g transform="matrix(4,0,0,4,0,0)" opacity="1"><path d="M-3.4609999656677246,-1.3990000486373901 C-3.4609999656677246,-1.3990000486373901 2.938999891281128,-2.2990000247955322 2.938999891281128,-2.2990000247955322 C3.9690001010894775,-2.4489998817443848 4.908999919891357,-1.7289999723434448 5.048999786376953,-0.7089999914169312 C5.198999881744385,0.3109999895095825 4.488999843597412,1.2610000371932983 3.4590001106262207,1.4010000228881836 C3.4590001106262207,1.4010000228881836 -2.940999984741211,2.3010001182556152 -2.940999984741211,2.3010001182556152 C-3.9609999656677246,2.440999984741211 -4.910999774932861,1.7309999465942383 -5.051000118255615,0.7110000252723694 C-5.201000213623047,-0.3089999854564667 -4.480999946594238,-1.2589999437332153 -3.4609999656677246,-1.3990000486373901z" fill-opacity="1" fill="rgb(255,207,142)"></path></g></g></g></g></g></svg>