<svg style="width: 100%; height: 100%; transform: translate3d(0px, 0px, 0px);" preserveAspectRatio="xMidYMid meet" height="135" width="135" viewBox="0 0 135 135" xmlns="http://www.w3.org/2000/svg"><defs><clipPath id="__lottie_element_11390"><rect y="0" x="0" height="135" width="135"></rect></clipPath><clipPath id="__lottie_element_11392"><path d="M0,0 L540,0 L540,540 L0,540z"></path></clipPath></defs><g clip-path="url(#__lottie_element_11390)"><g style="display: block;" opacity="1" transform="matrix(0.25,0,0,0.25,0,0)" clip-path="url(#__lottie_element_11392)"><g style="display: block;" opacity="1" transform="matrix(1,0,0,1,271.7039794921875,268.7869873046875)"><g transform="matrix(4,0,0,4,0,0)" opacity="1"><path d="M-21.263999938964844,-13.793000221252441 C-21.263999938964844,-13.793000221252441 20.676000595092773,-18.593000411987305 20.676000595092773,-18.593000411987305 C25.945999145507812,-19.19300079345703 30.97599983215332,-16.26300048828125 33.04600143432617,-11.392999649047852 C34.965999603271484,-6.853000164031982 32.85599899291992,-1.6030000448226929 28.305999755859375,0.31700000166893005 C28.305999755859375,0.31700000166893005 2.305999994277954,11.357000350952148 2.305999994277954,11.357000350952148 C2.305999994277954,11.357000350952148 -6.99399995803833,9.366999626159668 -6.99399995803833,9.366999626159668 C-6.99399995803833,9.366999626159668 -7.973999977111816,15.72700023651123 -7.973999977111816,15.72700023651123 C-7.973999977111816,15.72700023651123 -12.263999938964844,17.547000885009766 -12.263999938964844,17.547000885009766 C-19.444000244140625,20.597000122070312 -27.733999252319336,17.246999740600586 -30.784000396728516,10.067000389099121 C-30.784000396728516,10.067000389099121 -32.63399887084961,5.706999778747559 -32.63399887084961,5.706999778747559 C-35.67399978637695,-1.4529999494552612 -32.33399963378906,-9.722999572753906 -25.163999557495117,-12.762999534606934 C-23.923999786376953,-13.293000221252441 -22.61400032043457,-13.633000373840332 -21.263999938964844,-13.793000221252441 C-21.263999938964844,-13.793000221252441 -21.263999938964844,-13.793000221252441 -21.263999938964844,-13.793000221252441z" fill-opacity="1" fill="rgb(255,255,255)"></path></g></g><g style="display: block;" opacity="1" transform="matrix(1,0,0,1,186.4250030517578,209.77000427246094)"><g transform="matrix(4,0,0,4,0,0)" opacity="1"><path d="M-17.62299919128418,-16.615999221801758 C-17.62299919128418,-16.615999221801758 0.28700000047683716,-24.215999603271484 0.28700000047683716,-24.215999603271484 C2.496999979019165,-25.1560001373291 5.046999931335449,-24.125999450683594 5.986999988555908,-21.916000366210938 C5.986999988555908,-21.916000366210938 19.927000045776367,10.913999557495117 19.927000045776367,10.913999557495117 C20.867000579833984,13.12399959564209 19.836999893188477,15.673999786376953 17.62700080871582,16.61400032043457 C17.62700080871582,16.61400032043457 -0.2930000126361847,24.224000930786133 -0.2930000126361847,24.224000930786133 C-2.503000020980835,25.15399932861328 -5.052999973297119,24.124000549316406 -5.993000030517578,21.913999557495117 C-5.993000030517578,21.913999557495117 -19.92300033569336,-10.916000366210938 -19.92300033569336,-10.916000366210938 C-20.863000869750977,-13.12600040435791 -19.83300018310547,-15.675999641418457 -17.62299919128418,-16.615999221801758z" fill-opacity="1" fill="rgb(255,255,255)"></path></g></g><g style="display: block;" opacity="1" transform="matrix(1,0,0,1,307.3170166015625,339.43701171875)"><g transform="matrix(4,0,0,4,0,0)" opacity="1"><path d="M-32.65800094604492,9.894000053405762 C-32.65800094604492,9.894000053405762 29.802000045776367,-16.615999221801758 29.802000045776367,-16.615999221801758 C30.91200065612793,-17.086000442504883 32.18199920654297,-16.56599998474121 32.652000427246094,-15.465999603271484 C32.652000427246094,-15.465999603271484 33.801998138427734,-12.746000289916992 33.801998138427734,-12.746000289916992 C34.27199935913086,-11.645999908447266 33.762001037597656,-10.366000175476074 32.652000427246094,-9.895999908447266 C32.652000427246094,-9.895999908447266 -29.808000564575195,16.61400032043457 -29.808000564575195,16.61400032043457 C-30.908000946044922,17.083999633789062 -32.1879997253418,16.56399917602539 -32.64799880981445,15.46399974822998 C-32.64799880981445,15.46399974822998 -33.80799865722656,12.744000434875488 -33.80799865722656,12.744000434875488 C-34.27799987792969,11.644000053405762 -33.757999420166016,10.36400032043457 -32.65800094604492,9.894000053405762z" fill-opacity="1" fill="rgb(228,228,228)"></path></g></g><g style="display: block;" opacity="1" transform="matrix(1,0,0,1,290.21600341796875,312.5780029296875)"><g transform="matrix(4,0,0,4,0,0)" opacity="1"><path d="M-33.07500076293945,2.760999917984009 C-33.07500076293945,2.760999917984009 -15.265000343322754,-4.809000015258789 -15.265000343322754,-4.809000015258789 C-13.664999961853027,-5.479000091552734 -11.914999961853027,-5.669000148773193 -10.21500015258789,-5.339000225067139 C-10.21500015258789,-5.339000225067139 -2.694999933242798,-3.878999948501587 -2.694999933242798,-3.878999948501587 C-0.9350000023841858,-3.5390000343322754 0.875,-3.7290000915527344 2.5250000953674316,-4.428999900817871 C2.5250000953674316,-4.428999900817871 30.225000381469727,-16.18899917602539 30.225000381469727,-16.18899917602539 C31.885000228881836,-16.888999938964844 33.79499816894531,-16.118999481201172 34.505001068115234,-14.458999633789062 C34.505001068115234,-14.458999633789062 34.80500030517578,-13.74899959564209 34.80500030517578,-13.74899959564209 C35.505001068115234,-12.08899974822998 34.73500061035156,-10.178999900817871 33.07500076293945,-9.479000091552734 C33.07500076293945,-9.479000091552734 2.9749999046325684,3.3010001182556152 2.9749999046325684,3.3010001182556152 C0.7649999856948853,4.241000175476074 -1.725000023841858,4.250999927520752 -3.934999942779541,3.3510000705718994 C-3.934999942779541,3.3510000705718994 -9.96500015258789,0.8709999918937683 -9.96500015258789,0.8709999918937683 C-9.96500015258789,0.8709999918937683 -8.524999618530273,4.281000137329102 -8.524999618530273,4.281000137329102 C-7.744999885559082,6.111000061035156 -8.595000267028809,8.220999717712402 -10.425000190734863,8.991000175476074 C-10.425000190734863,8.991000175476074 -27.375,16.19099998474121 -27.375,16.19099998474121 C-29.03499984741211,16.891000747680664 -30.94499969482422,16.121000289916992 -31.655000686645508,14.461000442504883 C-31.655000686645508,14.461000442504883 -34.80500030517578,7.031000137329102 -34.80500030517578,7.031000137329102 C-35.505001068115234,5.370999813079834 -34.73500061035156,3.4609999656677246 -33.07500076293945,2.760999917984009z" fill-opacity="1" fill="rgb(87,87,87)"></path></g></g><g style="display: block;" opacity="1" transform="matrix(1,0,0,1,387.27301025390625,322.84698486328125)"><g transform="matrix(4,0,0,4,0,0)" opacity="1"><path d="M5.118000030517578,12.072999954223633 C-1.3819999694824219,14.833000183105469 -8.95199966430664,11.663000106811523 -11.781999588012695,5.002999782562256 C-14.612000465393066,-1.6670000553131104 -11.631999969482422,-9.307000160217285 -5.122000217437744,-12.067000389099121 C1.3880000114440918,-14.82699966430664 8.958000183105469,-11.666999816894531 11.788000106811523,-4.997000217437744 C14.607999801635742,1.6629999876022339 11.628000259399414,9.303000450134277 5.118000030517578,12.072999954223633z" fill-opacity="1" fill="rgb(255,181,219)"></path></g></g><g style="display: block;" opacity="1" transform="matrix(0.9700000286102295,0,0,1.0299999713897705,387.27862548828125,322.8466796875)"><g transform="matrix(4,0,0,4,0,0)" opacity="1"><path d="M2.319000005722046,5.455999851226807 C-0.5009999871253967,6.656000137329102 -3.88100004196167,5.245999813079834 -5.171000003814697,2.196000099182129 C-6.4710001945495605,-0.8539999723434448 -5.140999794006348,-4.263999938964844 -2.321000099182129,-5.464000225067139 C0.5090000033378601,-6.6539998054504395 3.878999948501587,-5.24399995803833 5.169000148773193,-2.194000005722046 C6.468999862670898,0.8560000061988831 5.138999938964844,4.25600004196167 2.319000005722046,5.455999851226807z" fill-opacity="1" fill="rgb(255,255,255)"></path></g></g><g style="display: block;" opacity="1" transform="matrix(1,0,0,1,221.13299560546875,393.3689880371094)"><g transform="matrix(4,0,0,4,0,0)" opacity="1"><path d="M5.118000030517578,12.072999954223633 C-1.3819999694824219,14.833000183105469 -8.95199966430664,11.663000106811523 -11.781999588012695,5.002999782562256 C-14.612000465393066,-1.6670000553131104 -11.631999969482422,-9.307000160217285 -5.122000217437744,-12.067000389099121 C1.3880000114440918,-14.82699966430664 8.958000183105469,-11.666999816894531 11.788000106811523,-4.997000217437744 C14.607999801635742,1.6629999876022339 11.628000259399414,9.303000450134277 5.118000030517578,12.072999954223633z" fill-opacity="1" fill="rgb(255,181,219)"></path></g></g><g style="display: block;" opacity="1" transform="matrix(0.9700000286102295,0,0,1.0299999713897705,221.12924194335938,393.3689880371094)"><g transform="matrix(4,0,0,4,0,0)" opacity="1"><path d="M2.319000005722046,5.455999851226807 C-0.5009999871253967,6.656000137329102 -3.88100004196167,5.245999813079834 -5.171000003814697,2.196000099182129 C-6.4710001945495605,-0.8539999723434448 -5.140999794006348,-4.263999938964844 -2.321000099182129,-5.464000225067139 C0.5090000033378601,-6.6539998054504395 3.878999948501587,-5.24399995803833 5.169000148773193,-2.194000005722046 C6.468999862670898,0.8560000061988831 5.138999938964844,4.25600004196167 2.319000005722046,5.455999851226807z" fill-opacity="1" fill="rgb(255,255,255)"></path></g></g><g style="display: block;" opacity="1" transform="matrix(1,0,0,1,285.44500732421875,214.00100708007812)"><g transform="matrix(4,0,0,4,0,0)" opacity="1"><path d="M-3.315999984741211,3.927999973297119 C-3.315999984741211,3.927999973297119 -3.946000099182129,-3.2920000553131104 -3.946000099182129,-3.2920000553131104 C-4.035999774932861,-4.271999835968018 -3.305999994277954,-5.142000198364258 -2.315999984741211,-5.23199987411499 C-2.315999984741211,-5.23199987411499 1.3739999532699585,-5.552000045776367 1.3739999532699585,-5.552000045776367 C2.364000082015991,-5.642000198364258 3.2339999675750732,-4.9120001792907715 3.313999891281128,-3.921999931335449 C3.313999891281128,-3.921999931335449 3.944000005722046,3.2880001068115234 3.944000005722046,3.2880001068115234 C4.033999919891357,4.2779998779296875 3.303999900817871,5.1479997634887695 2.313999891281128,5.228000164031982 C2.313999891281128,5.228000164031982 -1.3760000467300415,5.558000087738037 -1.3760000467300415,5.558000087738037 C-2.365999937057495,5.638000011444092 -3.2360000610351562,4.9079999923706055 -3.315999984741211,3.927999973297119 C-3.315999984741211,3.927999973297119 -3.315999984741211,3.927999973297119 -3.315999984741211,3.927999973297119z" fill-opacity="1" fill="rgb(255,181,219)"></path></g></g><g style="display: block;" opacity="1" transform="matrix(1,0,0,1,233.697998046875,212.19300842285156)"><g transform="matrix(4,0,0,4,0,0)" opacity="1"><path d="M-5.636000156402588,1.4190000295639038 C-5.636000156402588,1.4190000295639038 -0.19599999487400055,-5.810999870300293 -0.19599999487400055,-5.810999870300293 C0.40400001406669617,-6.60099983215332 1.534000039100647,-6.761000156402588 2.3239998817443848,-6.160999774932861 C2.3239998817443848,-6.160999774932861 5.283999919891357,-3.930999994277954 5.283999919891357,-3.930999994277954 C6.073999881744385,-3.3310000896453857 6.234000205993652,-2.2109999656677246 5.633999824523926,-1.4110000133514404 C5.633999824523926,-1.4110000133514404 0.1940000057220459,5.809000015258789 0.1940000057220459,5.809000015258789 C-0.4059999883174896,6.598999977111816 -1.5260000228881836,6.758999824523926 -2.3259999752044678,6.158999919891357 C-2.3259999752044678,6.158999919891357 -5.285999774932861,3.928999900817871 -5.285999774932861,3.928999900817871 C-6.076000213623047,3.3289999961853027 -6.236000061035156,2.2090001106262207 -5.636000156402588,1.4190000295639038z" fill-opacity="1" fill="rgb(255,181,219)"></path></g></g><g style="display: block;" opacity="1" transform="matrix(1,0,0,1,207.1009979248047,168.010009765625)"><g transform="matrix(4,0,0,4,0,0)" opacity="1"><path d="M-5.5920000076293945,-1.5870000123977661 C-5.5920000076293945,-1.5870000123977661 2.73799991607666,-5.126999855041504 2.73799991607666,-5.126999855041504 C3.6480000019073486,-5.506999969482422 4.708000183105469,-5.086999893188477 5.0879998207092285,-4.177000045776367 C5.0879998207092285,-4.177000045776367 6.538000106811523,-0.7670000195503235 6.538000106811523,-0.7670000195503235 C6.927999973297119,0.15299999713897705 6.498000144958496,1.2029999494552612 5.5879998207092285,1.593000054359436 C5.5879998207092285,1.593000054359436 -2.742000102996826,5.123000144958496 -2.742000102996826,5.123000144958496 C-3.6519999504089355,5.513000011444092 -4.702000141143799,5.083000183105469 -5.0920000076293945,4.172999858856201 C-5.0920000076293945,4.172999858856201 -6.541999816894531,0.7630000114440918 -6.541999816894531,0.7630000114440918 C-6.921999931335449,-0.1469999998807907 -6.501999855041504,-1.2070000171661377 -5.5920000076293945,-1.5870000123977661z" fill-opacity="1" fill="rgb(255,181,219)"></path></g></g></g></g></svg>