<svg style="width: 100%; height: 100%; transform: translate3d(0px, 0px, 0px);" preserveAspectRatio="xMidYMid meet" height="135" width="135" viewBox="0 0 135 135" xmlns="http://www.w3.org/2000/svg"><defs><clipPath id="__lottie_element_11431"><rect y="0" x="0" height="135" width="135"></rect></clipPath><clipPath id="__lottie_element_11433"><path d="M0,0 L540,0 L540,540 L0,540z"></path></clipPath><clipPath id="__lottie_element_11437"><path d="M0,0 L540,0 L540,540 L0,540z"></path></clipPath><mask id="__lottie_element_11440"><g style="display: none;"><g><path stroke-miterlimit="4" fill-opacity="0" stroke-linejoin="miter" stroke-linecap="round"></path></g></g></mask><mask id="__lottie_element_11451"><g style="display: none;" clip-path="url(#__lottie_element_11452)"><g style="display: none;"><g><path></path></g></g><g style="display: none;" mask="url(#__lottie_element_11455)"><g clip-path="url(#__lottie_element_11459)"><g style="display: none;"><g><path></path></g></g><g style="display: none;"><g><path></path></g></g></g></g></g></mask><clipPath id="__lottie_element_11452"><path d="M0,0 L540,0 L540,540 L0,540z"></path></clipPath><mask id="__lottie_element_11455"><g style="display: none;"><g><path></path></g></g></mask><clipPath id="__lottie_element_11459"><path d="M0,0 L540,0 L540,540 L0,540z"></path></clipPath><clipPath id="__lottie_element_11475"><path d="M0,0 L540,0 L540,540 L0,540z"></path></clipPath><mask id="__lottie_element_11478"><g style="display: none;"><g><path></path></g></g></mask><clipPath id="__lottie_element_11482"><path d="M0,0 L540,0 L540,540 L0,540z"></path></clipPath><clipPath id="__lottie_element_11495"><path d="M0,0 L540,0 L540,540 L0,540z"></path></clipPath><mask id="__lottie_element_11498"><g style="display: block;" opacity="1" transform="matrix(0.998081386089325,-0.061915505677461624,0.061915505677461624,0.998081386089325,266.0034484863281,267.0889892578125)"><g transform="matrix(1,0,0,1,0,0)" opacity="1"><path d="M-49,63 C-49,63 18.660999298095703,100.36499786376953 18.660999298095703,100.36499786376953 C18.660999298095703,100.36499786376953 51.5,118.5 51.5,118.5" stroke-width="138" stroke-opacity="1" stroke="rgb(255,255,255)" stroke-miterlimit="4" fill-opacity="0" stroke-linejoin="miter" stroke-linecap="round"></path></g></g></mask><mask id="__lottie_element_11509"><g style="display: block;" opacity="1" transform="matrix(0.999970018863678,-0.007747582625597715,0.007747582625597715,0.999970018863678,-2.575164794921875,1.724212646484375)" clip-path="url(#__lottie_element_11510)"><g style="display: block;" opacity="1" transform="matrix(1,0,0,1,220,238)"><g transform="matrix(4,0,0,4,0,0)" opacity="1"><path d="M-12,-40.5 C-12,-40.5 12,-40.5 12,-40.5 C14.760000228881836,-40.5 17,-38.2599983215332 17,-35.5 C17,-35.5 17,23.5 17,23.5 C17,32.88999938964844 9.390000343322754,40.5 0,40.5 C-9.390000343322754,40.5 -17,32.88999938964844 -17,23.5 C-17,23.5 -17,-35.5 -17,-35.5 C-17,-38.2599983215332 -14.760000228881836,-40.5 -12,-40.5z" fill-opacity="1" fill="rgb(255,255,255)"></path></g></g><g style="display: block;" mask="url(#__lottie_element_11513)"><g opacity="1" transform="matrix(1,0,0,1,0,0)" clip-path="url(#__lottie_element_11517)"><g style="display: block;" opacity="1" transform="matrix(1,0,0,1,220.51600646972656,134.0749969482422)"><g transform="matrix(4,0,0,4,0,0)" opacity="1"><path d="M-17.128999710083008,-3.9159998893737793 C-17.128999710083008,-3.9159998893737793 17.131000518798828,-3.9159998893737793 17.131000518798828,-3.9159998893737793 C17.131000518798828,-3.9159998893737793 17.131000518798828,3.9140000343322754 17.131000518798828,3.9140000343322754 C17.131000518798828,3.9140000343322754 -17.128999710083008,3.9140000343322754 -17.128999710083008,3.9140000343322754 C-17.128999710083008,3.9140000343322754 -17.128999710083008,-3.9159998893737793 -17.128999710083008,-3.9159998893737793z" fill-opacity="1" fill="rgb(255,84,84)"></path></g></g><g style="display: block;" opacity="1" transform="matrix(1,0,0,1,220.51600646972656,184.95399475097656)"><g transform="matrix(4,0,0,4,0,0)" opacity="1"><path d="M-17.128999710083008,-3.9159998893737793 C-17.128999710083008,-3.9159998893737793 17.131000518798828,-3.9159998893737793 17.131000518798828,-3.9159998893737793 C17.131000518798828,-3.9159998893737793 17.131000518798828,3.9140000343322754 17.131000518798828,3.9140000343322754 C17.131000518798828,3.9140000343322754 -17.128999710083008,3.9140000343322754 -17.128999710083008,3.9140000343322754 C-17.128999710083008,3.9140000343322754 -17.128999710083008,-3.9159998893737793 -17.128999710083008,-3.9159998893737793z" fill-opacity="1" fill="rgb(255,84,84)"></path></g></g></g></g></g></mask><clipPath id="__lottie_element_11510"><path d="M0,0 L540,0 L540,540 L0,540z"></path></clipPath><mask id="__lottie_element_11513"><g style="display: block;" opacity="1" transform="matrix(1,0,0,1,220,238)"><g transform="matrix(4,0,0,4,0,0)" opacity="1"><path d="M-12,-40.5 C-12,-40.5 12,-40.5 12,-40.5 C14.760000228881836,-40.5 17,-38.2599983215332 17,-35.5 C17,-35.5 17,23.5 17,23.5 C17,32.88999938964844 9.390000343322754,40.5 0,40.5 C-9.390000343322754,40.5 -17,32.88999938964844 -17,23.5 C-17,23.5 -17,-35.5 -17,-35.5 C-17,-38.2599983215332 -14.760000228881836,-40.5 -12,-40.5z" fill-opacity="1" fill="rgb(255,255,255)"></path></g></g></mask><clipPath id="__lottie_element_11517"><path d="M0,0 L540,0 L540,540 L0,540z"></path></clipPath><clipPath id="__lottie_element_11533"><path d="M0,0 L540,0 L540,540 L0,540z"></path></clipPath><mask id="__lottie_element_11536"><g style="display: block;" opacity="1" transform="matrix(1,0,0,1,220,238)"><g transform="matrix(4,0,0,4,0,0)" opacity="1"><path d="M-12,-40.5 C-12,-40.5 12,-40.5 12,-40.5 C14.760000228881836,-40.5 17,-38.2599983215332 17,-35.5 C17,-35.5 17,23.5 17,23.5 C17,32.88999938964844 9.390000343322754,40.5 0,40.5 C-9.390000343322754,40.5 -17,32.88999938964844 -17,23.5 C-17,23.5 -17,-35.5 -17,-35.5 C-17,-38.2599983215332 -14.760000228881836,-40.5 -12,-40.5z" fill-opacity="1" fill="rgb(255,255,255)"></path></g></g></mask><clipPath id="__lottie_element_11540"><path d="M0,0 L540,0 L540,540 L0,540z"></path></clipPath></defs><g clip-path="url(#__lottie_element_11431)"><g style="display: block;" opacity="1" transform="matrix(0.25,0,0,0.25,0,0)" clip-path="url(#__lottie_element_11433)"><g style="display: block;" opacity="1" transform="matrix(1,0,0,1,0,0)" clip-path="url(#__lottie_element_11495)"><g style="display: block;" opacity="1" transform="matrix(0.999970018863678,-0.007747582625597715,0.007747582625597715,0.999970018863678,-2.575164794921875,1.724212646484375)" clip-path="url(#__lottie_element_11533)"><g style="display: block;" opacity="1" transform="matrix(1,0,0,1,220,238)"><g transform="matrix(4,0,0,4,0,0)" opacity="1"><path d="M-12,-40.5 C-12,-40.5 12,-40.5 12,-40.5 C14.760000228881836,-40.5 17,-38.2599983215332 17,-35.5 C17,-35.5 17,23.5 17,23.5 C17,32.88999938964844 9.390000343322754,40.5 0,40.5 C-9.390000343322754,40.5 -17,32.88999938964844 -17,23.5 C-17,23.5 -17,-35.5 -17,-35.5 C-17,-38.2599983215332 -14.760000228881836,-40.5 -12,-40.5z" fill-opacity="1" fill="rgb(255,255,255)"></path></g></g><g style="display: block;" mask="url(#__lottie_element_11536)"><g opacity="1" transform="matrix(1,0,0,1,0,0)" clip-path="url(#__lottie_element_11540)"><g style="display: block;" opacity="1" transform="matrix(1,0,0,1,220.51600646972656,134.0749969482422)"><g transform="matrix(4,0,0,4,0,0)" opacity="1"><path d="M-17.128999710083008,-3.9159998893737793 C-17.128999710083008,-3.9159998893737793 17.131000518798828,-3.9159998893737793 17.131000518798828,-3.9159998893737793 C17.131000518798828,-3.9159998893737793 17.131000518798828,3.9140000343322754 17.131000518798828,3.9140000343322754 C17.131000518798828,3.9140000343322754 -17.128999710083008,3.9140000343322754 -17.128999710083008,3.9140000343322754 C-17.128999710083008,3.9140000343322754 -17.128999710083008,-3.9159998893737793 -17.128999710083008,-3.9159998893737793z" fill-opacity="1" fill="rgb(255,84,84)"></path></g></g><g style="display: block;" opacity="1" transform="matrix(1,0,0,1,220.51600646972656,184.95399475097656)"><g transform="matrix(4,0,0,4,0,0)" opacity="1"><path d="M-17.128999710083008,-3.9159998893737793 C-17.128999710083008,-3.9159998893737793 17.131000518798828,-3.9159998893737793 17.131000518798828,-3.9159998893737793 C17.131000518798828,-3.9159998893737793 17.131000518798828,3.9140000343322754 17.131000518798828,3.9140000343322754 C17.131000518798828,3.9140000343322754 -17.128999710083008,3.9140000343322754 -17.128999710083008,3.9140000343322754 C-17.128999710083008,3.9140000343322754 -17.128999710083008,-3.9159998893737793 -17.128999710083008,-3.9159998893737793z" fill-opacity="1" fill="rgb(255,84,84)"></path></g></g></g></g></g><g style="display: block;" mask="url(#__lottie_element_11509)"><g opacity="0.99" transform="matrix(0.7372274398803711,0.6756446957588196,-0.6756446957588196,0.7372274398803711,180.5727996826172,308.4398193359375)"><g transform="matrix(1,0,0,1,28.68600082397461,67.84600067138672)" opacity="1"><path d="M0,-75 C41.39250183105469,-75 75,-41.39250183105469 75,0 C75,41.39250183105469 41.39250183105469,75 0,75 C-41.39250183105469,75 -75,41.39250183105469 -75,0 C-75,-41.39250183105469 -41.39250183105469,-75 0,-75z" fill-opacity="1" fill="rgb(207,207,207)"></path></g><g transform="matrix(0.9764920473098755,0.21555346250534058,-0.21555346250534058,0.9764920473098755,208.66200256347656,6.28000020980835)" opacity="1"><path d="M-4.693999767303467,-151.3470001220703 C-4.693999767303467,-151.3470001220703 64.39299774169922,-25.410999298095703 64.39299774169922,-25.410999298095703 C64.39299774169922,-25.410999298095703 -15.784000396728516,34.10100173950195 -15.784000396728516,34.10100173950195 C-15.784000396728516,34.10100173950195 -94.18800354003906,-106.62300109863281 -94.18800354003906,-106.62300109863281 C-94.18800354003906,-106.62300109863281 -4.693999767303467,-151.3470001220703 -4.693999767303467,-151.3470001220703z" fill-opacity="1" fill="rgb(207,207,207)"></path></g></g></g><g style="display: block;" opacity="1" transform="matrix(0.998081386089325,-0.061915505677461624,0.061915505677461624,0.998081386089325,266.0034484863281,267.0889892578125)"><g transform="matrix(1,0,0,1,0,0)" opacity="1"><path d="M-49,63 C-49,63 18.660999298095703,100.36499786376953 18.660999298095703,100.36499786376953 C18.660999298095703,100.36499786376953 51.5,118.5 51.5,118.5" stroke-width="138" stroke-opacity="1" stroke="rgb(255,255,255)" stroke-miterlimit="4" fill-opacity="0" stroke-linejoin="miter" stroke-linecap="round"></path></g></g><g style="display: block;" mask="url(#__lottie_element_11498)"><g opacity="0.99" transform="matrix(0.7372274398803711,0.6756446957588196,-0.6756446957588196,0.7372274398803711,180.5727996826172,308.4398193359375)"><g transform="matrix(1,0,0,1,28.68600082397461,67.84600067138672)" opacity="1"><path d="M0,-75 C41.39250183105469,-75 75,-41.39250183105469 75,0 C75,41.39250183105469 41.39250183105469,75 0,75 C-41.39250183105469,75 -75,41.39250183105469 -75,0 C-75,-41.39250183105469 -41.39250183105469,-75 0,-75z" fill-opacity="1" fill="rgb(207,207,207)"></path></g><g transform="matrix(0.9764920473098755,0.21555346250534058,-0.21555346250534058,0.9764920473098755,208.66200256347656,6.28000020980835)" opacity="1"><path d="M-4.693999767303467,-151.3470001220703 C-4.693999767303467,-151.3470001220703 64.39299774169922,-25.410999298095703 64.39299774169922,-25.410999298095703 C64.39299774169922,-25.410999298095703 -15.784000396728516,34.10100173950195 -15.784000396728516,34.10100173950195 C-15.784000396728516,34.10100173950195 -94.18800354003906,-106.62300109863281 -94.18800354003906,-106.62300109863281 C-94.18800354003906,-106.62300109863281 -4.693999767303467,-151.3470001220703 -4.693999767303467,-151.3470001220703z" fill-opacity="1" fill="rgb(207,207,207)"></path></g></g></g></g><g style="display: none;" clip-path="url(#__lottie_element_11437)"><g style="display: none;" clip-path="url(#__lottie_element_11475)"><g style="display: none;"><g><path></path></g></g><g style="display: none;" mask="url(#__lottie_element_11478)"><g clip-path="url(#__lottie_element_11482)"><g style="display: none;"><g><path></path></g></g><g style="display: none;"><g><path></path></g></g></g></g></g><g style="display: none;" mask="url(#__lottie_element_11451)"><g><g><path></path></g><g><path></path></g></g></g><g style="display: none;"><g><path stroke-miterlimit="4" fill-opacity="0" stroke-linejoin="miter" stroke-linecap="round"></path></g></g><g style="display: none;" mask="url(#__lottie_element_11440)"><g><g><path></path></g><g><path></path></g></g></g></g></g></g></svg>