<svg style="width: 100%; height: 100%; transform: translate3d(0px, 0px, 0px);" preserveAspectRatio="xMidYMid meet" height="135" width="135" viewBox="0 0 135 135" xmlns="http://www.w3.org/2000/svg"><defs><clipPath id="__lottie_element_11553"><rect y="0" x="0" height="135" width="135"></rect></clipPath><clipPath id="__lottie_element_11555"><path d="M0,0 L540,0 L540,540 L0,540z"></path></clipPath><clipPath id="__lottie_element_11563"><path d="M0,0 L540,0 L540,540 L0,540z"></path></clipPath><clipPath id="__lottie_element_11564"><path fill-opacity="1" d="M658.9359741210938,-178.15199279785156 C658.9359741210938,-178.15199279785156 238.15499877929688,-178.25599670410156 238.15499877929688,-178.25599670410156 C238.15499877929688,-178.25599670410156 238.15499877929688,381.8070068359375 238.15499877929688,381.8070068359375 C238.15499877929688,381.8070068359375 658.9359741210938,381.9110107421875 658.9359741210938,381.9110107421875 C658.9359741210938,381.9110107421875 658.9359741210938,-178.15199279785156 658.9359741210938,-178.15199279785156" clip-rule="nonzero" fill="#ffffff"></path></clipPath><clipPath id="__lottie_element_11567"><path d="M0,0 L540,0 L540,540 L0,540z"></path></clipPath><mask id="__lottie_element_11573"><g style="display: block;" opacity="1" transform="matrix(1,0,0,1,319.3399963378906,108.27400207519531)"><g transform="matrix(2.7411201000213623,0,0,2.7411201000213623,0,0)" opacity="1"><path d="M-24.5,-29.5 C-24.5,-29.5 24.5,-29.5 24.5,-29.5 C28.3700008392334,-29.5 31.5,-26.3700008392334 31.5,-22.5 C31.5,-22.5 31.5,0 31.5,0 C31.5,16.290000915527344 18.290000915527344,29.5 2,29.5 C2,29.5 -2,29.5 -2,29.5 C-18.290000915527344,29.5 -31.5,16.290000915527344 -31.5,0 C-31.5,0 -31.5,-22.5 -31.5,-22.5 C-31.5,-26.3700008392334 -28.3700008392334,-29.5 -24.5,-29.5z" fill-opacity="1" fill="rgb(75,75,75)"></path><path d="M-24.5,-29.5 C-24.5,-29.5 24.5,-29.5 24.5,-29.5 C28.3700008392334,-29.5 31.5,-26.3700008392334 31.5,-22.5 C31.5,-22.5 31.5,0 31.5,0 C31.5,16.290000915527344 18.290000915527344,29.5 2,29.5 C2,29.5 -2,29.5 -2,29.5 C-18.290000915527344,29.5 -31.5,16.290000915527344 -31.5,0 C-31.5,0 -31.5,-22.5 -31.5,-22.5 C-31.5,-26.3700008392334 -28.3700008392334,-29.5 -24.5,-29.5z" stroke-width="7" stroke-opacity="1" stroke="rgb(66,66,66)" stroke-miterlimit="4" fill-opacity="0" stroke-linejoin="miter" stroke-linecap="butt"></path></g></g></mask><mask id="__lottie_element_11579"><g style="display: block;" opacity="1" transform="matrix(1,0,0,1,319.3399963378906,108.27400207519531)"><g transform="matrix(2.7411201000213623,0,0,2.7411201000213623,0,0)" opacity="1"><path d="M-24.5,-29.5 C-24.5,-29.5 24.5,-29.5 24.5,-29.5 C28.3700008392334,-29.5 31.5,-26.3700008392334 31.5,-22.5 C31.5,-22.5 31.5,0 31.5,0 C31.5,16.290000915527344 18.290000915527344,29.5 2,29.5 C2,29.5 -2,29.5 -2,29.5 C-18.290000915527344,29.5 -31.5,16.290000915527344 -31.5,0 C-31.5,0 -31.5,-22.5 -31.5,-22.5 C-31.5,-26.3700008392334 -28.3700008392334,-29.5 -24.5,-29.5z" fill-opacity="1" fill="rgb(75,75,75)"></path><path d="M-24.5,-29.5 C-24.5,-29.5 24.5,-29.5 24.5,-29.5 C28.3700008392334,-29.5 31.5,-26.3700008392334 31.5,-22.5 C31.5,-22.5 31.5,0 31.5,0 C31.5,16.290000915527344 18.290000915527344,29.5 2,29.5 C2,29.5 -2,29.5 -2,29.5 C-18.290000915527344,29.5 -31.5,16.290000915527344 -31.5,0 C-31.5,0 -31.5,-22.5 -31.5,-22.5 C-31.5,-26.3700008392334 -28.3700008392334,-29.5 -24.5,-29.5z" stroke-width="7" stroke-opacity="1" stroke="rgb(66,66,66)" stroke-miterlimit="4" fill-opacity="0" stroke-linejoin="miter" stroke-linecap="butt"></path></g></g></mask><linearGradient y2="0" x2="12.180000305175781" y1="0" x1="-24.70599937438965" gradientUnits="userSpaceOnUse" spreadMethod="pad" id="__lottie_element_11585"><stop stop-color="rgb(76,76,76)" offset="0%"></stop><stop stop-color="rgb(83,83,83)" offset="50%"></stop><stop stop-color="rgb(90,90,90)" offset="100%"></stop></linearGradient><clipPath id="__lottie_element_11590"><path d="M0,0 L540,0 L540,540 L0,540z"></path></clipPath><mask id="__lottie_element_11596"><g style="display: block;" opacity="1" transform="matrix(1,0,0,1,319.3399963378906,108.27400207519531)"><g transform="matrix(2.7411201000213623,0,0,2.7411201000213623,0,0)" opacity="1"><path d="M-24.5,-29.5 C-24.5,-29.5 24.5,-29.5 24.5,-29.5 C28.3700008392334,-29.5 31.5,-26.3700008392334 31.5,-22.5 C31.5,-22.5 31.5,0 31.5,0 C31.5,16.290000915527344 18.290000915527344,29.5 2,29.5 C2,29.5 -2,29.5 -2,29.5 C-18.290000915527344,29.5 -31.5,16.290000915527344 -31.5,0 C-31.5,0 -31.5,-22.5 -31.5,-22.5 C-31.5,-26.3700008392334 -28.3700008392334,-29.5 -24.5,-29.5z" fill-opacity="1" fill="rgb(75,75,75)"></path><path d="M-24.5,-29.5 C-24.5,-29.5 24.5,-29.5 24.5,-29.5 C28.3700008392334,-29.5 31.5,-26.3700008392334 31.5,-22.5 C31.5,-22.5 31.5,0 31.5,0 C31.5,16.290000915527344 18.290000915527344,29.5 2,29.5 C2,29.5 -2,29.5 -2,29.5 C-18.290000915527344,29.5 -31.5,16.290000915527344 -31.5,0 C-31.5,0 -31.5,-22.5 -31.5,-22.5 C-31.5,-26.3700008392334 -28.3700008392334,-29.5 -24.5,-29.5z" stroke-width="7" stroke-opacity="1" stroke="rgb(66,66,66)" stroke-miterlimit="4" fill-opacity="0" stroke-linejoin="miter" stroke-linecap="butt"></path></g></g></mask><mask id="__lottie_element_11602"><g style="display: block;" opacity="1" transform="matrix(1,0,0,1,319.3399963378906,108.27400207519531)"><g transform="matrix(2.7411201000213623,0,0,2.7411201000213623,0,0)" opacity="1"><path d="M-24.5,-29.5 C-24.5,-29.5 24.5,-29.5 24.5,-29.5 C28.3700008392334,-29.5 31.5,-26.3700008392334 31.5,-22.5 C31.5,-22.5 31.5,0 31.5,0 C31.5,16.290000915527344 18.290000915527344,29.5 2,29.5 C2,29.5 -2,29.5 -2,29.5 C-18.290000915527344,29.5 -31.5,16.290000915527344 -31.5,0 C-31.5,0 -31.5,-22.5 -31.5,-22.5 C-31.5,-26.3700008392334 -28.3700008392334,-29.5 -24.5,-29.5z" fill-opacity="1" fill="rgb(75,75,75)"></path><path d="M-24.5,-29.5 C-24.5,-29.5 24.5,-29.5 24.5,-29.5 C28.3700008392334,-29.5 31.5,-26.3700008392334 31.5,-22.5 C31.5,-22.5 31.5,0 31.5,0 C31.5,16.290000915527344 18.290000915527344,29.5 2,29.5 C2,29.5 -2,29.5 -2,29.5 C-18.290000915527344,29.5 -31.5,16.290000915527344 -31.5,0 C-31.5,0 -31.5,-22.5 -31.5,-22.5 C-31.5,-26.3700008392334 -28.3700008392334,-29.5 -24.5,-29.5z" stroke-width="7" stroke-opacity="1" stroke="rgb(66,66,66)" stroke-miterlimit="4" fill-opacity="0" stroke-linejoin="miter" stroke-linecap="butt"></path></g></g></mask><linearGradient y2="0" x2="12.180000305175781" y1="0" x1="-24.70599937438965" gradientUnits="userSpaceOnUse" spreadMethod="pad" id="__lottie_element_11608"><stop stop-color="rgb(76,76,76)" offset="0%"></stop><stop stop-color="rgb(83,83,83)" offset="50%"></stop><stop stop-color="rgb(90,90,90)" offset="100%"></stop></linearGradient><clipPath id="__lottie_element_11613"><path d="M0,0 L540,0 L540,540 L0,540z"></path></clipPath><mask id="__lottie_element_11616"><g style="display: block;" opacity="1" transform="matrix(1,0,0,1,204.21299743652344,89.08599853515625)"><g transform="matrix(2.7411201000213623,0,0,2.7411201000213623,0,0)" opacity="1"><path d="M14,10.5 C11.180000305175781,4.550000190734863 5.03000020980835,0.5 -2,0.5 C-7.960000038146973,0.5 -13.300000190734863,3.4200000762939453 -16.5,7.929999828338623 C-16.5,7.929999828338623 -16.5,-4.5 -16.5,-4.5 C-11.430000305175781,-8.5 -6.099999904632568,-10.5 -0.5,-10.5 C5.099999904632568,-10.5 10.770000457763672,-8.5 16.5,-4.5 C16.5,-4.5 16.5,10.5 16.5,10.5 C16.5,10.5 14,10.5 14,10.5 C14,10.5 14,10.5 14,10.5z" fill-opacity="1" fill="rgb(75,75,75)"></path></g></g></mask><mask id="__lottie_element_11627"><g style="display: none;"><g><path></path></g></g></mask><clipPath id="__lottie_element_11634"><path d="M0,0 L540,0 L540,540 L0,540z"></path></clipPath><clipPath id="__lottie_element_11647"><path d="M0,0 L540,0 L540,540 L0,540z"></path></clipPath><clipPath id="__lottie_element_11651"><path d="M0,0 L540,0 L540,540 L0,540z"></path></clipPath><mask id="__lottie_element_11657"><g style="display: block;" opacity="1" transform="matrix(1,0,0,1,319.3399963378906,108.27400207519531)"><g transform="matrix(2.7411201000213623,0,0,2.7411201000213623,0,0)" opacity="1"><path d="M-24.5,-29.5 C-24.5,-29.5 24.5,-29.5 24.5,-29.5 C28.3700008392334,-29.5 31.5,-26.3700008392334 31.5,-22.5 C31.5,-22.5 31.5,0 31.5,0 C31.5,16.290000915527344 18.290000915527344,29.5 2,29.5 C2,29.5 -2,29.5 -2,29.5 C-18.290000915527344,29.5 -31.5,16.290000915527344 -31.5,0 C-31.5,0 -31.5,-22.5 -31.5,-22.5 C-31.5,-26.3700008392334 -28.3700008392334,-29.5 -24.5,-29.5z" fill-opacity="1" fill="rgb(75,75,75)"></path><path d="M-24.5,-29.5 C-24.5,-29.5 24.5,-29.5 24.5,-29.5 C28.3700008392334,-29.5 31.5,-26.3700008392334 31.5,-22.5 C31.5,-22.5 31.5,0 31.5,0 C31.5,16.290000915527344 18.290000915527344,29.5 2,29.5 C2,29.5 -2,29.5 -2,29.5 C-18.290000915527344,29.5 -31.5,16.290000915527344 -31.5,0 C-31.5,0 -31.5,-22.5 -31.5,-22.5 C-31.5,-26.3700008392334 -28.3700008392334,-29.5 -24.5,-29.5z" stroke-width="7" stroke-opacity="1" stroke="rgb(66,66,66)" stroke-miterlimit="4" fill-opacity="0" stroke-linejoin="miter" stroke-linecap="butt"></path></g></g></mask><mask id="__lottie_element_11663"><g style="display: block;" opacity="1" transform="matrix(1,0,0,1,319.3399963378906,108.27400207519531)"><g transform="matrix(2.7411201000213623,0,0,2.7411201000213623,0,0)" opacity="1"><path d="M-24.5,-29.5 C-24.5,-29.5 24.5,-29.5 24.5,-29.5 C28.3700008392334,-29.5 31.5,-26.3700008392334 31.5,-22.5 C31.5,-22.5 31.5,0 31.5,0 C31.5,16.290000915527344 18.290000915527344,29.5 2,29.5 C2,29.5 -2,29.5 -2,29.5 C-18.290000915527344,29.5 -31.5,16.290000915527344 -31.5,0 C-31.5,0 -31.5,-22.5 -31.5,-22.5 C-31.5,-26.3700008392334 -28.3700008392334,-29.5 -24.5,-29.5z" fill-opacity="1" fill="rgb(75,75,75)"></path><path d="M-24.5,-29.5 C-24.5,-29.5 24.5,-29.5 24.5,-29.5 C28.3700008392334,-29.5 31.5,-26.3700008392334 31.5,-22.5 C31.5,-22.5 31.5,0 31.5,0 C31.5,16.290000915527344 18.290000915527344,29.5 2,29.5 C2,29.5 -2,29.5 -2,29.5 C-18.290000915527344,29.5 -31.5,16.290000915527344 -31.5,0 C-31.5,0 -31.5,-22.5 -31.5,-22.5 C-31.5,-26.3700008392334 -28.3700008392334,-29.5 -24.5,-29.5z" stroke-width="7" stroke-opacity="1" stroke="rgb(66,66,66)" stroke-miterlimit="4" fill-opacity="0" stroke-linejoin="miter" stroke-linecap="butt"></path></g></g></mask><linearGradient y2="0" x2="12.180000305175781" y1="0" x1="-24.70599937438965" gradientUnits="userSpaceOnUse" spreadMethod="pad" id="__lottie_element_11669"><stop stop-color="rgb(76,76,76)" offset="0%"></stop><stop stop-color="rgb(83,83,83)" offset="50%"></stop><stop stop-color="rgb(90,90,90)" offset="100%"></stop></linearGradient><clipPath id="__lottie_element_11674"><path d="M0,0 L540,0 L540,540 L0,540z"></path></clipPath><mask id="__lottie_element_11680"><g style="display: block;" opacity="1" transform="matrix(1,0,0,1,319.3399963378906,108.27400207519531)"><g transform="matrix(2.7411201000213623,0,0,2.7411201000213623,0,0)" opacity="1"><path d="M-24.5,-29.5 C-24.5,-29.5 24.5,-29.5 24.5,-29.5 C28.3700008392334,-29.5 31.5,-26.3700008392334 31.5,-22.5 C31.5,-22.5 31.5,0 31.5,0 C31.5,16.290000915527344 18.290000915527344,29.5 2,29.5 C2,29.5 -2,29.5 -2,29.5 C-18.290000915527344,29.5 -31.5,16.290000915527344 -31.5,0 C-31.5,0 -31.5,-22.5 -31.5,-22.5 C-31.5,-26.3700008392334 -28.3700008392334,-29.5 -24.5,-29.5z" fill-opacity="1" fill="rgb(75,75,75)"></path><path d="M-24.5,-29.5 C-24.5,-29.5 24.5,-29.5 24.5,-29.5 C28.3700008392334,-29.5 31.5,-26.3700008392334 31.5,-22.5 C31.5,-22.5 31.5,0 31.5,0 C31.5,16.290000915527344 18.290000915527344,29.5 2,29.5 C2,29.5 -2,29.5 -2,29.5 C-18.290000915527344,29.5 -31.5,16.290000915527344 -31.5,0 C-31.5,0 -31.5,-22.5 -31.5,-22.5 C-31.5,-26.3700008392334 -28.3700008392334,-29.5 -24.5,-29.5z" stroke-width="7" stroke-opacity="1" stroke="rgb(66,66,66)" stroke-miterlimit="4" fill-opacity="0" stroke-linejoin="miter" stroke-linecap="butt"></path></g></g></mask><mask id="__lottie_element_11686"><g style="display: block;" opacity="1" transform="matrix(1,0,0,1,319.3399963378906,108.27400207519531)"><g transform="matrix(2.7411201000213623,0,0,2.7411201000213623,0,0)" opacity="1"><path d="M-24.5,-29.5 C-24.5,-29.5 24.5,-29.5 24.5,-29.5 C28.3700008392334,-29.5 31.5,-26.3700008392334 31.5,-22.5 C31.5,-22.5 31.5,0 31.5,0 C31.5,16.290000915527344 18.290000915527344,29.5 2,29.5 C2,29.5 -2,29.5 -2,29.5 C-18.290000915527344,29.5 -31.5,16.290000915527344 -31.5,0 C-31.5,0 -31.5,-22.5 -31.5,-22.5 C-31.5,-26.3700008392334 -28.3700008392334,-29.5 -24.5,-29.5z" fill-opacity="1" fill="rgb(75,75,75)"></path><path d="M-24.5,-29.5 C-24.5,-29.5 24.5,-29.5 24.5,-29.5 C28.3700008392334,-29.5 31.5,-26.3700008392334 31.5,-22.5 C31.5,-22.5 31.5,0 31.5,0 C31.5,16.290000915527344 18.290000915527344,29.5 2,29.5 C2,29.5 -2,29.5 -2,29.5 C-18.290000915527344,29.5 -31.5,16.290000915527344 -31.5,0 C-31.5,0 -31.5,-22.5 -31.5,-22.5 C-31.5,-26.3700008392334 -28.3700008392334,-29.5 -24.5,-29.5z" stroke-width="7" stroke-opacity="1" stroke="rgb(66,66,66)" stroke-miterlimit="4" fill-opacity="0" stroke-linejoin="miter" stroke-linecap="butt"></path></g></g></mask><linearGradient y2="0" x2="12.180000305175781" y1="0" x1="-24.70599937438965" gradientUnits="userSpaceOnUse" spreadMethod="pad" id="__lottie_element_11692"><stop stop-color="rgb(76,76,76)" offset="0%"></stop><stop stop-color="rgb(83,83,83)" offset="50%"></stop><stop stop-color="rgb(90,90,90)" offset="100%"></stop></linearGradient><clipPath id="__lottie_element_11697"><path d="M0,0 L540,0 L540,540 L0,540z"></path></clipPath><mask id="__lottie_element_11700"><g style="display: block;" opacity="1" transform="matrix(1,0,0,1,204.21299743652344,89.08599853515625)"><g transform="matrix(2.7411201000213623,0,0,2.7411201000213623,0,0)" opacity="1"><path d="M14,10.5 C11.180000305175781,4.550000190734863 5.03000020980835,0.5 -2,0.5 C-7.960000038146973,0.5 -13.300000190734863,3.4200000762939453 -16.5,7.929999828338623 C-16.5,7.929999828338623 -16.5,-4.5 -16.5,-4.5 C-11.430000305175781,-8.5 -6.099999904632568,-10.5 -0.5,-10.5 C5.099999904632568,-10.5 10.770000457763672,-8.5 16.5,-4.5 C16.5,-4.5 16.5,10.5 16.5,10.5 C16.5,10.5 14,10.5 14,10.5 C14,10.5 14,10.5 14,10.5z" fill-opacity="1" fill="rgb(75,75,75)"></path></g></g></mask></defs><g clip-path="url(#__lottie_element_11553)"><g style="display: block;" opacity="1" transform="matrix(0.25,0,0,0.25,0,0)" clip-path="url(#__lottie_element_11555)"><g style="display: block;" opacity="1" transform="matrix(1,0,0,1,267.2659912109375,274.3030090332031)"><g transform="matrix(4,0,0,4,0,0)" opacity="1"><path d="M7.046999931335449,41.56800079345703 C7.046999931335449,41.56800079345703 3.506999969482422,46.63800048828125 3.506999969482422,46.63800048828125 C2.306999921798706,48.358001708984375 -0.06300000101327896,48.77799987792969 -1.7829999923706055,47.577999114990234 C-2.132999897003174,47.3380012512207 -2.433000087738037,47.03799819946289 -2.683000087738037,46.6879997253418 C-2.683000087738037,46.6879997253418 -6.313000202178955,41.6879997253418 -6.313000202178955,41.6879997253418 C-10.442999839782715,35.987998962402344 -17.472999572753906,33.14799880981445 -24.413000106811523,34.36800003051758 C-24.413000106811523,34.36800003051758 -30.493000030517578,35.448001861572266 -30.493000030517578,35.448001861572266 C-32.5629997253418,35.81800079345703 -34.53300094604492,34.4379997253418 -34.893001556396484,32.37799835205078 C-34.972999572753906,31.95800018310547 -34.972999572753906,31.527999877929688 -34.90299987792969,31.118000030517578 C-34.90299987792969,31.118000030517578 -33.93299865722656,25.007999420166016 -33.93299865722656,25.007999420166016 C-32.823001861572266,18.04800033569336 -35.792999267578125,11.067999839782715 -41.5629997253418,7.038000106811523 C-41.5629997253418,7.038000106811523 -46.632999420166016,3.497999906539917 -46.632999420166016,3.497999906539917 C-48.35300064086914,2.2980000972747803 -48.77299880981445,-0.07199999690055847 -47.5629997253418,-1.7920000553131104 C-47.323001861572266,-2.1419999599456787 -47.02299880981445,-2.441999912261963 -46.68299865722656,-2.691999912261963 C-46.68299865722656,-2.691999912261963 -41.68299865722656,-6.322000026702881 -41.68299865722656,-6.322000026702881 C-35.983001708984375,-10.45199966430664 -33.143001556396484,-17.48200035095215 -34.37300109863281,-24.422000885009766 C-34.37300109863281,-24.422000885009766 -35.452999114990234,-30.50200080871582 -35.452999114990234,-30.50200080871582 C-35.8129997253418,-32.571998596191406 -34.44300079345703,-34.54199981689453 -32.37300109863281,-34.9119987487793 C-31.952999114990234,-34.981998443603516 -31.533000946044922,-34.992000579833984 -31.113000869750977,-34.922000885009766 C-31.113000869750977,-34.922000885009766 -25.01300048828125,-33.95199966430664 -25.01300048828125,-33.95199966430664 C-18.05299949645996,-32.84199905395508 -11.083000183105469,-35.801998138427734 -7.043000221252441,-41.571998596191406 C-7.043000221252441,-41.571998596191406 -3.503000020980835,-46.641998291015625 -3.503000020980835,-46.641998291015625 C-2.302999973297119,-48.36199951171875 0.06700000166893005,-48.78200149536133 1.7869999408721924,-47.582000732421875 C2.127000093460083,-47.332000732421875 2.437000036239624,-47.03200149536133 2.687000036239624,-46.69200134277344 C2.687000036239624,-46.69200134277344 6.307000160217285,-41.68199920654297 6.307000160217285,-41.68199920654297 C10.446999549865723,-35.981998443603516 17.476999282836914,-33.141998291015625 24.406999588012695,-34.37200164794922 C24.406999588012695,-34.37200164794922 30.496999740600586,-35.45199966430664 30.496999740600586,-35.45199966430664 C32.55699920654297,-35.821998596191406 34.527000427246094,-34.44200134277344 34.89699935913086,-32.37200164794922 C34.96699905395508,-31.961999893188477 34.97700119018555,-31.531999588012695 34.90700149536133,-31.11199951171875 C34.90700149536133,-31.11199951171875 33.9370002746582,-25.011999130249023 33.9370002746582,-25.011999130249023 C32.82699966430664,-18.052000045776367 35.7869987487793,-11.071999549865723 41.56700134277344,-7.041999816894531 C41.56700134277344,-7.041999816894531 46.62699890136719,-3.502000093460083 46.62699890136719,-3.502000093460083 C48.34700012207031,-2.2920000553131104 48.766998291015625,0.07800000160932541 47.56700134277344,1.7879999876022339 C47.32699966430664,2.138000011444092 47.027000427246094,2.447999954223633 46.6870002746582,2.687999963760376 C46.6870002746582,2.687999963760376 41.676998138427734,6.317999839782715 41.676998138427734,6.317999839782715 C35.97700119018555,10.458000183105469 33.137001037597656,17.47800064086914 34.367000579833984,24.417999267578125 C34.367000579833984,24.417999267578125 35.446998596191406,30.507999420166016 35.446998596191406,30.507999420166016 C35.81700134277344,32.56800079345703 34.4370002746582,34.53799819946289 32.37699890136719,34.90800094604492 C31.957000732421875,34.97800064086914 31.527000427246094,34.987998962402344 31.10700035095215,34.917999267578125 C31.10700035095215,34.917999267578125 25.006999969482422,33.948001861572266 25.006999969482422,33.948001861572266 C18.05699920654297,32.8380012512207 11.07699966430664,35.79800033569336 7.046999931335449,41.56800079345703 C7.046999931335449,41.56800079345703 7.046999931335449,41.56800079345703 7.046999931335449,41.56800079345703z" fill-opacity="1" fill="rgb(255,188,0)"></path></g></g><g style="display: block;" opacity="1" transform="matrix(0.44999998807907104,0,0,0.44999998807907104,172.39999389648438,216.80001831054688)" clip-path="url(#__lottie_element_11647)"><g style="display: block;" opacity="1" transform="matrix(1,0,0,1,14,0)" clip-path="url(#__lottie_element_11697)"><g style="display: block;" opacity="1" transform="matrix(1,0,0,1,204.21299743652344,89.08599853515625)"><g transform="matrix(2.7411201000213623,0,0,2.7411201000213623,0,0)" opacity="1"><path d="M14,10.5 C11.180000305175781,4.550000190734863 5.03000020980835,0.5 -2,0.5 C-7.960000038146973,0.5 -13.300000190734863,3.4200000762939453 -16.5,7.929999828338623 C-16.5,7.929999828338623 -16.5,-4.5 -16.5,-4.5 C-11.430000305175781,-8.5 -6.099999904632568,-10.5 -0.5,-10.5 C5.099999904632568,-10.5 10.770000457763672,-8.5 16.5,-4.5 C16.5,-4.5 16.5,10.5 16.5,10.5 C16.5,10.5 14,10.5 14,10.5 C14,10.5 14,10.5 14,10.5z" fill-opacity="1" fill="rgb(75,75,75)"></path></g></g><g style="display: block;" mask="url(#__lottie_element_11700)"><g opacity="1" transform="matrix(1,0,0,1,234.36500549316406,83.60399627685547)"><g transform="matrix(2.7411201000213623,0,0,2.7411201000213623,0,0)" opacity="1"><path d="M-6.5,-7.5 C-6.5,-7.5 6.5,-7.5 6.5,-7.5 C6.5,-7.5 6.5,7.5 6.5,7.5 C6.5,7.5 -6.5,7.5 -6.5,7.5 C-6.5,7.5 -6.5,-7.5 -6.5,-7.5z" fill-opacity="1" fill="rgb(66,66,66)"></path></g></g></g></g><g style="display: block;" opacity="1" transform="matrix(1,0,0,1,14,0)" clip-path="url(#__lottie_element_11674)"><g style="display: block;" opacity="1" transform="matrix(1,0,0,1,319.3399963378906,108.27400207519531)"><g transform="matrix(2.7411201000213623,0,0,2.7411201000213623,0,0)" opacity="1"><path d="M-24.5,-29.5 C-24.5,-29.5 24.5,-29.5 24.5,-29.5 C28.3700008392334,-29.5 31.5,-26.3700008392334 31.5,-22.5 C31.5,-22.5 31.5,0 31.5,0 C31.5,16.290000915527344 18.290000915527344,29.5 2,29.5 C2,29.5 -2,29.5 -2,29.5 C-18.290000915527344,29.5 -31.5,16.290000915527344 -31.5,0 C-31.5,0 -31.5,-22.5 -31.5,-22.5 C-31.5,-26.3700008392334 -28.3700008392334,-29.5 -24.5,-29.5z" fill-opacity="1" fill="rgb(75,75,75)"></path><path d="M-24.5,-29.5 C-24.5,-29.5 24.5,-29.5 24.5,-29.5 C28.3700008392334,-29.5 31.5,-26.3700008392334 31.5,-22.5 C31.5,-22.5 31.5,0 31.5,0 C31.5,16.290000915527344 18.290000915527344,29.5 2,29.5 C2,29.5 -2,29.5 -2,29.5 C-18.290000915527344,29.5 -31.5,16.290000915527344 -31.5,0 C-31.5,0 -31.5,-22.5 -31.5,-22.5 C-31.5,-26.3700008392334 -28.3700008392334,-29.5 -24.5,-29.5z" stroke-width="7" stroke-opacity="1" stroke="rgb(66,66,66)" stroke-miterlimit="4" fill-opacity="0" stroke-linejoin="miter" stroke-linecap="butt"></path></g></g><g style="display: block;" mask="url(#__lottie_element_11686)"><g opacity="1" transform="matrix(1,0,0,1,323.0369873046875,92.28800201416016)"><g transform="matrix(2.7411201000213623,0,0,2.7411201000213623,0,0)" opacity="1"><path d="M-36.34299850463867,9.78600025177002 C-36.34299850463867,9.78600025177002 17.12700080871582,-33.513999938964844 17.12700080871582,-33.513999938964844 C17.12700080871582,-33.513999938964844 36.34700012207031,-9.784000396728516 36.34700012207031,-9.784000396728516 C36.34700012207031,-9.784000396728516 -17.132999420166016,33.51599884033203 -17.132999420166016,33.51599884033203 C-17.132999420166016,33.51599884033203 -36.34299850463867,9.78600025177002 -36.34299850463867,9.78600025177002z" fill-opacity="1" fill="url(#__lottie_element_11692)"></path></g></g></g><g style="display: block;" mask="url(#__lottie_element_11680)"><g opacity="0.7000000000000001" transform="matrix(0.6427876353263855,0.7660444378852844,-0.7660444378852844,0.6427876353263855,73.62799835205078,92)"><path d="M25,-250 C25,-250 25,250 25,250 C25,250 -25,250 -25,250 C-25,250 -25,-250 -25,-250 C-25,-250 25,-250 25,-250z" fill-opacity="1" fill="rgb(255,255,255)"></path></g></g><g style="display: block;" opacity="1" transform="matrix(1,0,0,1,319.3399963378906,108.27400207519531)"><g transform="matrix(2.7411201000213623,0,0,2.7411201000213623,0,0)" opacity="1"><path d="M-24.5,-29.5 C-24.5,-29.5 24.5,-29.5 24.5,-29.5 C28.3700008392334,-29.5 31.5,-26.3700008392334 31.5,-22.5 C31.5,-22.5 31.5,0 31.5,0 C31.5,16.290000915527344 18.290000915527344,29.5 2,29.5 C2,29.5 -2,29.5 -2,29.5 C-18.290000915527344,29.5 -31.5,16.290000915527344 -31.5,0 C-31.5,0 -31.5,-22.5 -31.5,-22.5 C-31.5,-26.3700008392334 -28.3700008392334,-29.5 -24.5,-29.5z" stroke-width="8" stroke-opacity="1" stroke="rgb(66,66,66)" stroke-miterlimit="4" fill-opacity="0" stroke-linejoin="miter" stroke-linecap="butt"></path></g></g></g><g style="display: block;" opacity="1" transform="matrix(1,0,0,1,-216,0)" clip-path="url(#__lottie_element_11651)"><g style="display: block;" opacity="1" transform="matrix(1,0,0,1,319.3399963378906,108.27400207519531)"><g transform="matrix(2.7411201000213623,0,0,2.7411201000213623,0,0)" opacity="1"><path d="M-24.5,-29.5 C-24.5,-29.5 24.5,-29.5 24.5,-29.5 C28.3700008392334,-29.5 31.5,-26.3700008392334 31.5,-22.5 C31.5,-22.5 31.5,0 31.5,0 C31.5,16.290000915527344 18.290000915527344,29.5 2,29.5 C2,29.5 -2,29.5 -2,29.5 C-18.290000915527344,29.5 -31.5,16.290000915527344 -31.5,0 C-31.5,0 -31.5,-22.5 -31.5,-22.5 C-31.5,-26.3700008392334 -28.3700008392334,-29.5 -24.5,-29.5z" fill-opacity="1" fill="rgb(75,75,75)"></path><path d="M-24.5,-29.5 C-24.5,-29.5 24.5,-29.5 24.5,-29.5 C28.3700008392334,-29.5 31.5,-26.3700008392334 31.5,-22.5 C31.5,-22.5 31.5,0 31.5,0 C31.5,16.290000915527344 18.290000915527344,29.5 2,29.5 C2,29.5 -2,29.5 -2,29.5 C-18.290000915527344,29.5 -31.5,16.290000915527344 -31.5,0 C-31.5,0 -31.5,-22.5 -31.5,-22.5 C-31.5,-26.3700008392334 -28.3700008392334,-29.5 -24.5,-29.5z" stroke-width="7" stroke-opacity="1" stroke="rgb(66,66,66)" stroke-miterlimit="4" fill-opacity="0" stroke-linejoin="miter" stroke-linecap="butt"></path></g></g><g style="display: block;" mask="url(#__lottie_element_11663)"><g opacity="1" transform="matrix(1,0,0,1,323.0369873046875,92.28800201416016)"><g transform="matrix(2.7411201000213623,0,0,2.7411201000213623,0,0)" opacity="1"><path d="M-36.34299850463867,9.78600025177002 C-36.34299850463867,9.78600025177002 17.12700080871582,-33.513999938964844 17.12700080871582,-33.513999938964844 C17.12700080871582,-33.513999938964844 36.34700012207031,-9.784000396728516 36.34700012207031,-9.784000396728516 C36.34700012207031,-9.784000396728516 -17.132999420166016,33.51599884033203 -17.132999420166016,33.51599884033203 C-17.132999420166016,33.51599884033203 -36.34299850463867,9.78600025177002 -36.34299850463867,9.78600025177002z" fill-opacity="1" fill="url(#__lottie_element_11669)"></path></g></g></g><g style="display: block;" mask="url(#__lottie_element_11657)"><g opacity="0.7000000000000001" transform="matrix(0.6427876353263855,0.7660444378852844,-0.7660444378852844,0.6427876353263855,73.62799835205078,92)"><path d="M25,-250 C25,-250 25,250 25,250 C25,250 -25,250 -25,250 C-25,250 -25,-250 -25,-250 C-25,-250 25,-250 25,-250z" fill-opacity="1" fill="rgb(255,255,255)"></path></g></g><g style="display: block;" opacity="1" transform="matrix(1,0,0,1,319.3399963378906,108.27400207519531)"><g transform="matrix(2.7411201000213623,0,0,2.7411201000213623,0,0)" opacity="1"><path d="M-24.5,-29.5 C-24.5,-29.5 24.5,-29.5 24.5,-29.5 C28.3700008392334,-29.5 31.5,-26.3700008392334 31.5,-22.5 C31.5,-22.5 31.5,0 31.5,0 C31.5,16.290000915527344 18.290000915527344,29.5 2,29.5 C2,29.5 -2,29.5 -2,29.5 C-18.290000915527344,29.5 -31.5,16.290000915527344 -31.5,0 C-31.5,0 -31.5,-22.5 -31.5,-22.5 C-31.5,-26.3700008392334 -28.3700008392334,-29.5 -24.5,-29.5z" stroke-width="8" stroke-opacity="1" stroke="rgb(66,66,66)" stroke-miterlimit="4" fill-opacity="0" stroke-linejoin="miter" stroke-linecap="butt"></path></g></g></g></g><g style="display: none;"><g><path stroke-miterlimit="4" fill-opacity="0" stroke-linejoin="miter" stroke-linecap="round"></path></g></g><g style="display: block;" opacity="1" transform="matrix(1,0,0,1,269.9809875488281,275.0190124511719)"><g transform="matrix(4,0,0,4,0,0)" opacity="1"><path d="M0.004000000189989805,30.55500030517578 C16.874000549316406,30.55500030517578 30.54400062561035,16.875 30.54400062561035,0.004999999888241291 C30.54400062561035,-16.875 16.874000549316406,-30.55500030517578 0.004000000189989805,-30.55500030517578 C-16.865999221801758,-30.55500030517578 -30.54599952697754,-16.875 -30.54599952697754,0.004999999888241291 C-30.54599952697754,16.875 -16.865999221801758,30.55500030517578 0.004000000189989805,30.55500030517578z" fill-opacity="1" fill="rgb(255,225,26)"></path></g></g><g style="display: none;"><g><path></path></g></g><g style="display: block;" mask="url(#__lottie_element_11627)"><g opacity="0" transform="matrix(0.25,0,0,0.25,201.99998474121094,286.8427734375)" clip-path="url(#__lottie_element_11634)"><g style="display: block;" opacity="1" transform="matrix(1,0,0,1,267.1579895019531,73.8949966430664)"><g transform="matrix(5.684209823608398,0,0,5.684209823608398,0,0)" opacity="1"><path d="M-25,-13 C-25,-13 25,-13 25,-13 C30.520000457763672,-13 35,-8.489999771118164 35,-2.9200000762939453 C35,-2.9200000762939453 35,2.9200000762939453 35,2.9200000762939453 C35,8.489999771118164 30.520000457763672,13 25,13 C25,13 -25,13 -25,13 C-30.520000457763672,13 -35,8.489999771118164 -35,2.9200000762939453 C-35,2.9200000762939453 -35,-2.9200000762939453 -35,-2.9200000762939453 C-35,-8.489999771118164 -30.520000457763672,-13 -25,-13z" fill-opacity="1" fill="rgb(255,255,255)"></path></g></g><g style="display: block;" opacity="1" transform="matrix(1,0,0,1,264.3160095214844,210.3159942626953)"><g transform="matrix(5.684209823608398,0,0,5.684209823608398,0,0)" opacity="1"><path d="M-31.510000228881836,-13 C-31.510000228881836,-13 31.510000228881836,-13 31.510000228881836,-13 C37.029998779296875,-13 41.5,-8.489999771118164 41.5,-2.9200000762939453 C41.5,-2.9200000762939453 41.5,2.9200000762939453 41.5,2.9200000762939453 C41.5,8.489999771118164 37.029998779296875,13 31.510000228881836,13 C31.510000228881836,13 -31.510000228881836,13 -31.510000228881836,13 C-37.029998779296875,13 -41.5,8.489999771118164 -41.5,2.9200000762939453 C-41.5,2.9200000762939453 -41.5,-2.9200000762939453 -41.5,-2.9200000762939453 C-41.5,-8.489999771118164 -37.029998779296875,-13 -31.510000228881836,-13z" fill-opacity="1" fill="rgb(255,255,255)"></path></g></g></g></g><g style="display: block;" opacity="0" transform="matrix(0.44999998807907104,0,0,0.44999998807907104,172.39999389648438,216.80001831054688)" clip-path="url(#__lottie_element_11563)"><g clip-path="url(#__lottie_element_11564)"><g style="display: block;" opacity="1" transform="matrix(1,0,0,1,14,0)" clip-path="url(#__lottie_element_11613)"><g style="display: block;" opacity="1" transform="matrix(1,0,0,1,204.21299743652344,89.08599853515625)"><g transform="matrix(2.7411201000213623,0,0,2.7411201000213623,0,0)" opacity="1"><path d="M14,10.5 C11.180000305175781,4.550000190734863 5.03000020980835,0.5 -2,0.5 C-7.960000038146973,0.5 -13.300000190734863,3.4200000762939453 -16.5,7.929999828338623 C-16.5,7.929999828338623 -16.5,-4.5 -16.5,-4.5 C-11.430000305175781,-8.5 -6.099999904632568,-10.5 -0.5,-10.5 C5.099999904632568,-10.5 10.770000457763672,-8.5 16.5,-4.5 C16.5,-4.5 16.5,10.5 16.5,10.5 C16.5,10.5 14,10.5 14,10.5 C14,10.5 14,10.5 14,10.5z" fill-opacity="1" fill="rgb(75,75,75)"></path></g></g><g style="display: block;" mask="url(#__lottie_element_11616)"><g opacity="1" transform="matrix(1,0,0,1,234.36500549316406,83.60399627685547)"><g transform="matrix(2.7411201000213623,0,0,2.7411201000213623,0,0)" opacity="1"><path d="M-6.5,-7.5 C-6.5,-7.5 6.5,-7.5 6.5,-7.5 C6.5,-7.5 6.5,7.5 6.5,7.5 C6.5,7.5 -6.5,7.5 -6.5,7.5 C-6.5,7.5 -6.5,-7.5 -6.5,-7.5z" fill-opacity="1" fill="rgb(66,66,66)"></path></g></g></g></g><g style="display: block;" opacity="1" transform="matrix(1,0,0,1,14,0)" clip-path="url(#__lottie_element_11590)"><g style="display: block;" opacity="1" transform="matrix(1,0,0,1,319.3399963378906,108.27400207519531)"><g transform="matrix(2.7411201000213623,0,0,2.7411201000213623,0,0)" opacity="1"><path d="M-24.5,-29.5 C-24.5,-29.5 24.5,-29.5 24.5,-29.5 C28.3700008392334,-29.5 31.5,-26.3700008392334 31.5,-22.5 C31.5,-22.5 31.5,0 31.5,0 C31.5,16.290000915527344 18.290000915527344,29.5 2,29.5 C2,29.5 -2,29.5 -2,29.5 C-18.290000915527344,29.5 -31.5,16.290000915527344 -31.5,0 C-31.5,0 -31.5,-22.5 -31.5,-22.5 C-31.5,-26.3700008392334 -28.3700008392334,-29.5 -24.5,-29.5z" fill-opacity="1" fill="rgb(75,75,75)"></path><path d="M-24.5,-29.5 C-24.5,-29.5 24.5,-29.5 24.5,-29.5 C28.3700008392334,-29.5 31.5,-26.3700008392334 31.5,-22.5 C31.5,-22.5 31.5,0 31.5,0 C31.5,16.290000915527344 18.290000915527344,29.5 2,29.5 C2,29.5 -2,29.5 -2,29.5 C-18.290000915527344,29.5 -31.5,16.290000915527344 -31.5,0 C-31.5,0 -31.5,-22.5 -31.5,-22.5 C-31.5,-26.3700008392334 -28.3700008392334,-29.5 -24.5,-29.5z" stroke-width="7" stroke-opacity="1" stroke="rgb(66,66,66)" stroke-miterlimit="4" fill-opacity="0" stroke-linejoin="miter" stroke-linecap="butt"></path></g></g><g style="display: block;" mask="url(#__lottie_element_11602)"><g opacity="1" transform="matrix(1,0,0,1,323.0369873046875,92.28800201416016)"><g transform="matrix(2.7411201000213623,0,0,2.7411201000213623,0,0)" opacity="1"><path d="M-36.34299850463867,9.78600025177002 C-36.34299850463867,9.78600025177002 17.12700080871582,-33.513999938964844 17.12700080871582,-33.513999938964844 C17.12700080871582,-33.513999938964844 36.34700012207031,-9.784000396728516 36.34700012207031,-9.784000396728516 C36.34700012207031,-9.784000396728516 -17.132999420166016,33.51599884033203 -17.132999420166016,33.51599884033203 C-17.132999420166016,33.51599884033203 -36.34299850463867,9.78600025177002 -36.34299850463867,9.78600025177002z" fill-opacity="1" fill="url(#__lottie_element_11608)"></path></g></g></g><g style="display: block;" mask="url(#__lottie_element_11596)"><g opacity="0.7000000000000001" transform="matrix(0.6427876353263855,0.7660444378852844,-0.7660444378852844,0.6427876353263855,73.62799835205078,92)"><path d="M25,-250 C25,-250 25,250 25,250 C25,250 -25,250 -25,250 C-25,250 -25,-250 -25,-250 C-25,-250 25,-250 25,-250z" fill-opacity="1" fill="rgb(255,255,255)"></path></g></g><g style="display: block;" opacity="1" transform="matrix(1,0,0,1,319.3399963378906,108.27400207519531)"><g transform="matrix(2.7411201000213623,0,0,2.7411201000213623,0,0)" opacity="1"><path d="M-24.5,-29.5 C-24.5,-29.5 24.5,-29.5 24.5,-29.5 C28.3700008392334,-29.5 31.5,-26.3700008392334 31.5,-22.5 C31.5,-22.5 31.5,0 31.5,0 C31.5,16.290000915527344 18.290000915527344,29.5 2,29.5 C2,29.5 -2,29.5 -2,29.5 C-18.290000915527344,29.5 -31.5,16.290000915527344 -31.5,0 C-31.5,0 -31.5,-22.5 -31.5,-22.5 C-31.5,-26.3700008392334 -28.3700008392334,-29.5 -24.5,-29.5z" stroke-width="8" stroke-opacity="1" stroke="rgb(66,66,66)" stroke-miterlimit="4" fill-opacity="0" stroke-linejoin="miter" stroke-linecap="butt"></path></g></g></g><g style="display: block;" opacity="1" transform="matrix(1,0,0,1,-216,0)" clip-path="url(#__lottie_element_11567)"><g style="display: block;" opacity="1" transform="matrix(1,0,0,1,319.3399963378906,108.27400207519531)"><g transform="matrix(2.7411201000213623,0,0,2.7411201000213623,0,0)" opacity="1"><path d="M-24.5,-29.5 C-24.5,-29.5 24.5,-29.5 24.5,-29.5 C28.3700008392334,-29.5 31.5,-26.3700008392334 31.5,-22.5 C31.5,-22.5 31.5,0 31.5,0 C31.5,16.290000915527344 18.290000915527344,29.5 2,29.5 C2,29.5 -2,29.5 -2,29.5 C-18.290000915527344,29.5 -31.5,16.290000915527344 -31.5,0 C-31.5,0 -31.5,-22.5 -31.5,-22.5 C-31.5,-26.3700008392334 -28.3700008392334,-29.5 -24.5,-29.5z" fill-opacity="1" fill="rgb(75,75,75)"></path><path d="M-24.5,-29.5 C-24.5,-29.5 24.5,-29.5 24.5,-29.5 C28.3700008392334,-29.5 31.5,-26.3700008392334 31.5,-22.5 C31.5,-22.5 31.5,0 31.5,0 C31.5,16.290000915527344 18.290000915527344,29.5 2,29.5 C2,29.5 -2,29.5 -2,29.5 C-18.290000915527344,29.5 -31.5,16.290000915527344 -31.5,0 C-31.5,0 -31.5,-22.5 -31.5,-22.5 C-31.5,-26.3700008392334 -28.3700008392334,-29.5 -24.5,-29.5z" stroke-width="7" stroke-opacity="1" stroke="rgb(66,66,66)" stroke-miterlimit="4" fill-opacity="0" stroke-linejoin="miter" stroke-linecap="butt"></path></g></g><g style="display: block;" mask="url(#__lottie_element_11579)"><g opacity="1" transform="matrix(1,0,0,1,323.0369873046875,92.28800201416016)"><g transform="matrix(2.7411201000213623,0,0,2.7411201000213623,0,0)" opacity="1"><path d="M-36.34299850463867,9.78600025177002 C-36.34299850463867,9.78600025177002 17.12700080871582,-33.513999938964844 17.12700080871582,-33.513999938964844 C17.12700080871582,-33.513999938964844 36.34700012207031,-9.784000396728516 36.34700012207031,-9.784000396728516 C36.34700012207031,-9.784000396728516 -17.132999420166016,33.51599884033203 -17.132999420166016,33.51599884033203 C-17.132999420166016,33.51599884033203 -36.34299850463867,9.78600025177002 -36.34299850463867,9.78600025177002z" fill-opacity="1" fill="url(#__lottie_element_11585)"></path></g></g></g><g style="display: block;" mask="url(#__lottie_element_11573)"><g opacity="0.7000000000000001" transform="matrix(0.6427876353263855,0.7660444378852844,-0.7660444378852844,0.6427876353263855,73.62799835205078,92)"><path d="M25,-250 C25,-250 25,250 25,250 C25,250 -25,250 -25,250 C-25,250 -25,-250 -25,-250 C-25,-250 25,-250 25,-250z" fill-opacity="1" fill="rgb(255,255,255)"></path></g></g><g style="display: block;" opacity="1" transform="matrix(1,0,0,1,319.3399963378906,108.27400207519531)"><g transform="matrix(2.7411201000213623,0,0,2.7411201000213623,0,0)" opacity="1"><path d="M-24.5,-29.5 C-24.5,-29.5 24.5,-29.5 24.5,-29.5 C28.3700008392334,-29.5 31.5,-26.3700008392334 31.5,-22.5 C31.5,-22.5 31.5,0 31.5,0 C31.5,16.290000915527344 18.290000915527344,29.5 2,29.5 C2,29.5 -2,29.5 -2,29.5 C-18.290000915527344,29.5 -31.5,16.290000915527344 -31.5,0 C-31.5,0 -31.5,-22.5 -31.5,-22.5 C-31.5,-26.3700008392334 -28.3700008392334,-29.5 -24.5,-29.5z" stroke-width="8" stroke-opacity="1" stroke="rgb(66,66,66)" stroke-miterlimit="4" fill-opacity="0" stroke-linejoin="miter" stroke-linecap="butt"></path></g></g></g></g></g><g style="display: block;" opacity="1" transform="matrix(0.999998927116394,0,0,0.999998927116394,270.0000305175781,282.9999694824219)"><path d="M0 0" stroke-width="10" stroke-opacity="1" stroke="rgb(255,166,0)" stroke-miterlimit="4" fill-opacity="0" stroke-linejoin="miter" stroke-linecap="round"></path></g></g></g></svg>