<svg style="width: 100%; height: 100%; transform: translate3d(0px, 0px, 0px);" preserveAspectRatio="xMidYMid meet" height="135" width="135" viewBox="0 0 135 135" xmlns="http://www.w3.org/2000/svg"><defs><clipPath id="__lottie_element_11713"><rect y="0" x="0" height="135" width="135"></rect></clipPath><clipPath id="__lottie_element_11715"><path d="M0,0 L540,0 L540,540 L0,540z"></path></clipPath><mask id="__lottie_element_11739"><g style="display: block;" opacity="1" transform="matrix(1,0,0,1,269.32000732421875,251.50650024414062)"><g transform="matrix(4,0,0,4,0,0)" opacity="1"><path d="M-18.940000534057617,-22.5 C-18.940000534057617,-22.5 18.940000534057617,-22.5 18.940000534057617,-22.5 C22.65999984741211,-22.5 25.700000762939453,-19.530000686645508 25.790000915527344,-15.800000190734863 C25.790000915527344,-15.800000190734863 26.5,15.489999771118164 26.5,15.489999771118164 C26.579999923706055,19.270000457763672 23.59000015258789,22.40999984741211 19.809999465942383,22.5 C19.760000228881836,22.5 19.700000762939453,22.5 19.649999618530273,22.5 C19.649999618530273,22.5 -19.649999618530273,22.5 -19.649999618530273,22.5 C-23.43000030517578,22.5 -26.5,19.43000030517578 -26.5,15.649999618530273 C-26.5,15.59000015258789 -26.5,15.539999961853027 -26.5,15.489999771118164 C-26.5,15.489999771118164 -25.790000915527344,-15.800000190734863 -25.790000915527344,-15.800000190734863 C-25.700000762939453,-19.530000686645508 -22.65999984741211,-22.5 -18.940000534057617,-22.5z" fill-opacity="1" fill="rgb(28,175,246)"></path></g></g></mask></defs><g clip-path="url(#__lottie_element_11713)"><g style="display: block;" opacity="1" transform="matrix(0.25,0,0,0.25,0,0)" clip-path="url(#__lottie_element_11715)"><g style="display: block;" opacity="1" transform="matrix(1,0,0,1,171.32000732421875,410)"><g transform="matrix(4,0,0,4,0,0)" opacity="1"><path d="M-3.0199999809265137,-7.5 C-3.0199999809265137,-7.5 3.0199999809265137,-7.5 3.0199999809265137,-7.5 C4.670000076293945,-7.5 6,-6.179999828338623 6,-4.550000190734863 C6,-4.550000190734863 6,4.550000190734863 6,4.550000190734863 C6,6.179999828338623 4.670000076293945,7.5 3.0199999809265137,7.5 C3.0199999809265137,7.5 -3.0199999809265137,7.5 -3.0199999809265137,7.5 C-4.670000076293945,7.5 -6,6.179999828338623 -6,4.550000190734863 C-6,4.550000190734863 -6,-4.550000190734863 -6,-4.550000190734863 C-6,-6.179999828338623 -4.670000076293945,-7.5 -3.0199999809265137,-7.5z" fill-opacity="1" fill="rgb(69,69,69)"></path></g></g><g style="display: block;" opacity="1" transform="matrix(1,0,0,1,367.32000732421875,410)"><g transform="matrix(4,0,0,4,0,0)" opacity="1"><path d="M-3.0199999809265137,-7.5 C-3.0199999809265137,-7.5 3.0199999809265137,-7.5 3.0199999809265137,-7.5 C4.670000076293945,-7.5 6,-6.179999828338623 6,-4.550000190734863 C6,-4.550000190734863 6,4.550000190734863 6,4.550000190734863 C6,6.179999828338623 4.670000076293945,7.5 3.0199999809265137,7.5 C3.0199999809265137,7.5 -3.0199999809265137,7.5 -3.0199999809265137,7.5 C-4.670000076293945,7.5 -6,6.179999828338623 -6,4.550000190734863 C-6,4.550000190734863 -6,-4.550000190734863 -6,-4.550000190734863 C-6,-6.179999828338623 -4.670000076293945,-7.5 -3.0199999809265137,-7.5z" fill-opacity="1" fill="rgb(69,69,69)"></path></g></g><g style="display: block;" opacity="1" transform="matrix(1,0,0,1,271.6340026855469,131.50650024414062)"><g transform="matrix(4,0,0,4,0,0)" opacity="1"><path d="M-8.289999961853027,-7.5 C-8.289999961853027,-7.5 8.289999961853027,-7.5 8.289999961853027,-7.5 C10.890000343322754,-7.5 13,-5.309999942779541 13,-2.5999999046325684 C13,-2.5999999046325684 13,2.5999999046325684 13,2.5999999046325684 C13,5.309999942779541 10.890000343322754,7.5 8.289999961853027,7.5 C8.289999961853027,7.5 -8.289999961853027,7.5 -8.289999961853027,7.5 C-10.890000343322754,7.5 -13,5.309999942779541 -13,2.5999999046325684 C-13,2.5999999046325684 -13,-2.5999999046325684 -13,-2.5999999046325684 C-13,-5.309999942779541 -10.890000343322754,-7.5 -8.289999961853027,-7.5z" fill-opacity="1" fill="rgb(255,255,255)"></path></g></g><g style="display: block;" opacity="1" transform="matrix(1,0,0,1,427.32000732421875,267.5065002441406)"><g transform="matrix(4,0,0,4,0,0)" opacity="1"><path d="M-1.6100000143051147,-5.5 C-1.6100000143051147,-5.5 1.6100000143051147,-5.5 1.6100000143051147,-5.5 C4.590000152587891,-5.5 7,-3.0899999141693115 7,-0.10999999940395355 C7,-0.10999999940395355 7,0.10999999940395355 7,0.10999999940395355 C7,3.0899999141693115 4.590000152587891,5.5 1.6100000143051147,5.5 C1.6100000143051147,5.5 -1.6100000143051147,5.5 -1.6100000143051147,5.5 C-4.590000152587891,5.5 -7,3.0899999141693115 -7,0.10999999940395355 C-7,0.10999999940395355 -7,-0.10999999940395355 -7,-0.10999999940395355 C-7,-3.0899999141693115 -4.590000152587891,-5.5 -1.6100000143051147,-5.5z" fill-opacity="1" fill="rgb(255,202,8)"></path></g></g><g style="display: block;" opacity="1" transform="matrix(1,0,0,1,111.32000732421875,267.5065002441406)"><g transform="matrix(4,0,0,4,0,0)" opacity="1"><path d="M-1.6100000143051147,-5.5 C-1.6100000143051147,-5.5 1.6100000143051147,-5.5 1.6100000143051147,-5.5 C4.590000152587891,-5.5 7,-3.0899999141693115 7,-0.10999999940395355 C7,-0.10999999940395355 7,0.10999999940395355 7,0.10999999940395355 C7,3.0899999141693115 4.590000152587891,5.5 1.6100000143051147,5.5 C1.6100000143051147,5.5 -1.6100000143051147,5.5 -1.6100000143051147,5.5 C-4.590000152587891,5.5 -7,3.0899999141693115 -7,0.10999999940395355 C-7,0.10999999940395355 -7,-0.10999999940395355 -7,-0.10999999940395355 C-7,-3.0899999141693115 -4.590000152587891,-5.5 -1.6100000143051147,-5.5z" fill-opacity="1" fill="rgb(255,202,8)"></path></g></g><g style="display: block;" opacity="1" transform="matrix(1,0,0,1,269.32000732421875,251.50650024414062)"><g transform="matrix(4,0,0,4,0,0)" opacity="1"><path d="M-18.940000534057617,-22.5 C-18.940000534057617,-22.5 18.940000534057617,-22.5 18.940000534057617,-22.5 C22.65999984741211,-22.5 25.700000762939453,-19.530000686645508 25.790000915527344,-15.800000190734863 C25.790000915527344,-15.800000190734863 26.5,15.489999771118164 26.5,15.489999771118164 C26.579999923706055,19.270000457763672 23.59000015258789,22.40999984741211 19.809999465942383,22.5 C19.760000228881836,22.5 19.700000762939453,22.5 19.649999618530273,22.5 C19.649999618530273,22.5 -19.649999618530273,22.5 -19.649999618530273,22.5 C-23.43000030517578,22.5 -26.5,19.43000030517578 -26.5,15.649999618530273 C-26.5,15.59000015258789 -26.5,15.539999961853027 -26.5,15.489999771118164 C-26.5,15.489999771118164 -25.790000915527344,-15.800000190734863 -25.790000915527344,-15.800000190734863 C-25.700000762939453,-19.530000686645508 -22.65999984741211,-22.5 -18.940000534057617,-22.5z" fill-opacity="1" fill="rgb(255,202,9)"></path><path d="M-18.940000534057617,-22.5 C-18.940000534057617,-22.5 18.940000534057617,-22.5 18.940000534057617,-22.5 C22.65999984741211,-22.5 25.700000762939453,-19.530000686645508 25.790000915527344,-15.800000190734863 C25.790000915527344,-15.800000190734863 26.5,15.489999771118164 26.5,15.489999771118164 C26.579999923706055,19.270000457763672 23.59000015258789,22.40999984741211 19.809999465942383,22.5 C19.760000228881836,22.5 19.700000762939453,22.5 19.649999618530273,22.5 C19.649999618530273,22.5 -19.649999618530273,22.5 -19.649999618530273,22.5 C-23.43000030517578,22.5 -26.5,19.43000030517578 -26.5,15.649999618530273 C-26.5,15.59000015258789 -26.5,15.539999961853027 -26.5,15.489999771118164 C-26.5,15.489999771118164 -25.790000915527344,-15.800000190734863 -25.790000915527344,-15.800000190734863 C-25.700000762939453,-19.530000686645508 -22.65999984741211,-22.5 -18.940000534057617,-22.5z" stroke-width="4.896" stroke-opacity="1" stroke="rgb(255,202,8)" stroke-miterlimit="4" fill-opacity="0" stroke-linejoin="miter" stroke-linecap="butt"></path></g></g><g style="display: block;" opacity="1" transform="matrix(1,0,0,1,269.32000732421875,251.50650024414062)"><g transform="matrix(4,0,0,4,0,0)" opacity="1"><path d="M-18.940000534057617,-22.5 C-18.940000534057617,-22.5 18.940000534057617,-22.5 18.940000534057617,-22.5 C22.65999984741211,-22.5 25.700000762939453,-19.530000686645508 25.790000915527344,-15.800000190734863 C25.790000915527344,-15.800000190734863 26.5,15.489999771118164 26.5,15.489999771118164 C26.579999923706055,19.270000457763672 23.59000015258789,22.40999984741211 19.809999465942383,22.5 C19.760000228881836,22.5 19.700000762939453,22.5 19.649999618530273,22.5 C19.649999618530273,22.5 -19.649999618530273,22.5 -19.649999618530273,22.5 C-23.43000030517578,22.5 -26.5,19.43000030517578 -26.5,15.649999618530273 C-26.5,15.59000015258789 -26.5,15.539999961853027 -26.5,15.489999771118164 C-26.5,15.489999771118164 -25.790000915527344,-15.800000190734863 -25.790000915527344,-15.800000190734863 C-25.700000762939453,-19.530000686645508 -22.65999984741211,-22.5 -18.940000534057617,-22.5z" fill-opacity="1" fill="rgb(28,175,246)"></path></g></g><g style="display: block;" mask="url(#__lottie_element_11739)"><g opacity="0.66" transform="matrix(0.8660253882408142,0.5,-0.5,0.8660253882408142,-30,270)"><path d="M50,-250 C50,-250 50,250 50,250 C50,250 -50,250 -50,250 C-50,250 -50,-250 -50,-250 C-50,-250 50,-250 50,-250z" fill-opacity="1" fill="rgb(255,255,255)"></path></g></g><g style="display: block;" opacity="1" transform="matrix(1,0,0,1,269.32000732421875,251.50650024414062)"><g transform="matrix(4,0,0,4,0,0)" opacity="1"><path d="M-18.940000534057617,-22.5 C-18.940000534057617,-22.5 18.940000534057617,-22.5 18.940000534057617,-22.5 C22.65999984741211,-22.5 25.700000762939453,-19.530000686645508 25.790000915527344,-15.800000190734863 C25.790000915527344,-15.800000190734863 26.5,15.489999771118164 26.5,15.489999771118164 C26.579999923706055,19.270000457763672 23.59000015258789,22.40999984741211 19.809999465942383,22.5 C19.760000228881836,22.5 19.700000762939453,22.5 19.649999618530273,22.5 C19.649999618530273,22.5 -19.649999618530273,22.5 -19.649999618530273,22.5 C-23.43000030517578,22.5 -26.5,19.43000030517578 -26.5,15.649999618530273 C-26.5,15.59000015258789 -26.5,15.539999961853027 -26.5,15.489999771118164 C-26.5,15.489999771118164 -25.790000915527344,-15.800000190734863 -25.790000915527344,-15.800000190734863 C-25.700000762939453,-19.530000686645508 -22.65999984741211,-22.5 -18.940000534057617,-22.5z" stroke-width="4.896" stroke-opacity="1" stroke="rgb(255,202,8)" stroke-miterlimit="4" fill-opacity="0" stroke-linejoin="miter" stroke-linecap="butt"></path></g></g><g style="display: block;" opacity="1" transform="matrix(1,0,0,1,269.32000732421875,339.5065002441406)"><g transform="matrix(4,0,0,4,0,0)" opacity="1"><path d="M-29.6200008392334,-12.5 C-29.6200008392334,-12.5 29.6200008392334,-12.5 29.6200008392334,-12.5 C32.869998931884766,-12.5 35.5,-9.869999885559082 35.5,-6.619999885559082 C35.5,-6.619999885559082 35.435001373291016,14.454999923706055 35.435001373291016,14.454999923706055 C35.435001373291016,16.625 33.685001373291016,18.375 31.514999389648438,18.375 C31.514999389648438,18.375 -31.645000457763672,18.375 -31.645000457763672,18.375 C-33.814998626708984,18.375 -35.564998626708984,16.625 -35.564998626708984,14.454999923706055 C-35.564998626708984,14.454999923706055 -35.5,-6.619999885559082 -35.5,-6.619999885559082 C-35.5,-9.869999885559082 -32.869998931884766,-12.5 -29.6200008392334,-12.5z" fill-opacity="1" fill="rgb(255,202,8)"></path></g></g><g style="display: block;" opacity="1" transform="matrix(1,0,0,1,269.32000732421875,393.5065002441406)"><g transform="matrix(4,0,0,4,0,0)" opacity="1"><path d="M-34.2400016784668,-5 C-34.2400016784668,-5 34.2400016784668,-5 34.2400016784668,-5 C36.040000915527344,-5 37.5,-3.5399999618530273 37.5,-1.7400000095367432 C37.5,-1.7400000095367432 37.5,1.7400000095367432 37.5,1.7400000095367432 C37.5,3.5399999618530273 36.040000915527344,5 34.2400016784668,5 C34.2400016784668,5 -34.2400016784668,5 -34.2400016784668,5 C-36.040000915527344,5 -37.5,3.5399999618530273 -37.5,1.7400000095367432 C-37.5,1.7400000095367432 -37.5,-1.7400000095367432 -37.5,-1.7400000095367432 C-37.5,-3.5399999618530273 -36.040000915527344,-5 -34.2400016784668,-5z" fill-opacity="1" fill="rgb(163,175,179)"></path></g></g><g style="display: block;" opacity="1" transform="matrix(1,0,0,1,373.32000732421875,337.5065002441406)"><g transform="matrix(4,0,0,4,0,0)" opacity="1"><path d="M-2.5799999237060547,-6 C-2.5799999237060547,-6 2.5799999237060547,-6 2.5799999237060547,-6 C4.75,-6 6.5,-4.25 6.5,-2.0799999237060547 C6.5,-2.0799999237060547 6.5,2.0799999237060547 6.5,2.0799999237060547 C6.5,4.25 4.75,6 2.5799999237060547,6 C2.5799999237060547,6 -2.5799999237060547,6 -2.5799999237060547,6 C-4.75,6 -6.5,4.25 -6.5,2.0799999237060547 C-6.5,2.0799999237060547 -6.5,-2.0799999237060547 -6.5,-2.0799999237060547 C-6.5,-4.25 -4.75,-6 -2.5799999237060547,-6z" fill-opacity="1" fill="rgb(255,255,255)"></path></g></g><g style="display: block;" opacity="1" transform="matrix(1,0,0,1,165.32000732421875,337.5065002441406)"><g transform="matrix(4,0,0,4,0,0)" opacity="1"><path d="M-2.5799999237060547,-6 C-2.5799999237060547,-6 2.5799999237060547,-6 2.5799999237060547,-6 C4.75,-6 6.5,-4.25 6.5,-2.0799999237060547 C6.5,-2.0799999237060547 6.5,2.0799999237060547 6.5,2.0799999237060547 C6.5,4.25 4.75,6 2.5799999237060547,6 C2.5799999237060547,6 -2.5799999237060547,6 -2.5799999237060547,6 C-4.75,6 -6.5,4.25 -6.5,2.0799999237060547 C-6.5,2.0799999237060547 -6.5,-2.0799999237060547 -6.5,-2.0799999237060547 C-6.5,-4.25 -4.75,-6 -2.5799999237060547,-6z" fill-opacity="1" fill="rgb(255,255,255)"></path></g></g><g style="display: block;" opacity="1" transform="matrix(1,0,0,1,269.32000732421875,335.5065002441406)"><g transform="matrix(4,0,0,4,0,0)" opacity="1"><path d="M-7.539999961853027,-9.5 C-7.539999961853027,-9.5 7.539999961853027,-9.5 7.539999961853027,-9.5 C8.619999885559082,-9.5 9.5,-8.619999885559082 9.5,-7.539999961853027 C9.5,-7.539999961853027 9.5,7.539999961853027 9.5,7.539999961853027 C9.5,8.619999885559082 8.619999885559082,9.5 7.539999961853027,9.5 C7.539999961853027,9.5 -7.539999961853027,9.5 -7.539999961853027,9.5 C-8.619999885559082,9.5 -9.5,8.619999885559082 -9.5,7.539999961853027 C-9.5,7.539999961853027 -9.5,-7.539999961853027 -9.5,-7.539999961853027 C-9.5,-8.619999885559082 -8.619999885559082,-9.5 -7.539999961853027,-9.5z" fill-opacity="1" fill="rgb(105,114,117)"></path><path d="M-7.539999961853027,-9.5 C-7.539999961853027,-9.5 7.539999961853027,-9.5 7.539999961853027,-9.5 C8.619999885559082,-9.5 9.5,-8.619999885559082 9.5,-7.539999961853027 C9.5,-7.539999961853027 9.5,7.539999961853027 9.5,7.539999961853027 C9.5,8.619999885559082 8.619999885559082,9.5 7.539999961853027,9.5 C7.539999961853027,9.5 -7.539999961853027,9.5 -7.539999961853027,9.5 C-8.619999885559082,9.5 -9.5,8.619999885559082 -9.5,7.539999961853027 C-9.5,7.539999961853027 -9.5,-7.539999961853027 -9.5,-7.539999961853027 C-9.5,-8.619999885559082 -8.619999885559082,-9.5 -7.539999961853027,-9.5z" stroke-width="4.896" stroke-opacity="1" stroke="rgb(163,175,179)" stroke-miterlimit="4" fill-opacity="0" stroke-linejoin="miter" stroke-linecap="butt"></path></g></g></g></g></svg>