<svg style="width: 100%; height: 100%; transform: translate3d(0px, 0px, 0px);" preserveAspectRatio="xMidYMid meet" height="135" width="135" viewBox="0 0 135 135" xmlns="http://www.w3.org/2000/svg"><defs><clipPath id="__lottie_element_7411"><rect y="0" x="0" height="135" width="135"></rect></clipPath><clipPath id="__lottie_element_7413"><path d="M0,0 L540,0 L540,540 L0,540z"></path></clipPath><clipPath id="__lottie_element_7417"><path d="M0,0 L540,0 L540,540 L0,540z"></path></clipPath><clipPath id="__lottie_element_7418"><path fill-opacity="1" d="M609,32 C609,32 -69,22 -69,32 C-69,42 -47,403 -47,403 C-47,403 609,403 609,403 C609,403 609,32 609,32" clip-rule="nonzero" fill="#ffffff"></path></clipPath><clipPath id="__lottie_element_7427"><path d="M0,0 L540,0 L540,540 L0,540z"></path></clipPath><clipPath id="__lottie_element_7428"><path fill-opacity="1" d="M609,32 C609,32 -69,22 -69,32 C-69,42 -47,403 -47,403 C-47,403 609,403 609,403 C609,403 609,32 609,32" clip-rule="nonzero" fill="#ffffff"></path></clipPath><clipPath id="__lottie_element_7441"><path d="M0,0 L540,0 L540,540 L0,540z"></path></clipPath><mask id="__lottie_element_7456"><g style="display: block;" opacity="1" transform="matrix(1,0,0,1,0,0)" clip-path="url(#__lottie_element_7457)"><g style="display: block;" opacity="1" transform="matrix(1,0,0,1,150.5260009765625,273.92401123046875)"><g transform="matrix(4,0,0,4,0,0)" opacity="1"><path d="M-7.105000019073486,-18.940000534057617 C-7.105000019073486,-18.940000534057617 -0.5249999761581421,-18.940000534057617 -0.5249999761581421,-18.940000534057617 C-0.5249999761581421,-18.940000534057617 7.105000019073486,-18.940000534057617 7.105000019073486,-18.940000534057617 C7.105000019073486,-18.940000534057617 7.105000019073486,18.940000534057617 7.105000019073486,18.940000534057617 C7.105000019073486,18.940000534057617 -7.105000019073486,18.940000534057617 -7.105000019073486,18.940000534057617 C-7.105000019073486,18.940000534057617 -7.105000019073486,-18.940000534057617 -7.105000019073486,-18.940000534057617z" fill-opacity="1" fill="rgb(255,255,255)"></path></g></g><g style="display: block;" opacity="1" transform="matrix(1,0,0,1,268,273.92401123046875)"><g transform="matrix(4,0,0,4,0,0)" opacity="1"><path d="M-7.105000019073486,-18.940000534057617 C-7.105000019073486,-18.940000534057617 7.105000019073486,-18.940000534057617 7.105000019073486,-18.940000534057617 C7.105000019073486,-18.940000534057617 7.105000019073486,18.940000534057617 7.105000019073486,18.940000534057617 C7.105000019073486,18.940000534057617 -7.105000019073486,18.940000534057617 -7.105000019073486,18.940000534057617 C-7.105000019073486,18.940000534057617 -7.105000019073486,-18.940000534057617 -7.105000019073486,-18.940000534057617z" fill-opacity="1" fill="rgb(255,255,255)"></path></g></g><g style="display: block;" opacity="1" transform="matrix(1,0,0,1,381.6839904785156,273.92401123046875)"><g transform="matrix(4,0,0,4,0,0)" opacity="1"><path d="M7.105000019073486,2.5190000534057617 C7.105000019073486,2.5190000534057617 7.105000019073486,18.940000534057617 7.105000019073486,18.940000534057617 C7.105000019073486,18.940000534057617 -7.105000019073486,18.940000534057617 -7.105000019073486,18.940000534057617 C-7.105000019073486,18.940000534057617 -7.105000019073486,8.144000053405762 -7.105000019073486,8.144000053405762 C-7.105000019073486,8.144000053405762 7.105000019073486,2.5190000534057617 7.105000019073486,2.5190000534057617z" fill-opacity="1" fill="rgb(255,255,255)"></path></g></g><g style="display: block;" opacity="1" transform="matrix(1,0,0,1,381.6839904785156,274.92401123046875)"><g transform="matrix(4,0,0,4,0,0)" opacity="1"><path d="M-7.105000019073486,-18.940000534057617 C-7.105000019073486,-18.940000534057617 7.105000019073486,-18.940000534057617 7.105000019073486,-18.940000534057617 C7.105000019073486,-18.940000534057617 7.105000019073486,2.440999984741211 7.105000019073486,2.440999984741211 C7.105000019073486,2.440999984741211 -7.105000019073486,8.065999984741211 -7.105000019073486,8.065999984741211 C-7.105000019073486,8.065999984741211 -7.105000019073486,-18.940000534057617 -7.105000019073486,-18.940000534057617z" fill-opacity="1" fill="rgb(255,255,255)"></path></g></g></g></mask><clipPath id="__lottie_element_7457"><path d="M0,0 L540,0 L540,540 L0,540z"></path></clipPath><clipPath id="__lottie_element_7473"><path d="M0,0 L540,0 L540,540 L0,540z"></path></clipPath><clipPath id="__lottie_element_7489"><path d="M0,0 L540,0 L540,540 L0,540z"></path></clipPath></defs><g clip-path="url(#__lottie_element_7411)"><g style="display: block;" opacity="1" transform="matrix(0.25,0,0,0.25,0,0)" clip-path="url(#__lottie_element_7413)"><g style="display: block;" opacity="1" transform="matrix(1,0,0,1,0,0)" clip-path="url(#__lottie_element_7489)"><g style="display: block;" opacity="1" transform="matrix(1,0,0,1,150.5260009765625,273.92401123046875)"><g transform="matrix(4,0,0,4,0,0)" opacity="1"><path d="M-7.105000019073486,-18.940000534057617 C-7.105000019073486,-18.940000534057617 -0.5249999761581421,-18.940000534057617 -0.5249999761581421,-18.940000534057617 C-0.5249999761581421,-18.940000534057617 7.105000019073486,-18.940000534057617 7.105000019073486,-18.940000534057617 C7.105000019073486,-18.940000534057617 7.105000019073486,18.940000534057617 7.105000019073486,18.940000534057617 C7.105000019073486,18.940000534057617 -7.105000019073486,18.940000534057617 -7.105000019073486,18.940000534057617 C-7.105000019073486,18.940000534057617 -7.105000019073486,-18.940000534057617 -7.105000019073486,-18.940000534057617z" fill-opacity="1" fill="rgb(255,255,255)"></path></g></g><g style="display: block;" opacity="1" transform="matrix(1,0,0,1,268,273.92401123046875)"><g transform="matrix(4,0,0,4,0,0)" opacity="1"><path d="M-7.105000019073486,-18.940000534057617 C-7.105000019073486,-18.940000534057617 7.105000019073486,-18.940000534057617 7.105000019073486,-18.940000534057617 C7.105000019073486,-18.940000534057617 7.105000019073486,18.940000534057617 7.105000019073486,18.940000534057617 C7.105000019073486,18.940000534057617 -7.105000019073486,18.940000534057617 -7.105000019073486,18.940000534057617 C-7.105000019073486,18.940000534057617 -7.105000019073486,-18.940000534057617 -7.105000019073486,-18.940000534057617z" fill-opacity="1" fill="rgb(255,255,255)"></path></g></g><g style="display: block;" opacity="1" transform="matrix(1,0,0,1,381.6839904785156,273.92401123046875)"><g transform="matrix(4,0,0,4,0,0)" opacity="1"><path d="M7.105000019073486,2.5190000534057617 C7.105000019073486,2.5190000534057617 7.105000019073486,18.940000534057617 7.105000019073486,18.940000534057617 C7.105000019073486,18.940000534057617 -7.105000019073486,18.940000534057617 -7.105000019073486,18.940000534057617 C-7.105000019073486,18.940000534057617 -7.105000019073486,8.144000053405762 -7.105000019073486,8.144000053405762 C-7.105000019073486,8.144000053405762 7.105000019073486,2.5190000534057617 7.105000019073486,2.5190000534057617z" fill-opacity="1" fill="rgb(255,255,255)"></path></g></g><g style="display: block;" opacity="1" transform="matrix(1,0,0,1,381.6839904785156,274.92401123046875)"><g transform="matrix(4,0,0,4,0,0)" opacity="1"><path d="M-7.105000019073486,-18.940000534057617 C-7.105000019073486,-18.940000534057617 7.105000019073486,-18.940000534057617 7.105000019073486,-18.940000534057617 C7.105000019073486,-18.940000534057617 7.105000019073486,2.440999984741211 7.105000019073486,2.440999984741211 C7.105000019073486,2.440999984741211 -7.105000019073486,8.065999984741211 -7.105000019073486,8.065999984741211 C-7.105000019073486,8.065999984741211 -7.105000019073486,-18.940000534057617 -7.105000019073486,-18.940000534057617z" fill-opacity="1" fill="rgb(255,255,255)"></path></g></g></g><g style="display: block;" mask="url(#__lottie_element_7456)"><g opacity="0.15" transform="matrix(1,0,0,1,0,0)" clip-path="url(#__lottie_element_7473)"><g style="display: block;" opacity="0.31" transform="matrix(1,0,0,1,150.5260009765625,252.62399291992188)"><g transform="matrix(4,0,0,4,0,0)" opacity="1"><path d="M-7.105000019073486,-7.146999835968018 C-7.105000019073486,-7.146999835968018 7.105000019073486,-7.146999835968018 7.105000019073486,-7.146999835968018 C7.105000019073486,-7.146999835968018 7.105000019073486,5.243000030517578 7.105000019073486,5.243000030517578 C7.105000019073486,5.243000030517578 -7.105000019073486,7.14300012588501 -7.105000019073486,7.14300012588501 C-7.105000019073486,7.14300012588501 -7.105000019073486,-7.146999835968018 -7.105000019073486,-7.146999835968018z" fill-opacity="1" fill="rgb(121,198,12)"></path></g></g><g style="display: block;" opacity="0.31" transform="matrix(1,0,0,1,268,246.906005859375)"><g transform="matrix(4,0,0,4,0,0)" opacity="1"><path d="M-7.105000019073486,-5.7179999351501465 C-7.105000019073486,-5.7179999351501465 7.105000019073486,-5.7179999351501465 7.105000019073486,-5.7179999351501465 C7.105000019073486,-5.7179999351501465 7.105000019073486,3.812000036239624 7.105000019073486,3.812000036239624 C7.105000019073486,3.812000036239624 -7.105000019073486,5.7220001220703125 -7.105000019073486,5.7220001220703125 C-7.105000019073486,5.7220001220703125 -7.105000019073486,-5.7179999351501465 -7.105000019073486,-5.7179999351501465z" fill-opacity="1" fill="rgb(121,198,12)"></path></g></g><g style="display: block;" opacity="0.31" transform="matrix(1,0,0,1,381.6839904785156,239.28199768066406)"><g transform="matrix(4,0,0,4,0,0)" opacity="1"><path d="M-7.105000019073486,-3.812000036239624 C-7.105000019073486,-3.812000036239624 7.105000019073486,-3.812000036239624 7.105000019073486,-3.812000036239624 C7.105000019073486,-3.812000036239624 7.105000019073486,1.9079999923706055 7.105000019073486,1.9079999923706055 C7.105000019073486,1.9079999923706055 -7.105000019073486,3.808000087738037 -7.105000019073486,3.808000087738037 C-7.105000019073486,3.808000087738037 -7.105000019073486,-3.812000036239624 -7.105000019073486,-3.812000036239624z" fill-opacity="1" fill="rgb(121,198,12)"></path></g></g><g style="mix-blend-mode: difference; display: block;" opacity="1" transform="matrix(1,0,0,1,270,270)"><g transform="matrix(1,0,0,1,0,0)" opacity="1"><path d="M215,-45.875 C215,-45.875 -187,-45.875 -187,-45.875 C-187,-45.875 -186.25,16.75 -186.25,16.75 C-186.25,16.75 215,-30.5 215,-30.5 C215,-30.5 215,-45.875 215,-45.875z" fill-opacity="1" fill="rgb(0,0,0)"></path></g></g></g></g><g style="display: block;" opacity="1" transform="matrix(1,0,0,1,266.1050109863281,358.2590026855469)"><g transform="matrix(4,0,0,4,0,0)" opacity="1"><path d="M-36.084999084472656,-4.764999866485596 C-36.084999084472656,-4.764999866485596 36.084999084472656,-4.764999866485596 36.084999084472656,-4.764999866485596 C37.084999084472656,-4.764999866485596 37.89500045776367,-3.9549999237060547 37.89500045776367,-2.9549999237060547 C37.89500045776367,-2.9549999237060547 37.89500045776367,2.9549999237060547 37.89500045776367,2.9549999237060547 C37.89500045776367,3.9549999237060547 37.084999084472656,4.764999866485596 36.084999084472656,4.764999866485596 C36.084999084472656,4.764999866485596 -36.084999084472656,4.764999866485596 -36.084999084472656,4.764999866485596 C-37.084999084472656,4.764999866485596 -37.89500045776367,3.9549999237060547 -37.89500045776367,2.9549999237060547 C-37.89500045776367,2.9549999237060547 -37.89500045776367,-2.9549999237060547 -37.89500045776367,-2.9549999237060547 C-37.89500045776367,-3.9549999237060547 -37.084999084472656,-4.764999866485596 -36.084999084472656,-4.764999866485596z" fill-opacity="1" fill="rgb(255,255,255)"></path></g></g><g style="display: block;" opacity="1" transform="matrix(1,0,0,1,266,384)"><g transform="matrix(4,0,0,4,0,0)" opacity="1"><path d="M-40.689998626708984,-5 C-40.689998626708984,-5 40.689998626708984,-5 40.689998626708984,-5 C41.689998626708984,-5 42.5,-4.190000057220459 42.5,-3.190000057220459 C42.5,-3.190000057220459 42.5,3.190000057220459 42.5,3.190000057220459 C42.5,4.190000057220459 41.689998626708984,5 40.689998626708984,5 C40.689998626708984,5 -40.689998626708984,5 -40.689998626708984,5 C-41.689998626708984,5 -42.5,4.190000057220459 -42.5,3.190000057220459 C-42.5,3.190000057220459 -42.5,-3.190000057220459 -42.5,-3.190000057220459 C-42.5,-4.190000057220459 -41.689998626708984,-5 -40.689998626708984,-5z" fill-opacity="1" fill="rgb(255,255,255)"></path></g></g><g style="display: block;" opacity="1" transform="matrix(1,0,0,1,0,0)" clip-path="url(#__lottie_element_7441)"><g style="display: block;" opacity="1" transform="matrix(1,0,0,1,270,204)"><g transform="matrix(4,0,0,4,0,0)" opacity="1"><path d="M-39.880001068115234,-5 C-39.880001068115234,-5 39.880001068115234,-5 39.880001068115234,-5 C41.880001068115234,-5 43.5,-3.380000114440918 43.5,-1.3799999952316284 C43.5,-1.3799999952316284 43.5,1.3799999952316284 43.5,1.3799999952316284 C43.5,3.380000114440918 41.880001068115234,5 39.880001068115234,5 C39.880001068115234,5 -39.880001068115234,5 -39.880001068115234,5 C-41.880001068115234,5 -43.5,3.380000114440918 -43.5,1.3799999952316284 C-43.5,1.3799999952316284 -43.5,-1.3799999952316284 -43.5,-1.3799999952316284 C-43.5,-3.380000114440918 -41.880001068115234,-5 -39.880001068115234,-5z" fill-opacity="1" fill="rgb(255,255,255)"></path></g></g><g style="display: block;" opacity="1" transform="matrix(1,0,0,1,268.25299072265625,135.8990020751953)"><g transform="matrix(4,0,0,4,0,0)" opacity="1"><path d="M1.2269999980926514,-12.555000305175781 C1.2269999980926514,-12.555000305175781 43.9370002746582,9.324999809265137 43.9370002746582,9.324999809265137 C44.82699966430664,9.78499984741211 45.176998138427734,10.875 44.72700119018555,11.765000343322754 C44.41699981689453,12.375 43.7869987487793,12.755000114440918 43.106998443603516,12.755000114440918 C43.106998443603516,12.755000114440918 -43.112998962402344,12.755000114440918 -43.112998962402344,12.755000114440918 C-44.112998962402344,12.755000114440918 -44.92300033569336,11.944999694824219 -44.92300033569336,10.944999694824219 C-44.92300033569336,10.255000114440918 -44.53300094604492,9.635000228881836 -43.92300033569336,9.324999809265137 C-43.92300033569336,9.324999809265137 -0.4129999876022339,-12.5649995803833 -0.4129999876022339,-12.5649995803833 C0.10700000077486038,-12.824999809265137 0.7170000076293945,-12.8149995803833 1.2269999980926514,-12.555000305175781 C1.2269999980926514,-12.555000305175781 1.2269999980926514,-12.555000305175781 1.2269999980926514,-12.555000305175781z" fill-opacity="1" fill="rgb(255,255,255)"></path></g></g></g><g style="display: block;" opacity="1" transform="matrix(1,0,0,1,426.9700012207031,217.25)"><path d="M0,-6 C3.3113999366760254,-6 6,-3.3113999366760254 6,0 C6,3.3113999366760254 3.3113999366760254,6 0,6 C-3.3113999366760254,6 -6,3.3113999366760254 -6,0 C-6,-3.3113999366760254 -3.3113999366760254,-6 0,-6z" fill-opacity="1" fill="rgb(255,255,255)"></path></g><g style="display: block;" opacity="0.5" transform="matrix(1,0,0,1,0,0)" clip-path="url(#__lottie_element_7427)"><g clip-path="url(#__lottie_element_7428)"><g style="display: none;"><path></path></g><g style="display: none;"><path></path></g></g></g><g style="display: block;" opacity="0.5" transform="matrix(-1,0,0,1,540,0)" clip-path="url(#__lottie_element_7417)"><g clip-path="url(#__lottie_element_7418)"><g style="display: none;"><path></path></g><g style="display: none;"><path></path></g></g></g></g></g></svg>