<svg style="width: 100%; height: 100%; transform: translate3d(0px, 0px, 0px);" preserveAspectRatio="xMidYMid meet" height="135" width="135" viewBox="0 0 135 135" xmlns="http://www.w3.org/2000/svg"><defs><clipPath id="__lottie_element_6713"><rect y="0" x="0" height="135" width="135"></rect></clipPath><clipPath id="__lottie_element_6715"><path d="M0,0 L540,0 L540,540 L0,540z"></path></clipPath><clipPath id="__lottie_element_6719"><path d="M0,0 L540,0 L540,540 L0,540z"></path></clipPath><clipPath id="__lottie_element_6723"><path d="M0,0 L540,0 L540,540 L0,540z"></path></clipPath><clipPath id="__lottie_element_6760"><path d="M0,0 L540,0 L540,540 L0,540z"></path></clipPath><clipPath id="__lottie_element_6797"><path d="M0,0 L540,0 L540,540 L0,540z"></path></clipPath><clipPath id="__lottie_element_6801"><path d="M0,0 L540,0 L540,540 L0,540z"></path></clipPath><clipPath id="__lottie_element_6838"><path d="M0,0 L540,0 L540,540 L0,540z"></path></clipPath></defs><g clip-path="url(#__lottie_element_6713)"><g style="display: block;" opacity="1" transform="matrix(0.25,0,0,0.25,0,0)" clip-path="url(#__lottie_element_6715)"><g style="display: block;" opacity="1" transform="matrix(1,0,0,1,0,0)" clip-path="url(#__lottie_element_6797)"><g style="display: block;" opacity="1" transform="matrix(1,0,0,1,0,0)" clip-path="url(#__lottie_element_6838)"><g style="display: block;" opacity="1" transform="matrix(1,0,0,1,272.1600036621094,297.1579895019531)"><g transform="matrix(4,0,0,4,0,0)" opacity="1"><path d="M-14.510000228881836,-22.958999633789062 C-14.510000228881836,-22.958999633789062 14.510000228881836,-22.958999633789062 14.510000228881836,-22.958999633789062 C14.510000228881836,-22.958999633789062 19.540000915527344,22.961000442504883 19.540000915527344,22.961000442504883 C19.540000915527344,22.961000442504883 -19.540000915527344,22.961000442504883 -19.540000915527344,22.961000442504883 C-19.540000915527344,22.961000442504883 -14.510000228881836,-22.958999633789062 -14.510000228881836,-22.958999633789062z" fill-opacity="1" fill="rgb(88,88,88)"></path></g></g><g style="display: block;" opacity="1" transform="matrix(1,0,0,1,270,385.10198974609375)"><g transform="matrix(4,0,0,4,0,0)" opacity="1"><path d="M-17.187000274658203,-5.1020002365112305 C-17.187000274658203,-5.1020002365112305 17.183000564575195,-5.1020002365112305 17.183000564575195,-5.1020002365112305 C19.933000564575195,-5.1020002365112305 22.163000106811523,-2.871999979019165 22.163000106811523,-0.12200000137090683 C22.163000106811523,-0.12200000137090683 22.163000106811523,0.11800000071525574 22.163000106811523,0.11800000071525574 C22.163000106811523,2.868000030517578 19.933000564575195,5.0980000495910645 17.183000564575195,5.0980000495910645 C17.183000564575195,5.0980000495910645 -17.187000274658203,5.0980000495910645 -17.187000274658203,5.0980000495910645 C-19.937000274658203,5.0980000495910645 -22.16699981689453,2.868000030517578 -22.16699981689453,0.11800000071525574 C-22.16699981689453,0.11800000071525574 -22.16699981689453,-0.12200000137090683 -22.16699981689453,-0.12200000137090683 C-22.16699981689453,-2.871999979019165 -19.937000274658203,-5.1020002365112305 -17.187000274658203,-5.1020002365112305z" fill-opacity="1" fill="rgb(88,88,88)"></path></g></g><g style="display: block;" opacity="1" transform="matrix(1,0,0,1,270,423.68798828125)"><g transform="matrix(4,0,0,4,0,0)" opacity="1"><path d="M-22.030000686645508,-6.632999897003174 C-22.030000686645508,-6.632999897003174 22.030000686645508,-6.632999897003174 22.030000686645508,-6.632999897003174 C25.600000381469727,-6.632999897003174 28.5,-3.7330000400543213 28.5,-0.16300000250339508 C28.5,-0.16300000250339508 28.5,0.15700000524520874 28.5,0.15700000524520874 C28.5,3.736999988555908 25.600000381469727,6.63700008392334 22.030000686645508,6.63700008392334 C22.030000686645508,6.63700008392334 -22.030000686645508,6.63700008392334 -22.030000686645508,6.63700008392334 C-25.600000381469727,6.63700008392334 -28.5,3.736999988555908 -28.5,0.15700000524520874 C-28.5,0.15700000524520874 -28.5,-0.16300000250339508 -28.5,-0.16300000250339508 C-28.5,-3.7330000400543213 -25.600000381469727,-6.632999897003174 -22.030000686645508,-6.632999897003174z" fill-opacity="1" fill="rgb(88,88,88)"></path></g></g><g style="display: block;" opacity="1" transform="matrix(1,0,0,1,272.1600036621094,213.2949981689453)"><g transform="matrix(4,0,0,4,0,0)" opacity="1"><path d="M-14.5600004196167,-5.1020002365112305 C-14.5600004196167,-5.1020002365112305 14.5600004196167,-5.1020002365112305 14.5600004196167,-5.1020002365112305 C17.309999465942383,-5.1020002365112305 19.540000915527344,-2.871999979019165 19.540000915527344,-0.12200000137090683 C19.540000915527344,-0.12200000137090683 19.540000915527344,0.11800000071525574 19.540000915527344,0.11800000071525574 C19.540000915527344,2.868000030517578 17.309999465942383,5.0980000495910645 14.5600004196167,5.0980000495910645 C14.5600004196167,5.0980000495910645 -14.5600004196167,5.0980000495910645 -14.5600004196167,5.0980000495910645 C-17.309999465942383,5.0980000495910645 -19.540000915527344,2.868000030517578 -19.540000915527344,0.11800000071525574 C-19.540000915527344,0.11800000071525574 -19.540000915527344,-0.12200000137090683 -19.540000915527344,-0.12200000137090683 C-19.540000915527344,-2.871999979019165 -17.309999465942383,-5.1020002365112305 -14.5600004196167,-5.1020002365112305z" fill-opacity="1" fill="rgb(88,88,88)"></path></g></g><g style="display: block;" opacity="1" transform="matrix(1,0,0,1,270,156.1219940185547)"><g transform="matrix(4,0,0,4,0,0)" opacity="1"><path d="M-19.719999313354492,-10.439000129699707 C-19.719999313354492,-10.439000129699707 19.719999313354492,-10.439000129699707 19.719999313354492,-10.439000129699707 C22.469999313354492,-10.439000129699707 24.700000762939453,-8.208999633789062 24.700000762939453,-5.459000110626221 C24.700000762939453,-5.459000110626221 24.700000762939453,5.460999965667725 24.700000762939453,5.460999965667725 C24.700000762939453,8.211000442504883 22.469999313354492,10.440999984741211 19.719999313354492,10.440999984741211 C19.719999313354492,10.440999984741211 -19.719999313354492,10.440999984741211 -19.719999313354492,10.440999984741211 C-22.469999313354492,10.440999984741211 -24.700000762939453,8.211000442504883 -24.700000762939453,5.460999965667725 C-24.700000762939453,5.460999965667725 -24.700000762939453,-5.459000110626221 -24.700000762939453,-5.459000110626221 C-24.700000762939453,-8.208999633789062 -22.469999313354492,-10.439000129699707 -19.719999313354492,-10.439000129699707z" fill-opacity="1" fill="rgb(88,88,88)"></path></g></g><g style="display: block;" opacity="1" transform="matrix(1,0,0,1,201.60000610351562,121.95899963378906)"><g transform="matrix(4,0,0,4,0,0)" opacity="1"><path d="M-3.869999885559082,-9.489999771118164 C-3.869999885559082,-9.489999771118164 3.869999885559082,-9.489999771118164 3.869999885559082,-9.489999771118164 C5.929999828338623,-9.489999771118164 7.599999904632568,-7.820000171661377 7.599999904632568,-5.760000228881836 C7.599999904632568,-5.760000228881836 7.599999904632568,5.760000228881836 7.599999904632568,5.760000228881836 C7.599999904632568,7.820000171661377 5.929999828338623,9.489999771118164 3.869999885559082,9.489999771118164 C3.869999885559082,9.489999771118164 -3.869999885559082,9.489999771118164 -3.869999885559082,9.489999771118164 C-5.929999828338623,9.489999771118164 -7.599999904632568,7.820000171661377 -7.599999904632568,5.760000228881836 C-7.599999904632568,5.760000228881836 -7.599999904632568,-5.760000228881836 -7.599999904632568,-5.760000228881836 C-7.599999904632568,-7.820000171661377 -5.929999828338623,-9.489999771118164 -3.869999885559082,-9.489999771118164z" fill-opacity="1" fill="rgb(88,88,88)"></path></g></g><g style="display: block;" opacity="1" transform="matrix(1,0,0,1,270,121.95899963378906)"><g transform="matrix(4,0,0,4,0,0)" opacity="1"><path d="M-3.869999885559082,-9.489999771118164 C-3.869999885559082,-9.489999771118164 3.869999885559082,-9.489999771118164 3.869999885559082,-9.489999771118164 C5.929999828338623,-9.489999771118164 7.599999904632568,-7.820000171661377 7.599999904632568,-5.760000228881836 C7.599999904632568,-5.760000228881836 7.599999904632568,5.760000228881836 7.599999904632568,5.760000228881836 C7.599999904632568,7.820000171661377 5.929999828338623,9.489999771118164 3.869999885559082,9.489999771118164 C3.869999885559082,9.489999771118164 -3.869999885559082,9.489999771118164 -3.869999885559082,9.489999771118164 C-5.929999828338623,9.489999771118164 -7.599999904632568,7.820000171661377 -7.599999904632568,5.760000228881836 C-7.599999904632568,5.760000228881836 -7.599999904632568,-5.760000228881836 -7.599999904632568,-5.760000228881836 C-7.599999904632568,-7.820000171661377 -5.929999828338623,-9.489999771118164 -3.869999885559082,-9.489999771118164 C-3.869999885559082,-9.489999771118164 -3.869999885559082,-9.489999771118164 -3.869999885559082,-9.489999771118164z" fill-opacity="1" fill="rgb(88,88,88)"></path></g></g><g style="display: block;" opacity="1" transform="matrix(1,0,0,1,338.3999938964844,121.95899963378906)"><g transform="matrix(4,0,0,4,0,0)" opacity="1"><path d="M-3.869999885559082,-9.489999771118164 C-3.869999885559082,-9.489999771118164 3.869999885559082,-9.489999771118164 3.869999885559082,-9.489999771118164 C5.929999828338623,-9.489999771118164 7.599999904632568,-7.820000171661377 7.599999904632568,-5.760000228881836 C7.599999904632568,-5.760000228881836 7.599999904632568,5.760000228881836 7.599999904632568,5.760000228881836 C7.599999904632568,7.820000171661377 5.929999828338623,9.489999771118164 3.869999885559082,9.489999771118164 C3.869999885559082,9.489999771118164 -3.869999885559082,9.489999771118164 -3.869999885559082,9.489999771118164 C-5.929999828338623,9.489999771118164 -7.599999904632568,7.820000171661377 -7.599999904632568,5.760000228881836 C-7.599999904632568,5.760000228881836 -7.599999904632568,-5.760000228881836 -7.599999904632568,-5.760000228881836 C-7.599999904632568,-7.820000171661377 -5.929999828338623,-9.489999771118164 -3.869999885559082,-9.489999771118164z" fill-opacity="1" fill="rgb(88,88,88)"></path></g></g><g style="display: block;" opacity="0.26" transform="matrix(1,0,0,1,194,137.14300537109375)"><g transform="matrix(4,0,0,4,0,0)" opacity="1"><path d="M-1.309999942779541,-11.387999534606934 C-1.309999942779541,-11.387999534606934 1.309999942779541,-11.387999534606934 1.309999942779541,-11.387999534606934 C2.690000057220459,-11.387999534606934 3.799999952316284,-10.277999877929688 3.799999952316284,-8.89799976348877 C3.799999952316284,-8.89799976348877 3.799999952316284,8.902000427246094 3.799999952316284,8.902000427246094 C3.799999952316284,10.272000312805176 2.690000057220459,11.392000198364258 1.309999942779541,11.392000198364258 C1.309999942779541,11.392000198364258 -1.309999942779541,11.392000198364258 -1.309999942779541,11.392000198364258 C-2.690000057220459,11.392000198364258 -3.799999952316284,10.272000312805176 -3.799999952316284,8.902000427246094 C-3.799999952316284,8.902000427246094 -3.799999952316284,-8.89799976348877 -3.799999952316284,-8.89799976348877 C-3.799999952316284,-10.277999877929688 -2.690000057220459,-11.387999534606934 -1.309999942779541,-11.387999534606934z" fill-opacity="1" fill="rgb(215,215,215)"></path></g></g><g style="display: block;" opacity="0.26" transform="matrix(1,0,0,1,235.7779998779297,296.5710144042969)"><g transform="matrix(4,0,0,4,0,0)" opacity="1"><path d="M-0.23499999940395355,-15.184000015258789 C-0.23499999940395355,-15.184000015258789 2.265000104904175,-15.184000015258789 2.265000104904175,-15.184000015258789 C3.6449999809265137,-15.184000015258789 4.755000114440918,-14.074000358581543 4.755000114440918,-12.694000244140625 C4.755000114440918,-12.694000244140625 4.755000114440918,12.696000099182129 4.755000114440918,12.696000099182129 C4.755000114440918,14.065999984741211 3.6449999809265137,15.185999870300293 2.265000104904175,15.185999870300293 C2.265000104904175,15.185999870300293 -2.265000104904175,15.185999870300293 -2.265000104904175,15.185999870300293 C-3.6449999809265137,15.185999870300293 -4.755000114440918,14.065999984741211 -4.755000114440918,12.696000099182129 C-4.755000114440918,12.62600040435791 -4.755000114440918,12.565999984741211 -4.744999885559082,12.496000289916992 C-4.744999885559082,12.496000289916992 -2.7149999141693115,-12.894000053405762 -2.7149999141693115,-12.894000053405762 C-2.615000009536743,-14.184000015258789 -1.534999966621399,-15.184000015258789 -0.23499999940395355,-15.184000015258789z" fill-opacity="1" fill="rgb(215,215,215)"></path></g></g><g style="display: block;" opacity="0.26" transform="matrix(1,0,0,1,205.39999389648438,418.0409851074219)"><g transform="matrix(4,0,0,4,0,0)" opacity="1"><path d="M-2.8499999046325684,-3.7960000038146973 C-2.8499999046325684,-3.7960000038146973 2.8499999046325684,-3.7960000038146973 2.8499999046325684,-3.7960000038146973 C4.949999809265137,-3.7960000038146973 6.650000095367432,-2.0959999561309814 6.650000095367432,0.004000000189989805 C6.650000095367432,2.0940001010894775 4.949999809265137,3.7939999103546143 2.8499999046325684,3.7939999103546143 C2.8499999046325684,3.7939999103546143 -2.8499999046325684,3.7939999103546143 -2.8499999046325684,3.7939999103546143 C-4.949999809265137,3.7939999103546143 -6.650000095367432,2.0940001010894775 -6.650000095367432,0.004000000189989805 C-6.650000095367432,-2.0959999561309814 -4.949999809265137,-3.7960000038146973 -2.8499999046325684,-3.7960000038146973z" fill-opacity="1" fill="rgb(215,215,215)"></path></g></g></g><g style="display: block;" opacity="1" transform="matrix(0.8791469931602478,-0.4765506684780121,0.4765506684780121,0.8791469931602478,262.8694763183594,6.942187309265137)" clip-path="url(#__lottie_element_6801)"><g style="display: block;" opacity="1" transform="matrix(1,0,0,1,272.1600036621094,297.1579895019531)"><g transform="matrix(4,0,0,4,0,0)" opacity="1"><path d="M-14.510000228881836,-22.958999633789062 C-14.510000228881836,-22.958999633789062 14.510000228881836,-22.958999633789062 14.510000228881836,-22.958999633789062 C14.510000228881836,-22.958999633789062 19.540000915527344,22.961000442504883 19.540000915527344,22.961000442504883 C19.540000915527344,22.961000442504883 -19.540000915527344,22.961000442504883 -19.540000915527344,22.961000442504883 C-19.540000915527344,22.961000442504883 -14.510000228881836,-22.958999633789062 -14.510000228881836,-22.958999633789062z" fill-opacity="1" fill="rgb(245,232,182)"></path></g></g><g style="display: block;" opacity="1" transform="matrix(1,0,0,1,270,385.10198974609375)"><g transform="matrix(4,0,0,4,0,0)" opacity="1"><path d="M-17.187000274658203,-5.1020002365112305 C-17.187000274658203,-5.1020002365112305 17.183000564575195,-5.1020002365112305 17.183000564575195,-5.1020002365112305 C19.933000564575195,-5.1020002365112305 22.163000106811523,-2.871999979019165 22.163000106811523,-0.12200000137090683 C22.163000106811523,-0.12200000137090683 22.163000106811523,0.11800000071525574 22.163000106811523,0.11800000071525574 C22.163000106811523,2.868000030517578 19.933000564575195,5.0980000495910645 17.183000564575195,5.0980000495910645 C17.183000564575195,5.0980000495910645 -17.187000274658203,5.0980000495910645 -17.187000274658203,5.0980000495910645 C-19.937000274658203,5.0980000495910645 -22.16699981689453,2.868000030517578 -22.16699981689453,0.11800000071525574 C-22.16699981689453,0.11800000071525574 -22.16699981689453,-0.12200000137090683 -22.16699981689453,-0.12200000137090683 C-22.16699981689453,-2.871999979019165 -19.937000274658203,-5.1020002365112305 -17.187000274658203,-5.1020002365112305z" fill-opacity="1" fill="rgb(245,232,182)"></path></g></g><g style="display: block;" opacity="1" transform="matrix(1,0,0,1,270,423.68798828125)"><g transform="matrix(4,0,0,4,0,0)" opacity="1"><path d="M-22.030000686645508,-6.632999897003174 C-22.030000686645508,-6.632999897003174 22.030000686645508,-6.632999897003174 22.030000686645508,-6.632999897003174 C25.600000381469727,-6.632999897003174 28.5,-3.7330000400543213 28.5,-0.16300000250339508 C28.5,-0.16300000250339508 28.5,0.15700000524520874 28.5,0.15700000524520874 C28.5,3.736999988555908 25.600000381469727,6.63700008392334 22.030000686645508,6.63700008392334 C22.030000686645508,6.63700008392334 -22.030000686645508,6.63700008392334 -22.030000686645508,6.63700008392334 C-25.600000381469727,6.63700008392334 -28.5,3.736999988555908 -28.5,0.15700000524520874 C-28.5,0.15700000524520874 -28.5,-0.16300000250339508 -28.5,-0.16300000250339508 C-28.5,-3.7330000400543213 -25.600000381469727,-6.632999897003174 -22.030000686645508,-6.632999897003174z" fill-opacity="1" fill="rgb(245,232,182)"></path></g></g><g style="display: block;" opacity="1" transform="matrix(1,0,0,1,272.1600036621094,213.2949981689453)"><g transform="matrix(4,0,0,4,0,0)" opacity="1"><path d="M-14.5600004196167,-5.1020002365112305 C-14.5600004196167,-5.1020002365112305 14.5600004196167,-5.1020002365112305 14.5600004196167,-5.1020002365112305 C17.309999465942383,-5.1020002365112305 19.540000915527344,-2.871999979019165 19.540000915527344,-0.12200000137090683 C19.540000915527344,-0.12200000137090683 19.540000915527344,0.11800000071525574 19.540000915527344,0.11800000071525574 C19.540000915527344,2.868000030517578 17.309999465942383,5.0980000495910645 14.5600004196167,5.0980000495910645 C14.5600004196167,5.0980000495910645 -14.5600004196167,5.0980000495910645 -14.5600004196167,5.0980000495910645 C-17.309999465942383,5.0980000495910645 -19.540000915527344,2.868000030517578 -19.540000915527344,0.11800000071525574 C-19.540000915527344,0.11800000071525574 -19.540000915527344,-0.12200000137090683 -19.540000915527344,-0.12200000137090683 C-19.540000915527344,-2.871999979019165 -17.309999465942383,-5.1020002365112305 -14.5600004196167,-5.1020002365112305z" fill-opacity="1" fill="rgb(245,232,182)"></path></g></g><g style="display: block;" opacity="1" transform="matrix(1,0,0,1,270,156.1219940185547)"><g transform="matrix(4,0,0,4,0,0)" opacity="1"><path d="M-19.719999313354492,-10.439000129699707 C-19.719999313354492,-10.439000129699707 19.719999313354492,-10.439000129699707 19.719999313354492,-10.439000129699707 C22.469999313354492,-10.439000129699707 24.700000762939453,-8.208999633789062 24.700000762939453,-5.459000110626221 C24.700000762939453,-5.459000110626221 24.700000762939453,5.460999965667725 24.700000762939453,5.460999965667725 C24.700000762939453,8.211000442504883 22.469999313354492,10.440999984741211 19.719999313354492,10.440999984741211 C19.719999313354492,10.440999984741211 -19.719999313354492,10.440999984741211 -19.719999313354492,10.440999984741211 C-22.469999313354492,10.440999984741211 -24.700000762939453,8.211000442504883 -24.700000762939453,5.460999965667725 C-24.700000762939453,5.460999965667725 -24.700000762939453,-5.459000110626221 -24.700000762939453,-5.459000110626221 C-24.700000762939453,-8.208999633789062 -22.469999313354492,-10.439000129699707 -19.719999313354492,-10.439000129699707z" fill-opacity="1" fill="rgb(245,232,182)"></path></g></g><g style="display: block;" opacity="1" transform="matrix(1,0,0,1,201.60000610351562,121.95899963378906)"><g transform="matrix(4,0,0,4,0,0)" opacity="1"><path d="M-3.869999885559082,-9.489999771118164 C-3.869999885559082,-9.489999771118164 3.869999885559082,-9.489999771118164 3.869999885559082,-9.489999771118164 C5.929999828338623,-9.489999771118164 7.599999904632568,-7.820000171661377 7.599999904632568,-5.760000228881836 C7.599999904632568,-5.760000228881836 7.599999904632568,5.760000228881836 7.599999904632568,5.760000228881836 C7.599999904632568,7.820000171661377 5.929999828338623,9.489999771118164 3.869999885559082,9.489999771118164 C3.869999885559082,9.489999771118164 -3.869999885559082,9.489999771118164 -3.869999885559082,9.489999771118164 C-5.929999828338623,9.489999771118164 -7.599999904632568,7.820000171661377 -7.599999904632568,5.760000228881836 C-7.599999904632568,5.760000228881836 -7.599999904632568,-5.760000228881836 -7.599999904632568,-5.760000228881836 C-7.599999904632568,-7.820000171661377 -5.929999828338623,-9.489999771118164 -3.869999885559082,-9.489999771118164z" fill-opacity="1" fill="rgb(245,232,182)"></path></g></g><g style="display: block;" opacity="1" transform="matrix(1,0,0,1,270,121.95899963378906)"><g transform="matrix(4,0,0,4,0,0)" opacity="1"><path d="M-3.869999885559082,-9.489999771118164 C-3.869999885559082,-9.489999771118164 3.869999885559082,-9.489999771118164 3.869999885559082,-9.489999771118164 C5.929999828338623,-9.489999771118164 7.599999904632568,-7.820000171661377 7.599999904632568,-5.760000228881836 C7.599999904632568,-5.760000228881836 7.599999904632568,5.760000228881836 7.599999904632568,5.760000228881836 C7.599999904632568,7.820000171661377 5.929999828338623,9.489999771118164 3.869999885559082,9.489999771118164 C3.869999885559082,9.489999771118164 -3.869999885559082,9.489999771118164 -3.869999885559082,9.489999771118164 C-5.929999828338623,9.489999771118164 -7.599999904632568,7.820000171661377 -7.599999904632568,5.760000228881836 C-7.599999904632568,5.760000228881836 -7.599999904632568,-5.760000228881836 -7.599999904632568,-5.760000228881836 C-7.599999904632568,-7.820000171661377 -5.929999828338623,-9.489999771118164 -3.869999885559082,-9.489999771118164 C-3.869999885559082,-9.489999771118164 -3.869999885559082,-9.489999771118164 -3.869999885559082,-9.489999771118164z" fill-opacity="1" fill="rgb(245,232,182)"></path></g></g><g style="display: block;" opacity="1" transform="matrix(1,0,0,1,338.3999938964844,121.95899963378906)"><g transform="matrix(4,0,0,4,0,0)" opacity="1"><path d="M-3.869999885559082,-9.489999771118164 C-3.869999885559082,-9.489999771118164 3.869999885559082,-9.489999771118164 3.869999885559082,-9.489999771118164 C5.929999828338623,-9.489999771118164 7.599999904632568,-7.820000171661377 7.599999904632568,-5.760000228881836 C7.599999904632568,-5.760000228881836 7.599999904632568,5.760000228881836 7.599999904632568,5.760000228881836 C7.599999904632568,7.820000171661377 5.929999828338623,9.489999771118164 3.869999885559082,9.489999771118164 C3.869999885559082,9.489999771118164 -3.869999885559082,9.489999771118164 -3.869999885559082,9.489999771118164 C-5.929999828338623,9.489999771118164 -7.599999904632568,7.820000171661377 -7.599999904632568,5.760000228881836 C-7.599999904632568,5.760000228881836 -7.599999904632568,-5.760000228881836 -7.599999904632568,-5.760000228881836 C-7.599999904632568,-7.820000171661377 -5.929999828338623,-9.489999771118164 -3.869999885559082,-9.489999771118164z" fill-opacity="1" fill="rgb(245,232,182)"></path></g></g><g style="display: block;" opacity="0.9" transform="matrix(1,0,0,1,194,137.14300537109375)"><g transform="matrix(4,0,0,4,0,0)" opacity="1"><path d="M-1.309999942779541,-11.387999534606934 C-1.309999942779541,-11.387999534606934 1.309999942779541,-11.387999534606934 1.309999942779541,-11.387999534606934 C2.690000057220459,-11.387999534606934 3.799999952316284,-10.277999877929688 3.799999952316284,-8.89799976348877 C3.799999952316284,-8.89799976348877 3.799999952316284,8.902000427246094 3.799999952316284,8.902000427246094 C3.799999952316284,10.272000312805176 2.690000057220459,11.392000198364258 1.309999942779541,11.392000198364258 C1.309999942779541,11.392000198364258 -1.309999942779541,11.392000198364258 -1.309999942779541,11.392000198364258 C-2.690000057220459,11.392000198364258 -3.799999952316284,10.272000312805176 -3.799999952316284,8.902000427246094 C-3.799999952316284,8.902000427246094 -3.799999952316284,-8.89799976348877 -3.799999952316284,-8.89799976348877 C-3.799999952316284,-10.277999877929688 -2.690000057220459,-11.387999534606934 -1.309999942779541,-11.387999534606934z" fill-opacity="1" fill="rgb(255,249,222)"></path></g></g><g style="display: block;" opacity="0.9" transform="matrix(1,0,0,1,235.7779998779297,296.5710144042969)"><g transform="matrix(4,0,0,4,0,0)" opacity="1"><path d="M-0.23499999940395355,-15.184000015258789 C-0.23499999940395355,-15.184000015258789 2.265000104904175,-15.184000015258789 2.265000104904175,-15.184000015258789 C3.6449999809265137,-15.184000015258789 4.755000114440918,-14.074000358581543 4.755000114440918,-12.694000244140625 C4.755000114440918,-12.694000244140625 4.755000114440918,12.696000099182129 4.755000114440918,12.696000099182129 C4.755000114440918,14.065999984741211 3.6449999809265137,15.185999870300293 2.265000104904175,15.185999870300293 C2.265000104904175,15.185999870300293 -2.265000104904175,15.185999870300293 -2.265000104904175,15.185999870300293 C-3.6449999809265137,15.185999870300293 -4.755000114440918,14.065999984741211 -4.755000114440918,12.696000099182129 C-4.755000114440918,12.62600040435791 -4.755000114440918,12.565999984741211 -4.744999885559082,12.496000289916992 C-4.744999885559082,12.496000289916992 -2.7149999141693115,-12.894000053405762 -2.7149999141693115,-12.894000053405762 C-2.615000009536743,-14.184000015258789 -1.534999966621399,-15.184000015258789 -0.23499999940395355,-15.184000015258789z" fill-opacity="1" fill="rgb(255,249,222)"></path></g></g><g style="display: block;" opacity="0.9" transform="matrix(1,0,0,1,205.39999389648438,418.0409851074219)"><g transform="matrix(4,0,0,4,0,0)" opacity="1"><path d="M-2.8499999046325684,-3.7960000038146973 C-2.8499999046325684,-3.7960000038146973 2.8499999046325684,-3.7960000038146973 2.8499999046325684,-3.7960000038146973 C4.949999809265137,-3.7960000038146973 6.650000095367432,-2.0959999561309814 6.650000095367432,0.004000000189989805 C6.650000095367432,2.0940001010894775 4.949999809265137,3.7939999103546143 2.8499999046325684,3.7939999103546143 C2.8499999046325684,3.7939999103546143 -2.8499999046325684,3.7939999103546143 -2.8499999046325684,3.7939999103546143 C-4.949999809265137,3.7939999103546143 -6.650000095367432,2.0940001010894775 -6.650000095367432,0.004000000189989805 C-6.650000095367432,-2.0959999561309814 -4.949999809265137,-3.7960000038146973 -2.8499999046325684,-3.7960000038146973z" fill-opacity="1" fill="rgb(255,249,222)"></path></g></g></g></g><g opacity="1" transform="matrix(1,0,0,1,0,0)" style="display: none;" clip-path="url(#__lottie_element_6719)"><g opacity="1" transform="matrix(0.8660255074501038,-0.4999997913837433,0.4999997913837433,0.8660255074501038,-620.1051635742188,93.69696044921875)" style="display: block;" clip-path="url(#__lottie_element_6760)"><g style="display: block;" opacity="1" transform="matrix(1,0,0,1,272.1600036621094,297.1579895019531)"><g transform="matrix(4,0,0,4,0,0)" opacity="1"><path d="M-14.510000228881836,-22.958999633789062 C-14.510000228881836,-22.958999633789062 14.510000228881836,-22.958999633789062 14.510000228881836,-22.958999633789062 C14.510000228881836,-22.958999633789062 19.540000915527344,22.961000442504883 19.540000915527344,22.961000442504883 C19.540000915527344,22.961000442504883 -19.540000915527344,22.961000442504883 -19.540000915527344,22.961000442504883 C-19.540000915527344,22.961000442504883 -14.510000228881836,-22.958999633789062 -14.510000228881836,-22.958999633789062z" fill-opacity="1" fill="rgb(245,232,182)"></path></g></g><g style="display: block;" opacity="1" transform="matrix(1,0,0,1,270,385.10198974609375)"><g transform="matrix(4,0,0,4,0,0)" opacity="1"><path d="M-17.187000274658203,-5.1020002365112305 C-17.187000274658203,-5.1020002365112305 17.183000564575195,-5.1020002365112305 17.183000564575195,-5.1020002365112305 C19.933000564575195,-5.1020002365112305 22.163000106811523,-2.871999979019165 22.163000106811523,-0.12200000137090683 C22.163000106811523,-0.12200000137090683 22.163000106811523,0.11800000071525574 22.163000106811523,0.11800000071525574 C22.163000106811523,2.868000030517578 19.933000564575195,5.0980000495910645 17.183000564575195,5.0980000495910645 C17.183000564575195,5.0980000495910645 -17.187000274658203,5.0980000495910645 -17.187000274658203,5.0980000495910645 C-19.937000274658203,5.0980000495910645 -22.16699981689453,2.868000030517578 -22.16699981689453,0.11800000071525574 C-22.16699981689453,0.11800000071525574 -22.16699981689453,-0.12200000137090683 -22.16699981689453,-0.12200000137090683 C-22.16699981689453,-2.871999979019165 -19.937000274658203,-5.1020002365112305 -17.187000274658203,-5.1020002365112305z" fill-opacity="1" fill="rgb(245,232,182)"></path></g></g><g style="display: block;" opacity="1" transform="matrix(1,0,0,1,270,423.68798828125)"><g transform="matrix(4,0,0,4,0,0)" opacity="1"><path d="M-22.030000686645508,-6.632999897003174 C-22.030000686645508,-6.632999897003174 22.030000686645508,-6.632999897003174 22.030000686645508,-6.632999897003174 C25.600000381469727,-6.632999897003174 28.5,-3.7330000400543213 28.5,-0.16300000250339508 C28.5,-0.16300000250339508 28.5,0.15700000524520874 28.5,0.15700000524520874 C28.5,3.736999988555908 25.600000381469727,6.63700008392334 22.030000686645508,6.63700008392334 C22.030000686645508,6.63700008392334 -22.030000686645508,6.63700008392334 -22.030000686645508,6.63700008392334 C-25.600000381469727,6.63700008392334 -28.5,3.736999988555908 -28.5,0.15700000524520874 C-28.5,0.15700000524520874 -28.5,-0.16300000250339508 -28.5,-0.16300000250339508 C-28.5,-3.7330000400543213 -25.600000381469727,-6.632999897003174 -22.030000686645508,-6.632999897003174z" fill-opacity="1" fill="rgb(245,232,182)"></path></g></g><g style="display: block;" opacity="1" transform="matrix(1,0,0,1,272.1600036621094,213.2949981689453)"><g transform="matrix(4,0,0,4,0,0)" opacity="1"><path d="M-14.5600004196167,-5.1020002365112305 C-14.5600004196167,-5.1020002365112305 14.5600004196167,-5.1020002365112305 14.5600004196167,-5.1020002365112305 C17.309999465942383,-5.1020002365112305 19.540000915527344,-2.871999979019165 19.540000915527344,-0.12200000137090683 C19.540000915527344,-0.12200000137090683 19.540000915527344,0.11800000071525574 19.540000915527344,0.11800000071525574 C19.540000915527344,2.868000030517578 17.309999465942383,5.0980000495910645 14.5600004196167,5.0980000495910645 C14.5600004196167,5.0980000495910645 -14.5600004196167,5.0980000495910645 -14.5600004196167,5.0980000495910645 C-17.309999465942383,5.0980000495910645 -19.540000915527344,2.868000030517578 -19.540000915527344,0.11800000071525574 C-19.540000915527344,0.11800000071525574 -19.540000915527344,-0.12200000137090683 -19.540000915527344,-0.12200000137090683 C-19.540000915527344,-2.871999979019165 -17.309999465942383,-5.1020002365112305 -14.5600004196167,-5.1020002365112305z" fill-opacity="1" fill="rgb(245,232,182)"></path></g></g><g style="display: block;" opacity="1" transform="matrix(1,0,0,1,270,156.1219940185547)"><g transform="matrix(4,0,0,4,0,0)" opacity="1"><path d="M-19.719999313354492,-10.439000129699707 C-19.719999313354492,-10.439000129699707 19.719999313354492,-10.439000129699707 19.719999313354492,-10.439000129699707 C22.469999313354492,-10.439000129699707 24.700000762939453,-8.208999633789062 24.700000762939453,-5.459000110626221 C24.700000762939453,-5.459000110626221 24.700000762939453,5.460999965667725 24.700000762939453,5.460999965667725 C24.700000762939453,8.211000442504883 22.469999313354492,10.440999984741211 19.719999313354492,10.440999984741211 C19.719999313354492,10.440999984741211 -19.719999313354492,10.440999984741211 -19.719999313354492,10.440999984741211 C-22.469999313354492,10.440999984741211 -24.700000762939453,8.211000442504883 -24.700000762939453,5.460999965667725 C-24.700000762939453,5.460999965667725 -24.700000762939453,-5.459000110626221 -24.700000762939453,-5.459000110626221 C-24.700000762939453,-8.208999633789062 -22.469999313354492,-10.439000129699707 -19.719999313354492,-10.439000129699707z" fill-opacity="1" fill="rgb(245,232,182)"></path></g></g><g style="display: block;" opacity="1" transform="matrix(1,0,0,1,201.60000610351562,121.95899963378906)"><g transform="matrix(4,0,0,4,0,0)" opacity="1"><path d="M-3.869999885559082,-9.489999771118164 C-3.869999885559082,-9.489999771118164 3.869999885559082,-9.489999771118164 3.869999885559082,-9.489999771118164 C5.929999828338623,-9.489999771118164 7.599999904632568,-7.820000171661377 7.599999904632568,-5.760000228881836 C7.599999904632568,-5.760000228881836 7.599999904632568,5.760000228881836 7.599999904632568,5.760000228881836 C7.599999904632568,7.820000171661377 5.929999828338623,9.489999771118164 3.869999885559082,9.489999771118164 C3.869999885559082,9.489999771118164 -3.869999885559082,9.489999771118164 -3.869999885559082,9.489999771118164 C-5.929999828338623,9.489999771118164 -7.599999904632568,7.820000171661377 -7.599999904632568,5.760000228881836 C-7.599999904632568,5.760000228881836 -7.599999904632568,-5.760000228881836 -7.599999904632568,-5.760000228881836 C-7.599999904632568,-7.820000171661377 -5.929999828338623,-9.489999771118164 -3.869999885559082,-9.489999771118164z" fill-opacity="1" fill="rgb(245,232,182)"></path></g></g><g style="display: block;" opacity="1" transform="matrix(1,0,0,1,270,121.95899963378906)"><g transform="matrix(4,0,0,4,0,0)" opacity="1"><path d="M-3.869999885559082,-9.489999771118164 C-3.869999885559082,-9.489999771118164 3.869999885559082,-9.489999771118164 3.869999885559082,-9.489999771118164 C5.929999828338623,-9.489999771118164 7.599999904632568,-7.820000171661377 7.599999904632568,-5.760000228881836 C7.599999904632568,-5.760000228881836 7.599999904632568,5.760000228881836 7.599999904632568,5.760000228881836 C7.599999904632568,7.820000171661377 5.929999828338623,9.489999771118164 3.869999885559082,9.489999771118164 C3.869999885559082,9.489999771118164 -3.869999885559082,9.489999771118164 -3.869999885559082,9.489999771118164 C-5.929999828338623,9.489999771118164 -7.599999904632568,7.820000171661377 -7.599999904632568,5.760000228881836 C-7.599999904632568,5.760000228881836 -7.599999904632568,-5.760000228881836 -7.599999904632568,-5.760000228881836 C-7.599999904632568,-7.820000171661377 -5.929999828338623,-9.489999771118164 -3.869999885559082,-9.489999771118164 C-3.869999885559082,-9.489999771118164 -3.869999885559082,-9.489999771118164 -3.869999885559082,-9.489999771118164z" fill-opacity="1" fill="rgb(245,232,182)"></path></g></g><g style="display: block;" opacity="1" transform="matrix(1,0,0,1,338.3999938964844,121.95899963378906)"><g transform="matrix(4,0,0,4,0,0)" opacity="1"><path d="M-3.869999885559082,-9.489999771118164 C-3.869999885559082,-9.489999771118164 3.869999885559082,-9.489999771118164 3.869999885559082,-9.489999771118164 C5.929999828338623,-9.489999771118164 7.599999904632568,-7.820000171661377 7.599999904632568,-5.760000228881836 C7.599999904632568,-5.760000228881836 7.599999904632568,5.760000228881836 7.599999904632568,5.760000228881836 C7.599999904632568,7.820000171661377 5.929999828338623,9.489999771118164 3.869999885559082,9.489999771118164 C3.869999885559082,9.489999771118164 -3.869999885559082,9.489999771118164 -3.869999885559082,9.489999771118164 C-5.929999828338623,9.489999771118164 -7.599999904632568,7.820000171661377 -7.599999904632568,5.760000228881836 C-7.599999904632568,5.760000228881836 -7.599999904632568,-5.760000228881836 -7.599999904632568,-5.760000228881836 C-7.599999904632568,-7.820000171661377 -5.929999828338623,-9.489999771118164 -3.869999885559082,-9.489999771118164z" fill-opacity="1" fill="rgb(245,232,182)"></path></g></g><g style="display: block;" opacity="0.9" transform="matrix(1,0,0,1,194,137.14300537109375)"><g transform="matrix(4,0,0,4,0,0)" opacity="1"><path d="M-1.309999942779541,-11.387999534606934 C-1.309999942779541,-11.387999534606934 1.309999942779541,-11.387999534606934 1.309999942779541,-11.387999534606934 C2.690000057220459,-11.387999534606934 3.799999952316284,-10.277999877929688 3.799999952316284,-8.89799976348877 C3.799999952316284,-8.89799976348877 3.799999952316284,8.902000427246094 3.799999952316284,8.902000427246094 C3.799999952316284,10.272000312805176 2.690000057220459,11.392000198364258 1.309999942779541,11.392000198364258 C1.309999942779541,11.392000198364258 -1.309999942779541,11.392000198364258 -1.309999942779541,11.392000198364258 C-2.690000057220459,11.392000198364258 -3.799999952316284,10.272000312805176 -3.799999952316284,8.902000427246094 C-3.799999952316284,8.902000427246094 -3.799999952316284,-8.89799976348877 -3.799999952316284,-8.89799976348877 C-3.799999952316284,-10.277999877929688 -2.690000057220459,-11.387999534606934 -1.309999942779541,-11.387999534606934z" fill-opacity="1" fill="rgb(255,249,222)"></path></g></g><g style="display: block;" opacity="0.9" transform="matrix(1,0,0,1,235.7779998779297,296.5710144042969)"><g transform="matrix(4,0,0,4,0,0)" opacity="1"><path d="M-0.23499999940395355,-15.184000015258789 C-0.23499999940395355,-15.184000015258789 2.265000104904175,-15.184000015258789 2.265000104904175,-15.184000015258789 C3.6449999809265137,-15.184000015258789 4.755000114440918,-14.074000358581543 4.755000114440918,-12.694000244140625 C4.755000114440918,-12.694000244140625 4.755000114440918,12.696000099182129 4.755000114440918,12.696000099182129 C4.755000114440918,14.065999984741211 3.6449999809265137,15.185999870300293 2.265000104904175,15.185999870300293 C2.265000104904175,15.185999870300293 -2.265000104904175,15.185999870300293 -2.265000104904175,15.185999870300293 C-3.6449999809265137,15.185999870300293 -4.755000114440918,14.065999984741211 -4.755000114440918,12.696000099182129 C-4.755000114440918,12.62600040435791 -4.755000114440918,12.565999984741211 -4.744999885559082,12.496000289916992 C-4.744999885559082,12.496000289916992 -2.7149999141693115,-12.894000053405762 -2.7149999141693115,-12.894000053405762 C-2.615000009536743,-14.184000015258789 -1.534999966621399,-15.184000015258789 -0.23499999940395355,-15.184000015258789z" fill-opacity="1" fill="rgb(255,249,222)"></path></g></g><g style="display: block;" opacity="0.9" transform="matrix(1,0,0,1,205.39999389648438,418.0409851074219)"><g transform="matrix(4,0,0,4,0,0)" opacity="1"><path d="M-2.8499999046325684,-3.7960000038146973 C-2.8499999046325684,-3.7960000038146973 2.8499999046325684,-3.7960000038146973 2.8499999046325684,-3.7960000038146973 C4.949999809265137,-3.7960000038146973 6.650000095367432,-2.0959999561309814 6.650000095367432,0.004000000189989805 C6.650000095367432,2.0940001010894775 4.949999809265137,3.7939999103546143 2.8499999046325684,3.7939999103546143 C2.8499999046325684,3.7939999103546143 -2.8499999046325684,3.7939999103546143 -2.8499999046325684,3.7939999103546143 C-4.949999809265137,3.7939999103546143 -6.650000095367432,2.0940001010894775 -6.650000095367432,0.004000000189989805 C-6.650000095367432,-2.0959999561309814 -4.949999809265137,-3.7960000038146973 -2.8499999046325684,-3.7960000038146973z" fill-opacity="1" fill="rgb(255,249,222)"></path></g></g></g><g opacity="1" transform="matrix(1,0,0,1,0,0.000018153408746002242)" style="display: block;" clip-path="url(#__lottie_element_6723)"><g style="display: block;" opacity="1" transform="matrix(1,0,0,1,272.1600036621094,297.1579895019531)"><g transform="matrix(4,0,0,4,0,0)" opacity="1"><path d="M-14.510000228881836,-22.958999633789062 C-14.510000228881836,-22.958999633789062 14.510000228881836,-22.958999633789062 14.510000228881836,-22.958999633789062 C14.510000228881836,-22.958999633789062 19.540000915527344,22.961000442504883 19.540000915527344,22.961000442504883 C19.540000915527344,22.961000442504883 -19.540000915527344,22.961000442504883 -19.540000915527344,22.961000442504883 C-19.540000915527344,22.961000442504883 -14.510000228881836,-22.958999633789062 -14.510000228881836,-22.958999633789062z" fill-opacity="1" fill="rgb(88,88,88)"></path></g></g><g style="display: block;" opacity="1" transform="matrix(1,0,0,1,270,385.10198974609375)"><g transform="matrix(4,0,0,4,0,0)" opacity="1"><path d="M-17.187000274658203,-5.1020002365112305 C-17.187000274658203,-5.1020002365112305 17.183000564575195,-5.1020002365112305 17.183000564575195,-5.1020002365112305 C19.933000564575195,-5.1020002365112305 22.163000106811523,-2.871999979019165 22.163000106811523,-0.12200000137090683 C22.163000106811523,-0.12200000137090683 22.163000106811523,0.11800000071525574 22.163000106811523,0.11800000071525574 C22.163000106811523,2.868000030517578 19.933000564575195,5.0980000495910645 17.183000564575195,5.0980000495910645 C17.183000564575195,5.0980000495910645 -17.187000274658203,5.0980000495910645 -17.187000274658203,5.0980000495910645 C-19.937000274658203,5.0980000495910645 -22.16699981689453,2.868000030517578 -22.16699981689453,0.11800000071525574 C-22.16699981689453,0.11800000071525574 -22.16699981689453,-0.12200000137090683 -22.16699981689453,-0.12200000137090683 C-22.16699981689453,-2.871999979019165 -19.937000274658203,-5.1020002365112305 -17.187000274658203,-5.1020002365112305z" fill-opacity="1" fill="rgb(88,88,88)"></path></g></g><g style="display: block;" opacity="1" transform="matrix(1,0,0,1,270,423.68798828125)"><g transform="matrix(4,0,0,4,0,0)" opacity="1"><path d="M-22.030000686645508,-6.632999897003174 C-22.030000686645508,-6.632999897003174 22.030000686645508,-6.632999897003174 22.030000686645508,-6.632999897003174 C25.600000381469727,-6.632999897003174 28.5,-3.7330000400543213 28.5,-0.16300000250339508 C28.5,-0.16300000250339508 28.5,0.15700000524520874 28.5,0.15700000524520874 C28.5,3.736999988555908 25.600000381469727,6.63700008392334 22.030000686645508,6.63700008392334 C22.030000686645508,6.63700008392334 -22.030000686645508,6.63700008392334 -22.030000686645508,6.63700008392334 C-25.600000381469727,6.63700008392334 -28.5,3.736999988555908 -28.5,0.15700000524520874 C-28.5,0.15700000524520874 -28.5,-0.16300000250339508 -28.5,-0.16300000250339508 C-28.5,-3.7330000400543213 -25.600000381469727,-6.632999897003174 -22.030000686645508,-6.632999897003174z" fill-opacity="1" fill="rgb(88,88,88)"></path></g></g><g style="display: block;" opacity="1" transform="matrix(1,0,0,1,272.1600036621094,213.2949981689453)"><g transform="matrix(4,0,0,4,0,0)" opacity="1"><path d="M-14.5600004196167,-5.1020002365112305 C-14.5600004196167,-5.1020002365112305 14.5600004196167,-5.1020002365112305 14.5600004196167,-5.1020002365112305 C17.309999465942383,-5.1020002365112305 19.540000915527344,-2.871999979019165 19.540000915527344,-0.12200000137090683 C19.540000915527344,-0.12200000137090683 19.540000915527344,0.11800000071525574 19.540000915527344,0.11800000071525574 C19.540000915527344,2.868000030517578 17.309999465942383,5.0980000495910645 14.5600004196167,5.0980000495910645 C14.5600004196167,5.0980000495910645 -14.5600004196167,5.0980000495910645 -14.5600004196167,5.0980000495910645 C-17.309999465942383,5.0980000495910645 -19.540000915527344,2.868000030517578 -19.540000915527344,0.11800000071525574 C-19.540000915527344,0.11800000071525574 -19.540000915527344,-0.12200000137090683 -19.540000915527344,-0.12200000137090683 C-19.540000915527344,-2.871999979019165 -17.309999465942383,-5.1020002365112305 -14.5600004196167,-5.1020002365112305z" fill-opacity="1" fill="rgb(88,88,88)"></path></g></g><g style="display: block;" opacity="1" transform="matrix(1,0,0,1,270,156.1219940185547)"><g transform="matrix(4,0,0,4,0,0)" opacity="1"><path d="M-19.719999313354492,-10.439000129699707 C-19.719999313354492,-10.439000129699707 19.719999313354492,-10.439000129699707 19.719999313354492,-10.439000129699707 C22.469999313354492,-10.439000129699707 24.700000762939453,-8.208999633789062 24.700000762939453,-5.459000110626221 C24.700000762939453,-5.459000110626221 24.700000762939453,5.460999965667725 24.700000762939453,5.460999965667725 C24.700000762939453,8.211000442504883 22.469999313354492,10.440999984741211 19.719999313354492,10.440999984741211 C19.719999313354492,10.440999984741211 -19.719999313354492,10.440999984741211 -19.719999313354492,10.440999984741211 C-22.469999313354492,10.440999984741211 -24.700000762939453,8.211000442504883 -24.700000762939453,5.460999965667725 C-24.700000762939453,5.460999965667725 -24.700000762939453,-5.459000110626221 -24.700000762939453,-5.459000110626221 C-24.700000762939453,-8.208999633789062 -22.469999313354492,-10.439000129699707 -19.719999313354492,-10.439000129699707z" fill-opacity="1" fill="rgb(88,88,88)"></path></g></g><g style="display: block;" opacity="1" transform="matrix(1,0,0,1,201.60000610351562,121.95899963378906)"><g transform="matrix(4,0,0,4,0,0)" opacity="1"><path d="M-3.869999885559082,-9.489999771118164 C-3.869999885559082,-9.489999771118164 3.869999885559082,-9.489999771118164 3.869999885559082,-9.489999771118164 C5.929999828338623,-9.489999771118164 7.599999904632568,-7.820000171661377 7.599999904632568,-5.760000228881836 C7.599999904632568,-5.760000228881836 7.599999904632568,5.760000228881836 7.599999904632568,5.760000228881836 C7.599999904632568,7.820000171661377 5.929999828338623,9.489999771118164 3.869999885559082,9.489999771118164 C3.869999885559082,9.489999771118164 -3.869999885559082,9.489999771118164 -3.869999885559082,9.489999771118164 C-5.929999828338623,9.489999771118164 -7.599999904632568,7.820000171661377 -7.599999904632568,5.760000228881836 C-7.599999904632568,5.760000228881836 -7.599999904632568,-5.760000228881836 -7.599999904632568,-5.760000228881836 C-7.599999904632568,-7.820000171661377 -5.929999828338623,-9.489999771118164 -3.869999885559082,-9.489999771118164z" fill-opacity="1" fill="rgb(88,88,88)"></path></g></g><g style="display: block;" opacity="1" transform="matrix(1,0,0,1,270,121.95899963378906)"><g transform="matrix(4,0,0,4,0,0)" opacity="1"><path d="M-3.869999885559082,-9.489999771118164 C-3.869999885559082,-9.489999771118164 3.869999885559082,-9.489999771118164 3.869999885559082,-9.489999771118164 C5.929999828338623,-9.489999771118164 7.599999904632568,-7.820000171661377 7.599999904632568,-5.760000228881836 C7.599999904632568,-5.760000228881836 7.599999904632568,5.760000228881836 7.599999904632568,5.760000228881836 C7.599999904632568,7.820000171661377 5.929999828338623,9.489999771118164 3.869999885559082,9.489999771118164 C3.869999885559082,9.489999771118164 -3.869999885559082,9.489999771118164 -3.869999885559082,9.489999771118164 C-5.929999828338623,9.489999771118164 -7.599999904632568,7.820000171661377 -7.599999904632568,5.760000228881836 C-7.599999904632568,5.760000228881836 -7.599999904632568,-5.760000228881836 -7.599999904632568,-5.760000228881836 C-7.599999904632568,-7.820000171661377 -5.929999828338623,-9.489999771118164 -3.869999885559082,-9.489999771118164 C-3.869999885559082,-9.489999771118164 -3.869999885559082,-9.489999771118164 -3.869999885559082,-9.489999771118164z" fill-opacity="1" fill="rgb(88,88,88)"></path></g></g><g style="display: block;" opacity="1" transform="matrix(1,0,0,1,338.3999938964844,121.95899963378906)"><g transform="matrix(4,0,0,4,0,0)" opacity="1"><path d="M-3.869999885559082,-9.489999771118164 C-3.869999885559082,-9.489999771118164 3.869999885559082,-9.489999771118164 3.869999885559082,-9.489999771118164 C5.929999828338623,-9.489999771118164 7.599999904632568,-7.820000171661377 7.599999904632568,-5.760000228881836 C7.599999904632568,-5.760000228881836 7.599999904632568,5.760000228881836 7.599999904632568,5.760000228881836 C7.599999904632568,7.820000171661377 5.929999828338623,9.489999771118164 3.869999885559082,9.489999771118164 C3.869999885559082,9.489999771118164 -3.869999885559082,9.489999771118164 -3.869999885559082,9.489999771118164 C-5.929999828338623,9.489999771118164 -7.599999904632568,7.820000171661377 -7.599999904632568,5.760000228881836 C-7.599999904632568,5.760000228881836 -7.599999904632568,-5.760000228881836 -7.599999904632568,-5.760000228881836 C-7.599999904632568,-7.820000171661377 -5.929999828338623,-9.489999771118164 -3.869999885559082,-9.489999771118164z" fill-opacity="1" fill="rgb(88,88,88)"></path></g></g><g style="display: block;" opacity="0.26" transform="matrix(1,0,0,1,194,137.14300537109375)"><g transform="matrix(4,0,0,4,0,0)" opacity="1"><path d="M-1.309999942779541,-11.387999534606934 C-1.309999942779541,-11.387999534606934 1.309999942779541,-11.387999534606934 1.309999942779541,-11.387999534606934 C2.690000057220459,-11.387999534606934 3.799999952316284,-10.277999877929688 3.799999952316284,-8.89799976348877 C3.799999952316284,-8.89799976348877 3.799999952316284,8.902000427246094 3.799999952316284,8.902000427246094 C3.799999952316284,10.272000312805176 2.690000057220459,11.392000198364258 1.309999942779541,11.392000198364258 C1.309999942779541,11.392000198364258 -1.309999942779541,11.392000198364258 -1.309999942779541,11.392000198364258 C-2.690000057220459,11.392000198364258 -3.799999952316284,10.272000312805176 -3.799999952316284,8.902000427246094 C-3.799999952316284,8.902000427246094 -3.799999952316284,-8.89799976348877 -3.799999952316284,-8.89799976348877 C-3.799999952316284,-10.277999877929688 -2.690000057220459,-11.387999534606934 -1.309999942779541,-11.387999534606934z" fill-opacity="1" fill="rgb(215,215,215)"></path></g></g><g style="display: block;" opacity="0.26" transform="matrix(1,0,0,1,235.7779998779297,296.5710144042969)"><g transform="matrix(4,0,0,4,0,0)" opacity="1"><path d="M-0.23499999940395355,-15.184000015258789 C-0.23499999940395355,-15.184000015258789 2.265000104904175,-15.184000015258789 2.265000104904175,-15.184000015258789 C3.6449999809265137,-15.184000015258789 4.755000114440918,-14.074000358581543 4.755000114440918,-12.694000244140625 C4.755000114440918,-12.694000244140625 4.755000114440918,12.696000099182129 4.755000114440918,12.696000099182129 C4.755000114440918,14.065999984741211 3.6449999809265137,15.185999870300293 2.265000104904175,15.185999870300293 C2.265000104904175,15.185999870300293 -2.265000104904175,15.185999870300293 -2.265000104904175,15.185999870300293 C-3.6449999809265137,15.185999870300293 -4.755000114440918,14.065999984741211 -4.755000114440918,12.696000099182129 C-4.755000114440918,12.62600040435791 -4.755000114440918,12.565999984741211 -4.744999885559082,12.496000289916992 C-4.744999885559082,12.496000289916992 -2.7149999141693115,-12.894000053405762 -2.7149999141693115,-12.894000053405762 C-2.615000009536743,-14.184000015258789 -1.534999966621399,-15.184000015258789 -0.23499999940395355,-15.184000015258789z" fill-opacity="1" fill="rgb(215,215,215)"></path></g></g><g style="display: block;" opacity="0.26" transform="matrix(1,0,0,1,205.39999389648438,418.0409851074219)"><g transform="matrix(4,0,0,4,0,0)" opacity="1"><path d="M-2.8499999046325684,-3.7960000038146973 C-2.8499999046325684,-3.7960000038146973 2.8499999046325684,-3.7960000038146973 2.8499999046325684,-3.7960000038146973 C4.949999809265137,-3.7960000038146973 6.650000095367432,-2.0959999561309814 6.650000095367432,0.004000000189989805 C6.650000095367432,2.0940001010894775 4.949999809265137,3.7939999103546143 2.8499999046325684,3.7939999103546143 C2.8499999046325684,3.7939999103546143 -2.8499999046325684,3.7939999103546143 -2.8499999046325684,3.7939999103546143 C-4.949999809265137,3.7939999103546143 -6.650000095367432,2.0940001010894775 -6.650000095367432,0.004000000189989805 C-6.650000095367432,-2.0959999561309814 -4.949999809265137,-3.7960000038146973 -2.8499999046325684,-3.7960000038146973z" fill-opacity="1" fill="rgb(215,215,215)"></path></g></g></g></g></g></g></svg>