<svg style="width: 100%; height: 100%; transform: translate3d(0px, 0px, 0px);" preserveAspectRatio="xMidYMid meet" height="135" width="135" viewBox="0 0 135 135" xmlns="http://www.w3.org/2000/svg"><defs><clipPath id="__lottie_element_11767"><rect y="0" x="0" height="135" width="135"></rect></clipPath><clipPath id="__lottie_element_11769"><path d="M0,0 L540,0 L540,540 L0,540z"></path></clipPath><clipPath id="__lottie_element_11775"><path d="M0,0 L540,0 L540,540 L0,540z"></path></clipPath><mask id="__lottie_element_11778"><g style="display: block;" opacity="1" transform="matrix(1,0,0,1,623,289.6050109863281)"><g transform="matrix(4,0,0,4,0,0)" opacity="1"><path d="M-64.18800354003906,-32.547000885009766 C-64.18800354003906,-32.547000885009766 216,-32.763999938964844 216,-32.763999938964844 C226.22000122070312,-32.763999938964844 234.5,-24.483999252319336 234.5,-14.263999938964844 C234.5,-14.263999938964844 234.5,13.935999870300293 234.5,13.935999870300293 C234.5,24.1560001373291 226.22000122070312,32.43600082397461 216,32.43600082397461 C216,32.43600082397461 -64.18800354003906,32.65299987792969 -64.18800354003906,32.65299987792969 C-74.40799713134766,32.65299987792969 -81.81199645996094,24.37299919128418 -81.81199645996094,14.152999877929688 C-81.81199645996094,14.152999877929688 -81.81199645996094,-14.04699993133545 -81.81199645996094,-14.04699993133545 C-81.81199645996094,-24.267000198364258 -74.40799713134766,-32.547000885009766 -64.18800354003906,-32.547000885009766z" fill-opacity="1" fill="rgb(137,86,38)"></path></g></g></mask><clipPath id="__lottie_element_11788"><path d="M0,0 L540,0 L540,540 L0,540z"></path></clipPath><clipPath id="__lottie_element_11816"><path d="M0,0 L540,0 L540,540 L0,540z"></path></clipPath><mask id="__lottie_element_11819"><g style="display: block;" opacity="1" transform="matrix(1,0,0,1,623,289.6050109863281)"><g transform="matrix(4,0,0,4,0,0)" opacity="1"><path d="M-64.18800354003906,-32.547000885009766 C-64.18800354003906,-32.547000885009766 216,-32.763999938964844 216,-32.763999938964844 C226.22000122070312,-32.763999938964844 234.5,-24.483999252319336 234.5,-14.263999938964844 C234.5,-14.263999938964844 234.5,13.935999870300293 234.5,13.935999870300293 C234.5,24.1560001373291 226.22000122070312,32.43600082397461 216,32.43600082397461 C216,32.43600082397461 -64.18800354003906,32.65299987792969 -64.18800354003906,32.65299987792969 C-74.40799713134766,32.65299987792969 -81.81199645996094,24.37299919128418 -81.81199645996094,14.152999877929688 C-81.81199645996094,14.152999877929688 -81.81199645996094,-14.04699993133545 -81.81199645996094,-14.04699993133545 C-81.81199645996094,-24.267000198364258 -74.40799713134766,-32.547000885009766 -64.18800354003906,-32.547000885009766z" fill-opacity="1" fill="rgb(137,86,38)"></path></g></g></mask><clipPath id="__lottie_element_11832"><path d="M0,0 L540,0 L540,540 L0,540z"></path></clipPath><clipPath id="__lottie_element_11860"><path d="M0,0 L135,0 L135,135 L0,135z"></path></clipPath><clipPath id="__lottie_element_11864"><path d="M0,0 L540,0 L540,540 L0,540z"></path></clipPath><clipPath id="__lottie_element_11870"><path d="M0,0 L540,0 L540,540 L0,540z"></path></clipPath><mask id="__lottie_element_11873"><g style="display: none;"><g><path></path></g></g></mask><clipPath id="__lottie_element_11883"><path d="M0,0 L540,0 L540,540 L0,540z"></path></clipPath><clipPath id="__lottie_element_11911"><path d="M0,0 L540,0 L540,540 L0,540z"></path></clipPath><mask id="__lottie_element_11914"><g style="display: none;"><g><path></path></g></g></mask><clipPath id="__lottie_element_11927"><path d="M0,0 L540,0 L540,540 L0,540z"></path></clipPath><clipPath id="__lottie_element_11955"><path d="M0,0 L135,0 L135,135 L0,135z"></path></clipPath></defs><g clip-path="url(#__lottie_element_11767)"><g style="display: none;" clip-path="url(#__lottie_element_11864)"><g style="display: none;" clip-path="url(#__lottie_element_11955)"></g><g style="display: none;" clip-path="url(#__lottie_element_11927)"><g style="display: none;"><g><path></path></g></g><g style="display: none;"><g><path></path></g></g><g style="display: none;"><g><path></path></g></g><g style="display: none;"><g><path></path></g></g><g style="display: none;"><g><path></path></g></g><g style="display: none;"><g><path></path><path stroke-miterlimit="4" fill-opacity="0" stroke-linejoin="miter" stroke-linecap="butt"></path></g></g><g style="display: none;"><g><path></path></g></g><g style="display: none;"><g><path></path></g></g></g><g style="display: none;"><g><path></path><path stroke-miterlimit="4" fill-opacity="0" stroke-linejoin="miter" stroke-linecap="butt"></path></g></g><g style="display: none;" clip-path="url(#__lottie_element_11911)"><g style="display: none;"><g><path></path></g></g><g style="display: none;" mask="url(#__lottie_element_11914)"><g><g><path></path><path stroke-miterlimit="4" fill-opacity="0" stroke-linejoin="miter" stroke-linecap="round"></path></g><g><path></path><path stroke-miterlimit="4" fill-opacity="0" stroke-linejoin="miter" stroke-linecap="round"></path></g><g><path></path><path stroke-miterlimit="4" fill-opacity="0" stroke-linejoin="miter" stroke-linecap="round"></path></g></g></g></g><g style="display: none;" clip-path="url(#__lottie_element_11883)"><g style="display: none;"><g><path></path></g></g><g style="display: none;"><g><path></path></g></g><g style="display: none;"><g><path></path></g></g><g style="display: none;"><g><path></path></g></g><g style="display: none;"><g><path></path></g></g><g style="display: none;"><g><path></path><path stroke-miterlimit="4" fill-opacity="0" stroke-linejoin="miter" stroke-linecap="butt"></path></g></g><g style="display: none;"><g><path></path></g></g><g style="display: none;"><g><path></path></g></g></g><g style="display: none;" clip-path="url(#__lottie_element_11870)"><g style="display: none;"><g><path></path></g></g><g style="display: none;" mask="url(#__lottie_element_11873)"><g><g><path></path><path stroke-miterlimit="4" fill-opacity="0" stroke-linejoin="miter" stroke-linecap="round"></path></g><g><path></path><path stroke-miterlimit="4" fill-opacity="0" stroke-linejoin="miter" stroke-linecap="round"></path></g><g><path></path><path stroke-miterlimit="4" fill-opacity="0" stroke-linejoin="miter" stroke-linecap="round"></path></g></g></g></g></g><g style="display: block;" opacity="1" transform="matrix(0.25,0,0,0.25,0,0)" clip-path="url(#__lottie_element_11769)"><g style="display: block;" opacity="1" transform="matrix(4,0,0,4,0,0)" clip-path="url(#__lottie_element_11860)"></g><g style="display: block;" opacity="1" transform="matrix(1,0,0,1,0,0)" clip-path="url(#__lottie_element_11832)"><g style="display: block;" opacity="1" transform="matrix(1,0,0,1,270,289.6050109863281)"><g transform="matrix(4,0,0,4,0,0)" opacity="1"><path d="M-24,-32.5989990234375 C-24,-32.5989990234375 24,-32.5989990234375 24,-32.5989990234375 C34.220001220703125,-32.5989990234375 42.5,-24.319000244140625 42.5,-14.098999977111816 C42.5,-14.098999977111816 42.5,14.10099983215332 42.5,14.10099983215332 C42.5,24.320999145507812 34.220001220703125,32.60100173950195 24,32.60100173950195 C24,32.60100173950195 -24,32.60100173950195 -24,32.60100173950195 C-34.220001220703125,32.60100173950195 -42.5,24.320999145507812 -42.5,14.10099983215332 C-42.5,14.10099983215332 -42.5,-14.098999977111816 -42.5,-14.098999977111816 C-42.5,-24.319000244140625 -34.220001220703125,-32.5989990234375 -24,-32.5989990234375z" fill-opacity="1" fill="rgb(137,86,38)"></path></g></g><g style="display: block;" opacity="0.8200000000000001" transform="matrix(1,0,0,1,158.0489959716797,258.5580139160156)"><g transform="matrix(4,0,0,4,0,0)" opacity="1"><path d="M-14.51200008392334,-3.1050000190734863 C-14.51200008392334,-3.1050000190734863 11.407999992370605,-3.1050000190734863 11.407999992370605,-3.1050000190734863 C13.118000030517578,-3.1050000190734863 14.508000373840332,-1.715000033378601 14.508000373840332,-0.004999999888241291 C14.508000373840332,1.715000033378601 13.118000030517578,3.1050000190734863 11.407999992370605,3.1050000190734863 C11.407999992370605,3.1050000190734863 -14.51200008392334,3.1050000190734863 -14.51200008392334,3.1050000190734863 C-14.51200008392334,3.1050000190734863 -14.51200008392334,-3.1050000190734863 -14.51200008392334,-3.1050000190734863z" fill-opacity="1" fill="rgb(123,75,31)"></path></g></g><g style="display: block;" opacity="0.8200000000000001" transform="matrix(1,0,0,1,240.9759979248047,320.6510009765625)"><g transform="matrix(4,0,0,4,0,0)" opacity="1"><path d="M14.508000373840332,-3.1050000190734863 C14.508000373840332,-3.1050000190734863 14.508000373840332,3.1050000190734863 14.508000373840332,3.1050000190734863 C14.508000373840332,3.1050000190734863 -11.411999702453613,3.1050000190734863 -11.411999702453613,3.1050000190734863 C-13.121999740600586,3.1050000190734863 -14.51200008392334,1.715000033378601 -14.51200008392334,-0.004999999888241291 C-14.51200008392334,-1.715000033378601 -13.121999740600586,-3.1050000190734863 -11.411999702453613,-3.1050000190734863 C-11.411999702453613,-3.1050000190734863 14.508000373840332,-3.1050000190734863 14.508000373840332,-3.1050000190734863z" fill-opacity="1" fill="rgb(123,75,31)"></path></g></g><g style="display: block;" opacity="0.8200000000000001" transform="matrix(1,0,0,1,272.072998046875,362.0469970703125)"><g transform="matrix(4,0,0,4,0,0)" opacity="1"><path d="M10.88599967956543,-3.1050000190734863 C10.88599967956543,-3.1050000190734863 10.88599967956543,3.1050000190734863 10.88599967956543,3.1050000190734863 C10.88599967956543,3.1050000190734863 -7.783999919891357,3.1050000190734863 -7.783999919891357,3.1050000190734863 C-9.494000434875488,3.1050000190734863 -10.883999824523926,1.715000033378601 -10.883999824523926,-0.004999999888241291 C-10.883999824523926,-1.715000033378601 -9.494000434875488,-3.1050000190734863 -7.783999919891357,-3.1050000190734863 C-7.783999919891357,-3.1050000190734863 10.88599967956543,-3.1050000190734863 10.88599967956543,-3.1050000190734863z" fill-opacity="1" fill="rgb(123,75,31)"></path></g></g><g style="display: block;" opacity="1" transform="matrix(1,0,0,1,262.02301025390625,155.07000732421875)"><g transform="matrix(4,0,0,4,0,0)" opacity="1"><path d="M3.005000114440918,-8.279000282287598 C3.005000114440918,-8.279000282287598 9.265000343322754,-8.279000282287598 9.265000343322754,-8.279000282287598 C10.404999732971191,-8.279000282287598 11.324999809265137,-7.359000205993652 11.324999809265137,-6.218999862670898 C11.324999809265137,-5.979000091552734 11.274999618530273,-5.729000091552734 11.194999694824219,-5.499000072479248 C11.194999694824219,-5.499000072479248 6.514999866485596,6.951000213623047 6.514999866485596,6.951000213623047 C6.215000152587891,7.750999927520752 5.445000171661377,8.281000137329102 4.585000038146973,8.281000137329102 C4.585000038146973,8.281000137329102 -9.265000343322754,8.281000137329102 -9.265000343322754,8.281000137329102 C-10.404999732971191,8.281000137329102 -11.324999809265137,7.361000061035156 -11.324999809265137,6.2210001945495605 C-11.324999809265137,5.681000232696533 -11.114999771118164,5.160999774932861 -10.734999656677246,4.781000137329102 C-10.734999656677246,4.781000137329102 1.534999966621399,-7.669000148773193 1.534999966621399,-7.669000148773193 C1.9249999523162842,-8.059000015258789 2.4549999237060547,-8.279000282287598 3.005000114440918,-8.279000282287598z" fill-opacity="1" fill="rgb(137,86,38)"></path></g></g><g style="display: block;" opacity="1" transform="matrix(1,0,0,1,369.5119934082031,289.6050109863281)"><g transform="matrix(4,0,0,4,0,0)" opacity="1"><path d="M-0.15199999511241913,-30.099000930786133 C-0.15199999511241913,-30.099000930786133 0.14800000190734863,-30.099000930786133 0.14800000190734863,-30.099000930786133 C9.79800033569336,-30.099000930786133 15.118000030517578,-22.27899932861328 15.118000030517578,-12.628999710083008 C15.118000030517578,-12.628999710083008 15.118000030517578,12.569000244140625 15.118000030517578,12.569000244140625 C15.118000030517578,22.2189998626709 9.79800033569336,30.038999557495117 0.14800000190734863,30.038999557495117 C0.14800000190734863,30.038999557495117 -0.15199999511241913,30.038999557495117 -0.15199999511241913,30.038999557495117 C-9.802000045776367,30.038999557495117 -15.121999740600586,22.2189998626709 -15.121999740600586,12.569000244140625 C-15.121999740600586,12.569000244140625 -15.121999740600586,-12.628999710083008 -15.121999740600586,-12.628999710083008 C-15.121999740600586,-22.27899932861328 -9.802000045776367,-30.099000930786133 -0.15199999511241913,-30.099000930786133z" fill-opacity="1" fill="rgb(242,184,107)"></path><path d="M-0.15199999511241913,-30.099000930786133 C-0.15199999511241913,-30.099000930786133 0.14800000190734863,-30.099000930786133 0.14800000190734863,-30.099000930786133 C9.79800033569336,-30.099000930786133 15.118000030517578,-22.27899932861328 15.118000030517578,-12.628999710083008 C15.118000030517578,-12.628999710083008 15.118000030517578,12.569000244140625 15.118000030517578,12.569000244140625 C15.118000030517578,22.2189998626709 9.79800033569336,30.038999557495117 0.14800000190734863,30.038999557495117 C0.14800000190734863,30.038999557495117 -0.15199999511241913,30.038999557495117 -0.15199999511241913,30.038999557495117 C-9.802000045776367,30.038999557495117 -15.121999740600586,22.2189998626709 -15.121999740600586,12.569000244140625 C-15.121999740600586,12.569000244140625 -15.121999740600586,-12.628999710083008 -15.121999740600586,-12.628999710083008 C-15.121999740600586,-22.27899932861328 -9.802000045776367,-30.099000930786133 -0.15199999511241913,-30.099000930786133z" stroke-width="5.138" stroke-opacity="1" stroke="rgb(176,108,45)" stroke-miterlimit="4" fill-opacity="0" stroke-linejoin="miter" stroke-linecap="butt"></path></g></g><g style="display: block;" opacity="1" transform="matrix(1,0,0,1,370.54901123046875,287.5350036621094)"><g transform="matrix(4,0,0,4,0,0)" opacity="1"><path d="M0.004999999888241291,-12.418999671936035 C2.434999942779541,-12.418999671936035 4.40500020980835,-10.449000358581543 4.40500020980835,-8.008999824523926 C4.40500020980835,-8.008999824523926 4.40500020980835,8.01099967956543 4.40500020980835,8.01099967956543 C4.40500020980835,10.440999984741211 2.434999942779541,12.420999526977539 0.004999999888241291,12.420999526977539 C-2.434999942779541,12.420999526977539 -4.40500020980835,10.440999984741211 -4.40500020980835,8.01099967956543 C-4.40500020980835,8.01099967956543 -4.40500020980835,-8.008999824523926 -4.40500020980835,-8.008999824523926 C-4.40500020980835,-10.449000358581543 -2.434999942779541,-12.418999671936035 0.004999999888241291,-12.418999671936035z" fill-opacity="1" fill="rgb(255,207,145)"></path></g></g><g style="display: block;" opacity="1" transform="matrix(1,0,0,-1,199.27200317382812,108.78799438476562)"><g transform="matrix(2.7279934883117676,2.925414800643921,-2.925414800643921,2.7279934883117676,0,0)" opacity="1"><path d="M-0.003000000026077032,10.711999893188477 C1.3270000219345093,10.711999893188477 6.7870001792907715,5.061999797821045 6.706999778747559,0.0820000022649765 C6.626999855041504,-4.8979997634887695 1.1670000553131104,-10.708000183105469 -0.003000000026077032,-10.708000183105469 C-1.1629999876022339,-10.708000183105469 -6.692999839782715,-4.978000164031982 -6.703000068664551,0.0820000022649765 C-6.7129998207092285,5.142000198364258 -1.3229999542236328,10.711999893188477 -0.003000000026077032,10.711999893188477z" fill-opacity="1" fill="rgb(61,137,11)"></path></g></g></g><g style="display: block;" opacity="1" transform="matrix(0.9996886253356934,0.024954097345471382,-0.024954097345471382,0.9996886253356934,343.5746154785156,30.19599151611328)"><g transform="matrix(1,0,0,1,244.8520050048828,-118.81400299072266)" opacity="1"><path d="M300,0 C300,0 300,0 300,0 C300,41.39250183105469 266.3924865722656,75 225,75 C225,75 -225,75 -225,75 C-266.3924865722656,75 -300,41.39250183105469 -300,0 C-300,0 -300,0 -300,0 C-300,-41.39250183105469 -266.3924865722656,-75 -225,-75 C-225,-75 225,-75 225,-75 C266.3924865722656,-75 300,-41.39250183105469 300,0z" fill-opacity="1" fill="rgb(214,214,214)"></path><path d="M300,0 C300,0 300,0 300,0 C300,41.39250183105469 266.3924865722656,75 225,75 C225,75 -225,75 -225,75 C-266.3924865722656,75 -300,41.39250183105469 -300,0 C-300,0 -300,0 -300,0 C-300,-41.39250183105469 -266.3924865722656,-75 -225,-75 C-225,-75 225,-75 225,-75 C266.3924865722656,-75 300,-41.39250183105469 300,0z" stroke-width="20" stroke-opacity="1" stroke="rgb(59,59,59)" stroke-miterlimit="4" fill-opacity="0" stroke-linejoin="miter" stroke-linecap="butt"></path></g></g><g style="display: block;" opacity="1" transform="matrix(0.8191520571708679,0.5735764503479004,-0.5735764503479004,0.8191520571708679,268.5440673828125,214.840087890625)" clip-path="url(#__lottie_element_11816)"><g style="display: block;" opacity="1" transform="matrix(1,0,0,1,623,289.6050109863281)"><g transform="matrix(4,0,0,4,0,0)" opacity="1"><path d="M-64.18800354003906,-32.547000885009766 C-64.18800354003906,-32.547000885009766 216,-32.763999938964844 216,-32.763999938964844 C226.22000122070312,-32.763999938964844 234.5,-24.483999252319336 234.5,-14.263999938964844 C234.5,-14.263999938964844 234.5,13.935999870300293 234.5,13.935999870300293 C234.5,24.1560001373291 226.22000122070312,32.43600082397461 216,32.43600082397461 C216,32.43600082397461 -64.18800354003906,32.65299987792969 -64.18800354003906,32.65299987792969 C-74.40799713134766,32.65299987792969 -81.81199645996094,24.37299919128418 -81.81199645996094,14.152999877929688 C-81.81199645996094,14.152999877929688 -81.81199645996094,-14.04699993133545 -81.81199645996094,-14.04699993133545 C-81.81199645996094,-24.267000198364258 -74.40799713134766,-32.547000885009766 -64.18800354003906,-32.547000885009766z" fill-opacity="1" fill="rgb(137,86,38)"></path></g></g><g style="display: block;" mask="url(#__lottie_element_11819)"><g opacity="1" transform="matrix(1,0,0,1,270,270)"><g transform="matrix(1,0,0,1,0,0)" opacity="1"><path d="M-28.25,91.75 C-28.25,91.75 112.875,91.5 112.875,91.5" fill-opacity="1" fill="rgb(214,214,214)"></path><path d="M-28.25,91.75 C-28.25,91.75 112.875,91.5 112.875,91.5" stroke-width="26" stroke-opacity="1" stroke="rgb(126,77,32)" stroke-miterlimit="4" fill-opacity="0" stroke-linejoin="miter" stroke-linecap="round"></path></g><g transform="matrix(1,0,0,1,0,0)" opacity="1"><path d="M-74.75,50.8120002746582 C-74.75,50.8120002746582 66.375,50.5620002746582 66.375,50.5620002746582" fill-opacity="1" fill="rgb(214,214,214)"></path><path d="M-74.75,50.8120002746582 C-74.75,50.8120002746582 66.375,50.5620002746582 66.375,50.5620002746582" stroke-width="26" stroke-opacity="1" stroke="rgb(126,77,32)" stroke-miterlimit="4" fill-opacity="0" stroke-linejoin="miter" stroke-linecap="round"></path></g><g transform="matrix(1,0,0,1,0,0)" opacity="1"><path d="M-207.25,-11.25 C-207.25,-11.25 -66.125,-11.5 -66.125,-11.5" fill-opacity="1" fill="rgb(214,214,214)"></path><path d="M-207.25,-11.25 C-207.25,-11.25 -66.125,-11.5 -66.125,-11.5" stroke-width="26" stroke-opacity="1" stroke="rgb(126,77,32)" stroke-miterlimit="4" fill-opacity="0" stroke-linejoin="miter" stroke-linecap="round"></path></g></g></g></g><g style="display: block;" opacity="1" transform="matrix(1,0,0,1,513,0)" clip-path="url(#__lottie_element_11788)"><g style="display: block;" opacity="1" transform="matrix(1,0,0,1,270,289.6050109863281)"><g transform="matrix(4,0,0,4,0,0)" opacity="1"><path d="M-24,-32.5989990234375 C-24,-32.5989990234375 24,-32.5989990234375 24,-32.5989990234375 C34.220001220703125,-32.5989990234375 42.5,-24.319000244140625 42.5,-14.098999977111816 C42.5,-14.098999977111816 42.5,14.10099983215332 42.5,14.10099983215332 C42.5,24.320999145507812 34.220001220703125,32.60100173950195 24,32.60100173950195 C24,32.60100173950195 -24,32.60100173950195 -24,32.60100173950195 C-34.220001220703125,32.60100173950195 -42.5,24.320999145507812 -42.5,14.10099983215332 C-42.5,14.10099983215332 -42.5,-14.098999977111816 -42.5,-14.098999977111816 C-42.5,-24.319000244140625 -34.220001220703125,-32.5989990234375 -24,-32.5989990234375z" fill-opacity="1" fill="rgb(137,86,38)"></path></g></g><g style="display: block;" opacity="0.8200000000000001" transform="matrix(1,0,0,1,158.0489959716797,258.5580139160156)"><g transform="matrix(4,0,0,4,0,0)" opacity="1"><path d="M-14.51200008392334,-3.1050000190734863 C-14.51200008392334,-3.1050000190734863 11.407999992370605,-3.1050000190734863 11.407999992370605,-3.1050000190734863 C13.118000030517578,-3.1050000190734863 14.508000373840332,-1.715000033378601 14.508000373840332,-0.004999999888241291 C14.508000373840332,1.715000033378601 13.118000030517578,3.1050000190734863 11.407999992370605,3.1050000190734863 C11.407999992370605,3.1050000190734863 -14.51200008392334,3.1050000190734863 -14.51200008392334,3.1050000190734863 C-14.51200008392334,3.1050000190734863 -14.51200008392334,-3.1050000190734863 -14.51200008392334,-3.1050000190734863z" fill-opacity="1" fill="rgb(123,75,31)"></path></g></g><g style="display: block;" opacity="0.8200000000000001" transform="matrix(1,0,0,1,240.9759979248047,320.6510009765625)"><g transform="matrix(4,0,0,4,0,0)" opacity="1"><path d="M14.508000373840332,-3.1050000190734863 C14.508000373840332,-3.1050000190734863 14.508000373840332,3.1050000190734863 14.508000373840332,3.1050000190734863 C14.508000373840332,3.1050000190734863 -11.411999702453613,3.1050000190734863 -11.411999702453613,3.1050000190734863 C-13.121999740600586,3.1050000190734863 -14.51200008392334,1.715000033378601 -14.51200008392334,-0.004999999888241291 C-14.51200008392334,-1.715000033378601 -13.121999740600586,-3.1050000190734863 -11.411999702453613,-3.1050000190734863 C-11.411999702453613,-3.1050000190734863 14.508000373840332,-3.1050000190734863 14.508000373840332,-3.1050000190734863z" fill-opacity="1" fill="rgb(123,75,31)"></path></g></g><g style="display: block;" opacity="0.8200000000000001" transform="matrix(1,0,0,1,272.072998046875,362.0469970703125)"><g transform="matrix(4,0,0,4,0,0)" opacity="1"><path d="M10.88599967956543,-3.1050000190734863 C10.88599967956543,-3.1050000190734863 10.88599967956543,3.1050000190734863 10.88599967956543,3.1050000190734863 C10.88599967956543,3.1050000190734863 -7.783999919891357,3.1050000190734863 -7.783999919891357,3.1050000190734863 C-9.494000434875488,3.1050000190734863 -10.883999824523926,1.715000033378601 -10.883999824523926,-0.004999999888241291 C-10.883999824523926,-1.715000033378601 -9.494000434875488,-3.1050000190734863 -7.783999919891357,-3.1050000190734863 C-7.783999919891357,-3.1050000190734863 10.88599967956543,-3.1050000190734863 10.88599967956543,-3.1050000190734863z" fill-opacity="1" fill="rgb(123,75,31)"></path></g></g><g style="display: block;" opacity="1" transform="matrix(1,0,0,1,262.02301025390625,155.07000732421875)"><g transform="matrix(4,0,0,4,0,0)" opacity="1"><path d="M3.005000114440918,-8.279000282287598 C3.005000114440918,-8.279000282287598 9.265000343322754,-8.279000282287598 9.265000343322754,-8.279000282287598 C10.404999732971191,-8.279000282287598 11.324999809265137,-7.359000205993652 11.324999809265137,-6.218999862670898 C11.324999809265137,-5.979000091552734 11.274999618530273,-5.729000091552734 11.194999694824219,-5.499000072479248 C11.194999694824219,-5.499000072479248 6.514999866485596,6.951000213623047 6.514999866485596,6.951000213623047 C6.215000152587891,7.750999927520752 5.445000171661377,8.281000137329102 4.585000038146973,8.281000137329102 C4.585000038146973,8.281000137329102 -9.265000343322754,8.281000137329102 -9.265000343322754,8.281000137329102 C-10.404999732971191,8.281000137329102 -11.324999809265137,7.361000061035156 -11.324999809265137,6.2210001945495605 C-11.324999809265137,5.681000232696533 -11.114999771118164,5.160999774932861 -10.734999656677246,4.781000137329102 C-10.734999656677246,4.781000137329102 1.534999966621399,-7.669000148773193 1.534999966621399,-7.669000148773193 C1.9249999523162842,-8.059000015258789 2.4549999237060547,-8.279000282287598 3.005000114440918,-8.279000282287598z" fill-opacity="1" fill="rgb(137,86,38)"></path></g></g><g style="display: block;" opacity="1" transform="matrix(1,0,0,1,369.5119934082031,289.6050109863281)"><g transform="matrix(4,0,0,4,0,0)" opacity="1"><path d="M-0.15199999511241913,-30.099000930786133 C-0.15199999511241913,-30.099000930786133 0.14800000190734863,-30.099000930786133 0.14800000190734863,-30.099000930786133 C9.79800033569336,-30.099000930786133 15.118000030517578,-22.27899932861328 15.118000030517578,-12.628999710083008 C15.118000030517578,-12.628999710083008 15.118000030517578,12.569000244140625 15.118000030517578,12.569000244140625 C15.118000030517578,22.2189998626709 9.79800033569336,30.038999557495117 0.14800000190734863,30.038999557495117 C0.14800000190734863,30.038999557495117 -0.15199999511241913,30.038999557495117 -0.15199999511241913,30.038999557495117 C-9.802000045776367,30.038999557495117 -15.121999740600586,22.2189998626709 -15.121999740600586,12.569000244140625 C-15.121999740600586,12.569000244140625 -15.121999740600586,-12.628999710083008 -15.121999740600586,-12.628999710083008 C-15.121999740600586,-22.27899932861328 -9.802000045776367,-30.099000930786133 -0.15199999511241913,-30.099000930786133z" fill-opacity="1" fill="rgb(242,184,107)"></path><path d="M-0.15199999511241913,-30.099000930786133 C-0.15199999511241913,-30.099000930786133 0.14800000190734863,-30.099000930786133 0.14800000190734863,-30.099000930786133 C9.79800033569336,-30.099000930786133 15.118000030517578,-22.27899932861328 15.118000030517578,-12.628999710083008 C15.118000030517578,-12.628999710083008 15.118000030517578,12.569000244140625 15.118000030517578,12.569000244140625 C15.118000030517578,22.2189998626709 9.79800033569336,30.038999557495117 0.14800000190734863,30.038999557495117 C0.14800000190734863,30.038999557495117 -0.15199999511241913,30.038999557495117 -0.15199999511241913,30.038999557495117 C-9.802000045776367,30.038999557495117 -15.121999740600586,22.2189998626709 -15.121999740600586,12.569000244140625 C-15.121999740600586,12.569000244140625 -15.121999740600586,-12.628999710083008 -15.121999740600586,-12.628999710083008 C-15.121999740600586,-22.27899932861328 -9.802000045776367,-30.099000930786133 -0.15199999511241913,-30.099000930786133z" stroke-width="5.138" stroke-opacity="1" stroke="rgb(176,108,45)" stroke-miterlimit="4" fill-opacity="0" stroke-linejoin="miter" stroke-linecap="butt"></path></g></g><g style="display: block;" opacity="1" transform="matrix(1,0,0,1,370.54901123046875,287.5350036621094)"><g transform="matrix(4,0,0,4,0,0)" opacity="1"><path d="M0.004999999888241291,-12.418999671936035 C2.434999942779541,-12.418999671936035 4.40500020980835,-10.449000358581543 4.40500020980835,-8.008999824523926 C4.40500020980835,-8.008999824523926 4.40500020980835,8.01099967956543 4.40500020980835,8.01099967956543 C4.40500020980835,10.440999984741211 2.434999942779541,12.420999526977539 0.004999999888241291,12.420999526977539 C-2.434999942779541,12.420999526977539 -4.40500020980835,10.440999984741211 -4.40500020980835,8.01099967956543 C-4.40500020980835,8.01099967956543 -4.40500020980835,-8.008999824523926 -4.40500020980835,-8.008999824523926 C-4.40500020980835,-10.449000358581543 -2.434999942779541,-12.418999671936035 0.004999999888241291,-12.418999671936035z" fill-opacity="1" fill="rgb(255,207,145)"></path></g></g><g style="display: block;" opacity="1" transform="matrix(1,0,0,-1,199.27200317382812,108.78799438476562)"><g transform="matrix(2.7279934883117676,2.925414800643921,-2.925414800643921,2.7279934883117676,0,0)" opacity="1"><path d="M-0.003000000026077032,10.711999893188477 C1.3270000219345093,10.711999893188477 6.7870001792907715,5.061999797821045 6.706999778747559,0.0820000022649765 C6.626999855041504,-4.8979997634887695 1.1670000553131104,-10.708000183105469 -0.003000000026077032,-10.708000183105469 C-1.1629999876022339,-10.708000183105469 -6.692999839782715,-4.978000164031982 -6.703000068664551,0.0820000022649765 C-6.7129998207092285,5.142000198364258 -1.3229999542236328,10.711999893188477 -0.003000000026077032,10.711999893188477z" fill-opacity="1" fill="rgb(61,137,11)"></path></g></g></g><g style="display: block;" opacity="1" transform="matrix(1,0,0,1,513,0.105010986328125)" clip-path="url(#__lottie_element_11775)"><g style="display: block;" opacity="1" transform="matrix(1,0,0,1,623,289.6050109863281)"><g transform="matrix(4,0,0,4,0,0)" opacity="1"><path d="M-64.18800354003906,-32.547000885009766 C-64.18800354003906,-32.547000885009766 216,-32.763999938964844 216,-32.763999938964844 C226.22000122070312,-32.763999938964844 234.5,-24.483999252319336 234.5,-14.263999938964844 C234.5,-14.263999938964844 234.5,13.935999870300293 234.5,13.935999870300293 C234.5,24.1560001373291 226.22000122070312,32.43600082397461 216,32.43600082397461 C216,32.43600082397461 -64.18800354003906,32.65299987792969 -64.18800354003906,32.65299987792969 C-74.40799713134766,32.65299987792969 -81.81199645996094,24.37299919128418 -81.81199645996094,14.152999877929688 C-81.81199645996094,14.152999877929688 -81.81199645996094,-14.04699993133545 -81.81199645996094,-14.04699993133545 C-81.81199645996094,-24.267000198364258 -74.40799713134766,-32.547000885009766 -64.18800354003906,-32.547000885009766z" fill-opacity="1" fill="rgb(137,86,38)"></path></g></g><g style="display: block;" mask="url(#__lottie_element_11778)"><g opacity="1" transform="matrix(1,0,0,1,270,270)"><g transform="matrix(1,0,0,1,0,0)" opacity="1"><path d="M-28.25,91.75 C-28.25,91.75 112.875,91.5 112.875,91.5" fill-opacity="1" fill="rgb(214,214,214)"></path><path d="M-28.25,91.75 C-28.25,91.75 112.875,91.5 112.875,91.5" stroke-width="26" stroke-opacity="1" stroke="rgb(126,77,32)" stroke-miterlimit="4" fill-opacity="0" stroke-linejoin="miter" stroke-linecap="round"></path></g><g transform="matrix(1,0,0,1,0,0)" opacity="1"><path d="M-74.75,50.8120002746582 C-74.75,50.8120002746582 66.375,50.5620002746582 66.375,50.5620002746582" fill-opacity="1" fill="rgb(214,214,214)"></path><path d="M-74.75,50.8120002746582 C-74.75,50.8120002746582 66.375,50.5620002746582 66.375,50.5620002746582" stroke-width="26" stroke-opacity="1" stroke="rgb(126,77,32)" stroke-miterlimit="4" fill-opacity="0" stroke-linejoin="miter" stroke-linecap="round"></path></g><g transform="matrix(1,0,0,1,0,0)" opacity="1"><path d="M-207.25,-11.25 C-207.25,-11.25 -66.125,-11.5 -66.125,-11.5" fill-opacity="1" fill="rgb(214,214,214)"></path><path d="M-207.25,-11.25 C-207.25,-11.25 -66.125,-11.5 -66.125,-11.5" stroke-width="26" stroke-opacity="1" stroke="rgb(126,77,32)" stroke-miterlimit="4" fill-opacity="0" stroke-linejoin="miter" stroke-linecap="round"></path></g></g></g></g></g></g></svg>